<svg id="Layer_1" data-name="Layer 1" xmlns="http://www.w3.org/2000/svg" viewBox="0 0 1366 626.223">
  <defs>
    <style>
      .cls-1 {
        fill: #682ed8;
      }
    </style>
  </defs>
  <title>bg</title>
  <path class="cls-1" d="M80,681c41.475,0,78.01,13.855,113.886,33.3,2.019,1.094,4.154,2.219,6.451,2.181a13.5,13.5,0,0,0,5.655-1.842C242.859,696.2,278.913,681,321,681c41.406,0,78.712,15.6,115.292,33.384a14.69,14.69,0,0,0,5.577,1.836c2.862.138,5.508-1.383,7.989-2.816C483.887,693.764,522.46,681,562,681c41.91,0,77.8,14.479,114.317,33.345a12.918,12.918,0,0,0,4.862,1.732c2.152.156,4.219-.766,6.18-1.667C724.76,697.215,760.921,681,803,681c42.263,0,78.483,13.819,114.952,33.675a11.7,11.7,0,0,0,4.694,1.736c2,.13,3.9-.762,5.7-1.633C965.561,696.782,1001.764,681,1044,681c42.739,0,78.789,14.246,115.753,34.024a7.235,7.235,0,0,0,8.735.239C1206.015,695.715,1241.783,681,1285,681a210.717,210.717,0,0,1,81,16.228V109.772A210.717,210.717,0,0,1,1285,126a210.976,210.976,0,0,1-67.171-11.023c-16.629-5.594-31.642-14.319-47.195-22.5-1.853-.974-3.8-1.973-5.894-1.967a12.982,12.982,0,0,0-5.65,1.827C1122.108,111,1086.3,126,1044,126c-41.609,0-77-15.893-114.111-32.626-2.3-1.037-4.685-2.093-7.208-2.1-2.881-.008-5.568,1.348-8.127,2.673C879.206,112.241,843.5,126,803,126c-42.757,0-78.339-14.2-115.406-33.749-1.854-.977-3.829-1.983-5.921-1.852a11.545,11.545,0,0,0-4.618,1.687C640.725,111.646,603.978,126,562,126c-41.9,0-78.175-15.158-114.883-33.573a13.378,13.378,0,0,0-5.21-1.763c-2.287-.111-4.449.947-6.493,1.979C399.085,110.977,362.45,126,321,126c-41.612,0-77.084-16.037-114.3-32.539-2.37-1.051-4.859-2.124-7.445-1.951a16.123,16.123,0,0,0-5.69,1.869C157.01,110.689,121.284,126,80,126A210.651,210.651,0,0,1,0,110.182V696.818A210.65,210.65,0,0,1,80,681Z" transform="translate(0 -90.387)"/>
</svg>
