<svg xmlns="http://www.w3.org/2000/svg" viewBox="0 0 488.694 425.369">
  <defs>
    <style>
      .cls-1 {
        fill: #db8e2f;
      }

      .cls-2, .cls-28, .cls-32, .cls-45, .cls-5, .cls-51, .cls-54, .cls-56, .cls-7 {
        fill: #341d14;
      }

      .cls-3 {
        fill: #e8c59d;
      }

      .cls-4 {
        fill: #714019;
      }

      .cls-5 {
        opacity: 0.27;
      }

      .cls-6 {
        fill: #e7b3a5;
      }

      .cls-62, .cls-7 {
        opacity: 0.16;
      }

      .cls-8 {
        fill: #895714;
      }

      .cls-10, .cls-59, .cls-9 {
        fill: #e1768b;
      }

      .cls-9 {
        opacity: 0.5;
      }

      .cls-10 {
        opacity: 0.68;
      }

      .cls-11 {
        fill: #d27985;
      }

      .cls-12 {
        fill: #452a14;
      }

      .cls-13 {
        fill: #f4ffd8;
      }

      .cls-14 {
        fill: #efc546;
      }

      .cls-15, .cls-29, .cls-69 {
        fill: #f3edbf;
      }

      .cls-15 {
        opacity: 0.4;
      }

      .cls-16 {
        fill: #795714;
      }

      .cls-17 {
        fill: #a08c21;
      }

      .cls-18 {
        fill: #cfb537;
      }

      .cls-19 {
        fill: #bda22a;
      }

      .cls-20 {
        fill: #885213;
      }

      .cls-21 {
        fill: #bc7326;
      }

      .cls-22 {
        fill: #7e4917;
      }

      .cls-23 {
        fill: #6c3d13;
      }

      .cls-24 {
        fill: #58320f;
      }

      .cls-25 {
        fill: #ac998b;
      }

      .cls-26 {
        fill: #947865;
      }

      .cls-27 {
        fill: #c4b19c;
      }

      .cls-28 {
        opacity: 0.17;
      }

      .cls-29 {
        opacity: 0.25;
      }

      .cls-30, .cls-47, .cls-66 {
        fill: #e3d4c0;
      }

      .cls-30 {
        opacity: 0.86;
      }

      .cls-31, .cls-46, .cls-48 {
        fill: none;
      }

      .cls-31, .cls-48 {
        stroke: #b7a293;
        stroke-miterlimit: 10;
      }

      .cls-31 {
        stroke-width: 0.834px;
      }

      .cls-32 {
        opacity: 0.29;
      }

      .cls-33 {
        fill: #aa624a;
      }

      .cls-34 {
        fill: #ebaf98;
      }

      .cls-35 {
        fill: #5b2b16;
      }

      .cls-36 {
        fill: #35577d;
      }

      .cls-37 {
        fill: #5f8bc7;
      }

      .cls-38 {
        fill: #4d7ab1;
      }

      .cls-39 {
        fill: #edbb2c;
      }

      .cls-40 {
        fill: #516818;
      }

      .cls-41 {
        fill: #8eba94;
      }

      .cls-42 {
        fill: #b3e1bb;
      }

      .cls-43 {
        fill: #f3f3f3;
      }

      .cls-44 {
        fill: #eae6dc;
      }

      .cls-45 {
        opacity: 0.07;
      }

      .cls-46 {
        stroke: #222221;
        stroke-linecap: round;
        stroke-linejoin: round;
        stroke-width: 0.625px;
      }

      .cls-47 {
        opacity: 0.87;
      }

      .cls-48 {
        stroke-width: 1.668px;
      }

      .cls-49 {
        fill: #d8e4f0;
      }

      .cls-50 {
        fill: #e8f9ff;
      }

      .cls-51 {
        opacity: 0.41;
      }

      .cls-52 {
        fill: #e3f7ff;
      }

      .cls-53 {
        fill: #c2814f;
      }

      .cls-54 {
        opacity: 0.3;
      }

      .cls-55 {
        fill: #a36737;
      }

      .cls-56 {
        opacity: 0.15;
      }

      .cls-57 {
        fill: #fff;
      }

      .cls-58, .cls-64 {
        fill: #915318;
      }

      .cls-58, .cls-69 {
        opacity: 0.1;
      }

      .cls-59 {
        opacity: 0.56;
      }

      .cls-60 {
        fill: #663012;
      }

      .cls-61 {
        fill: #9ccaa4;
      }

      .cls-63 {
        fill: #cda579;
      }

      .cls-65 {
        fill: #382d1d;
      }

      .cls-67 {
        fill: #b7a293;
      }

      .cls-68 {
        opacity: 0.61;
      }

      .cls-70 {
        opacity: 0.44;
      }
    </style>
  </defs>
  <title>bg2</title>
  <g id="OBJECTS">
    <path id="_Path_" data-name="&lt;Path&gt;" class="cls-1" d="M104.108,429.552c.037.055,0,.073-.147.092C103.8,429.663,103.851,429.626,104.108,429.552Z" transform="translate(-6.306 -46.624)"/>
    <g id="_Group_" data-name="&lt;Group&gt;">
      <path id="_Path_2" data-name="&lt;Path&gt;" class="cls-2" d="M453.489,330.478c-7.2,13.752-26,39.812-37.323,48.8-78.337,62.128-182.075,58.115-182.075,58.115s-130.322-3.224-201.04-120.763a193.8,193.8,0,0,1-22.718-56.469c-24.772-108,68.307-239.63,181.107-209.036,133.1,36.1,86.659,84.8,188.557,67.165C467.183,103.208,496.011,249.091,453.489,330.478Z" transform="translate(-6.306 -46.624)"/>
      <g id="_Group_2" data-name="&lt;Group&gt;">
        <path id="_Path_3" data-name="&lt;Path&gt;" class="cls-3" d="M176.947,262.668a41.582,41.582,0,0,1-21.527,10.289A44.22,44.22,0,0,1,134.047,271c1.96-23.777,2.511-16.642.98-35.872-.9-11.376-11.269-23.44-12.6-37.6a27.7,27.7,0,0,1-.138-3.92c.49-15.877,11.758-19.674,11.758-19.674s.735,3.69,7.364,6.629a16.6,16.6,0,0,1,8.482,8.1l.092.23s3.705-8.069.628-14.652l.107-.046A31.189,31.189,0,0,1,163.352,188.7c2.97,6.66,4.409,14.959,4.532,24.971C168.129,233.073,176.947,262.668,176.947,262.668Z" transform="translate(-6.306 -46.624)"/>
        <path id="_Path_4" data-name="&lt;Path&gt;" class="cls-4" d="M134.741,268.054l44.366-3.256,4.719,53.749-49.085-4.662S126.628,280.423,134.741,268.054Z" transform="translate(-6.306 -46.624)"/>
        <path id="_Path_5" data-name="&lt;Path&gt;" class="cls-5" d="M155.421,272.957c16.76-81.445-5.435-84.07-5.435-84.07s3.705-8.069.628-14.652l.107-.046A31.189,31.189,0,0,1,163.352,188.7c2.97,6.66,4.409,14.959,4.532,24.971.245,19.4,9.064,48.994,9.064,48.994A41.582,41.582,0,0,1,155.421,272.957Z" transform="translate(-6.306 -46.624)"/>
        <path id="_Path_6" data-name="&lt;Path&gt;" class="cls-6" d="M149.986,188.887a16.259,16.259,0,0,0-8.574-8.329c-6.63-2.94-7.364-6.629-7.364-6.629s4.808,6.262,13.611,3.2a18.112,18.112,0,0,0,2.327-.98s.214-.949.49-2.22c.046.107.092.2.138.306C153.691,180.818,149.986,188.887,149.986,188.887Z" transform="translate(-6.306 -46.624)"/>
        <path id="_Path_7" data-name="&lt;Path&gt;" class="cls-6" d="M151.716,168.018l-.015.092c-.153.949-.766,3.782-1.225,5.818-.276,1.271-.49,2.22-.49,2.22a18.112,18.112,0,0,1-2.327.98c-8.8,3.062-13.611-3.2-13.611-3.2a18.7,18.7,0,0,0,2.848-11.269,12.714,12.714,0,0,0-.383-2.465,7.351,7.351,0,0,0,.689,1.01C140.248,165.4,145.806,167.559,151.716,168.018Z" transform="translate(-6.306 -46.624)"/>
        <path id="_Path_8" data-name="&lt;Path&gt;" class="cls-6" d="M176.95,136.725a67.287,67.287,0,0,1-1.818,13.845c-.275,1.157-.606,2.314-.973,3.452a30.207,30.207,0,0,1-2.552,5.821,13.929,13.929,0,0,1-7.161,6.555,31.269,31.269,0,0,1-12.725,1.616c-6.372-.477-12.339-2.956-15.2-7.822a14.03,14.03,0,0,1-1.744-8.63s-8.924-.239-6.115-8.593c2.791-8.244,9.309-4.572,10.3-3.838.79.588.955-.055,2.552-2.626v-.018q.551-.881,1.377-2.093c2.956-4.37,6.243-5.27,9.86-2.479,3.6,2.809,6.3,2.607,9.493,0,3.195-2.589,6.133-3.085,8.336.606A9.441,9.441,0,0,0,176.95,136.725Z" transform="translate(-6.306 -46.624)"/>
        <path id="_Path_9" data-name="&lt;Path&gt;" class="cls-7" d="M176.947,136.724a68.161,68.161,0,0,1-1.807,13.841c-1.638,6.691-4.746,13.718-10.687,15.831a31.536,31.536,0,0,1-12.738,1.623c10.963-4.153,7.637-11.941,11.372-17.775,5.52-8.623,1.166-13.641-1.573-14.025-3.586-.5-9.232.551-11.912-1.99-2.664-2.542-8.1,2.281-8.1,2.281v-.015c.383-.6.827-1.286,1.378-2.1,2.97-4.379,6.247-5.267,9.86-2.48,3.613,2.8,6.308,2.6,9.493,0,3.2-2.588,6.14-3.093,8.344.6A9.451,9.451,0,0,0,176.947,136.724Z" transform="translate(-6.306 -46.624)"/>
        <g id="_Group_3" data-name="&lt;Group&gt;">
          <path id="_Path_10" data-name="&lt;Path&gt;" class="cls-8" d="M178.632,150.932a9.794,9.794,0,0,0-.459,2.664c-.245,6.614-3.675,7.349-6.339,11.268-2.679,3.92-.521,6.369-.031,13.121.49,6.737-8.451,10.717-8.451,10.717a31.189,31.189,0,0,0-12.631-14.514l-.107.046c-.046-.107-.092-.2-.138-.306.459-2.036,1.072-4.869,1.225-5.818l.015-.092a31.536,31.536,0,0,0,12.738-1.623c5.94-2.113,9.049-9.14,10.687-15.831Z" transform="translate(-6.306 -46.624)"/>
          <path id="_Path_11" data-name="&lt;Path&gt;" class="cls-8" d="M178.632,150.932l-3.491-.367a68.161,68.161,0,0,0,1.807-13.841A9.56,9.56,0,0,1,170.9,133c-.107-.153-.214-.322-.322-.49-2.2-3.69-5.144-3.185-8.344-.6-3.184,2.6-5.879,2.8-9.493,0-3.613-2.787-6.89-1.9-9.86,2.48-2.94,4.3-2.94,5.466-3.92,4.731-1-.735-7.517-4.409-10.3,3.843-2.8,8.359,6.124,8.589,6.124,8.589a13.962,13.962,0,0,0,1.73,8.635,18.1,18.1,0,0,1-2.465,13.734s-11.268,3.8-11.758,19.674a27.7,27.7,0,0,0,.138,3.92c-5.251.628-8.957-.658-11.513-2.909l-.015-.015c-5.527-4.853-5.711-14.223-4.547-18.694,1.715-6.63,5.879-8.344,5.389-9.508-.49-1.179-3.92-6.92,1.73-14.836,5.634-7.931.98-9-1.73-15.77-2.695-6.767,1.24-12.34,6.139-18.587s7.839-6.507,10.656-7.2c2.817-.674,6.982.444,7.962-1.837a3.648,3.648,0,0,1,2.955-2.373c23.762-8.574,21.312,3.43,32.841,9.309,11.514,5.879,10.534,13.979,11.514,21.619C184.649,143.261,180.117,146.109,178.632,150.932Z" transform="translate(-6.306 -46.624)"/>
        </g>
        <path id="_Path_12" data-name="&lt;Path&gt;" class="cls-5" d="M178.632,150.932a9.794,9.794,0,0,0-.459,2.664c-.245,6.614-3.675,7.349-6.339,11.268-2.679,3.92-.521,6.369-.031,13.121.49,6.737-8.451,10.717-8.451,10.717a31.189,31.189,0,0,0-12.631-14.514l-.107.046c-.046-.107-.092-.2-.138-.306.459-2.036,1.072-4.869,1.225-5.818l.015-.092a31.536,31.536,0,0,0,12.738-1.623c5.94-2.113,9.049-9.14,10.687-15.831a68.161,68.161,0,0,0,1.807-13.841A9.56,9.56,0,0,1,170.9,133c.857-5.359.23-9.431-2.771-10.381-9.937-3.169-9.6-10.993-21.006-8.36-11.422,2.649-13.223,2.7-16.606,2.04s-19.45,6.044-15.622,16.669,3.445,17.7,0,21.649c-3.445,3.966,2.3,9.829-3.981,18.878-6.155,8.865-.26,20.608-.015,21.1-5.527-4.853-5.711-14.223-4.547-18.694,1.715-6.63,5.879-8.344,5.389-9.508-.49-1.179-3.92-6.92,1.73-14.836,5.634-7.931.98-9-1.73-15.77-2.695-6.767,1.24-12.34,6.139-18.587s7.839-6.507,10.656-7.2c2.817-.674,6.982.444,7.962-1.837a3.648,3.648,0,0,1,2.955-2.373c23.762-8.574,21.312,3.43,32.841,9.309,11.514,5.879,10.534,13.979,11.514,21.619C184.649,143.261,180.117,146.109,178.632,150.932Z" transform="translate(-6.306 -46.624)"/>
        <ellipse id="_Path_13" data-name="&lt;Path&gt;" class="cls-9" cx="144.842" cy="151.291" rx="3.136" ry="5.634" transform="translate(-40.09 214.033) rotate(-77.725)"/>
        <path id="_Path_14" data-name="&lt;Path&gt;" class="cls-10" d="M174.159,154.021a30.207,30.207,0,0,1-2.552,5.821c-2.773-.753-4.682-2.534-4.333-4.131.367-1.689,3.14-2.534,6.17-1.873C173.682,153.893,173.921,153.948,174.159,154.021Z" transform="translate(-6.306 -46.624)"/>
        <path id="_Path_15" data-name="&lt;Path&gt;" class="cls-11" d="M164.454,158.25a4.293,4.293,0,0,1-4.44,1.026c-1.317-.6-2.159-2.327-1.118-6.262,1.5-5.7,3.43-6.859,4.578-7a1.7,1.7,0,0,1,.98.138s1.47-.153,0,2.833C162.77,152.371,165.434,156.78,164.454,158.25Z" transform="translate(-6.306 -46.624)"/>
        <g id="_Group_4" data-name="&lt;Group&gt;">
          <path class="cls-12" d="M157.19,163.943a20.208,20.208,0,0,1-2.957-.209,15.407,15.407,0,0,1-2.908-.685A8.553,8.553,0,0,1,148.6,161.6a5.6,5.6,0,0,1-1.836-2.683.711.711,0,1,1,1.36-.413l.007.025.007.028a4.247,4.247,0,0,0,1.288,2.073,7.373,7.373,0,0,0,2.292,1.361,17.4,17.4,0,0,0,5.471,1.116h.02a.417.417,0,0,1-.02.833Z" transform="translate(-6.306 -46.624)"/>
        </g>
        <g id="_Group_5" data-name="&lt;Group&gt;">
          <ellipse id="_Path_16" data-name="&lt;Path&gt;" class="cls-12" cx="149.985" cy="145.094" rx="2.533" ry="1.716" transform="translate(-27.953 217.171) rotate(-78.718)"/>
          <ellipse id="_Path_17" data-name="&lt;Path&gt;" class="cls-12" cx="172.784" cy="148.985" rx="2.533" ry="1.716" transform="translate(-13.43 242.66) rotate(-78.718)"/>
        </g>
        <path id="_Path_18" data-name="&lt;Path&gt;" class="cls-7" d="M149.986,188.887c.766-8.6-1.026-7.472-2.327-11.759-1.286-4.3,3.537-6.522-.352-7.487-3.889-.98-10.411-6.982-10.411-6.982a6.12,6.12,0,0,1,.306-1.454c3.047,4.2,8.6,6.354,14.514,6.813l-.015.092c-.153.949-.766,3.782-1.225,5.818.046.107.092.2.138.306C153.691,180.818,149.986,188.887,149.986,188.887Z" transform="translate(-6.306 -46.624)"/>
        <path id="_Path_19" data-name="&lt;Path&gt;" class="cls-5" d="M164.454,158.25a4.293,4.293,0,0,1-4.44,1.026c3.9.061,2.465-2.358,1.883-6.507-.322-2.22.628-4.823,1.577-6.752a1.7,1.7,0,0,1,.98.138s1.47-.153,0,2.833C162.77,152.371,165.434,156.78,164.454,158.25Z" transform="translate(-6.306 -46.624)"/>
        <path id="_Path_20" data-name="&lt;Path&gt;" class="cls-13" d="M134.869,129.862s-.163-6.17,5.393-2.945-.327,6.166-1.307,6.33c0,0,6.673.817,3.663,5.229s-5.461-1.144-5.461-1.144,2.124,5.281-2.288,5.255-5.883-3.373-2.941-5.867c0,0-6.154,2.409-3.812-4.781S134.869,129.862,134.869,129.862Z" transform="translate(-6.306 -46.624)"/>
        <circle id="_Path_21" data-name="&lt;Path&gt;" class="cls-14" cx="128.563" cy="87.603" r="2.288"/>
        <path id="_Path_22" data-name="&lt;Path&gt;" class="cls-15" d="M130.226,145.094a5.581,5.581,0,0,0,3.821,3.891c3.3,1.121,1.022,5.226,3.11,8.869s5.451,6.872,7.685,7.038-2.75-7.391-1.445-9.309,2.026-10.708-1.894-10.7S129.28,143.187,130.226,145.094Z" transform="translate(-6.306 -46.624)"/>
        <path id="_Path_23" data-name="&lt;Path&gt;" class="cls-15" d="M138.732,169.634s-2.884,5.263-1.575,6.364,6.383,2.617,8.27,4.739,1.091-4.009-2.546-5.691S142.757,166.49,138.732,169.634Z" transform="translate(-6.306 -46.624)"/>
      </g>
      <g id="_Group_6" data-name="&lt;Group&gt;">
        <path id="_Path_24" data-name="&lt;Path&gt;" class="cls-16" d="M199.906,108.736S311.343,90.13,327.684,265.958c0,0,1,12.723,6.233,2.918S316.253,100.892,199.906,108.736Z" transform="translate(-6.306 -46.624)"/>
        <path id="_Path_25" data-name="&lt;Path&gt;" class="cls-17" d="M223.768,109.36s-19.94-6.18-23.862-15.331,17.881,8.111,26.915,15.985Z" transform="translate(-6.306 -46.624)"/>
        <path id="_Path_26" data-name="&lt;Path&gt;" class="cls-17" d="M233.48,111.384c-1.57-.37-23.212-22.078-16.253-26.507,3.595-2.288,20.567,27.785,20.567,27.785Z" transform="translate(-6.306 -46.624)"/>
        <path id="_Path_27" data-name="&lt;Path&gt;" class="cls-17" d="M247.16,116.135s-29.63-7.307-34.03,0,37.722,1.181,37.722,1.181Z" transform="translate(-6.306 -46.624)"/>
        <path id="_Path_28" data-name="&lt;Path&gt;" class="cls-17" d="M259.691,122.62s-29.064-3.753-30.044,6.052,17.04-6.1,37.607-2.068Z" transform="translate(-6.306 -46.624)"/>
        <path id="_Path_29" data-name="&lt;Path&gt;" class="cls-17" d="M254.623,119.72s-19.094-26.345-13.865-28.3c10.194-3.809,8.451,17.63,18.932,31.2Z" transform="translate(-6.306 -46.624)"/>
        <path id="_Path_30" data-name="&lt;Path&gt;" class="cls-17" d="M277.142,136.055s-31.155-7.977-36.057,0,39.832,3.767,39.832,3.767Z" transform="translate(-6.306 -46.624)"/>
        <path id="_Path_31" data-name="&lt;Path&gt;" class="cls-17" d="M274.288,131.92s-15.555-30.82-9.019-33.212,13.5,37.081,13.5,37.081Z" transform="translate(-6.306 -46.624)"/>
        <path id="_Path_32" data-name="&lt;Path&gt;" class="cls-17" d="M288.638,145.848c-.591-.673-11.276-33.9-4.086-35.835s6.648,38.829,6.648,38.829Z" transform="translate(-6.306 -46.624)"/>
        <path id="_Path_33" data-name="&lt;Path&gt;" class="cls-17" d="M290.224,150.807s-29.857-7.6-33.125,0,28.141,3.45,36.621,4.874Z" transform="translate(-6.306 -46.624)"/>
        <path id="_Path_34" data-name="&lt;Path&gt;" class="cls-17" d="M300.03,160.62s-4.694-38.6,2.5-38.706,0,42.5,0,42.5Z" transform="translate(-6.306 -46.624)"/>
        <path id="_Path_35" data-name="&lt;Path&gt;" class="cls-17" d="M300.193,166.1s-32.309-8.656-34.6,0,24.686,1.635,36.527,3.511Z" transform="translate(-6.306 -46.624)"/>
        <path id="_Path_36" data-name="&lt;Path&gt;" class="cls-17" d="M307.437,172.6s5.221-36.415,12.738-33.8-12.738,38.238-12.738,38.238A27.651,27.651,0,0,1,307.437,172.6Z" transform="translate(-6.306 -46.624)"/>
        <path id="_Path_37" data-name="&lt;Path&gt;" class="cls-17" d="M307.338,180.31s-25.294-6.537-32.047,2.287,24.327.527,34.115,2.551Z" transform="translate(-6.306 -46.624)"/>
        <path id="_Path_38" data-name="&lt;Path&gt;" class="cls-17" d="M312.589,182.365s10.2-34.4,17.717-30.811-12.8,18.712-15.713,35.009Z" transform="translate(-6.306 -46.624)"/>
        <path id="_Path_39" data-name="&lt;Path&gt;" class="cls-17" d="M314.026,197.5s-26.992-6.666-35.26,0,36.762,4.608,36.762,4.608Z" transform="translate(-6.306 -46.624)"/>
        <path id="_Path_40" data-name="&lt;Path&gt;" class="cls-17" d="M318.1,194.537s15.152-33.24,21.035-28.146-19.438,32.082-19.438,32.082Z" transform="translate(-6.306 -46.624)"/>
        <path id="_Path_41" data-name="&lt;Path&gt;" class="cls-17" d="M319.49,214.525s-37.416-8.724-37.416-3.822c0,8.184,38.428,7.418,38.428,7.418Z" transform="translate(-6.306 -46.624)"/>
        <path id="_Path_42" data-name="&lt;Path&gt;" class="cls-17" d="M324.632,212.27s12.538-32.1,17.767-29.905-16.59,33.643-16.59,33.643Z" transform="translate(-6.306 -46.624)"/>
        <path id="_Path_43" data-name="&lt;Path&gt;" class="cls-17" d="M322.276,231.946s-32.892-14.38-35.635-9.478,31.424,13.89,37.217,14.462Z" transform="translate(-6.306 -46.624)"/>
        <path id="_Path_44" data-name="&lt;Path&gt;" class="cls-17" d="M328.145,224.156s14.254-28.75,19.809-25.023-18.244,31.179-18.244,31.179Z" transform="translate(-6.306 -46.624)"/>
        <path id="_Path_45" data-name="&lt;Path&gt;" class="cls-17" d="M325.632,248.255S292,228.514,286.641,236.929s39.545,15.458,39.545,15.458Z" transform="translate(-6.306 -46.624)"/>
        <path id="_Path_46" data-name="&lt;Path&gt;" class="cls-17" d="M332.947,243.614s18.6-25.8,23.832-22.165-22.859,28.472-22.859,28.472Z" transform="translate(-6.306 -46.624)"/>
        <path id="_Path_47" data-name="&lt;Path&gt;" class="cls-17" d="M327.262,261.663s-33.317-15.96-36.053-9.276,36.475,13.571,36.475,13.571Z" transform="translate(-6.306 -46.624)"/>
        <path id="_Path_48" data-name="&lt;Path&gt;" class="cls-17" d="M334.6,260.052s19.128-24.838,24.411-20.59-24.5,26.5-24.5,26.5Z" transform="translate(-6.306 -46.624)"/>
      </g>
      <g id="_Group_7" data-name="&lt;Group&gt;">
        <path id="_Path_49" data-name="&lt;Path&gt;" class="cls-16" d="M487.428,149.162S394.666,84.667,304.669,236.6c0,0-6.351,11.07-6.882-.029S385.623,92.294,487.428,149.162Z" transform="translate(-6.306 -46.624)"/>
        <path id="_Path_50" data-name="&lt;Path&gt;" class="cls-17" d="M465.593,139.517s20.667,2.945,28.127-3.648-19.632-.319-31.166,2.932Z" transform="translate(-6.306 -46.624)"/>
        <path id="_Path_51" data-name="&lt;Path&gt;" class="cls-17" d="M455.948,137.191c1.577.337,30.426-10.024,26.031-17C479.709,116.581,451.5,136.5,451.5,136.5Z" transform="translate(-6.306 -46.624)"/>
        <path id="_Path_52" data-name="&lt;Path&gt;" class="cls-17" d="M441.551,135.632s29.908,6.072,30.758,14.56-34.6-15.072-34.6-15.072Z" transform="translate(-6.306 -46.624)"/>
        <path id="_Path_53" data-name="&lt;Path&gt;" class="cls-17" d="M427.451,136.133s27.875,9.042,24.566,18.324-12.793-12.8-33.106-17.959Z" transform="translate(-6.306 -46.624)"/>
        <path id="_Path_54" data-name="&lt;Path&gt;" class="cls-17" d="M433.272,135.679s28.529-15.642,24.639-19.646c-7.584-7.8-15.182,12.319-30.46,20.1Z" transform="translate(-6.306 -46.624)"/>
        <path id="_Path_55" data-name="&lt;Path&gt;" class="cls-17" d="M405.93,140.809s31.572,6.119,32.59,15.427S400.906,142.6,400.906,142.6Z" transform="translate(-6.306 -46.624)"/>
        <path id="_Path_56" data-name="&lt;Path&gt;" class="cls-17" d="M410.278,138.293s27.245-21.2,22.361-26.16-28.064,27.742-28.064,27.742Z" transform="translate(-6.306 -46.624)"/>
        <path id="_Path_57" data-name="&lt;Path&gt;" class="cls-17" d="M391.349,144.742c.822-.355,24.7-25.819,19.025-30.641s-22.621,32.251-22.621,32.251Z" transform="translate(-6.306 -46.624)"/>
        <path id="_Path_58" data-name="&lt;Path&gt;" class="cls-17" d="M387.793,148.546s30.24,5.9,29.94,14.172-26.911-8.921-35.185-11.263Z" transform="translate(-6.306 -46.624)"/>
        <path id="_Path_59" data-name="&lt;Path&gt;" class="cls-17" d="M374.732,153.22s20.757-32.881,14.3-36.053-18.185,38.416-18.185,38.416Z" transform="translate(-6.306 -46.624)"/>
        <path id="_Path_60" data-name="&lt;Path&gt;" class="cls-17" d="M372.241,158.1s32.906,6,31.27,14.8-23.012-9.084-34.518-12.454Z" transform="translate(-6.306 -46.624)"/>
        <path id="_Path_61" data-name="&lt;Path&gt;" class="cls-17" d="M362.91,160.882s10.861-35.147,2.948-36-4.847,40.011-4.847,40.011A27.637,27.637,0,0,0,362.91,160.882Z" transform="translate(-6.306 -46.624)"/>
        <path id="_Path_62" data-name="&lt;Path&gt;" class="cls-17" d="M359.7,167.89s25.659,4.913,27.988,15.778-22.214-9.932-31.927-12.29Z" transform="translate(-6.306 -46.624)"/>
        <path id="_Path_63" data-name="&lt;Path&gt;" class="cls-17" d="M354.078,167.5s5.5-35.457-2.832-35.429,3.562,22.389-.776,38.365Z" transform="translate(-6.306 -46.624)"/>
        <path id="_Path_64" data-name="&lt;Path&gt;" class="cls-17" d="M346.3,180.566s27.249,5.523,31.87,15.086-35.2-11.563-35.2-11.563Z" transform="translate(-6.306 -46.624)"/>
        <path id="_Path_65" data-name="&lt;Path&gt;" class="cls-17" d="M343.892,176.147s.526-36.527-6.97-34.44,3.844,37.314,3.844,37.314Z" transform="translate(-6.306 -46.624)"/>
        <path id="_Path_66" data-name="&lt;Path&gt;" class="cls-17" d="M334.081,193.616s37.551,8.123,35.454,12.554c-3.5,7.4-37.907-9.737-37.907-9.737Z" transform="translate(-6.306 -46.624)"/>
        <path id="_Path_67" data-name="&lt;Path&gt;" class="cls-17" d="M330.4,189.378s2.4-34.375-3.264-34.631.6,37.506.6,37.506Z" transform="translate(-6.306 -46.624)"/>
        <path id="_Path_68" data-name="&lt;Path&gt;" class="cls-17" d="M324.108,208.17s35.881,1.075,36.264,6.68-34.345-.89-39.826-2.852Z" transform="translate(-6.306 -46.624)"/>
        <path id="_Path_69" data-name="&lt;Path&gt;" class="cls-17" d="M322.137,198.618s-.583-32.084-7.2-31.093,3.15,35.987,3.15,35.987Z" transform="translate(-6.306 -46.624)"/>
        <path id="_Path_70" data-name="&lt;Path&gt;" class="cls-17" d="M314.1,221.475s38.845-3.453,40.088,6.446-42.356-2.948-42.356-2.948Z" transform="translate(-6.306 -46.624)"/>
        <path id="_Path_71" data-name="&lt;Path&gt;" class="cls-17" d="M309.471,214.151s-5.776-31.277-12.057-30.23,8.48,35.514,8.48,35.514Z" transform="translate(-6.306 -46.624)"/>
        <path id="_Path_72" data-name="&lt;Path&gt;" class="cls-17" d="M306.888,232.9s36.942-.171,36.555,7.041-38.774-3.34-38.774-3.34Z" transform="translate(-6.306 -46.624)"/>
        <path id="_Path_73" data-name="&lt;Path&gt;" class="cls-17" d="M300.944,228.3s-6.662-30.634-13.255-29.054S298.5,233.676,298.5,233.676Z" transform="translate(-6.306 -46.624)"/>
      </g>
      <g id="_Group_8" data-name="&lt;Group&gt;">
        <path id="_Path_74" data-name="&lt;Path&gt;" class="cls-18" d="M477.952,153.55s4.654.949,2.94,5.16C475.242,158.005,477.952,153.55,477.952,153.55Z" transform="translate(-6.306 -46.624)"/>
        <g id="_Group_9" data-name="&lt;Group&gt;">
          <g id="_Group_10" data-name="&lt;Group&gt;">
            <path id="_Path_75" data-name="&lt;Path&gt;" class="cls-19" d="M446.9,214.853a4.281,4.281,0,0,0,1.715.26c1.148-.49,0-1.087,0-1.087a11.86,11.86,0,0,0-1.317-.505s2.4-5.114,7.012,1.914c0,0-2.985,5.083-7.441-.474Z" transform="translate(-6.306 -46.624)"/>
            <path id="_Path_76" data-name="&lt;Path&gt;" class="cls-19" d="M468.061,176.087s2.281,7.717-5.236,6.859l-.245-.337c.291-.2.566-.413.842-.643,0,0,2.189-2.2.23-1.439a16.4,16.4,0,0,0-2.159,1.271S458.906,176.592,468.061,176.087Z" transform="translate(-6.306 -46.624)"/>
            <path id="_Path_77" data-name="&lt;Path&gt;" class="cls-19" d="M432.618,174.051s5.389,4.67-.566,7.915a4.184,4.184,0,0,0,.061-1.776c-.49-1.271-.735,0-.735,0q-.161.505-.276,1.01S425.927,178.4,432.618,174.051Z" transform="translate(-6.306 -46.624)"/>
            <path id="_Path_78" data-name="&lt;Path&gt;" class="cls-19" d="M461.493,149.431s4.807,5.91-1.424,7.119a1.588,1.588,0,0,0,.153-.949c-.337-1.347-1.317,0-1.317,0-.168.306-.322.628-.475.949C458.431,156.551,454.129,153.351,461.493,149.431Z" transform="translate(-6.306 -46.624)"/>
          </g>
          <path id="_Path_79" data-name="&lt;Path&gt;" class="cls-20" d="M460.223,155.6a1.588,1.588,0,0,1-.153.949c-.536,1.409-2.052,3.751-.429,8.987l-2.189,1.715a18.7,18.7,0,0,1,.98-10.7c.153-.322.306-.643.475-.949C458.906,155.6,459.886,154.254,460.223,155.6Z" transform="translate(-6.306 -46.624)"/>
          <path id="_Path_80" data-name="&lt;Path&gt;" class="cls-20" d="M455.507,193.6a38.2,38.2,0,0,1-8.206-5.512c-2.021-1.945-6.078-.168-6.415-.015l2.557-2.633a13.156,13.156,0,0,1,7.043-1.209c6.293,0,9.186-1.332,11.008-2.434a16.4,16.4,0,0,1,2.159-1.271c1.96-.766-.23,1.439-.23,1.439-.276.23-.551.444-.842.643-5.864,4.256-13.458,3.92-13.458,3.92,3.047,3.675,6.522,5.221,6.691,6.17C455.966,193.648,455.507,193.6,455.507,193.6Z" transform="translate(-6.306 -46.624)"/>
          <path id="_Path_81" data-name="&lt;Path&gt;" class="cls-20" d="M446.9,214.853c-3.873-.965-13.795-3.629-27.911,1.99l1.761-2.817s4.991-2.832,13.81-2.342a44.729,44.729,0,0,0,3.92-6.446s.827-1.133,1.638.291a42.245,42.245,0,0,1-3.276,5.987,56.836,56.836,0,0,1,10.457,2.006,11.86,11.86,0,0,1,1.317.505s1.148.6,0,1.087A4.281,4.281,0,0,1,446.9,214.853Z" transform="translate(-6.306 -46.624)"/>
          <path id="_Path_82" data-name="&lt;Path&gt;" class="cls-20" d="M431.378,180.19s.245-1.271.735,0a4.184,4.184,0,0,1-.061,1.776c-.352,2.159-1.087,5.757.566,9.447l-1.73,2.021S429,189.1,431.1,181.2Q431.217,180.7,431.378,180.19Z" transform="translate(-6.306 -46.624)"/>
          <g id="_Group_11" data-name="&lt;Group&gt;">
            <path id="_Path_83" data-name="&lt;Path&gt;" class="cls-19" d="M426.249,199.129a203.5,203.5,0,0,1,26.9-28.309,3.438,3.438,0,0,0,2.235,3.812,157.4,157.4,0,0,0-26.12,27.13C425.927,201.977,426.249,199.129,426.249,199.129Z" transform="translate(-6.306 -46.624)"/>
            <g id="_Group_12" data-name="&lt;Group&gt;">
              <path id="_Path_84" data-name="&lt;Path&gt;" class="cls-17" d="M480.892,158.71s-10.978,4.164-25.507,15.923a3.438,3.438,0,0,1-2.235-3.812,142.41,142.41,0,0,1,24.8-17.27S475.242,158.005,480.892,158.71Z" transform="translate(-6.306 -46.624)"/>
              <path id="_Path_85" data-name="&lt;Path&gt;" class="cls-17" d="M406.7,228.158a216.112,216.112,0,0,1,19.552-29.029s-.322,2.848,3.016,2.633A185.9,185.9,0,0,0,411.2,230.945S406.927,231.879,406.7,228.158Z" transform="translate(-6.306 -46.624)"/>
            </g>
          </g>
        </g>
      </g>
      <g id="_Group_13" data-name="&lt;Group&gt;">
        <polygon id="_Path_86" data-name="&lt;Path&gt;" class="cls-21" points="452.401 185.448 397.987 210.941 331.815 174.67 382.309 151.628 452.401 185.448"/>
        <polygon id="_Path_87" data-name="&lt;Path&gt;" class="cls-4" points="452.401 185.448 437.213 254.576 397.987 283.497 397.987 210.941 452.401 185.448"/>
        <polygon id="_Path_88" data-name="&lt;Path&gt;" class="cls-22" points="397.987 210.941 397.987 283.497 344.064 252.616 331.815 174.67 397.987 210.941"/>
      </g>
      <g id="_Group_14" data-name="&lt;Group&gt;">
        <polyline id="_Path_89" data-name="&lt;Path&gt;" class="cls-23" points="351.121 380.11 157.675 280.491 156.782 238.376 352.27 342.254"/>
        <polyline id="_Path_90" data-name="&lt;Path&gt;" class="cls-24" points="352.27 342.254 442.465 288.039 438.512 327.103 351.121 380.11 352.27 342.254"/>
        <path id="_Path_91" data-name="&lt;Path&gt;" class="cls-25" d="M358.576,366.6s.98,23.961,0,42.854v.015c-10.886,1.118-21.312-3.261-27.452-12.968-9.309-14.714-21.083-12.738-30.391-16.183-9.324-3.43-23.532-15.188-31.861-22.537-8.344-7.364-24.022-7.854-35.306-10.3-11.268-2.45-22.552-4.9-35.781-25-13.244-20.1-35.306-24.022-35.306-24.022-1.9-10.641-2.343-32.489-2.45-41.752,2.679,3.2,10,7.747,22.063,14.3C201.766,281.714,340.433,362.676,358.576,366.6Z" transform="translate(-6.306 -46.624)"/>
        <path id="_Path_92" data-name="&lt;Path&gt;" class="cls-26" d="M451.878,296.152c.505,3.858,1.944,16.689.122,25.339C449.811,331.8,449.26,346,449.26,346c-24.5,30.391-36.76,29.9-50.479,36.286-13.733,6.369-7.854,10.779-23.532,21.067a37.5,37.5,0,0,1-16.673,6.109v-.015c.98-18.893,0-42.854,0-42.854C366.92,368.4,448.418,306,451.878,296.152Z" transform="translate(-6.306 -46.624)"/>
        <path id="_Path_93" data-name="&lt;Path&gt;" class="cls-27" d="M451.878,296.152c-2.45,6.966-44.033,40.3-71.056,58.517-11.146,7.518-19.812,12.448-22.246,11.927-18.143-3.92-156.81-84.882-176.484-95.6-12.065-6.553-19.383-11.1-22.063-14.3-.015-2.679-.015-4.3-.015-4.3s25.722-18.526,49.606-34.908c15.556-10.641,30.315-20.348,36.7-23.456,16.168-7.839,194.306,93.593,205.406,100.988C451.725,295.019,451.786,295.432,451.878,296.152Z" transform="translate(-6.306 -46.624)"/>
        <path id="_Path_94" data-name="&lt;Path&gt;" class="cls-28" d="M451.878,296.152c-2.45,6.966-44.033,40.3-71.056,58.517.7-1.041,1.336-2.653,2.909-3.475,53.194-27.822,49.707-57.584,4.021-82.681C355.2,250.63,292.822,224.8,280.917,216.007c-19.425-14.342-59,3.393-71.3,1.479,15.556-10.641,30.315-20.348,36.7-23.456,16.168-7.839,194.306,93.593,205.406,100.988C451.725,295.019,451.786,295.432,451.878,296.152Z" transform="translate(-6.306 -46.624)"/>
        <path id="_Path_95" data-name="&lt;Path&gt;" class="cls-29" d="M214.5,256.7s2.613-8.446,6.812-5.946-3.3,11.292,9.062,25.46,15.425,15.577,26.142,21.762,27.773,23.065,34.555,25.343,26.768,8.69,33.043,15.244,3.569,10.145,3.569,10.145-23.462-13.866-29.9-16.766-36.957-24.2-43.515-25.992-44.834-25.446-47.9-26.822-11.957-4.622-7.892-6.253S215.411,263.043,214.5,256.7Z" transform="translate(-6.306 -46.624)"/>
      </g>
      <g id="_Group_15" data-name="&lt;Group&gt;">
        <polygon id="_Path_96" data-name="&lt;Path&gt;" class="cls-30" points="350.943 176.759 383.363 161.053 429.532 183.176 393.836 199.907 350.943 176.759"/>
        <polygon id="_Path_97" data-name="&lt;Path&gt;" class="cls-31" points="358.55 177.069 384.733 165.101 421.145 182.565 394.388 195.645 358.55 177.069"/>
      </g>
      <g id="_Group_16" data-name="&lt;Group&gt;">
        <path id="_Path_98" data-name="&lt;Path&gt;" class="cls-32" d="M392.489,233.042s21.663,3.782,33.751-1.4,2.887-14.844-7.249-14.8S384.835,219.553,392.489,233.042Z" transform="translate(-6.306 -46.624)"/>
        <path id="_Path_99" data-name="&lt;Path&gt;" class="cls-33" d="M405.671,232.629c-2.067.781-9.554.842-13.182.414a5.835,5.835,0,0,1-1.883-.414c-1.347-.811-14.667-13.228-11.406-17.638a13.667,13.667,0,0,1,1.73-1.868s2.052,4.96,17.071,4.96a51.119,51.119,0,0,0,7.793-.536c8.543-1.271,10.825-4.425,10.825-4.425a3.915,3.915,0,0,1,.658,1.531C418.088,218.91,408.289,231.649,405.671,232.629Z" transform="translate(-6.306 -46.624)"/>
        <g id="_Group_17" data-name="&lt;Group&gt;">
          <path id="_Compound_Path_" data-name="&lt;Compound Path&gt;" class="cls-33" d="M401.614,186.391q-.9-.069-1.929-.092c-11.146-.245-10.672,4.134-10.672,4.134s-.429,2.281,4.746,3.46a28.477,28.477,0,0,0,3.567.505c1.776.138,3.338.214,4.7.214.857,0,1.623-.031,2.327-.077,4.486-.337,6-1.669,6-3.414C410.356,190.494,410.754,187.019,401.614,186.391Zm7.027,4.394c0,1.24-1.638,2.174-6.691,2.2-1.209,0-2.618-.031-4.241-.138-7.487-.459-6.982-2.5-6.982-2.5s-.4-2.786,8.957-2.618c.72.015,1.393.031,2.006.077C408.963,188.259,408.641,190.387,408.641,190.785Z" transform="translate(-6.306 -46.624)"/>
          <path id="_Path_100" data-name="&lt;Path&gt;" class="cls-34" d="M416.618,213.123s-2.281,3.154-10.825,4.425a51.119,51.119,0,0,1-7.793.536c-15.02,0-17.071-4.96-17.071-4.96,4.18-3.843,11.728-7.655,12.08-9.967.383-2.541.7-8.589.75-9.263a28.477,28.477,0,0,0,3.567.505c1.776.138,3.338.214,4.7.214.857,0,1.623-.031,2.327-.077l.015.077c-.214,1.684-.322,8.543-.322,8.543C410.127,209.142,414.857,210.612,416.618,213.123Z" transform="translate(-6.306 -46.624)"/>
          <path id="_Path_101" data-name="&lt;Path&gt;" class="cls-35" d="M399.681,187.739c9.339.153,8.957,2.618,8.957,3.047,0,1.546-2.511,2.587-10.932,2.067-7.487-.459-6.982-2.5-6.982-2.5S390.327,187.57,399.681,187.739Z" transform="translate(-6.306 -46.624)"/>
          <path id="_Path_102" data-name="&lt;Path&gt;" class="cls-15" d="M395.728,198.472a13.385,13.385,0,0,1-7.975,12.355c-8.553,4.164-.827,15.922,2.965,18.762s6.135-4.537,4.065-8.141,1.568-7.54,2.526-13.195S398.447,193.789,395.728,198.472Z" transform="translate(-6.306 -46.624)"/>
          <path id="_Path_103" data-name="&lt;Path&gt;" class="cls-7" d="M405.671,232.629c-2.067.781-9.554.842-13.182.414a11.505,11.505,0,0,1,2.021-.613c9.937-2.189,11.8-8.9,11.284-14.882a32.545,32.545,0,0,0-3.154-10.763l-.613-12.172-.077-1.623-.26-5.175-.077-1.424c9.14.628,8.742,4.1,8.742,4.731,0,1.745-1.516,3.077-6,3.414l.015.077c-.214,1.684-.322,8.543-.322,8.543,6.078,5.986,10.809,7.456,12.57,9.967a3.915,3.915,0,0,1,.658,1.531C418.088,218.91,408.289,231.649,405.671,232.629Z" transform="translate(-6.306 -46.624)"/>
        </g>
        <g id="_Group_18" data-name="&lt;Group&gt;">
          <path id="_Path_104" data-name="&lt;Path&gt;" class="cls-36" d="M428.8,161.129c.8,2.633,2.082,7.441-.811,9.4-3.506.49-5.16-5.221-6.384-11.1-.9-4.364.352-4.777,1.056-4.7a1.306,1.306,0,0,1,.26.046.6.6,0,0,1,.169.046C425.97,155.694,428.205,159.185,428.8,161.129Z" transform="translate(-6.306 -46.624)"/>
          <path id="_Path_105" data-name="&lt;Path&gt;" class="cls-37" d="M422.663,154.729c-.7-.077-1.96.337-1.056,4.7-8.084.98-8.161,7.426-8.161,7.67a13.931,13.931,0,0,1,4.976-11.1A4.775,4.775,0,0,1,422.663,154.729Z" transform="translate(-6.306 -46.624)"/>
          <path id="_Path_106" data-name="&lt;Path&gt;" class="cls-38" d="M421.606,159.43c1.225,5.879,2.878,11.59,6.384,11.1a4.129,4.129,0,0,1-1.072.536c-4.256,1.439-11.192-.643-12.31-1.944l-1.118-1.3s-.031-.26-.046-.72C413.446,166.855,413.522,160.409,421.606,159.43Z" transform="translate(-6.306 -46.624)"/>
          <g id="_Group_19" data-name="&lt;Group&gt;">
            <path id="_Path_107" data-name="&lt;Path&gt;" class="cls-39" d="M422.25,162.272a22.472,22.472,0,0,1,11.2-2.837s-6.535,1.509-10.539,5.242Z" transform="translate(-6.306 -46.624)"/>
            <circle id="_Path_108" data-name="&lt;Path&gt;" class="cls-39" cx="427.146" cy="112.812" r="1.686"/>
          </g>
          <path id="_Path_109" data-name="&lt;Path&gt;" class="cls-40" d="M407.038,176.857s-1.529,7.5,8.929,4.431C415.967,181.288,409.251,173.217,407.038,176.857Z" transform="translate(-6.306 -46.624)"/>
          <path id="_Path_110" data-name="&lt;Path&gt;" class="cls-40" d="M409.412,171.7s-6.294-.367-.768-9.424C408.644,162.272,413.151,169.1,409.412,171.7Z" transform="translate(-6.306 -46.624)"/>
          <g id="_Group_20" data-name="&lt;Group&gt;">
            <path id="_Path_111" data-name="&lt;Path&gt;" class="cls-19" d="M398.773,192.914s-1.108-11.756,15.56-25.809l.984,1.529s-13.24,8.256-13.73,24.28Z" transform="translate(-6.306 -46.624)"/>
            <path id="_Path_112" data-name="&lt;Path&gt;" class="cls-19" d="M398.915,190.449s-.7-14.357-2.693-22.2c0,0,.16-2.124,1.782-1.144a108.373,108.373,0,0,1,3.769,23.344Z" transform="translate(-6.306 -46.624)"/>
          </g>
          <path id="_Path_113" data-name="&lt;Path&gt;" class="cls-40" d="M397.94,178.648s-.819-4.353-11.9-1.9C386.036,176.746,396.418,184.276,397.94,178.648Z" transform="translate(-6.306 -46.624)"/>
          <path id="_Path_114" data-name="&lt;Path&gt;" class="cls-40" d="M399.172,171.7s-1.671-3.383,4.106-6.062C403.278,165.634,403.292,173.346,399.172,171.7Z" transform="translate(-6.306 -46.624)"/>
          <g id="_Group_21" data-name="&lt;Group&gt;">
            <path id="_Path_115" data-name="&lt;Path&gt;" class="cls-41" d="M404.045,153.122c2.251,2.22,2.97,10.289-6.293,14.407,5.389-4.731,2.006-11.743,1.01-12.815a16.035,16.035,0,0,0-1.454-1.363S402.085,151.192,404.045,153.122Z" transform="translate(-6.306 -46.624)"/>
            <path id="_Path_116" data-name="&lt;Path&gt;" class="cls-41" d="M396.451,167.958c-4.808,1.133-12.983-1.684-12.708-5.68.291-4.348,5.251-5.634,5.251-5.634C387.739,165.309,394.338,167.5,396.451,167.958Z" transform="translate(-6.306 -46.624)"/>
          </g>
        </g>
        <path id="_Path_117" data-name="&lt;Path&gt;" class="cls-42" d="M398.763,154.714c1,1.072,4.379,8.084-1.01,12.815a1.8,1.8,0,0,1-.168.077,5.424,5.424,0,0,1-1.133.352c-2.113-.459-8.712-2.649-7.456-11.315,1.179-8.038,5.833-5.374,8.314-3.292A16.035,16.035,0,0,1,398.763,154.714Z" transform="translate(-6.306 -46.624)"/>
      </g>
      <g id="_Group_22" data-name="&lt;Group&gt;">
        <path id="_Path_118" data-name="&lt;Path&gt;" class="cls-43" d="M198.26,256.9c3.873,4.945,2.6,7.946.75,9.615-11.253,6.308-30.039-5.818-30.039-5.818-8.3-6.2-12.509-11.452-14.254-15.954l.077-.031c-2.3-8.145,3.782-13.718,14.254-9.8C179.519,238.845,191.385,248.138,198.26,256.9Z" transform="translate(-6.306 -46.624)"/>
        <path id="_Path_119" data-name="&lt;Path&gt;" class="cls-44" d="M269.852,196.45c0,5.267-1.761,4.976-20.317,19.062-2.587,1.975-5.527,4.226-8.819,6.829-2.159,1.7-4.164,3.368-6.032,4.976-3.062,2.664-5.757,5.206-8.145,7.64-14.254,14.53-17.883,25.063-26.625,31-.291.2-.6.383-.9.551,1.853-1.669,3.123-4.67-.75-9.615-6.875-8.758-18.74-18.051-29.213-21.986-10.472-3.92-16.551,1.654-14.254,9.8l-.077.031a13.267,13.267,0,0,1,.077-10.365c2.006-4.792,8.941-11.712,17.041-18.051,2.312-1.807,4.731-3.583,7.15-5.236,2.251-1.531,5.619-4.2,9.554-7.472,8.007-6.675,18.434-15.877,26.793-23.257h.015c7.487-6.6,13.3-11.728,14.269-12.248,2.572-1.424,13.106-.551,21.925,5.282C260.374,179.225,269.852,190.433,269.852,196.45Z" transform="translate(-6.306 -46.624)"/>
      </g>
      <path id="_Path_120" data-name="&lt;Path&gt;" class="cls-28" d="M269.852,196.45c0,5.267-1.761,4.976-20.317,19.062-.521-21.695-24.88-32.014-34.188-35.153,7.487-6.6,13.3-11.728,14.269-12.248,2.572-1.424,13.106-.551,21.925,5.282C260.374,179.225,269.852,190.433,269.852,196.45Z" transform="translate(-6.306 -46.624)"/>
      <path id="_Path_121" data-name="&lt;Path&gt;" class="cls-45" d="M234.683,227.316c-3.062,2.664-5.757,5.206-8.145,7.64-3.368-1.577-4.567.44-6.262,2.725-5.775,7.788-19.421,8.8-21.794,7.119-2.373-1.669-7.8-10.814-12.853-11.912-8.385-1.821-12.524-12.34-13.795-16.566,2.312-1.807,4.731-3.583,7.15-5.236,2.251-1.531,5.619-4.2,9.554-7.472C204.292,204.473,225.3,219.645,234.683,227.316Z" transform="translate(-6.306 -46.624)"/>
      <g id="_Group_23" data-name="&lt;Group&gt;">
        <path id="_Path_122" data-name="&lt;Path&gt;" class="cls-1" d="M225.972,330.83,122.748,381.294,14.931,290.487l44.875-17.056,6.063-2.312a.244.244,0,0,1,.061-.015l44.094-16.765,110.282,72.756Z" transform="translate(-6.306 -46.624)"/>
        <polygon id="_Path_123" data-name="&lt;Path&gt;" class="cls-22" points="219.666 283.844 213.541 370.608 116.442 425.007 116.442 334.307 219.666 283.844"/>
        <polygon id="_Path_124" data-name="&lt;Path&gt;" class="cls-4" points="116.442 334.67 116.442 425.369 8.625 336.645 8.625 243.863 116.442 334.67"/>
      </g>
      <path id="_Path_125" data-name="&lt;Path&gt;" class="cls-46" d="M95.815,290.008" transform="translate(-6.306 -46.624)"/>
      <g id="_Group_24" data-name="&lt;Group&gt;">
        <path id="_Path_126" data-name="&lt;Path&gt;" class="cls-47" d="M29.282,294.774l94.453,78.953,89.6-42.9L111.544,263.069S43.062,290.487,29.282,294.774Z" transform="translate(-6.306 -46.624)"/>
        <polygon id="_Path_127" data-name="&lt;Path&gt;" class="cls-48" points="34.332 250.289 104.76 222.848 197.037 284.207 119.305 321.08 34.332 250.289"/>
      </g>
      <path id="_Path_128" data-name="&lt;Path&gt;" class="cls-28" d="M225.972,330.83,122.748,381.294,14.931,290.487l44.875-17.056c-10.136,4.746-26.5,17.362,3.567,42.425,40.19,33.484,142.755,19.414,156.9,11.253.015,0,.015-.015.031-.015Z" transform="translate(-6.306 -46.624)"/>
      <path id="_Path_129" data-name="&lt;Path&gt;" class="cls-28" d="M161.977,315.063c-.168,10.993-8.053,27.589-24.8,30.652C119,349.038,107.533,338.335,102.511,331a24.016,24.016,0,0,1-2.588-4.654c-.367-.919-6.522-14.009,14.7-23.624,23.042-10.442,39.195-1.1,44.615,3.537a7.159,7.159,0,0,1,1.944,3.016,13.239,13.239,0,0,1,.566,2.266A18.387,18.387,0,0,1,161.977,315.063Z" transform="translate(-6.306 -46.624)"/>
      <path id="_Path_130" data-name="&lt;Path&gt;" class="cls-28" d="M154.257,307.466c-.766-3.368-1.087-5.374-.551-4.562a.331.331,0,0,1,.046.076,5.328,5.328,0,0,1,.566,2.266A10.071,10.071,0,0,1,154.257,307.466Z" transform="translate(-6.306 -46.624)"/>
      <g id="_Group_25" data-name="&lt;Group&gt;">
        <path id="_Path_131" data-name="&lt;Path&gt;" class="cls-49" d="M107.208,271.1v29.534a8.266,8.266,0,0,1-9.891,8.176,13.581,13.581,0,0,1-3.6-1.424A7.666,7.666,0,0,1,89.8,300.7V271.1c0,1.592,3.9,2.878,8.7,2.878C103.3,273.982,107.208,272.7,107.208,271.1Z" transform="translate(-6.306 -46.624)"/>
        <g id="_Group_26" data-name="&lt;Group&gt;">
          <path id="_Path_132" data-name="&lt;Path&gt;" class="cls-50" d="M107.2,271.1c0,1.592-3.9,2.878-8.712,2.878-4.792,0-8.7-1.286-8.7-2.878s3.9-2.878,8.7-2.878C103.3,268.219,107.2,269.505,107.2,271.1Z" transform="translate(-6.306 -46.624)"/>
          <path id="_Path_133" data-name="&lt;Path&gt;" class="cls-28" d="M107.208,291.666v8.972a8.266,8.266,0,0,1-9.891,8.176,13.581,13.581,0,0,1-3.6-1.424A7.666,7.666,0,0,1,89.8,300.7V283.046s8.9-1.041,9.018,4.164S102.2,297.561,107.208,291.666Z" transform="translate(-6.306 -46.624)"/>
          <line id="_Path_134" data-name="&lt;Path&gt;" class="cls-46" x1="92.192" y1="224.478" x2="92.192" y2="219.3"/>
          <path id="_Path_135" data-name="&lt;Path&gt;" class="cls-39" d="M98.5,268.222s-4.568.6-2.828-5.024,1.216-8.786,1.216-8.786S105.148,263.487,98.5,268.222Z" transform="translate(-6.306 -46.624)"/>
        </g>
      </g>
      <g id="_Group_27" data-name="&lt;Group&gt;">
        <g id="_Group_28" data-name="&lt;Group&gt;">
          <path id="_Path_136" data-name="&lt;Path&gt;" class="cls-17" d="M151.9,318.615s6.288-13.256,19.118-4.3C171.017,314.312,165.909,325.771,151.9,318.615Z" transform="translate(-6.306 -46.624)"/>
          <path id="_Path_137" data-name="&lt;Path&gt;" class="cls-17" d="M170.978,314.6s9.894-10.833,19.541,1.485C190.518,316.087,182.278,325.548,170.978,314.6Z" transform="translate(-6.306 -46.624)"/>
          <path id="_Path_138" data-name="&lt;Path&gt;" class="cls-51" d="M170.978,314.6s9.894-10.833,19.541,1.485C190.518,316.087,182.278,325.548,170.978,314.6Z" transform="translate(-6.306 -46.624)"/>
        </g>
        <g id="_Group_29" data-name="&lt;Group&gt;">
          <g id="_Group_30" data-name="&lt;Group&gt;">
            <g id="_Group_31" data-name="&lt;Group&gt;">
              <path id="_Path_139" data-name="&lt;Path&gt;" class="cls-14" d="M170.792,317.465a1.776,1.776,0,1,1-.885-2.351A1.777,1.777,0,0,1,170.792,317.465Z" transform="translate(-6.306 -46.624)"/>
              <path id="_Path_140" data-name="&lt;Path&gt;" class="cls-13" d="M174.772,325.422c-3.061,1.227-4.592-.266-4.747-.431a8.845,8.845,0,0,0,1.786-4.539l-.006-.016.011,0a10.281,10.281,0,0,0,4.816.787A3.06,3.06,0,0,1,174.772,325.422Z" transform="translate(-6.306 -46.624)"/>
              <path id="_Path_141" data-name="&lt;Path&gt;" class="cls-13" d="M170.025,324.991c-.993,1.026-2.487,1.514-4.77.4a5.267,5.267,0,0,1-.808-.488l-.011,0a3.442,3.442,0,0,1-.456-.369l0-.011c-1.771-1.709-.527-4.1.944-5.909a20.022,20.022,0,0,1,2.632-2.612,1.769,1.769,0,0,0,.885,2.351,7.593,7.593,0,0,0,1.275,1.011,2.83,2.83,0,0,0,.48.285,10.8,10.8,0,0,0,1.127.592c.157.071.314.142.477.2l.006.016A8.845,8.845,0,0,1,170.025,324.991Z" transform="translate(-6.306 -46.624)"/>
              <path id="_Path_142" data-name="&lt;Path&gt;" class="cls-13" d="M176.631,321.227a10.281,10.281,0,0,1-4.816-.787l-.011,0c-.162-.06-.32-.131-.477-.2a10.8,10.8,0,0,1-1.127-.592,2.83,2.83,0,0,1-.48-.285,7.593,7.593,0,0,1-1.275-1.011,1.777,1.777,0,0,0,2.351-.885,20.731,20.731,0,0,0,1.878-1.126c.1-.076.215-.146.317-.222a16.844,16.844,0,0,0,1.848-1.478l.016-.006a3.531,3.531,0,0,1,3.555.731l-.005.011a3.088,3.088,0,0,1,.584.982,3.784,3.784,0,0,1,.247.83,4.876,4.876,0,0,1,.138,1.43C179.3,320.242,178.185,321.024,176.631,321.227Z" transform="translate(-6.306 -46.624)"/>
              <path id="_Path_143" data-name="&lt;Path&gt;" class="cls-13" d="M174.855,314.628l-.016.006a16.844,16.844,0,0,1-1.848,1.478c-.1.076-.215.146-.317.222a20.731,20.731,0,0,1-1.878,1.126,1.776,1.776,0,1,0-3.236-1.466,20.128,20.128,0,0,1,.53-2.752,10.917,10.917,0,0,1,1.863-4.112,3.4,3.4,0,0,1,2.266-1.384,3.539,3.539,0,0,1,1.716.277,5.9,5.9,0,0,1,.934.45C178.094,310.408,176.8,312.787,174.855,314.628Z" transform="translate(-6.306 -46.624)"/>
              <path id="_Path_144" data-name="&lt;Path&gt;" class="cls-13" d="M169.949,309.135a10.919,10.919,0,0,0-1.863,4.112l-.011-.005a11.64,11.64,0,0,0-4.879-1.723c-.422-.5-1.027-1.887,2.077-3.866,3.97-2.548,4.665,1.477,4.665,1.477Z" transform="translate(-6.306 -46.624)"/>
              <path id="_Path_145" data-name="&lt;Path&gt;" class="cls-13" d="M168.086,313.247a20.109,20.109,0,0,0-.529,2.752,20.022,20.022,0,0,0-2.632,2.612c-1.38.566-6.063,2.087-5.58-2.866.322-3.28,1.888-4.317,3.851-4.226a11.64,11.64,0,0,1,4.879,1.723Z" transform="translate(-6.306 -46.624)"/>
            </g>
          </g>
          <path id="_Path_146" data-name="&lt;Path&gt;" class="cls-7" d="M174.772,325.422c-3.061,1.227-4.592-.266-4.747-.431-.993,1.026-2.487,1.514-4.77.4a5.267,5.267,0,0,1-.808-.488l-.011,0a3.442,3.442,0,0,1-.456-.369l0-.011a4.478,4.478,0,0,1,.131-.767c.086-.34-.513-.422-.7-.63,3.181,1.346,5.414-.594,7.915-2.886.048-.046.091-.081.139-.127l.016-.006c.357-.339.725-.674,1.1-1.019a1.96,1.96,0,0,0,.5-2.862.577.577,0,0,0-.087-.107c-.864-1.231-2.413-2.055-.177-2.328,3.74-.485.84-5.441.84-5.441.09-.109.179-.217.28-.32a5.9,5.9,0,0,1,.934.45c3.226,1.935,1.931,4.314-.013,6.155a3.531,3.531,0,0,1,3.555.731l-.005.011a3.088,3.088,0,0,1,.584.982l-.1-.018a2.876,2.876,0,0,1,.347.848,4.876,4.876,0,0,1,.138,1.43c-.075,1.631-1.188,2.413-2.742,2.616A3.06,3.06,0,0,1,174.772,325.422Z" transform="translate(-6.306 -46.624)"/>
        </g>
      </g>
      <g id="_Group_32" data-name="&lt;Group&gt;">
        <g id="_Group_33" data-name="&lt;Group&gt;">
          <path id="_Path_147" data-name="&lt;Path&gt;" class="cls-17" d="M146.6,338.165s8.556-7.8,16.437,2.469C163.034,340.634,155.9,347.469,146.6,338.165Z" transform="translate(-6.306 -46.624)"/>
          <path id="_Path_148" data-name="&lt;Path&gt;" class="cls-17" d="M162.925,340.833s10.8-4.978,15.234,6.8C178.16,347.634,169.052,352.1,162.925,340.833Z" transform="translate(-6.306 -46.624)"/>
          <path id="_Path_149" data-name="&lt;Path&gt;" class="cls-51" d="M162.925,340.833s10.8-4.978,15.234,6.8C178.16,347.634,169.052,352.1,162.925,340.833Z" transform="translate(-6.306 -46.624)"/>
        </g>
        <g id="_Group_34" data-name="&lt;Group&gt;">
          <g id="_Group_35" data-name="&lt;Group&gt;">
            <g id="_Group_36" data-name="&lt;Group&gt;">
              <path id="_Path_150" data-name="&lt;Path&gt;" class="cls-14" d="M164.86,342.055a1.776,1.776,0,1,1-.885-2.351A1.777,1.777,0,0,1,164.86,342.055Z" transform="translate(-6.306 -46.624)"/>
              <path id="_Path_151" data-name="&lt;Path&gt;" class="cls-13" d="M168.84,350.011c-3.061,1.227-4.592-.266-4.747-.431a8.845,8.845,0,0,0,1.786-4.539l-.006-.016.011,0a10.28,10.28,0,0,0,4.816.787A3.06,3.06,0,0,1,168.84,350.011Z" transform="translate(-6.306 -46.624)"/>
              <path id="_Path_152" data-name="&lt;Path&gt;" class="cls-13" d="M164.093,349.58c-.993,1.026-2.487,1.514-4.77.4a5.282,5.282,0,0,1-.808-.488l-.011-.005a3.426,3.426,0,0,1-.456-.369l0-.011c-1.771-1.709-.527-4.1.944-5.909a20.017,20.017,0,0,1,2.632-2.612,1.769,1.769,0,0,0,.885,2.351,7.593,7.593,0,0,0,1.275,1.011,2.837,2.837,0,0,0,.48.285,10.816,10.816,0,0,0,1.127.592c.157.071.315.142.477.2l.006.016A8.845,8.845,0,0,1,164.093,349.58Z" transform="translate(-6.306 -46.624)"/>
              <path id="_Path_153" data-name="&lt;Path&gt;" class="cls-13" d="M170.7,345.817a10.28,10.28,0,0,1-4.816-.787l-.011,0c-.162-.06-.32-.131-.477-.2a10.816,10.816,0,0,1-1.127-.592,2.837,2.837,0,0,1-.48-.285,7.593,7.593,0,0,1-1.275-1.011,1.777,1.777,0,0,0,2.351-.885,20.729,20.729,0,0,0,1.878-1.126c.1-.076.215-.146.317-.222a16.843,16.843,0,0,0,1.848-1.478l.016-.006a3.531,3.531,0,0,1,3.555.731l-.005.011a3.088,3.088,0,0,1,.584.982,3.784,3.784,0,0,1,.247.83,4.876,4.876,0,0,1,.138,1.43C173.366,344.832,172.254,345.614,170.7,345.817Z" transform="translate(-6.306 -46.624)"/>
              <path id="_Path_154" data-name="&lt;Path&gt;" class="cls-13" d="M168.923,339.217l-.016.006a16.843,16.843,0,0,1-1.848,1.478c-.1.076-.215.146-.317.222a20.729,20.729,0,0,1-1.878,1.126,1.776,1.776,0,1,0-3.235-1.466,20.114,20.114,0,0,1,.529-2.753,10.917,10.917,0,0,1,1.863-4.112,3.4,3.4,0,0,1,2.265-1.384,3.537,3.537,0,0,1,1.716.277,5.918,5.918,0,0,1,.934.45C172.162,335,170.867,337.376,168.923,339.217Z" transform="translate(-6.306 -46.624)"/>
              <path id="_Path_155" data-name="&lt;Path&gt;" class="cls-13" d="M164.017,333.724a10.916,10.916,0,0,0-1.863,4.112l-.011,0a11.637,11.637,0,0,0-4.879-1.723c-.422-.5-1.027-1.887,2.077-3.866,3.97-2.548,4.665,1.477,4.665,1.477Z" transform="translate(-6.306 -46.624)"/>
              <path id="_Path_156" data-name="&lt;Path&gt;" class="cls-13" d="M162.154,337.836a20.134,20.134,0,0,0-.53,2.753,20.022,20.022,0,0,0-2.632,2.612c-1.38.566-6.063,2.087-5.58-2.866.322-3.28,1.888-4.317,3.851-4.226a11.637,11.637,0,0,1,4.879,1.723Z" transform="translate(-6.306 -46.624)"/>
            </g>
          </g>
          <path id="_Path_157" data-name="&lt;Path&gt;" class="cls-7" d="M168.84,350.011c-3.061,1.227-4.592-.266-4.747-.431-.993,1.026-2.487,1.514-4.77.4a5.282,5.282,0,0,1-.808-.488l-.011-.005a3.426,3.426,0,0,1-.456-.369l0-.011a4.479,4.479,0,0,1,.131-.767c.086-.34-.513-.422-.7-.63,3.181,1.346,5.414-.594,7.915-2.886.048-.046.091-.081.139-.127l.016-.006c.357-.339.725-.674,1.1-1.019a1.96,1.96,0,0,0,.5-2.862.584.584,0,0,0-.087-.107c-.864-1.231-2.413-2.055-.178-2.328,3.74-.485.84-5.441.84-5.441.09-.109.179-.217.28-.32a5.918,5.918,0,0,1,.934.45c3.226,1.935,1.931,4.314-.013,6.155a3.531,3.531,0,0,1,3.555.731l-.005.011a3.088,3.088,0,0,1,.584.982l-.1-.018a2.876,2.876,0,0,1,.347.848,4.876,4.876,0,0,1,.138,1.43c-.075,1.631-1.188,2.413-2.742,2.616A3.06,3.06,0,0,1,168.84,350.011Z" transform="translate(-6.306 -46.624)"/>
        </g>
      </g>
      <g id="_Group_37" data-name="&lt;Group&gt;">
        <g id="_Group_38" data-name="&lt;Group&gt;">
          <path id="_Path_158" data-name="&lt;Path&gt;" class="cls-17" d="M162.366,338.571S162.621,323.9,178,326.759C178,326.759,178.081,339.3,162.366,338.571Z" transform="translate(-6.306 -46.624)"/>
          <path id="_Path_159" data-name="&lt;Path&gt;" class="cls-17" d="M178.087,327.04s4.54-13.951,18.411-6.714C196.5,320.326,192.9,332.344,178.087,327.04Z" transform="translate(-6.306 -46.624)"/>
          <path id="_Path_160" data-name="&lt;Path&gt;" class="cls-51" d="M178.087,327.04s4.54-13.951,18.411-6.714C196.5,320.326,192.9,332.344,178.087,327.04Z" transform="translate(-6.306 -46.624)"/>
        </g>
        <g id="_Group_39" data-name="&lt;Group&gt;">
          <g id="_Group_40" data-name="&lt;Group&gt;">
            <g id="_Group_41" data-name="&lt;Group&gt;">
              <path id="_Path_161" data-name="&lt;Path&gt;" class="cls-14" d="M183.114,329.694a1.776,1.776,0,1,1-.885-2.351A1.776,1.776,0,0,1,183.114,329.694Z" transform="translate(-6.306 -46.624)"/>
              <path id="_Path_162" data-name="&lt;Path&gt;" class="cls-13" d="M187.093,337.651c-3.061,1.227-4.591-.266-4.747-.431a8.845,8.845,0,0,0,1.786-4.539l-.006-.016.011,0a10.28,10.28,0,0,0,4.816.787A3.06,3.06,0,0,1,187.093,337.651Z" transform="translate(-6.306 -46.624)"/>
              <path id="_Path_163" data-name="&lt;Path&gt;" class="cls-13" d="M182.347,337.22c-.993,1.026-2.487,1.514-4.77.4a5.267,5.267,0,0,1-.808-.488l-.011,0a3.456,3.456,0,0,1-.456-.369l.005-.011c-1.771-1.709-.527-4.1.944-5.909a20.022,20.022,0,0,1,2.632-2.612,1.769,1.769,0,0,0,.885,2.351,7.585,7.585,0,0,0,1.275,1.011,2.831,2.831,0,0,0,.48.285,10.811,10.811,0,0,0,1.127.592c.157.071.315.142.477.2l.006.016A8.845,8.845,0,0,1,182.347,337.22Z" transform="translate(-6.306 -46.624)"/>
              <path id="_Path_164" data-name="&lt;Path&gt;" class="cls-13" d="M188.953,333.457a10.28,10.28,0,0,1-4.816-.787l-.011,0c-.163-.06-.32-.131-.477-.2a10.811,10.811,0,0,1-1.127-.592,2.831,2.831,0,0,1-.48-.285,7.585,7.585,0,0,1-1.275-1.011,1.777,1.777,0,0,0,2.351-.885A20.761,20.761,0,0,0,185,328.563c.1-.076.215-.146.317-.222a16.861,16.861,0,0,0,1.848-1.478l.016-.006a3.531,3.531,0,0,1,3.555.731l-.005.011a3.089,3.089,0,0,1,.584.982,3.8,3.8,0,0,1,.247.83,4.876,4.876,0,0,1,.138,1.43C191.62,332.471,190.507,333.254,188.953,333.457Z" transform="translate(-6.306 -46.624)"/>
              <path id="_Path_165" data-name="&lt;Path&gt;" class="cls-13" d="M187.177,326.857l-.016.006a16.861,16.861,0,0,1-1.848,1.478c-.1.076-.215.146-.317.222a20.761,20.761,0,0,1-1.878,1.126,1.776,1.776,0,1,0-3.236-1.466,20.107,20.107,0,0,1,.529-2.752,10.92,10.92,0,0,1,1.863-4.112,3.4,3.4,0,0,1,2.265-1.384,3.539,3.539,0,0,1,1.716.277,5.9,5.9,0,0,1,.933.45C190.416,322.637,189.121,325.016,187.177,326.857Z" transform="translate(-6.306 -46.624)"/>
              <path id="_Path_166" data-name="&lt;Path&gt;" class="cls-13" d="M182.271,321.364a10.914,10.914,0,0,0-1.863,4.112l-.011-.005a11.64,11.64,0,0,0-4.879-1.723c-.422-.5-1.027-1.887,2.077-3.866,3.97-2.548,4.665,1.477,4.665,1.477Z" transform="translate(-6.306 -46.624)"/>
              <path id="_Path_167" data-name="&lt;Path&gt;" class="cls-13" d="M180.408,325.476a20.109,20.109,0,0,0-.529,2.752,20.009,20.009,0,0,0-2.632,2.612c-1.38.566-6.064,2.087-5.58-2.866.322-3.28,1.888-4.317,3.851-4.226a11.64,11.64,0,0,1,4.879,1.723Z" transform="translate(-6.306 -46.624)"/>
            </g>
          </g>
          <path id="_Path_168" data-name="&lt;Path&gt;" class="cls-7" d="M187.093,337.651c-3.061,1.227-4.591-.266-4.747-.431-.993,1.026-2.487,1.514-4.77.4a5.267,5.267,0,0,1-.808-.488l-.011,0a3.456,3.456,0,0,1-.456-.369l.005-.011a4.462,4.462,0,0,1,.131-.767c.086-.34-.513-.422-.7-.63,3.181,1.346,5.414-.594,7.915-2.886.048-.046.091-.081.139-.127l.016-.006c.357-.339.725-.674,1.1-1.019a1.96,1.96,0,0,0,.5-2.862.584.584,0,0,0-.087-.107c-.864-1.231-2.413-2.055-.177-2.328,3.74-.485.84-5.441.84-5.441.09-.109.179-.217.28-.32a5.9,5.9,0,0,1,.933.45c3.226,1.935,1.931,4.314-.013,6.155a3.531,3.531,0,0,1,3.555.731l-.005.011a3.089,3.089,0,0,1,.584.982l-.1-.018a2.881,2.881,0,0,1,.347.848,4.876,4.876,0,0,1,.138,1.43c-.075,1.631-1.188,2.413-2.743,2.616A3.06,3.06,0,0,1,187.093,337.651Z" transform="translate(-6.306 -46.624)"/>
        </g>
      </g>
      <g id="_Group_42" data-name="&lt;Group&gt;">
        <g id="_Group_43" data-name="&lt;Group&gt;">
          <path id="_Path_169" data-name="&lt;Path&gt;" class="cls-17" d="M119.573,364.394s.255-14.669,15.637-11.811C135.21,352.583,135.288,365.128,119.573,364.394Z" transform="translate(-6.306 -46.624)"/>
          <path id="_Path_170" data-name="&lt;Path&gt;" class="cls-17" d="M135.294,352.863s4.54-13.951,18.411-6.714C153.7,346.15,150.105,358.168,135.294,352.863Z" transform="translate(-6.306 -46.624)"/>
          <path id="_Path_171" data-name="&lt;Path&gt;" class="cls-51" d="M135.294,352.863s4.54-13.951,18.411-6.714C153.7,346.15,150.105,358.168,135.294,352.863Z" transform="translate(-6.306 -46.624)"/>
        </g>
        <g id="_Group_44" data-name="&lt;Group&gt;">
          <g id="_Group_45" data-name="&lt;Group&gt;">
            <g id="_Group_46" data-name="&lt;Group&gt;">
              <path id="_Path_172" data-name="&lt;Path&gt;" class="cls-14" d="M136.482,355.717a1.776,1.776,0,1,1-.885-2.351A1.777,1.777,0,0,1,136.482,355.717Z" transform="translate(-6.306 -46.624)"/>
              <path id="_Path_173" data-name="&lt;Path&gt;" class="cls-13" d="M140.462,363.674c-3.061,1.227-4.591-.266-4.747-.431A8.847,8.847,0,0,0,137.5,358.7l-.006-.016.011,0a10.281,10.281,0,0,0,4.816.787A3.06,3.06,0,0,1,140.462,363.674Z" transform="translate(-6.306 -46.624)"/>
              <path id="_Path_174" data-name="&lt;Path&gt;" class="cls-13" d="M135.715,363.243c-.993,1.026-2.487,1.514-4.77.4a5.264,5.264,0,0,1-.808-.488l-.011-.005a3.438,3.438,0,0,1-.456-.369l.005-.011c-1.771-1.709-.527-4.1.944-5.909a20.017,20.017,0,0,1,2.632-2.612,1.769,1.769,0,0,0,.885,2.351,7.587,7.587,0,0,0,1.275,1.011,2.829,2.829,0,0,0,.48.285,10.849,10.849,0,0,0,1.127.592c.157.071.315.142.477.2l.006.016A8.847,8.847,0,0,1,135.715,363.243Z" transform="translate(-6.306 -46.624)"/>
              <path id="_Path_175" data-name="&lt;Path&gt;" class="cls-13" d="M142.321,359.479a10.281,10.281,0,0,1-4.816-.787l-.011,0c-.162-.06-.32-.131-.477-.2a10.849,10.849,0,0,1-1.127-.592,2.829,2.829,0,0,1-.48-.285,7.587,7.587,0,0,1-1.275-1.011,1.777,1.777,0,0,0,2.351-.885,20.731,20.731,0,0,0,1.878-1.126c.1-.076.215-.146.317-.222a16.843,16.843,0,0,0,1.848-1.478l.016-.006a3.531,3.531,0,0,1,3.555.731l-.005.011a3.089,3.089,0,0,1,.584.982,3.793,3.793,0,0,1,.247.83,4.883,4.883,0,0,1,.137,1.43C144.988,358.494,143.876,359.276,142.321,359.479Z" transform="translate(-6.306 -46.624)"/>
              <path id="_Path_176" data-name="&lt;Path&gt;" class="cls-13" d="M140.545,352.88l-.016.006a16.843,16.843,0,0,1-1.848,1.478c-.1.076-.215.146-.317.222a20.731,20.731,0,0,1-1.878,1.126,1.776,1.776,0,1,0-3.235-1.466,20.114,20.114,0,0,1,.529-2.753,10.915,10.915,0,0,1,1.863-4.112A3.4,3.4,0,0,1,137.909,346a3.536,3.536,0,0,1,1.716.277,5.917,5.917,0,0,1,.934.45C143.784,348.66,142.49,351.039,140.545,352.88Z" transform="translate(-6.306 -46.624)"/>
              <path id="_Path_177" data-name="&lt;Path&gt;" class="cls-13" d="M135.639,347.387a10.914,10.914,0,0,0-1.863,4.112l-.011,0a11.639,11.639,0,0,0-4.879-1.723c-.422-.5-1.027-1.887,2.076-3.866,3.971-2.548,4.665,1.477,4.665,1.477Z" transform="translate(-6.306 -46.624)"/>
              <path id="_Path_178" data-name="&lt;Path&gt;" class="cls-13" d="M133.776,351.5a20.114,20.114,0,0,0-.529,2.753,20.017,20.017,0,0,0-2.632,2.612c-1.38.566-6.063,2.087-5.58-2.866.322-3.28,1.888-4.317,3.851-4.226a11.639,11.639,0,0,1,4.879,1.723Z" transform="translate(-6.306 -46.624)"/>
            </g>
          </g>
          <path id="_Path_179" data-name="&lt;Path&gt;" class="cls-7" d="M140.462,363.674c-3.061,1.227-4.591-.266-4.747-.431-.993,1.026-2.487,1.514-4.77.4a5.264,5.264,0,0,1-.808-.488l-.011-.005a3.438,3.438,0,0,1-.456-.369l.005-.011a4.461,4.461,0,0,1,.131-.767c.086-.34-.513-.422-.7-.63,3.181,1.346,5.414-.594,7.915-2.886.048-.046.091-.081.139-.127l.016-.006c.357-.339.725-.674,1.1-1.019a1.96,1.96,0,0,0,.5-2.862.576.576,0,0,0-.087-.107c-.864-1.231-2.413-2.055-.177-2.328,3.74-.485.84-5.441.84-5.441.09-.109.179-.217.28-.32a5.917,5.917,0,0,1,.934.45c3.226,1.935,1.931,4.314-.013,6.155a3.531,3.531,0,0,1,3.555.731l-.005.011a3.089,3.089,0,0,1,.584.982l-.1-.018a2.881,2.881,0,0,1,.347.848,4.883,4.883,0,0,1,.137,1.43c-.075,1.631-1.188,2.413-2.742,2.616A3.06,3.06,0,0,1,140.462,363.674Z" transform="translate(-6.306 -46.624)"/>
        </g>
      </g>
      <g id="_Group_47" data-name="&lt;Group&gt;">
        <path id="_Path_180" data-name="&lt;Path&gt;" class="cls-52" d="M94.94,287.449c0,1.363-4.394,2.45-9.8,2.45-5.42,0-9.814-1.087-9.814-2.45,0-1.347,4.394-2.45,9.814-2.45C90.546,285,94.94,286.1,94.94,287.449Z" transform="translate(-6.306 -46.624)"/>
        <g id="_Group_48" data-name="&lt;Group&gt;">
          <path id="_Path_181" data-name="&lt;Path&gt;" class="cls-49" d="M94.944,287.456v23.67a8.551,8.551,0,0,1-7.426,8.574,16.073,16.073,0,0,1-8.191-1.516,6.91,6.91,0,0,1-4-6.308v-24.42c0,1.363,4.394,2.45,9.814,2.45C90.55,289.905,94.944,288.818,94.944,287.456Z" transform="translate(-6.306 -46.624)"/>
          <path id="_Path_182" data-name="&lt;Path&gt;" class="cls-28" d="M94.944,306.517v4.608a8.551,8.551,0,0,1-7.426,8.574,16.073,16.073,0,0,1-8.191-1.516,6.91,6.91,0,0,1-4-6.308v-13.9s4.915,20.363,18.388,9.416A10.316,10.316,0,0,1,94.944,306.517Z" transform="translate(-6.306 -46.624)"/>
          <line id="_Path_183" data-name="&lt;Path&gt;" class="cls-46" x1="78.832" y1="240.827" x2="78.832" y2="236.417"/>
          <path id="_Path_184" data-name="&lt;Path&gt;" class="cls-39" d="M85.138,285s-5.147.508-3.186-4.279,1.37-7.483,1.37-7.483S92.632,280.965,85.138,285Z" transform="translate(-6.306 -46.624)"/>
        </g>
      </g>
      <g id="_Group_49" data-name="&lt;Group&gt;">
        <path id="_Path_185" data-name="&lt;Path&gt;" class="cls-53" d="M154.548,308.768c-.169,10.993-8.053,27.589-24.8,30.652-18.174,3.322-29.641-7.38-34.663-14.713a24.023,24.023,0,0,1-2.587-4.654c-.367-.919-6.522-14.009,14.7-23.624,23.042-10.442,39.2-1.1,44.615,3.537a7.16,7.16,0,0,1,1.945,3.016,13.261,13.261,0,0,1,.566,2.266A18.419,18.419,0,0,1,154.548,308.768Z" transform="translate(-6.306 -46.624)"/>
        <path id="_Path_186" data-name="&lt;Path&gt;" class="cls-54" d="M154.548,308.768c-.169,10.993-8.053,27.589-24.8,30.652-18.174,3.322-29.641-7.38-34.663-14.713,5.818,3.965,18.25,9.967,35.413,4.731,18.005-5.512,23.1-15.8,23.762-21.955C154.349,307.9,154.441,308.324,154.548,308.768Z" transform="translate(-6.306 -46.624)"/>
        <path id="_Path_187" data-name="&lt;Path&gt;" class="cls-55" d="M115.288,296.513c19.123-5.144,32.841,2.22,33.821,7.854a10.538,10.538,0,0,1,.122,2.541c-.827-2.894-2.144-3.552-6.492-6.461-4.409-2.94-4.9-.49-11.268-2.695-6.385-2.2-11.284.49-17.163,1.715s-7.839,6.369-12.754,8.574c-4.9,2.2-4.18,9.079-4.18,9.079a9.669,9.669,0,0,1-1.194-3.184S93.532,302.362,115.288,296.513Z" transform="translate(-6.306 -46.624)"/>
        <path id="_Path_188" data-name="&lt;Path&gt;" class="cls-42" d="M149.235,306.915c-.429,5.711-5.665,13.473-26.074,15.846-16.811,1.945-23.333-1.531-25.783-5.634,0,0-.72-6.874,4.18-9.079,4.149-1.853,6.186-5.8,10.258-7.732a10.87,10.87,0,0,1,2.5-.842c5.879-1.225,10.779-3.92,17.163-1.715,6.369,2.2,6.859-.245,11.268,2.695,0,0,.122.077.337.23C147.168,303.394,148.424,304.1,149.235,306.915Z" transform="translate(-6.306 -46.624)"/>
        <g id="_Group_50" data-name="&lt;Group&gt;">
          <g id="_Group_51" data-name="&lt;Group&gt;">
            <path id="_Path_189" data-name="&lt;Path&gt;" class="cls-3" d="M138.732,287.211a19.329,19.329,0,0,1-3.828-.383,13.057,13.057,0,0,1-2.587-.8,7.758,7.758,0,0,1-1.791-1.01.261.261,0,0,0,0-.153,1.962,1.962,0,0,1,.7-1.822c5.236,0,7.334.8,8.023,1.684C140.156,285.894,138.732,287.211,138.732,287.211Z" transform="translate(-6.306 -46.624)"/>
            <path id="_Path_190" data-name="&lt;Path&gt;" class="cls-3" d="M137.6,300.7c2.541,5.267,0,8.344,0,8.344-8.053,3.246-13.458.72-16.352-1.577a12.169,12.169,0,0,1-2.526-2.6c.49-2.94,2.2-5.634,5.818-7.824s7.67-8.114,6.446-10.564a1.7,1.7,0,0,1-.107-.245,3.283,3.283,0,0,1-.352-1.209,7.758,7.758,0,0,0,1.791,1.01,13.057,13.057,0,0,0,2.587.8,19.329,19.329,0,0,0,3.828.383C137.645,288.926,135.058,295.417,137.6,300.7Z" transform="translate(-6.306 -46.624)"/>
          </g>
        </g>
        <path id="_Path_191" data-name="&lt;Path&gt;" class="cls-15" d="M126.254,298.54a53.226,53.226,0,0,0-7.533,6.323c.49-2.94,2.2-5.634,5.818-7.824s7.67-8.114,6.446-10.564a1.7,1.7,0,0,1-.107-.245,3.074,3.074,0,0,0,1.439-.2C133.4,289.033,129.821,296.244,126.254,298.54Z" transform="translate(-6.306 -46.624)"/>
        <path id="_Path_192" data-name="&lt;Path&gt;" class="cls-56" d="M138.732,287.211c-1.087,1.715-3.675,8.206-1.133,13.488,2.541,5.267,0,8.344,0,8.344-8.053,3.246-13.458.72-16.352-1.577,0,0,8.436-2.725,10.227-9.707.98-3.812,1.929-8.268,3.429-10.932,1.087-1.914,2.465-2.909,4.348-2.1C140.156,285.894,138.732,287.211,138.732,287.211Z" transform="translate(-6.306 -46.624)"/>
        <path id="_Path_193" data-name="&lt;Path&gt;" class="cls-54" d="M149.235,306.915c-.429,5.711-5.665,13.473-26.074,15.846-16.811,1.945-23.333-1.531-25.783-5.634,0,0-.72-6.874,4.18-9.079,4.149-1.853,6.186-5.8,10.258-7.732,0,0-3.292,7.992-6.048,8.788-2.741.8-4.792,6.446,0,10.258,4.807,3.8,34.8-2.557,39.072-8.773,3.675-5.343-.521-8.987-1.761-9.906C147.168,303.394,148.424,304.1,149.235,306.915Z" transform="translate(-6.306 -46.624)"/>
      </g>
      <g id="_Group_52" data-name="&lt;Group&gt;">
        <path id="_Compound_Path_2" data-name="&lt;Compound Path&gt;" class="cls-45" d="M394.919,320.92c-6.124-9.309-52.622-35.857-57.782-37.082a104.9,104.9,0,0,1-10.518-2.986,2.832,2.832,0,0,1-3.72-.612c-.444-.49-.934-1.01-1.439-1.531a27.948,27.948,0,0,1-2.6-1.439v-.015a16.416,16.416,0,0,1-1.807-1.271c-5.159-4.164-13.979-9.554-18.633-16.168-1.209-1.715-2.22-3.169-3.108-4.44a89.327,89.327,0,0,1-5.726-8.941,36.988,36.988,0,0,0-11.131-11.85c-4.256-2.725-9.462-4.256-15.081-2.189-2.1-1.47-7.242-4.685-11.774-4.685-.628,0-1.271.015-1.883.046a68.046,68.046,0,0,0-9.6,1.1H240.1a8.4,8.4,0,0,1-2.189-4.119,57.98,57.98,0,0,1-6,3.659v.015a52.537,52.537,0,0,1-10.212,4.21s.015,0,.046.031a35.417,35.417,0,0,0,7.242,4.823s-3.858,5.42-1.164,17.929l.337.077c-1.684,3.231-1.684,9.11,5.052,19.766,7.732,12.233,18.939,18.342,28.416,21.634.015.015.046.015.061.03,6.446,2.649,15.173,11.452,19.812,15.908,4.654,4.471,12.264,6.308,18.878,7.533s11.268,7.349,22.8,10.534c3.72,1.041,8.36,5.068,13.917,9.309,11.636,8.9,27.237,18.71,46.544,3.767C400.231,331.132,394.919,320.92,394.919,320.92Zm-140.828-82.51c.725-.609,1.489-1.221,2.3-1.835l.094-.069Q255.218,237.461,254.091,238.409Zm2.426-1.929c.837-.629,1.726-1.27,2.674-1.912Q257.78,235.524,256.517,236.48Zm35.929,68.563a3.847,3.847,0,0,1,.674.6C292.828,305.379,292.583,305.165,292.445,305.043Z" transform="translate(-6.306 -46.624)"/>
        <path id="_Path_194" data-name="&lt;Path&gt;" class="cls-44" d="M203.343,172.688a21.222,21.222,0,0,0-9.477,5.4,41.758,41.758,0,0,0-3.185,3.322c-.107.107-.184.2-.275.306-8.589,2.649-13.7,4.961-15.418,24.772-.061.6-.092,1.194-.107,1.761-.015.337-.015.658-.015.98,0,0-.153-.444-.429-1.133a52.924,52.924,0,0,0-2.771-6.032,13.774,13.774,0,0,0-1.087-1.669,13.837,13.837,0,0,1-2.389-10.166,15.418,15.418,0,0,1,4.532-8.513A33.636,33.636,0,0,1,203.343,172.688Z" transform="translate(-6.306 -46.624)"/>
        <path id="_Path_195" data-name="&lt;Path&gt;" class="cls-7" d="M203.343,172.688a21.222,21.222,0,0,0-9.477,5.4s-15.1-6.951-25.66,12.1a.056.056,0,0,0-.015.046,15.418,15.418,0,0,1,4.532-8.513A33.636,33.636,0,0,1,203.343,172.688Z" transform="translate(-6.306 -46.624)"/>
        <path id="_Path_196" data-name="&lt;Path&gt;" class="cls-44" d="M189.288,229.857a15.368,15.368,0,0,1-2.419-.842c-4.134-1.791-12.08-6.92-12-19.781,0-.873.03-1.791.122-2.741,1.715-19.812,6.828-22.124,15.418-24.772-.459.551-.873,1.072-1.24,1.592-4.318,5.895-3.568,9.967-1.5,12.677,2.618,3.429.8,14.713.8,14.713C187.068,219.018,187.588,225.264,189.288,229.857Z" transform="translate(-6.306 -46.624)"/>
        <path id="_Path_197" data-name="&lt;Path&gt;" class="cls-44" d="M242.185,183.941a24.726,24.726,0,0,0-8.62-5.1,7.1,7.1,0,0,0-2.281-.643h-.015c-3.568-.459-9.309.505-14.882,3.276-8.421,4.18-16.444,12.463-15.908,26.15.98,25.109,9.309,28.569,9.309,28.569,3.307.459,5.313.122,6.522-.475l.107.2s-2.955,5.665-12.509,4.93a16.273,16.273,0,0,1-14.622-10.993c-1.7-4.593-2.22-10.84-.827-19.153,0,0,1.822-11.284-.8-14.713-2.251-2.94-2.94-7.5,2.741-14.269a43.437,43.437,0,0,1,3.46-3.629,21.222,21.222,0,0,1,9.477-5.4c5.91-1.485,11.314.107,15.035.75,3.491.612,9.722-.689,15.249,1.439C237.026,176.179,240.149,178.8,242.185,183.941Z" transform="translate(-6.306 -46.624)"/>
        <g id="_Group_53" data-name="&lt;Group&gt;">
          <path id="_Path_198" data-name="&lt;Path&gt;" class="cls-44" d="M323.683,280.489c-1.485.429-2.863-2.082-4.716-4.608s-5.634-5.879-12.662-7.9c-7.043-2.006-27.666-30.851-12.738-18.3,2.128,1.791,4.134,3.322,6.017,4.624.888,1.271,1.9,2.725,3.108,4.44,4.654,6.614,13.473,12,18.633,16.168a16.416,16.416,0,0,0,1.807,1.271v.015C324.051,278.193,324.51,280.26,323.683,280.489Z" transform="translate(-6.306 -46.624)"/>
          <path id="_Path_199" data-name="&lt;Path&gt;" class="cls-44" d="M387.911,342.9c-19.307,14.943-34.908,5.129-46.544-3.767-5.558-4.241-10.2-8.268-13.917-9.309-11.529-3.184-16.183-9.309-22.8-10.534s-14.223-3.062-18.878-7.533c-4.639-4.455-13.366-13.259-19.812-15.908a134.213,134.213,0,0,0,16.137,4.073c7.1,1.715,11.024,4.915,13,7.364,1.96,2.45,3.429,4.9,4.9,4.409,1.271-.429-.766-5.083-2.6-7.119,1.347,1.209,4.072,3.69,6.032,5.65,2.695,2.695,5.879-.98,5.879-2.45s-2.94-7.119-9.8-10.794c-6.875-3.675-15.448-2.878-30.881-14.805-10.58-8.161-16.658-21.3-22.614-27.835,0,0,2.266-10.549,17.454-20.838a19.668,19.668,0,0,1,2.817-1.608c.459-.214.919-.4,1.363-.566,5.619-2.067,10.824-.536,15.081,2.189a36.989,36.989,0,0,1,11.131,11.85,89.323,89.323,0,0,0,5.726,8.941c-1.883-1.3-3.889-2.833-6.017-4.624-14.928-12.555,5.7,16.29,12.738,18.3,7.028,2.021,10.809,5.374,12.662,7.9s3.231,5.037,4.716,4.608c.827-.23.367-2.3-.551-4.287a27.946,27.946,0,0,0,2.6,1.439c.505.521,1,1.041,1.439,1.531a2.832,2.832,0,0,0,3.72.612,104.9,104.9,0,0,0,10.518,2.986c5.16,1.225,51.658,27.773,57.782,37.082C399.195,319.853,404.508,330.065,387.911,342.9Z" transform="translate(-6.306 -46.624)"/>
        </g>
        <path id="_Path_200" data-name="&lt;Path&gt;" class="cls-57" d="M249.582,254.276s12.121,19.878,20.35,25.369,30.2,10.595,37.842,19.271,5.091,13.358,2.029,14.589-8.727.335-11.126.656-9.126-7.968-13.418-9.437,1.322,5.168,3.364,6.953,10.973,5.678,18.117,5.772,11.218,4.471,13.647,5.728,9.49,6.354,12.594,8.144,3.795-7.469-2.292-11.133-8.855-7.55-8.619-11.221-12.344-16.941-20.344-20.9-28.965-15.678-32.262-20.406-11.624-15.9-15.116-15.417S250.6,249.926,249.582,254.276Z" transform="translate(-6.306 -46.624)"/>
        <path id="_Path_201" data-name="&lt;Path&gt;" class="cls-58" d="M387.911,342.9c-19.307,14.943-34.908,5.129-46.544-3.767,7.318,4.272,25.109,6.017,30.437-6.629,5.7-13.5-27.636-33.959-40.894-42.594-13.274-8.65-43.39-7.181-44.707-28.585-1.332-21.389-25.538-25.813-25.538-25.813.26-.337,5.328-3.292,5.619-3.613.459-.214.919-.4,1.363-.566,5.619-2.067,10.824-.536,15.081,2.189a36.989,36.989,0,0,1,11.131,11.85,89.323,89.323,0,0,0,5.726,8.941c.888,1.271,1.9,2.725,3.108,4.44,4.654,6.614,13.473,12,18.633,16.168a16.416,16.416,0,0,0,1.807,1.271v.015a27.946,27.946,0,0,0,2.6,1.439c.505.521,1,1.041,1.439,1.531a2.832,2.832,0,0,0,3.72.612,104.9,104.9,0,0,0,10.518,2.986c5.16,1.225,51.658,27.773,57.782,37.082C399.195,319.853,404.508,330.065,387.911,342.9Z" transform="translate(-6.306 -46.624)"/>
        <path id="_Path_202" data-name="&lt;Path&gt;" class="cls-6" d="M309.307,307.773c0,1.225-2.2,3.965-4.486,3.307a3.06,3.06,0,0,1-1.393-.857c-1.96-1.96-4.685-4.44-6.032-5.65a3.092,3.092,0,0,0-.551-.49c.138.122.337.291.551.49,1.837,2.036,3.873,6.691,2.6,7.119-1.47.49-2.94-1.96-4.9-4.409-1.975-2.45-5.895-5.65-13-7.364a134.213,134.213,0,0,1-16.137-4.073c-.015-.015-.046-.015-.061-.03-9.477-3.292-20.684-9.4-28.416-21.634-4.945-7.824-6.262-13.075-5.941-16.581a8.064,8.064,0,0,1,.888-3.185c.122-.214.245-.413.367-.612a7.57,7.57,0,0,1,4.685-3.154c3.093-.934,5.8.674,8.528,3.69,5.956,6.538,12.034,19.674,22.614,27.835,15.433,11.927,24.007,11.131,30.881,14.805C306.367,300.653,309.307,306.3,309.307,307.773Z" transform="translate(-6.306 -46.624)"/>
        <path id="_Path_203" data-name="&lt;Path&gt;" class="cls-7" d="M309.307,307.773c0,1.225-2.2,3.965-4.486,3.307a2.183,2.183,0,0,1,.352-.505c4.379-4.808-11.529-13.045-23.1-15.8-11.559-2.756-31.034-13.32-37.189-27.712-6.139-14.392-12.447-12.647-12.447-12.647.122-.214.245-.413.367-.612a7.57,7.57,0,0,1,4.685-3.154c3.093-.934,5.8.674,8.528,3.69,5.956,6.538,12.034,19.674,22.614,27.835,15.433,11.927,24.007,11.131,30.881,14.805C306.367,300.653,309.307,306.3,309.307,307.773Z" transform="translate(-6.306 -46.624)"/>
        <path id="_Compound_Path_3" data-name="&lt;Compound Path&gt;" class="cls-6" d="M323.806,265.776c-5.359-3.154-11.927-3.521-21.971-9.952-.719-.474-1.47-.965-2.22-1.485.536.781,1.133,1.623,1.791,2.557.4.582.827,1.194,1.286,1.853q.482.666,1.01,1.332c4.823,6.017,12.815,10.962,17.622,14.836a16.416,16.416,0,0,0,1.807,1.271,13.8,13.8,0,0,0-1.761-2.924c.766.75,1.99,1.96,3.261,3.246.367.383.735.75,1.1,1.133a45.581,45.581,0,0,0,5.16,2.143,4.363,4.363,0,0,0,2.266-2.817C333.222,275.5,330.512,269.741,323.806,265.776Zm-3.2,6.752a3.713,3.713,0,0,1,.72.689C320.943,272.849,320.682,272.6,320.606,272.528Z" transform="translate(-6.306 -46.624)"/>
        <path id="_Path_204" data-name="&lt;Path&gt;" class="cls-7" d="M333.16,276.968a4.363,4.363,0,0,1-2.266,2.817c-.521-6-8.926-13.4-16.306-15.173A42.718,42.718,0,0,1,303.7,260.08c-1.715-1-2.756-1.73-2.756-1.73.138-.505.291-1,.459-1.454a11.216,11.216,0,0,1,.429-1.072c10.044,6.431,16.612,6.8,21.971,9.952C330.512,269.741,333.222,275.5,333.16,276.968Z" transform="translate(-6.306 -46.624)"/>
        <path id="_Path_205" data-name="&lt;Path&gt;" class="cls-6" d="M267.647,231.327a18.857,18.857,0,0,0-4.18,2.174c-1,.674-1.929,1.347-2.8,2.006-12.677,9.615-14.652,18.832-14.652,18.832-2.725-3.016-5.435-4.624-8.528-3.69a7.542,7.542,0,0,0-5.052,3.766l-.337-.077c-2.695-12.509,1.164-17.929,1.164-17.929a10.41,10.41,0,0,0,3.246,1.01c2.281.245,5.022-1.424,7.028-3.276,1.561-1.439,2.695-3,2.832-3.843v-.015a.6.6,0,0,0-.046-.413,17.763,17.763,0,0,0-1.929-2.082,68.047,68.047,0,0,1,9.6-1.1c.613-.03,1.256-.046,1.883-.046C260.4,226.642,265.549,229.857,267.647,231.327Z" transform="translate(-6.306 -46.624)"/>
        <path id="_Path_206" data-name="&lt;Path&gt;" class="cls-6" d="M246.365,230.286v.015c-.138.842-1.271,2.4-2.832,3.843-2.006,1.853-4.746,3.521-7.028,3.276a10.41,10.41,0,0,1-3.246-1.01,35.411,35.411,0,0,1-7.242-4.823c-.031-.03-.046-.03-.046-.03a52.537,52.537,0,0,0,10.212-4.211v-.015a57.98,57.98,0,0,0,6-3.659,8.4,8.4,0,0,0,2.189,4.119h.015a17.763,17.763,0,0,1,1.929,2.082A.6.6,0,0,1,246.365,230.286Z" transform="translate(-6.306 -46.624)"/>
        <path id="_Path_207" data-name="&lt;Path&gt;" class="cls-6" d="M254.162,209.474c-.165,3.727-5.013,9.365-11.972,14.194a58.769,58.769,0,0,1-6,3.672,51.587,51.587,0,0,1-10.209,4.223,39.708,39.708,0,0,1-7.841,1.451,2.855,2.855,0,0,1-1.818,2.7c-1.212.606-3.232.936-6.537.477,0,0-8.318-3.452-9.309-28.571-.477-12.523,6.188-20.529,13.79-24.991,7.62-4.5,16.177-5.417,19.3-3.783a24.952,24.952,0,0,1,8.63,5.086c.716.624,1.451,1.34,2.185,2.112a30.43,30.43,0,0,1,3.783,4.848c.22.312.4.624.606.936C255.135,202.368,254.291,206.3,254.162,209.474Z" transform="translate(-6.306 -46.624)"/>
        <ellipse id="_Path_208" data-name="&lt;Path&gt;" class="cls-10" cx="222.481" cy="203.968" rx="5.634" ry="3.136" transform="translate(-83.774 123.715) rotate(-36.117)"/>
        <path id="_Path_209" data-name="&lt;Path&gt;" class="cls-44" d="M227.214,190.189s1.868-.2,6.242,2.4,6.446-2.25,7.586-.485.47,2.9-1.735,4.118" transform="translate(-6.306 -46.624)"/>
        <path id="_Path_210" data-name="&lt;Path&gt;" class="cls-58" d="M189.288,229.857a15.368,15.368,0,0,1-2.419-.842,22.288,22.288,0,0,1-2.526-15.892c3.246-16.734-7.915-25.553,4.823-29.81-4.318,5.895-3.568,9.967-1.5,12.677,2.618,3.429.8,14.713.8,14.713C187.068,219.018,187.588,225.264,189.288,229.857Z" transform="translate(-6.306 -46.624)"/>
        <path id="_Path_211" data-name="&lt;Path&gt;" class="cls-58" d="M190.681,181.415c-.107.107-.184.2-.275.306-8.589,2.649-13.7,4.961-15.418,24.772-.061.6-.092,1.194-.107,1.761a3.785,3.785,0,0,1-.444-.153,16.868,16.868,0,0,1-3.307-1.608s.107-1.791.536-4.425C172.951,194.016,177.238,178.047,190.681,181.415Z" transform="translate(-6.306 -46.624)"/>
        <g id="_Group_54" data-name="&lt;Group&gt;">
          <path id="_Path_212" data-name="&lt;Path&gt;" class="cls-35" d="M234.64,208.434a6.543,6.543,0,0,1-3.985-1.346.766.766,0,0,1,.969-1.186,5.044,5.044,0,0,0,6.078-.031c1.614-1.141,2.78-2.125,3.81-2.993a22.812,22.812,0,0,1,4.135-2.983c1.933-1.03,1.525-1.951,1.472-2.053a.777.777,0,0,1,.3-1.033.756.756,0,0,1,1.024.263,2.365,2.365,0,0,1,.186,1.78,4.149,4.149,0,0,1-2.261,2.395,21.257,21.257,0,0,0-3.869,2.8c-1.053.887-2.245,1.893-3.913,3.072A6.747,6.747,0,0,1,234.64,208.434Z" transform="translate(-6.306 -46.624)"/>
        </g>
        <path id="_Path_213" data-name="&lt;Path&gt;" class="cls-7" d="M254.158,209.479c-.153,3.72-5.007,9.355-11.973,14.193a57.98,57.98,0,0,1-6,3.659c12.708-19.919-8.819-36.745-8.819-36.745-4.823-9.554-10.84-8.712-13.106-7.961,7.625-4.486,16.183-5.42,19.307-3.782a24.726,24.726,0,0,1,8.62,5.1,32.953,32.953,0,0,1,6.583,7.885C255.138,202.375,254.3,206.295,254.158,209.479Z" transform="translate(-6.306 -46.624)"/>
        <path id="_Path_214" data-name="&lt;Path&gt;" class="cls-59" d="M248.158,190.892c-2.534,1.065-4.994.863-5.711-.551-.606-1.194.239-2.92,1.928-4.3A30.43,30.43,0,0,1,248.158,190.892Z" transform="translate(-6.306 -46.624)"/>
        <g id="_Group_55" data-name="&lt;Group&gt;">
          <path id="_Path_215" data-name="&lt;Path&gt;" class="cls-35" d="M234.221,186.791a.765.765,0,0,1-.618-1.213,7.833,7.833,0,0,1,5.911-2.766.766.766,0,0,1,.069,1.53,6.322,6.322,0,0,0-4.743,2.14A.77.77,0,0,1,234.221,186.791Z" transform="translate(-6.306 -46.624)"/>
        </g>
        <g id="_Group_56" data-name="&lt;Group&gt;">
          <path id="_Path_216" data-name="&lt;Path&gt;" class="cls-35" d="M215.267,203.337a.78.78,0,0,1-.248-.041.766.766,0,0,1-.476-.973,13.709,13.709,0,0,1,6.927-7.181.766.766,0,0,1,.667,1.379,12.3,12.3,0,0,0-6.145,6.3A.766.766,0,0,1,215.267,203.337Z" transform="translate(-6.306 -46.624)"/>
        </g>
        <g id="_Group_57" data-name="&lt;Group&gt;">
          <path id="_Path_217" data-name="&lt;Path&gt;" class="cls-60" d="M209.057,205.8s-.49-8.007,8.5-11.765c0,0,2.778-1.351.981-3.453s-11.6,4.433-10.622,15.218C207.913,205.8,207.913,207.433,209.057,205.8Z" transform="translate(-6.306 -46.624)"/>
          <path id="_Path_218" data-name="&lt;Path&gt;" class="cls-60" d="M238.295,181.079s-4.236-1.584-8.485,3.237c0,0-2.9,1.719-2.109-1.429.8-3.185,7.106-3.712,8.473-2.983" transform="translate(-6.306 -46.624)"/>
        </g>
        <g id="_Group_58" data-name="&lt;Group&gt;">
          <g id="_Group_59" data-name="&lt;Group&gt;">
            <path id="_Path_219" data-name="&lt;Path&gt;" class="cls-61" d="M249.244,217.778a48.7,48.7,0,0,1-7.058,5.895c-.612.429-1.225.842-1.868,1.24-1.317.857-2.71,1.669-4.134,2.419.153-.857,1.209-7.349-2.924-10.09-4.425-2.94-5.5-5.726-5.7-8.987-.015-.2-.031-.4-.061-.582l1.638-.153a5.419,5.419,0,0,0,.184.888c.842,2.909,5.925,1.914,10.916,2.695C243.839,211.669,247.391,213.169,249.244,217.778Z" transform="translate(-6.306 -46.624)"/>
            <path id="_Path_220" data-name="&lt;Path&gt;" class="cls-61" d="M236.888,202.574c-2.5,1.332-8.237.857-7.747,4.945l-1.638.153c-.505-2.695-3.154-2.71-4.072-3.016,8.436-10.3-1.455-16.888-2.343-17.439,2.526,1.363-1.638-4.853-4.455-5.481a2.15,2.15,0,0,0-.429-.046,1.021,1.021,0,0,0-.291.031,34.011,34.011,0,0,1,6.094-2.45c.873,1.761,4.486,8.635,8.451,10.3l-.092.276c-2.649-.811-2.97.49-3,.7v.031s-1.148,1.485,2.94,4.1c.291.184.582.352.888.505a12.307,12.307,0,0,0,4.976,1.409v.015S239.552,201.135,236.888,202.574Z" transform="translate(-6.306 -46.624)"/>
            <path id="_Path_221" data-name="&lt;Path&gt;" class="cls-61" d="M223.43,204.656c.919.306,3.567.322,4.072,3.016.031.184.046.383.061.582.2,3.261,1.271,6.048,5.7,8.987,4.134,2.741,3.077,9.232,2.924,10.089a51.661,51.661,0,0,1-10.212,4.226,38.513,38.513,0,0,1-7.839,1.454,2.868,2.868,0,0,1-1.822,2.71c-1.209.6-3.215.934-6.522.475,0,0-8.329-3.46-9.309-28.569-.521-13.427,7.181-21.649,15.418-25.905h.015c2.756-.536,7.977,7.058,5.129,5.466l-.015-.015c-2.894-1.638-7.074-1.3-11.146,3.414-4.088,4.716-6.048,14.239-2.036,20.287C211.855,216.9,222.45,204.335,223.43,204.656Z" transform="translate(-6.306 -46.624)"/>
          </g>
        </g>
        <path id="_Path_222" data-name="&lt;Path&gt;" class="cls-15" d="M203.343,201.774s.949,1.216,1.225,4.721,3.17,11.132,7.209,8.594-1.207,9.863-2.157,11.19-4.052,3.277-5.052-2.164S201.332,207.838,203.343,201.774Z" transform="translate(-6.306 -46.624)"/>
        <g id="_Group_60" data-name="&lt;Group&gt;" class="cls-62">
          <path id="_Path_223" data-name="&lt;Path&gt;" class="cls-2" d="M230.458,189.576l-.092.276c-2.649-.811-2.97.49-3,.7-5.7-7.318-9.293-8.635-10.733-8.819a1.627,1.627,0,0,0-.429-.046,1.021,1.021,0,0,0-.291.031,34.011,34.011,0,0,1,6.094-2.45C222.879,181.032,226.492,187.907,230.458,189.576Z" transform="translate(-6.306 -46.624)"/>
          <path id="_Path_224" data-name="&lt;Path&gt;" class="cls-2" d="M236.168,196.618s3.384,4.516.72,5.956c-1.347-3.613-1.776-2.909-5.7-7.38a12.307,12.307,0,0,0,4.976,1.409Z" transform="translate(-6.306 -46.624)"/>
          <path id="_Path_225" data-name="&lt;Path&gt;" class="cls-2" d="M249.244,217.778a48.7,48.7,0,0,1-7.058,5.895c-.612.429-1.225.842-1.868,1.24,2.526-3.6,1.531-9.018-.077-13.81C243.839,211.669,247.391,213.169,249.244,217.778Z" transform="translate(-6.306 -46.624)"/>
        </g>
        <path id="_Path_226" data-name="&lt;Path&gt;" class="cls-11" d="M242.185,193.878a4.338,4.338,0,0,1-.934,1.225,5.253,5.253,0,0,1-2.2,1.209,11.359,11.359,0,0,1-8.742-1.623c-4.088-2.618-2.94-4.1-2.94-4.1v-.031c.046-.291.521-2.052,4.838.031,4.67,2.266,6.109-.153,7.349-.8C240.792,189.132,244.023,190.28,242.185,193.878Z" transform="translate(-6.306 -46.624)"/>
        <path id="_Path_227" data-name="&lt;Path&gt;" class="cls-7" d="M242.185,193.878a4.338,4.338,0,0,1-.934,1.225,3.419,3.419,0,0,0-.689-2.45c-1.7-2.128-3.46,3.031-6.614.811a23.219,23.219,0,0,0-6.583-2.909c.046-.291.521-2.052,4.838.031,4.67,2.266,6.109-.153,7.349-.8C240.792,189.132,244.023,190.28,242.185,193.878Z" transform="translate(-6.306 -46.624)"/>
        <path id="_Path_228" data-name="&lt;Path&gt;" class="cls-7" d="M267.647,231.327a18.857,18.857,0,0,0-4.18,2.174c-1,.674-1.929,1.347-2.8,2.006-6.691-5.114-17.132-1.363-17.132-1.363-2.664-4.18-5.619-4-5.619-4-5.313,3.292-11.345,1.593-11.9,1.439-.031-.03-.046-.03-.046-.03a52.537,52.537,0,0,0,10.212-4.211v-.015a57.98,57.98,0,0,0,6-3.659,8.4,8.4,0,0,0,2.189,4.119h.015a68.047,68.047,0,0,1,9.6-1.1c.613-.03,1.256-.046,1.883-.046C260.4,226.642,265.549,229.857,267.647,231.327Z" transform="translate(-6.306 -46.624)"/>
        <path id="_Path_229" data-name="&lt;Path&gt;" class="cls-58" d="M231.284,178.2h-.015c-3.568-.459-9.309.505-14.882,3.276-1.485-1.47-9.646-8.681-22.522-3.384a21.222,21.222,0,0,1,9.477-5.4c5.91-1.485,11.314.107,15.035.75,3.491.612,9.722-.689,15.249,1.439C233.948,176.24,233.076,177.3,231.284,178.2Z" transform="translate(-6.306 -46.624)"/>
        <path id="_Path_230" data-name="&lt;Path&gt;" class="cls-15" d="M220.284,210.262s4.361-4.261,5.688-5.451-1.579,4.3,3.191,6.914,10.475,4.384,8.748,10-6.413,5.611-6.413,5.611-1.494-8.417-5.525-11.343S217.352,211.8,220.284,210.262Z" transform="translate(-6.306 -46.624)"/>
        <path id="_Path_231" data-name="&lt;Path&gt;" class="cls-15" d="M232.929,250.751s-.905-10.207,1.335-11.769,5.262,1.246,12.545,4.632a10.373,10.373,0,0,1-.8,6.306C244.478,252.817,243.153,241.743,232.929,250.751Z" transform="translate(-6.306 -46.624)"/>
        <path id="_Path_232" data-name="&lt;Path&gt;" class="cls-15" d="M300,311.692c-1.47.49-2.94-1.96-4.9-4.409-1.975-2.45-5.895-5.65-13-7.364a134.213,134.213,0,0,1-16.137-4.073c-.015-.015-.046-.015-.061-.03-9.477-3.292-20.684-9.4-28.416-21.634-4.945-7.824-6.262-13.075-5.941-16.581a7.342,7.342,0,0,1,2.725-.9s3.751.4,7.318,9.263c3.567,8.85,5.236,18.8,28.263,27.222S294.41,301.051,300,311.692Z" transform="translate(-6.306 -46.624)"/>
      </g>
      <g id="_Group_61" data-name="&lt;Group&gt;">
        <path id="_Path_233" data-name="&lt;Path&gt;" class="cls-6" d="M180.729,237.635c2.6-1.837,4.639-2.006,8.069,0,3.43,1.99,7.349,2.312,6.2,3.782-1.133,1.47-5.879,1.148-8.329,0-2.45-1.133-3.23,3.766-2.756,5.236s3.077,4.088,5.037,2.94c1.975-1.148,4.256-7.226,5.726-6.553s1.393,4.272.536,6.231-.7,7.027-2.817,8.65c-2.128,1.638-13.075,2.48-22.552-7.165-.735-3.828,1.516-10.564,1.516-10.564S178.141,239.472,180.729,237.635Z" transform="translate(-6.306 -46.624)"/>
        <g id="_Group_62" data-name="&lt;Group&gt;">
          <path id="_Path_234" data-name="&lt;Path&gt;" class="cls-63" d="M170.348,243.882a19.033,19.033,0,0,0-.505,6.874s-28.156-12.141-38.491-32.611c-6.476-12.846-8.589-21.1-7.992-26.64a11.176,11.176,0,0,1,3.583-7.41s8.819-4.991,14.223,8.6c5.389,13.6,12.356,34.586,30.192,47.493C171.359,240.192,170.823,241.8,170.348,243.882Z" transform="translate(-6.306 -46.624)"/>
          <path id="_Path_235" data-name="&lt;Path&gt;" class="cls-15" d="M127.584,200.819s10.033,31.294,37.422,44.2C165.007,245.018,140.148,225.067,127.584,200.819Z" transform="translate(-6.306 -46.624)"/>
          <path id="_Path_236" data-name="&lt;Path&gt;" class="cls-28" d="M171.359,240.192s-.536,1.608-1.01,3.69c-12.478-6.89-29.519-31.647-34.724-45.748-5.435-14.668-12.264-6.63-12.264-6.63a11.176,11.176,0,0,1,3.583-7.41s8.819-4.991,14.223,8.6C146.556,206.295,153.522,227.285,171.359,240.192Z" transform="translate(-6.306 -46.624)"/>
        </g>
        <path id="_Path_237" data-name="&lt;Path&gt;" class="cls-64" d="M190.6,242.363l-35.627,23.245s-1.088,2.449,2.124,3.1l35.452-23.918S193.747,243,190.6,242.363Z" transform="translate(-6.306 -46.624)"/>
        <polygon id="_Path_238" data-name="&lt;Path&gt;" class="cls-65" points="205.856 181.534 207.157 183.525 200.068 188.5 198.262 186.541 205.856 181.534"/>
        <polygon id="_Path_239" data-name="&lt;Path&gt;" class="cls-64" points="198.262 186.541 200.068 188.5 186.243 198.177 184.283 195.742 198.262 186.541"/>
        <g id="_Group_63" data-name="&lt;Group&gt;">
          <path id="_Path_240" data-name="&lt;Path&gt;" class="cls-66" d="M228.927,226.765a22.067,22.067,0,0,1,.23,3.874s-9.309,1.3-15.693-.49Z" transform="translate(-6.306 -46.624)"/>
          <path id="_Path_241" data-name="&lt;Path&gt;" class="cls-66" d="M227.732,222.34l-14.9,6.844,12.953-10.136A13.643,13.643,0,0,1,227.732,222.34Z" transform="translate(-6.306 -46.624)"/>
          <path id="_Path_242" data-name="&lt;Path&gt;" class="cls-66" d="M222.481,216.063l-9.646,13.121,5.757-14.928A15.835,15.835,0,0,1,222.481,216.063Z" transform="translate(-6.306 -46.624)"/>
        </g>
        <g id="_Group_64" data-name="&lt;Group&gt;">
          <path id="_Path_243" data-name="&lt;Path&gt;" class="cls-67" d="M212.835,229.184l14.9-6.844a16.779,16.779,0,0,1,1.194,4.425l-15.464,3.384Z" transform="translate(-6.306 -46.624)"/>
          <path id="_Path_244" data-name="&lt;Path&gt;" class="cls-67" d="M225.788,219.048l-12.953,10.136,9.646-13.121A13.89,13.89,0,0,1,225.788,219.048Z" transform="translate(-6.306 -46.624)"/>
          <path id="_Path_245" data-name="&lt;Path&gt;" class="cls-67" d="M218.592,214.256l-5.757,14.928-.674-1.026s2.618-11.667,3.184-14.56A13.819,13.819,0,0,1,218.592,214.256Z" transform="translate(-6.306 -46.624)"/>
        </g>
      </g>
      <g id="_Group_65" data-name="&lt;Group&gt;" class="cls-68">
        <circle id="_Path_246" data-name="&lt;Path&gt;" class="cls-69" cx="78.457" cy="231.134" r="66.4"/>
        <circle id="_Path_247" data-name="&lt;Path&gt;" class="cls-69" cx="78.457" cy="231.134" r="45.601"/>
        <circle id="_Path_248" data-name="&lt;Path&gt;" class="cls-69" cx="78.457" cy="231.134" r="20.719"/>
      </g>
      <g id="_Group_66" data-name="&lt;Group&gt;" class="cls-70">
        <circle id="_Path_249" data-name="&lt;Path&gt;" class="cls-69" cx="99.176" cy="202.225" r="66.4"/>
        <circle id="_Path_250" data-name="&lt;Path&gt;" class="cls-69" cx="99.176" cy="202.225" r="45.601"/>
        <circle id="_Path_251" data-name="&lt;Path&gt;" class="cls-69" cx="99.176" cy="202.225" r="20.719"/>
      </g>
    </g>
  </g>
</svg>
