<svg xmlns="http://www.w3.org/2000/svg" viewBox="0 0 489.494 435.816">
  <defs>
    <style>
      .cls-1 {
        fill: #db8e2f;
      }

      .cls-11, .cls-13, .cls-2, .cls-22, .cls-28, .cls-31, .cls-34 {
        fill: #341d14;
      }

      .cls-3 {
        fill: #66360b;
      }

      .cls-4 {
        fill: #89511e;
      }

      .cls-5 {
        fill: #e3d4c0;
        opacity: 0.81;
      }

      .cls-17, .cls-20, .cls-42, .cls-6 {
        fill: none;
      }

      .cls-17, .cls-6 {
        stroke: #b7a293;
      }

      .cls-17, .cls-20, .cls-6 {
        stroke-miterlimit: 10;
      }

      .cls-42, .cls-6 {
        stroke-width: 0.839px;
      }

      .cls-7 {
        fill: #c2814f;
      }

      .cls-8 {
        fill: #a36737;
      }

      .cls-9 {
        fill: #5b2b16;
      }

      .cls-10 {
        fill: #e8c59d;
      }

      .cls-11 {
        opacity: 0.16;
      }

      .cls-12 {
        fill: #a08c21;
      }

      .cls-13 {
        opacity: 0.41;
      }

      .cls-14 {
        fill: #efc546;
      }

      .cls-15 {
        fill: #f4ffd8;
      }

      .cls-16 {
        fill: #714019;
      }

      .cls-17 {
        stroke-width: 1.677px;
      }

      .cls-18 {
        fill: #fbfdff;
      }

      .cls-19 {
        fill: #d8e4f0;
      }

      .cls-20 {
        stroke: #222221;
        stroke-width: 0.789px;
      }

      .cls-21 {
        fill: #edbb2c;
      }

      .cls-22 {
        opacity: 0.17;
      }

      .cls-23 {
        fill: #f9f8fd;
        opacity: 0.43;
      }

      .cls-24 {
        fill: #915318;
      }

      .cls-25 {
        fill: #a2631c;
      }

      .cls-26 {
        fill: #ac998b;
      }

      .cls-27 {
        fill: #c4b19c;
      }

      .cls-28 {
        opacity: 0.26;
      }

      .cls-29 {
        fill: #947865;
      }

      .cls-30, .cls-40, .cls-43 {
        fill: #f3edbf;
      }

      .cls-30 {
        opacity: 0.25;
      }

      .cls-31 {
        opacity: 0.4;
      }

      .cls-32 {
        fill: #442f12;
        opacity: 0.42;
      }

      .cls-33 {
        fill: #eae6dc;
      }

      .cls-34 {
        opacity: 0.12;
      }

      .cls-35 {
        fill: #603c11;
      }

      .cls-36 {
        fill: #d7a08e;
      }

      .cls-37, .cls-38 {
        fill: #e1768b;
      }

      .cls-37 {
        opacity: 0.54;
      }

      .cls-38 {
        opacity: 0.61;
      }

      .cls-39 {
        fill: #fff;
        opacity: 0.22;
      }

      .cls-40 {
        opacity: 0.2;
      }

      .cls-41 {
        fill: #b4596b;
      }

      .cls-42 {
        stroke: #452911;
        stroke-linecap: round;
        stroke-linejoin: round;
      }

      .cls-43 {
        opacity: 0.1;
      }
    </style>
  </defs>
  <title>bg3</title>
  <g id="OBJECTS">
    <path id="_Path_" data-name="&lt;Path&gt;" class="cls-1" d="M93.569,237.836c.02.03,0,.04-.08.05S93.429,237.876,93.569,237.836Z" transform="translate(-5.506 -21.895)"/>
    <g id="_Group_" data-name="&lt;Group&gt;">
      <path id="_Path_2" data-name="&lt;Path&gt;" class="cls-2" d="M44.566,308.575c7.654,13.444,17.454,25.082,29.5,33.865,83.3,60.736,177.642,56.5,177.642,56.5s138.571-3.152,213.764-118.058a181.008,181.008,0,0,0,24.156-55.2C515.964,120.1,443.141,5.567,323.2,35.476c-141.52,35.293-112.184-10.815-195.876,32.9C46.433,110.637-.647,229.011,44.566,308.575Z" transform="translate(-5.506 -21.895)"/>
      <g id="_Group_2" data-name="&lt;Group&gt;">
        <g id="_Group_3" data-name="&lt;Group&gt;">
          <polygon id="_Path_3" data-name="&lt;Path&gt;" class="cls-1" points="282.867 70.529 233.981 104.273 164.222 78.334 217.436 48.762 282.867 70.529"/>
          <polygon id="_Path_4" data-name="&lt;Path&gt;" class="cls-3" points="233.981 104.273 234.762 172.678 169.14 142.272 164.222 78.334 233.981 104.273"/>
          <polygon id="_Path_5" data-name="&lt;Path&gt;" class="cls-4" points="282.867 70.529 281.017 138.694 234.762 172.678 233.981 104.273 282.867 70.529"/>
        </g>
        <g id="_Group_4" data-name="&lt;Group&gt;">
          <polygon id="_Path_6" data-name="&lt;Path&gt;" class="cls-5" points="185.977 76.565 221.935 56.208 266.924 70.672 232.218 94.322 185.977 76.565"/>
          <polygon id="_Path_7" data-name="&lt;Path&gt;" class="cls-6" points="194.381 75.917 223.316 59.967 257.973 72.352 231.749 89.8 194.381 75.917"/>
        </g>
        <g id="_Group_5" data-name="&lt;Group&gt;">
          <g id="_Group_6" data-name="&lt;Group&gt;">
            <path id="_Path_8" data-name="&lt;Path&gt;" class="cls-7" d="M231.892,93.989a20.076,20.076,0,0,1-3.82,1.083c-16.586,3.038-25.518-9.985-27.112-14.09-.271-.662-4.752-10.2,10.692-17.2.361-.165.722-.316,1.068-.466A34.848,34.848,0,0,1,228,60.365a27.517,27.517,0,0,1,5.2.707,26.189,26.189,0,0,1,10.917,5.293C248.884,70.425,245.351,88.7,231.892,93.989Z" transform="translate(-5.506 -21.895)"/>
            <path id="_Path_9" data-name="&lt;Path&gt;" class="cls-8" d="M217.547,63.849c13.919-3.744,23.9,1.616,24.618,5.717a7.663,7.663,0,0,1,.089,1.85c-.6-2.106-1.56-2.585-4.725-4.7-3.209-2.14-3.566-.357-8.2-1.961s-8.213.357-12.493,1.248-5.706,4.636-9.283,6.241-3.042,6.608-3.042,6.608a7.04,7.04,0,0,1-.869-2.318S201.711,68.106,217.547,63.849Z" transform="translate(-5.506 -21.895)"/>
            <path id="_Path_10" data-name="&lt;Path&gt;" class="cls-9" d="M237.528,66.713c3.165,2.117,4.123,2.6,4.725,4.7-.312,4.157-4.123,9.807-18.979,11.534-12.236,1.415-16.984-1.114-18.767-4.1,0,0-.524-5,3.042-6.608s5-5.349,9.283-6.241,7.845-2.853,12.493-1.248S234.319,64.574,237.528,66.713Z" transform="translate(-5.506 -21.895)"/>
            <g id="_Group_7" data-name="&lt;Group&gt;">
              <g id="_Group_8" data-name="&lt;Group&gt;">
                <path id="_Path_11" data-name="&lt;Path&gt;" class="cls-10" d="M234.614,57.072c-3.985-.015-5.8-1.459-5.985-1.594a1.478,1.478,0,0,1,.511-1.429h.03c2.887,0,4.451.331,5.263.782C236.088,55.719,234.614,57.072,234.614,57.072Z" transform="translate(-5.506 -21.895)"/>
                <path id="_Path_12" data-name="&lt;Path&gt;" class="cls-10" d="M233.787,66.891c1.85,3.835,0,6.075,0,6.075a2.207,2.207,0,0,1-.286.105c-9.1,3.489-13.458-3.143-13.458-3.143a7.4,7.4,0,0,1,2.181-4.12h.015a10.505,10.505,0,0,1,2.015-1.564.015.015,0,0,1,.015-.015h.015a10.167,10.167,0,0,0,1.97-1.639A12.921,12.921,0,0,0,228,60.365c.932-1.474,1.414-2.947.977-3.819a3.108,3.108,0,0,1-.346-1.068c.18.135,2,1.579,5.985,1.594a12.187,12.187,0,0,0-1.414,4,10.374,10.374,0,0,0-.2,2.2,8.8,8.8,0,0,0,.286,2.24A8,8,0,0,0,233.787,66.891Z" transform="translate(-5.506 -21.895)"/>
              </g>
            </g>
          </g>
          <path id="_Path_13" data-name="&lt;Path&gt;" class="cls-11" d="M231.892,93.989a45.391,45.391,0,0,0,2.737-13.819v-.015a18.78,18.78,0,0,0-1.128-7.083c-1.534-3.895-4.857-6.872-11.263-7.263h-.015c-1.2-.075-2.286-.18-3.263-.331h-.015a21,21,0,0,1-3.789-.9,9.625,9.625,0,0,1-2.436-1.263A34.848,34.848,0,0,1,228,60.365c.932-1.474,1.414-2.947.977-3.819a3.108,3.108,0,0,1-.346-1.068,1.478,1.478,0,0,1,.511-1.429h.03c1.714.256,3.489.511,5.263.782,1.654.887.18,2.24.18,2.24a12.187,12.187,0,0,0-1.414,4,26.189,26.189,0,0,1,10.917,5.293C248.884,70.425,245.351,88.7,231.892,93.989Z" transform="translate(-5.506 -21.895)"/>
        </g>
        <g id="_Group_9" data-name="&lt;Group&gt;">
          <g id="_Group_10" data-name="&lt;Group&gt;">
            <path id="_Path_14" data-name="&lt;Path&gt;" class="cls-12" d="M220.82,114.205s.251-14.407,15.358-11.6C236.178,102.6,236.255,114.927,220.82,114.205Z" transform="translate(-5.506 -21.895)"/>
            <path id="_Path_15" data-name="&lt;Path&gt;" class="cls-12" d="M236.261,102.88s4.459-13.7,18.082-6.594C254.343,96.286,250.807,108.09,236.261,102.88Z" transform="translate(-5.506 -21.895)"/>
            <path id="_Path_16" data-name="&lt;Path&gt;" class="cls-13" d="M236.261,102.88s4.459-13.7,18.082-6.594C254.343,96.286,250.807,108.09,236.261,102.88Z" transform="translate(-5.506 -21.895)"/>
          </g>
          <g id="_Group_11" data-name="&lt;Group&gt;">
            <g id="_Group_12" data-name="&lt;Group&gt;">
              <g id="_Group_13" data-name="&lt;Group&gt;">
                <path id="_Path_17" data-name="&lt;Path&gt;" class="cls-14" d="M238.04,101.243a2.165,2.165,0,1,1-2.165-2.165A2.166,2.166,0,0,1,238.04,101.243Z" transform="translate(-5.506 -21.895)"/>
                <path id="_Path_18" data-name="&lt;Path&gt;" class="cls-15" d="M246.463,108.079c-2.782,2.9-5.233,2.015-5.489,1.91.842-2.436-.21-5.639-.3-5.94l-.015-.015h.015a12.536,12.536,0,0,0,5.744-1.549A3.731,3.731,0,0,1,246.463,108.079Z" transform="translate(-5.506 -21.895)"/>
                <path id="_Path_19" data-name="&lt;Path&gt;" class="cls-15" d="M240.975,109.988c-.586,1.639-2,2.932-5.1,2.842a6.43,6.43,0,0,1-1.143-.135h-.015c-3.534-.707-3.4-4.271-2.617-7.233a24.406,24.406,0,0,1,1.609-4.225,2.156,2.156,0,0,0,2.165,2.165,12.472,12.472,0,0,0,4.782.631l.015.015C240.764,104.349,241.817,107.552,240.975,109.988Z" transform="translate(-5.506 -21.895)"/>
                <path id="_Path_20" data-name="&lt;Path&gt;" class="cls-15" d="M246.418,102.485a12.536,12.536,0,0,1-5.744,1.549h-.015a12.472,12.472,0,0,1-4.782-.631,2.166,2.166,0,0,0,2.165-2.165,25.267,25.267,0,0,0,1.519-2.2,21.994,21.994,0,0,0,1.549-2.977l.015-.015c.2-.18,2.18-1.91,4.316-.977v.015a5.5,5.5,0,0,1,2.466,2.572C249.05,99.763,248.193,101.387,246.418,102.485Z" transform="translate(-5.506 -21.895)"/>
                <path id="_Path_21" data-name="&lt;Path&gt;" class="cls-15" d="M241.125,96.049l-.015.015a21.994,21.994,0,0,1-1.549,2.977,25.267,25.267,0,0,1-1.519,2.2,2.165,2.165,0,0,0-4.331,0,24.523,24.523,0,0,1-.8-3.323,13.308,13.308,0,0,1,0-5.5,4.148,4.148,0,0,1,1.819-2.677,5.241,5.241,0,0,1,3.308-.526C242.6,89.733,242.358,93.026,241.125,96.049Z" transform="translate(-5.506 -21.895)"/>
                <path id="_Path_22" data-name="&lt;Path&gt;" class="cls-15" d="M232.913,92.416a13.307,13.307,0,0,0,0,5.5H232.9a14.193,14.193,0,0,0-6.286.541c-.722-.346-2.09-1.579.361-5.338,3.128-4.827,5.925-.707,5.925-.707Z" transform="translate(-5.506 -21.895)"/>
                <path id="_Path_23" data-name="&lt;Path&gt;" class="cls-15" d="M232.913,97.92a24.521,24.521,0,0,0,.8,3.323,24.39,24.39,0,0,0-1.609,4.225c-1.248,1.323-5.684,5.368-7.639-.376-1.293-3.8-.075-5.744,2.15-6.632a14.193,14.193,0,0,1,6.286-.541Z" transform="translate(-5.506 -21.895)"/>
              </g>
            </g>
            <path id="_Path_24" data-name="&lt;Path&gt;" class="cls-11" d="M245.066,108.871c-3.271,2.337-5.516,1.011-5.747.86-.88,1.5-2.508,2.511-5.536,1.849a6.408,6.408,0,0,1-1.1-.345c4.29-.11,5.786-3.5,7.438-7.4l0-.015c.227-.554.471-1.12.716-1.686.805-1.838.1-2.812-.885-3.426-1.6-1.005-3.941-1.094-1.518-2.581,3.9-2.418-1.812-6.462-1.812-6.462.1-.349.2-.681.31-1a5.242,5.242,0,0,1,3.349.1c4.38,1.361,3.534,4.553,1.762,7.295.226-.141,2.5-1.473,4.422-.161l0,.015a5.5,5.5,0,0,1,1.947,2.984c.733,2.28-.41,3.718-2.357,4.468A3.731,3.731,0,0,1,245.066,108.871Z" transform="translate(-5.506 -21.895)"/>
          </g>
        </g>
      </g>
      <g id="_Group_14" data-name="&lt;Group&gt;">
        <g id="_Group_15" data-name="&lt;Group&gt;">
          <polygon id="_Path_25" data-name="&lt;Path&gt;" class="cls-16" points="70.766 215.609 71.984 285.187 0 234.481 0 172.678 70.766 215.609"/>
          <polygon id="_Path_26" data-name="&lt;Path&gt;" class="cls-4" points="225.304 111.356 225.078 178.813 71.984 285.187 70.766 215.609 225.304 111.356"/>
          <polygon id="_Path_27" data-name="&lt;Path&gt;" class="cls-1" points="225.304 111.356 70.766 215.609 0 172.678 150.914 80.347 225.304 111.356"/>
        </g>
        <g id="_Group_16" data-name="&lt;Group&gt;">
          <polygon id="_Path_28" data-name="&lt;Path&gt;" class="cls-5" points="27.084 171.728 152.04 92.378 206.914 116.074 78.195 202.786 27.084 171.728"/>
          <polygon id="_Path_29" data-name="&lt;Path&gt;" class="cls-17" points="38.125 172.678 154.26 98.199 198.004 116.687 80.284 196.965 38.125 172.678"/>
        </g>
        <g id="_Group_17" data-name="&lt;Group&gt;">
          <g id="_Group_18" data-name="&lt;Group&gt;">
            <path id="_Path_30" data-name="&lt;Path&gt;" class="cls-12" d="M24.535,188.357s11.132-9.149,18.789,4.173C43.325,192.53,33.992,200.577,24.535,188.357Z" transform="translate(-5.506 -21.895)"/>
            <path id="_Path_31" data-name="&lt;Path&gt;" class="cls-12" d="M43.168,192.772s13.323-5.488,16.743,9.493C59.911,202.265,48.632,207.225,43.168,192.772Z" transform="translate(-5.506 -21.895)"/>
            <path id="_Path_32" data-name="&lt;Path&gt;" class="cls-13" d="M43.168,192.772s13.323-5.488,16.743,9.493C59.911,202.265,48.632,207.225,43.168,192.772Z" transform="translate(-5.506 -21.895)"/>
          </g>
          <g id="_Group_19" data-name="&lt;Group&gt;">
            <g id="_Group_20" data-name="&lt;Group&gt;">
              <g id="_Group_21" data-name="&lt;Group&gt;">
                <path id="_Path_33" data-name="&lt;Path&gt;" class="cls-14" d="M45.569,193.065a2.165,2.165,0,1,1,.245-3.053A2.166,2.166,0,0,1,45.569,193.065Z" transform="translate(-5.506 -21.895)"/>
                <path id="_Path_34" data-name="&lt;Path&gt;" class="cls-15" d="M45.825,203.91c-4.013-.236-4.927-2.678-5.012-2.941,2.4-.938,4.157-3.816,4.328-4.08l0-.021.01.011a12.533,12.533,0,0,0,4.9,3.37A3.731,3.731,0,0,1,45.825,203.91Z" transform="translate(-5.506 -21.895)"/>
                <path id="_Path_35" data-name="&lt;Path&gt;" class="cls-15" d="M40.812,200.969c-1.628.616-3.529.378-5.468-2.039a6.422,6.422,0,0,1-.638-.958l-.01-.011c-1.753-3.149,1.049-5.356,3.811-6.681a24.4,24.4,0,0,1,4.26-1.514,2.157,2.157,0,0,0-.245,3.052,12.474,12.474,0,0,0,2.619,4.05l0,.021C44.969,197.153,43.213,200.031,40.812,200.969Z" transform="translate(-5.506 -21.895)"/>
                <path id="_Path_36" data-name="&lt;Path&gt;" class="cls-15" d="M50.055,200.249a12.533,12.533,0,0,1-4.9-3.37l-.01-.011a12.474,12.474,0,0,1-2.619-4.05,2.166,2.166,0,0,0,3.053.245,25.257,25.257,0,0,0,2.656-.267,22.007,22.007,0,0,0,3.271-.751l.021,0c.264.032,2.868.422,3.542,2.652l-.011.01a5.5,5.5,0,0,1-.359,3.545C53.833,200.489,52.041,200.889,50.055,200.249Z" transform="translate(-5.506 -21.895)"/>
                <path id="_Path_37" data-name="&lt;Path&gt;" class="cls-15" d="M51.523,192.047l-.021,0a22.007,22.007,0,0,1-3.271.751,25.257,25.257,0,0,1-2.656.267,2.165,2.165,0,1,0-2.808-3.3A24.517,24.517,0,0,1,44.781,187a13.311,13.311,0,0,1,4.191-3.568,4.148,4.148,0,0,1,3.218-.35,5.242,5.242,0,0,1,2.545,2.178C57.288,189.075,54.624,191.026,51.523,192.047Z" transform="translate(-5.506 -21.895)"/>
                <path id="_Path_38" data-name="&lt;Path&gt;" class="cls-15" d="M48.965,183.439a13.31,13.31,0,0,0-4.19,3.568l-.01-.011a14.19,14.19,0,0,0-4.487-4.435c-.2-.774-.153-2.615,4.3-3.186,5.7-.748,4.379,4.053,4.379,4.053Z" transform="translate(-5.506 -21.895)"/>
                <path id="_Path_39" data-name="&lt;Path&gt;" class="cls-15" d="M44.775,187.007a24.519,24.519,0,0,0-2.014,2.761,24.4,24.4,0,0,0-4.26,1.514c-1.817-.093-7.772-.848-4.666-6.06,2.058-3.451,4.325-3.781,6.443-2.662A14.19,14.19,0,0,1,44.765,187Z" transform="translate(-5.506 -21.895)"/>
              </g>
            </g>
            <path id="_Path_40" data-name="&lt;Path&gt;" class="cls-11" d="M44.315,203.36c-3.9-.976-4.346-3.544-4.381-3.818-1.714.3-3.538-.282-5-3.016a6.43,6.43,0,0,1-.449-1.059c2.865,3.2,6.416,2.136,10.454.868l.013-.008c.569-.186,1.158-.367,1.748-.548,1.921-.578,2.207-1.746,2.035-2.895-.272-1.871-1.721-3.71.981-2.829,4.368,1.4,3.746-5.569,3.746-5.569.328-.153.651-.285.96-.41a5.241,5.241,0,0,1,2.1,2.612c1.8,4.217-1.175,5.642-4.411,6.071.254.08,2.74.946,2.99,3.262l-.013.007a5.5,5.5,0,0,1-1.009,3.417c-1.261,2.037-3.1,2.1-4.93,1.1A3.731,3.731,0,0,1,44.315,203.36Z" transform="translate(-5.506 -21.895)"/>
          </g>
        </g>
        <g id="_Group_22" data-name="&lt;Group&gt;">
          <g id="_Group_23" data-name="&lt;Group&gt;">
            <path id="_Path_41" data-name="&lt;Path&gt;" class="cls-18" d="M185.637,129.176c7.338,0,13.278,1.158,13.278,2.571,0,1.429-5.94,2.572-13.278,2.572s-13.278-1.143-13.278-2.572C172.359,130.334,178.3,129.176,185.637,129.176Z" transform="translate(-5.506 -21.895)"/>
            <g id="_Group_24" data-name="&lt;Group&gt;">
              <path id="_Path_42" data-name="&lt;Path&gt;" class="cls-19" d="M198.915,131.747V142.2a6.041,6.041,0,0,1-3.789,5.669,26.913,26.913,0,0,1-19.368-.18,5.335,5.335,0,0,1-3.4-4.992V131.747c0,.391.466.767,1.293,1.113.015-.015.015,0,.015,0a12.912,12.912,0,0,0,2.105.617,51,51,0,0,0,9.864.842C192.976,134.319,198.915,133.176,198.915,131.747Z" transform="translate(-5.506 -21.895)"/>
              <line id="_Path_43" data-name="&lt;Path&gt;" class="cls-20" x1="179.976" y1="109.855" x2="179.976" y2="103.681"/>
              <path id="_Path_44" data-name="&lt;Path&gt;" class="cls-21" d="M185.481,128.317s-6.642.711-4.111-5.991,1.768-10.477,1.768-10.477S195.15,122.671,185.481,128.317Z" transform="translate(-5.506 -21.895)"/>
              <path id="_Path_45" data-name="&lt;Path&gt;" class="cls-22" d="M198.915,142.2a6.041,6.041,0,0,1-3.789,5.669,26.913,26.913,0,0,1-19.368-.18,5.335,5.335,0,0,1-3.4-4.992V133.01c.421-.06.857-.12,1.293-.15.015-.015.015,0,.015,0,.647-.075,1.308-.12,2.015-.15,0,0,.015.286.09.767C176.269,137.311,179.577,153.9,198.915,142.2Z" transform="translate(-5.506 -21.895)"/>
            </g>
          </g>
          <g id="_Group_25" data-name="&lt;Group&gt;">
            <path id="_Path_46" data-name="&lt;Path&gt;" class="cls-18" d="M98.436,155.972c0,1.895-5.654,3.444-12.646,3.444s-12.646-1.549-12.646-3.444,5.654-3.429,12.646-3.429S98.436,154.078,98.436,155.972Z" transform="translate(-5.506 -21.895)"/>
            <path id="_Path_47" data-name="&lt;Path&gt;" class="cls-19" d="M98.436,155.972v36.135a7.2,7.2,0,0,1-3.549,6.2c-9.158,5.383-17.127,1.083-20.766-1.624a5.1,5.1,0,0,1-2.03-4.255l1.053-36.45s.015.075.03.241c.451,1.789,5.925,3.2,12.616,3.2C92.782,159.416,98.436,157.867,98.436,155.972Z" transform="translate(-5.506 -21.895)"/>
            <line id="_Path_48" data-name="&lt;Path&gt;" class="cls-20" x1="80.283" y1="134.08" x2="80.283" y2="127.906"/>
            <path id="_Path_49" data-name="&lt;Path&gt;" class="cls-21" d="M85.789,152.542s-6.642.711-4.111-5.991,1.768-10.477,1.768-10.477S95.457,146.9,85.789,152.542Z" transform="translate(-5.506 -21.895)"/>
            <path id="_Path_50" data-name="&lt;Path&gt;" class="cls-22" d="M98.436,192.107a7.2,7.2,0,0,1-3.549,6.2c-9.158,5.383-17.127,1.083-20.766-1.624a5.1,5.1,0,0,1-2.03-4.255l1.053-36.45s.015.075.03.241C73.64,159.777,79.549,201.731,98.436,192.107Z" transform="translate(-5.506 -21.895)"/>
          </g>
          <g id="_Group_26" data-name="&lt;Group&gt;">
            <g id="_Group_27" data-name="&lt;Group&gt;">
              <g id="_Group_28" data-name="&lt;Group&gt;">
                <path id="_Path_51" data-name="&lt;Path&gt;" class="cls-18" d="M139.308,104.409c0,2.872-8.556,5.188-19.113,5.188s-19.112-2.316-19.112-5.188c0-2.857,8.556-5.188,19.112-5.188S139.308,101.552,139.308,104.409Z" transform="translate(-5.506 -21.895)"/>
                <path id="_Path_52" data-name="&lt;Path&gt;" class="cls-19" d="M139.308,104.409v56.856a7.86,7.86,0,0,1-2.647,5.88c-12.255,10.782-26.706,3.413-32.721-.571a6.422,6.422,0,0,1-2.857-5.353V104.409c0,2.872,8.556,5.188,19.112,5.188S139.308,107.281,139.308,104.409Z" transform="translate(-5.506 -21.895)"/>
              </g>
            </g>
            <line id="_Path_53" data-name="&lt;Path&gt;" class="cls-20" x1="115.148" y1="82.517" x2="115.148" y2="76.342"/>
            <path id="_Path_54" data-name="&lt;Path&gt;" class="cls-21" d="M120.654,100.978s-6.642.711-4.111-5.991,1.768-10.477,1.768-10.477S130.323,95.332,120.654,100.978Z" transform="translate(-5.506 -21.895)"/>
            <path id="_Path_55" data-name="&lt;Path&gt;" class="cls-22" d="M139.308,155.145v6.12a7.86,7.86,0,0,1-2.647,5.88c-12.255,10.782-26.706,3.413-32.721-.571a6.422,6.422,0,0,1-2.857-5.353v-45C103.008,135.089,110.992,167.882,139.308,155.145Z" transform="translate(-5.506 -21.895)"/>
          </g>
          <g id="_Group_29" data-name="&lt;Group&gt;">
            <path id="_Path_56" data-name="&lt;Path&gt;" class="cls-19" d="M139.308,155.145v26.616a6.306,6.306,0,0,1-3.519,5.639c-6.2,3.128-11.037,2.03-14.06.5a6.555,6.555,0,0,1-3.579-5.834V155.145a.981.981,0,0,1,.03.135v.015a.84.84,0,0,0,.105.241.979.979,0,0,0,.2.24,2.722,2.722,0,0,0,.376.3c.09.045.18.105.3.165a6.354,6.354,0,0,0,1.173.466c.135.045.286.09.436.135a12.33,12.33,0,0,0,1.233.3c.256.06.526.105.812.15.842.15,1.774.256,2.767.331.647.045,1.308.09,2,.105.376.015.767.015,1.158.015,4.241,0,7.91-.617,9.579-1.5C138.947,155.9,139.308,155.536,139.308,155.145Z" transform="translate(-5.506 -21.895)"/>
            <path id="_Path_57" data-name="&lt;Path&gt;" class="cls-18" d="M139.308,155.145c0,.391-.361.752-.993,1.1-1.669.887-5.338,1.5-9.579,1.5-.391,0-.782,0-1.158-.015-.692-.015-1.353-.06-2-.105-.993-.075-1.925-.18-2.767-.331-.286-.045-.556-.09-.812-.15a12.33,12.33,0,0,1-1.233-.3c-.15-.045-.3-.09-.436-.135a6.354,6.354,0,0,1-1.173-.466c-.12-.06-.211-.12-.3-.165a2.722,2.722,0,0,1-.376-.3.979.979,0,0,1-.2-.24.84.84,0,0,1-.105-.241v-.015a.981.981,0,0,0-.03-.135c0-1.443,4.737-2.6,10.586-2.6,4.887,0,9.007.812,10.21,1.94A.853.853,0,0,1,139.308,155.145Z" transform="translate(-5.506 -21.895)"/>
            <line id="_Path_58" data-name="&lt;Path&gt;" class="cls-20" x1="123.686" y1="133.076" x2="123.686" y2="126.902"/>
            <path id="_Path_59" data-name="&lt;Path&gt;" class="cls-21" d="M129.191,151.538s-6.642.711-4.111-5.991,1.768-10.477,1.768-10.477S138.86,145.892,129.191,151.538Z" transform="translate(-5.506 -21.895)"/>
            <path id="_Path_60" data-name="&lt;Path&gt;" class="cls-22" d="M139.308,175.325v6.436a6.306,6.306,0,0,1-3.519,5.639c-6.2,3.128-11.037,2.03-14.06.5a6.555,6.555,0,0,1-3.579-5.834V155.145a.981.981,0,0,1,.03.135C118.541,157.431,123.353,183.581,139.308,175.325Z" transform="translate(-5.506 -21.895)"/>
          </g>
          <g id="_Group_30" data-name="&lt;Group&gt;">
            <path id="_Path_61" data-name="&lt;Path&gt;" class="cls-18" d="M164.48,135.958c0,.331-.421.632-1.173.9a28.051,28.051,0,0,1-8.21.962c-.361,0-.707,0-1.053-.015-.286,0-.571-.015-.842-.03a8.615,8.615,0,0,1-.9-.045c-.3-.015-.586-.03-.872-.06-.421-.03-.827-.075-1.2-.12-.391-.045-.767-.105-1.113-.165a14.212,14.212,0,0,1-2.165-.5,4.7,4.7,0,0,1-.767-.346,1.469,1.469,0,0,1-.226-.165.743.743,0,0,1-.15-.165.325.325,0,0,1-.09-.21.118.118,0,0,1-.015-.045c0-1.022,4.2-1.85,9.4-1.85,4.962,0,9.023.752,9.353,1.714A.438.438,0,0,1,164.48,135.958Z" transform="translate(-5.506 -21.895)"/>
            <g id="_Group_31" data-name="&lt;Group&gt;">
              <path id="_Path_62" data-name="&lt;Path&gt;" class="cls-19" d="M164.48,135.958v17.7a5.977,5.977,0,0,1-4,5.624,15.9,15.9,0,0,1-11.624,0,5.164,5.164,0,0,1-3.158-4.827v-18.5a.118.118,0,0,0,.015.045.325.325,0,0,0,.09.21.743.743,0,0,0,.15.165,1.469,1.469,0,0,0,.226.165,4.7,4.7,0,0,0,.767.346,12.608,12.608,0,0,0,2.165.5c.346.06.722.12,1.113.165.376.045.782.09,1.2.12.271.03.571.045.872.06a8.615,8.615,0,0,0,.9.045c.286.015.556.03.842.03.346.015.692.015,1.053.015a28.051,28.051,0,0,0,8.21-.962C164.059,136.589,164.48,136.289,164.48,135.958Z" transform="translate(-5.506 -21.895)"/>
              <line id="_Path_63" data-name="&lt;Path&gt;" class="cls-20" x1="150.045" y1="114.223" x2="150.045" y2="108.048"/>
              <path id="_Path_64" data-name="&lt;Path&gt;" class="cls-21" d="M155.551,132.685s-6.642.711-4.111-5.991,1.768-10.477,1.768-10.477S165.219,127.038,155.551,132.685Z" transform="translate(-5.506 -21.895)"/>
              <path id="_Path_65" data-name="&lt;Path&gt;" class="cls-22" d="M164.48,153.657a5.977,5.977,0,0,1-4,5.624,15.9,15.9,0,0,1-11.624,0,5.164,5.164,0,0,1-3.158-4.827v-18.5a.118.118,0,0,0,.015.045,1.714,1.714,0,0,0,.09.21C146.6,138.394,152.886,154.153,164.48,153.657Z" transform="translate(-5.506 -21.895)"/>
            </g>
          </g>
        </g>
        <g id="_Group_32" data-name="&lt;Group&gt;">
          <g id="_Group_33" data-name="&lt;Group&gt;">
            <path id="_Path_66" data-name="&lt;Path&gt;" d="M75.324,216.507s-8.413-8.139,2.162-15.627,22.133.531,18.595,9.259S80.513,222.168,75.324,216.507Z" transform="translate(-5.506 -21.895)"/>
            <path id="_Path_67" data-name="&lt;Path&gt;" class="cls-23" d="M74.331,210.014s-1.88-6.238,7.707-9.621,13.158,4.135,12.594,6.015-3.774-3.849-8.842-.985S77.151,214,74.331,210.014Z" transform="translate(-5.506 -21.895)"/>
            <path id="_Path_68" data-name="&lt;Path&gt;" class="cls-23" d="M77.689,205.366s-1.409-3.1,5.776-4.788,9.862,2.058,9.44,2.993-2.829-1.915-6.627-.49S79.8,207.347,77.689,205.366Z" transform="translate(-5.506 -21.895)"/>
          </g>
          <g id="_Group_34" data-name="&lt;Group&gt;">
            <path id="_Path_69" data-name="&lt;Path&gt;" d="M149.624,170.276s-1.592-6.133,5.927-7.312,11.764,7.307,7.518,9.786S151.511,177.824,149.624,170.276Z" transform="translate(-5.506 -21.895)"/>
            <path id="_Path_70" data-name="&lt;Path&gt;" class="cls-23" d="M149.894,167.792a6.868,6.868,0,0,1,4.664-3.971c3.619-.88,7.4.812,7.763,2.708s-4.574.361-6.213,1.264S150.284,170.139,149.894,167.792Z" transform="translate(-5.506 -21.895)"/>
            <path id="_Path_71" data-name="&lt;Path&gt;" class="cls-23" d="M151.528,166.522a3.885,3.885,0,0,1,3.439-1.988c2.662-.181,5.458.407,5.724,1.355s-3.373.181-4.582.633S151.816,167.7,151.528,166.522Z" transform="translate(-5.506 -21.895)"/>
          </g>
          <g id="_Group_35" data-name="&lt;Group&gt;">
            <path id="_Path_72" data-name="&lt;Path&gt;" d="M186.913,158.954s-6.39,4.482-11.107,0,1.928-11.393,9.214-10.788S191.719,157.065,186.913,158.954Z" transform="translate(-5.506 -21.895)"/>
            <path id="_Path_73" data-name="&lt;Path&gt;" class="cls-23" d="M175.68,154.538s.271-2.722,4.333-4.257,7.131-.963,8.214,1.279-4.3,1.429-5.852,2.332S177.214,157.26,175.68,154.538Z" transform="translate(-5.506 -21.895)"/>
            <path id="_Path_74" data-name="&lt;Path&gt;" class="cls-23" d="M176.925,153.134s.186-1.658,2.975-2.593,4.9-.586,5.64.779-2.954.871-4.018,1.421S177.978,154.793,176.925,153.134Z" transform="translate(-5.506 -21.895)"/>
          </g>
          <g id="_Group_36" data-name="&lt;Group&gt;">
            <path id="_Path_75" data-name="&lt;Path&gt;" d="M126.509,200.88s-5.952,6.117-14.624,0S114,183.721,124.5,190.8C124.5,190.8,131.735,194.628,126.509,200.88Z" transform="translate(-5.506 -21.895)"/>
            <path id="_Path_76" data-name="&lt;Path&gt;" class="cls-23" d="M110.69,192.885s.451-3.533,5.055-3.482,7.221.774,8.3,2.308-2.347,2.979-4.784,1.535S112.4,194.781,110.69,192.885Z" transform="translate(-5.506 -21.895)"/>
            <path id="_Path_77" data-name="&lt;Path&gt;" class="cls-23" d="M112.372,191.6s.339-1.767,3.8-1.741,5.43.387,6.244,1.154-1.765,1.489-3.6.767S113.662,192.543,112.372,191.6Z" transform="translate(-5.506 -21.895)"/>
          </g>
          <g id="_Group_37" data-name="&lt;Group&gt;">
            <path id="_Path_78" data-name="&lt;Path&gt;" d="M108.582,210.139s-11.834,4.873-11.917-4.186,2.482-11.921,9.086-11.062S118.489,206.129,108.582,210.139Z" transform="translate(-5.506 -21.895)"/>
            <path id="_Path_79" data-name="&lt;Path&gt;" class="cls-23" d="M99.149,197.892s-1.1-1.421,2.381-2.584,7.789.976,8.3,2.584S101.412,201.156,99.149,197.892Z" transform="translate(-5.506 -21.895)"/>
            <path id="_Path_80" data-name="&lt;Path&gt;" class="cls-23" d="M101.211,196.75s-.666-.865,1.448-1.572,4.739.594,5.047,1.572S102.588,198.736,101.211,196.75Z" transform="translate(-5.506 -21.895)"/>
          </g>
        </g>
      </g>
      <g id="_Group_38" data-name="&lt;Group&gt;">
        <g id="_Group_39" data-name="&lt;Group&gt;">
          <path id="_Path_81" data-name="&lt;Path&gt;" class="cls-24" d="M475.015,213.671l-1.564,88.449-6.346,4.962-3.068-79.562-.015-.015C470.279,220,475.015,213.671,475.015,213.671Z" transform="translate(-5.506 -21.895)"/>
          <path id="_Path_82" data-name="&lt;Path&gt;" class="cls-24" d="M251.155,390.87v61.878l-6.346,4.962-2.677-65.924a45.875,45.875,0,0,0,5.865-.556c1.053-.165,2.075-.361,3.1-.617Z" transform="translate(-5.506 -21.895)"/>
          <path id="_Path_83" data-name="&lt;Path&gt;" class="cls-24" d="M139.308,334.36v61.878l-6.346,4.962-3.774-74.48A101.987,101.987,0,0,1,139.308,334.36Z" transform="translate(-5.506 -21.895)"/>
        </g>
        <g id="_Group_40" data-name="&lt;Group&gt;">
          <path id="_Path_84" data-name="&lt;Path&gt;" class="cls-25" d="M464.038,227.52l3.068,79.562H462.88l-10.346-66.615c3.925-4.06,7.97-8.707,11.488-12.962Z" transform="translate(-5.506 -21.895)"/>
          <path id="_Path_85" data-name="&lt;Path&gt;" class="cls-25" d="M237.05,391.607a32.241,32.241,0,0,0,5.083.18l2.677,65.924h-4.225l-10.571-68.059A22.609,22.609,0,0,0,237.05,391.607Z" transform="translate(-5.506 -21.895)"/>
          <path id="_Path_86" data-name="&lt;Path&gt;" class="cls-25" d="M129.187,326.721l3.774,74.48h-4.225L115.97,319.007C119.067,321.067,123.248,322.811,129.187,326.721Z" transform="translate(-5.506 -21.895)"/>
        </g>
        <path id="_Path_87" data-name="&lt;Path&gt;" class="cls-26" d="M230.012,389.652c-9.8-4.677-11.729-15.443-21.669-18.917-14.15-4.947-28.526,4.211-57.473-25.518-4.3-4.406-8.135-7.97-11.564-10.857a101.987,101.987,0,0,0-10.12-7.639c-5.94-3.91-10.12-5.654-13.218-7.714-3.158-2.09-5.218-4.511-6.917-9.88-4.767-14.977-6.045-56.706-6.135-59.8.451,5.323,5.353,9.158,6.842,10.346,69.7,55.563,102.8,63.457,120.013,61.142-.541.06,12.752,33.909,7.278,70.8A22.609,22.609,0,0,1,230.012,389.652Z" transform="translate(-5.506 -21.895)"/>
        <path id="_Path_88" data-name="&lt;Path&gt;" class="cls-27" d="M473.451,128.334c.09,4.556-4.932,8.842-11.293,14.977-5.308,5.143-51.247,42.074-99.5,80.374-54.465,43.217-111.893,88.179-117.351,91.186-3.2,1.759-7.744,4.887-15.534,5.94-11.759,1.579-30.932-1.594-64.119-21.488-15.4-9.218-33.8-22.045-55.894-39.653-1.489-1.188-6.391-5.022-6.842-10.346-.286-3.428,1.293-7.473,6.842-11.819,6.225-4.887,51.894-35.428,102.073-68.705q3.586-2.368,7.2-4.767l3.91-2.587.03-.03c1.263-.842,2.526-1.669,3.789-2.511C271.35,129.386,316.733,99.477,339.2,84.771c7.549-4.932,12.511-8.165,13.985-9.082,9.037-5.639,61.307,16.436,91.412,31.248.03.015.045.015.06.03,7.609,3.729,13.789,7.008,17.5,9.248,6.436,3.895,9.744,7.038,10.857,9.955A6.687,6.687,0,0,1,473.451,128.334Z" transform="translate(-5.506 -21.895)"/>
        <path id="_Path_89" data-name="&lt;Path&gt;" class="cls-28" d="M473.451,128.334c.09,4.556-4.932,8.842-11.293,14.977-5.308,5.143-51.247,42.074-99.5,80.374-54.465,43.217-111.893,88.179-117.351,91.186-3.2,1.759-7.744,4.887-15.534,5.94-11.759,1.579-30.932-1.594-64.119-21.488,5.278-4.646,27.278-23.548,46.18-31.548,21.639-9.158-.481-21.578,24.421-32.451,15.4-6.722,52.345-30.947,80.976-50.841,17.7-12.285,32.21-22.917,36.5-26.736,11.2-9.985,60.074-43.127,40.526-55.5-14.255-9.023-41.4-14.932-55.052-17.473-5.068-.932-8.271-1.414-8.271-1.414v-.015c9.173-6.03,19.007-10.24,30.045-8.556,0,0,38.857,5.8,83.622,32.15.03.015.045.015.06.03,7.609,3.729,13.789,7.008,17.5,9.248,6.436,3.895,9.744,7.038,10.857,9.955A6.687,6.687,0,0,1,473.451,128.334Z" transform="translate(-5.506 -21.895)"/>
        <path id="_Path_90" data-name="&lt;Path&gt;" class="cls-29" d="M242.133,391a32.241,32.241,0,0,1-5.083-.18c5.474-36.887-7.819-70.736-7.278-70.8,7.789-1.053,12.331-4.18,15.534-5.94,10.286-5.669,205.53-160.628,216.853-171.561,6.361-6.135,11.383-10.421,11.293-14.977,8.511,43.939,1.564,85.337,1.564,85.337s-4.737,6.331-10.992,13.834c-3.519,4.256-7.564,8.9-11.488,12.962-2,2.06-3.955,3.97-5.82,5.609-12.03,10.616-20.646,12.18-44.706,26.21s-16.27,18.526-33.263,34.8c-16.977,16.27-45.984,28.947-62.27,37.443-15.654,8.18-29.774,39.909-55.382,46.089-1.022.256-2.045.451-3.1.617A45.875,45.875,0,0,1,242.133,391Z" transform="translate(-5.506 -21.895)"/>
        <path id="_Path_91" data-name="&lt;Path&gt;" class="cls-30" d="M125.373,261.252s-22.459-9.666-5.36-22.481,45.941-34.651,53.7-35.674-1.344,11.677-2.664,20.636S151.98,219.106,125.373,261.252Z" transform="translate(-5.506 -21.895)"/>
        <path id="_Path_92" data-name="&lt;Path&gt;" class="cls-30" d="M214.286,172.756s9.381-9.158,15.727-6.926,25.454,4.233,29.058,3.233-4.246,6.537-14.261,7.977S228.245,172.543,214.286,172.756Z" transform="translate(-5.506 -21.895)"/>
      </g>
      <path id="_Path_93" data-name="&lt;Path&gt;" class="cls-31" d="M269.818,235.8s37.084,27.628,13.958,37.968-55.634,14.2-55.634,14.2-.558,8.632,21.979,10.629,43.014-6.344,54.738-11.137,10.233-39.838-27.229-51.731h0Z" transform="translate(-5.506 -21.895)"/>
      <path id="_Path_94" data-name="&lt;Path&gt;" class="cls-13" d="M330.933,136.933s-56.944,63.156-105.44,107.7c-22.087,20.285-43.893,33.56-53.6,44.087,3.51,4.395,7.122,8.7,10.889,12.851,7.336,3.134,28.117,4.742,42.922-9.692,17.983-17.532,7.328-22.782,11.01-28.1S230,248.02,233.853,247.409s25.19,2.81,49.033-19.967,20.257-27.428,43.564-38.1S330.933,136.933,330.933,136.933Z" transform="translate(-5.506 -21.895)"/>
      <path id="_Path_95" data-name="&lt;Path&gt;" class="cls-31" d="M239.19,251.856a241.581,241.581,0,0,0,32.455,11.883c17.509,4.925,18.1,11.733-16.792,23.384s41.045-2.186,41.045-2.186,3.389-25.261,1.1-25.776-37.478-26.986-37.478-26.986S230.249,224.032,239.19,251.856Z" transform="translate(-5.506 -21.895)"/>
      <path id="_Path_96" data-name="&lt;Path&gt;" class="cls-32" d="M191.122,237.5s2.842-34.8,10.664-33.906c15.834,1.8,5.486,15.542,17.726,15.262s2.694-33.386-9.841-31.423-30.237,16.308-18.55,50.067" transform="translate(-5.506 -21.895)"/>
      <g id="_Group_41" data-name="&lt;Group&gt;">
        <path id="_Path_97" data-name="&lt;Path&gt;" class="cls-33" d="M192.585,299.519c-6.3-2.376-15.8-8.09-25.278-14.421-11.2-7.489-22.345-15.819-28-20.436,0,0-5.849-5.7,0-14.9,5.834-9.188,18.9-19.368,30.42-17.067,7.233,1.444,28.45,15.158,43.458,27.2,8.9,7.128,15.624,13.684,15.984,16.767C230.133,284.932,206.329,304.706,192.585,299.519Z" transform="translate(-5.506 -21.895)"/>
        <path id="_Path_98" data-name="&lt;Path&gt;" class="cls-11" d="M192.585,299.519c-6.3-2.376-15.8-8.09-25.278-14.421l45.879-25.2c8.9,7.128,15.624,13.684,15.984,16.767C230.133,284.932,206.329,304.706,192.585,299.519Z" transform="translate(-5.506 -21.895)"/>
      </g>
      <g id="_Group_42" data-name="&lt;Group&gt;">
        <path id="_Path_99" data-name="&lt;Path&gt;" class="cls-33" d="M473.451,128.153c.09,4.556-4.932,8.842-11.293,14.977-5.308,5.143-51.247,42.074-99.5,80.374v-.015a36.088,36.088,0,0,0-1.91-4.015h-.015c-7.4-13.248-17.112-5.834-30.45-14.225a34.934,34.934,0,0,1-3.308-2.361c-6.887-5.549-8.707-10.24-9.383-15.067a.639.639,0,0,1-.03-.165c-.15-1.113-.241-2.226-.331-3.353-.421-5.549-.586-11.534-6.15-19.278-8.06-11.248-20.526-12.361-30.15-10.692a42.726,42.726,0,0,0-10.541,3.233c-8.135,3.865-21.578,7.82-32.165,2.617-5.2-2.541-8.962-2.331-11.458-1.459a8.594,8.594,0,0,0-3.789,2.511l-.03.03-3.91,2.586-7.2,4.782v-.015c.256-.631,6.21-15.4,22.3-21.639,16.451-6.376,23.173-20.872,36.616-30.075s24.06-6.361,39.262-17.864c2.03-1.534,4.06-3.143,6.12-4.782,4.8-3.8,9.7-7.729,14.8-11.083v-.015c9.173-6.03,19.007-10.24,30.045-8.556,0,0,38.857,5.8,83.622,32.15.03.015.045.015.06.03a269.6,269.6,0,0,1,28.36,19.2A6.688,6.688,0,0,1,473.451,128.153Z" transform="translate(-5.506 -21.895)"/>
        <path id="_Path_100" data-name="&lt;Path&gt;" class="cls-33" d="M479.5,201.295c-1.413,2.481-35.037,24.406-43.879,29.353-8.842,4.932-18.752,25.488-30.781,28.857s-27.593,15.022-31.488,21.744-4.6,3.895-4.6,3.895c-12.736-23.7,2.12-41.4-6.09-61.472a36.073,36.073,0,0,0-1.91-4.015S469.2,145,473.451,128.334a2.27,2.27,0,0,1,.632-1.218C487.692,140.785,480.88,198.874,479.5,201.295Z" transform="translate(-5.506 -21.895)"/>
        <path id="_Path_101" data-name="&lt;Path&gt;" class="cls-11" d="M479.5,201.295c-1.413,2.481-35.037,24.406-43.879,29.353-8.842,4.932-18.752,25.488-30.781,28.857s-27.593,15.022-31.488,21.744-4.6,3.895-4.6,3.895c-12.736-23.7,2.12-41.4-6.09-61.472-.617-1.519,101.367-77.663,110.795-95.337.3-.563.376-1.022.632-1.218C487.692,140.785,480.88,198.874,479.5,201.295Z" transform="translate(-5.506 -21.895)"/>
        <path id="_Path_102" data-name="&lt;Path&gt;" class="cls-34" d="M473.451,128.705c.09,4.556-4.932,8.842-11.293,14.977-5.308,5.143-51.247,42.074-99.5,80.374v-.015a36.069,36.069,0,0,0-1.91-4.015h-.015c-7.4-13.248-17.112-5.835-30.45-14.225a35,35,0,0,1-3.308-2.361c-6.887-5.549-8.707-10.24-9.383-15.067,1.624-1.1,89.231-59.984,67.382-84.87-22.045-25.112-56.4-13.864-68.8-8.707-.015,0-.03.015-.045.015,4.8-3.8,9.7-7.729,14.8-11.083v-.015c9.173-6.03,19.007-10.24,30.045-8.556,0,0,38.857,5.8,83.622,32.15.03.015.045.015.06.03a269.6,269.6,0,0,1,28.36,19.2A6.688,6.688,0,0,1,473.451,128.705Z" transform="translate(-5.506 -21.895)"/>
      </g>
      <g id="_Group_43" data-name="&lt;Group&gt;">
        <path id="_Path_103" data-name="&lt;Path&gt;" class="cls-35" d="M178.044,240.572c-6.015,3.173-4.947,13.443-1.759,17.684a16.347,16.347,0,0,1,2.12,16.27,5.453,5.453,0,0,0-.3,2.616c.617,6.3,9.489,14.376,9.489,14.376s-8.647,3.97-13.879,6.722-9.113-4.6-13.714-14.511c-.8-1.714-1.443-3.188-1.985-4.526-2.587-6.376-2.572-9.218-2.917-16.706-.436-9.037-1.819-15.91,4.556-22.285,4.917-4.917,7.489-10.707,18.842-9.564a51.278,51.278,0,0,1,9.594,2.045c.962.286,1.97.6,3.022.962a10.423,10.423,0,0,0,1.789,3.85h6.015C204.554,248.392,184.058,237.384,178.044,240.572Z" transform="translate(-5.506 -21.895)"/>
        <path id="_Path_104" data-name="&lt;Path&gt;" class="cls-36" d="M297.635,281.248c-18.752,14.511-63.984,12.737-66.826,8.5-1.218-1.8-1.835-4.361.18-5.609a5.823,5.823,0,0,1,2.662-.707,41.291,41.291,0,0,0,8.782-1.474c-2.12-5.654-2.12-7.068.361-6.722,2.481.361,6.722,7.444,6.722,7.444,14.511,3.173,34.315-4.255,36.09-11.684s-8.5-14.15-26.887-19.1c-17.7-4.767-21.669-10.782-21.939-11.233,5.654,2.075,13.188,2.782,21.939-1.519a64.208,64.208,0,0,0,12.887-8.647A99.745,99.745,0,0,0,280.3,237.5C284.538,240.452,316.387,266.752,297.635,281.248Z" transform="translate(-5.506 -21.895)"/>
        <path id="_Path_105" data-name="&lt;Path&gt;" class="cls-36" d="M234.073,240.211a14.739,14.739,0,0,0-5.022,5.308c-1.293-1.97-4.331-4.391-7.759-6.707-3.158-2.135-6.677-4.2-9.458-5.714a12.6,12.6,0,0,0,9.534-4.767,38.443,38.443,0,0,0,4.451,5.158,21.956,21.956,0,0,0,2.316,2.15,31.247,31.247,0,0,0,5.774,3.759A5.792,5.792,0,0,1,234.073,240.211Z" transform="translate(-5.506 -21.895)"/>
        <path id="_Compound_Path_" data-name="&lt;Compound Path&gt;" class="cls-36" d="M311.079,165.205a26.9,26.9,0,0,0-6.631-6.571c-7.383-5.053-16.255-5.383-23.518-4.12l.075.451c-12.376,6.752-9.91,9.88-18.751,20.5-5.128,6.165-13.729,6.962-22.8,9.895-6.556,2.135-13.383,5.4-19.308,12.616-.286.346-.556.692-.827,1.052a21.88,21.88,0,0,0-3.474,6.857A22.287,22.287,0,0,0,217.1,220.9a.053.053,0,0,0,.015.03c.256.6.526,1.2.827,1.774a1.675,1.675,0,0,1,.2.406,39.544,39.544,0,0,0,3.233,5.218,38.443,38.443,0,0,0,4.451,5.158,28.916,28.916,0,0,0,8.09,5.91c.887.436,1.835.857,2.842,1.233l.015.015c5.654,2.09,13.188,2.8,21.954-1.5a64.208,64.208,0,0,0,12.887-8.647c13.158-11.113,23.338-26.315,29.563-31.864a68.262,68.262,0,0,1,16.286-10.782l.105-.015C316.658,181.3,317.77,174.528,311.079,165.205Z" transform="translate(-5.506 -21.895)"/>
        <path id="_Path_106" data-name="&lt;Path&gt;" class="cls-11" d="M317.56,187.836l-.105.015a68.262,68.262,0,0,0-16.286,10.782c-6.225,5.549-16.406,20.751-29.563,31.864a64.208,64.208,0,0,1-12.887,8.647c-8.767,4.3-16.3,3.594-21.954,1.5l-.015-.015c-1.007-.376-1.955-.8-2.842-1.233a5.792,5.792,0,0,1,.166.812,14.739,14.739,0,0,0-5.022,5.308c-1.293-1.97-4.331-4.391-7.759-6.707l5.278-4.33.288-.955s.69.413,1.186-2.52c.737-4.271,5.263-11.819,23.112-23.172,23.744-15.113,45.277-39.563,53.292-49.2a26.9,26.9,0,0,1,6.631,6.571C317.77,174.528,316.658,181.3,317.56,187.836Z" transform="translate(-5.506 -21.895)"/>
        <g id="_Group_44" data-name="&lt;Group&gt;">
          <g id="_Group_45" data-name="&lt;Group&gt;">
            <path id="_Path_107" data-name="&lt;Path&gt;" d="M234.272,223.929s-6.278-6.7,1.613-12.872,16.514.438,13.874,7.626S238.144,228.591,234.272,223.929Z" transform="translate(-5.506 -21.895)"/>
            <path id="_Path_108" data-name="&lt;Path&gt;" class="cls-23" d="M233.531,218.58s-1.4-5.138,5.75-7.925,9.817,3.406,9.4,4.954-2.816-3.171-6.6-.811S235.635,221.86,233.531,218.58Z" transform="translate(-5.506 -21.895)"/>
            <path id="_Path_109" data-name="&lt;Path&gt;" class="cls-23" d="M236.037,214.751s-1.051-2.557,4.31-3.943,7.359,1.695,7.043,2.465-2.111-1.578-4.945-.4S237.613,216.383,236.037,214.751Z" transform="translate(-5.506 -21.895)"/>
          </g>
          <g id="_Group_46" data-name="&lt;Group&gt;">
            <path id="_Path_110" data-name="&lt;Path&gt;" d="M265.387,204.323s-7.166,5.026-12.457,0,2.162-12.777,10.333-12.1S270.776,202.2,265.387,204.323Z" transform="translate(-5.506 -21.895)"/>
            <path id="_Path_111" data-name="&lt;Path&gt;" class="cls-23" d="M252.788,199.37s.3-3.053,4.859-4.774,8-1.08,9.212,1.434-4.825,1.6-6.563,2.615S254.509,202.423,252.788,199.37Z" transform="translate(-5.506 -21.895)"/>
            <path id="_Path_112" data-name="&lt;Path&gt;" class="cls-23" d="M254.184,197.8s.209-1.86,3.336-2.908,5.491-.658,6.325.873-3.313.977-4.507,1.593S255.366,199.656,254.184,197.8Z" transform="translate(-5.506 -21.895)"/>
          </g>
          <g id="_Group_47" data-name="&lt;Group&gt;">
            <path id="_Path_113" data-name="&lt;Path&gt;" d="M305.894,174.016s-7.166,5.026-12.457,0,2.162-12.777,10.333-12.1S311.284,171.9,305.894,174.016Z" transform="translate(-5.506 -21.895)"/>
            <path id="_Path_114" data-name="&lt;Path&gt;" class="cls-23" d="M293.3,169.063s.3-3.053,4.859-4.774,8-1.08,9.212,1.434-4.825,1.6-6.563,2.615S295.017,172.116,293.3,169.063Z" transform="translate(-5.506 -21.895)"/>
            <path id="_Path_115" data-name="&lt;Path&gt;" class="cls-23" d="M294.692,167.489s.209-1.86,3.336-2.908,5.491-.658,6.325.874-3.313.977-4.506,1.593S295.873,169.349,294.692,167.489Z" transform="translate(-5.506 -21.895)"/>
          </g>
          <g id="_Group_48" data-name="&lt;Group&gt;">
            <path id="_Path_116" data-name="&lt;Path&gt;" d="M290.9,186.695s-3.912,7.4-13.763,4.039S274.393,174,286.23,177.759C286.23,177.759,294.092,179.368,290.9,186.695Z" transform="translate(-5.506 -21.895)"/>
            <path id="_Path_117" data-name="&lt;Path&gt;" class="cls-23" d="M273.806,183.539s-.551-3.45,3.8-4.672,7.009-1.266,8.452-.121-1.386,3.451-4.078,2.765S275.943,184.85,273.806,183.539Z" transform="translate(-5.506 -21.895)"/>
            <path id="_Path_118" data-name="&lt;Path&gt;" class="cls-23" d="M275.033,181.861s-.169-1.756,3.1-2.688,5.217-1.135,6.195-.638-1.249,1.889-3.173,1.715S276.508,182.4,275.033,181.861Z" transform="translate(-5.506 -21.895)"/>
          </g>
        </g>
        <path id="_Path_119" data-name="&lt;Path&gt;" class="cls-36" d="M232.238,265.459a48.031,48.031,0,0,1-7.85,9.774c-6.361,6.015-24.766,13.1-36.8,16.286,0,0-8.872-8.075-9.489-14.376a5.453,5.453,0,0,1,.3-2.616,16.347,16.347,0,0,0-2.12-16.27,14.16,14.16,0,0,1-2.346-6.09c-.722-4.451.2-9.534,4.105-11.594,6.015-3.188,26.511,7.819,20.872-3.068H192.9a10.423,10.423,0,0,1-1.789-3.85c-.406-2,.09-4.256,3.564-5.474,7.082-2.481,6.722,2.466,6.722,2.466s3.188-1.083,5.669,0c.692.3,2.481,1.2,4.767,2.451,5.774,3.173,14.722,8.616,17.218,12.421,2.376,3.609,3.729,9.353,4.421,13.1A9.647,9.647,0,0,1,232.238,265.459Z" transform="translate(-5.506 -21.895)"/>
        <ellipse id="_Path_120" data-name="&lt;Path&gt;" class="cls-37" cx="208.973" cy="253.079" rx="3.062" ry="5.501" transform="translate(-34.789 5.457) rotate(-7)"/>
        <path id="_Path_121" data-name="&lt;Path&gt;" class="cls-38" d="M214.977,281.269c-.538-2.582-2.044-4.428-3.568-4.231-1.667.2-2.725,2.815-2.367,5.827a6.947,6.947,0,0,0,.215,1.094Z" transform="translate(-5.506 -21.895)"/>
        <path id="_Path_122" data-name="&lt;Path&gt;" class="cls-36" d="M239.456,185.355c-6.556,2.135-13.383,5.4-19.308,12.616-.286.346-.556.692-.827,1.052a21.88,21.88,0,0,0-3.474,6.857c.481-9.248-12.676-17.684-20.1-3.173-6.661,13.007-7.534,26.8-7.639,29.5-.015.316-.015.481-.015.481-.256-.075-.5-.15-.737-.211q-2.639-.767-4.872-1.218a37.593,37.593,0,0,0-3.985-.617s-.06-3.458.226-8.541c0,0,.015-.15.03-.436,0-.06.015-.135.015-.21.616-10.271,2.662-26.451,9.323-34.315,8.571-10.135,20.766-11.233,39.909-5.609,2.18.632,4.436,1.353,6.8,2.165C236.313,184.213,237.862,184.769,239.456,185.355Z" transform="translate(-5.506 -21.895)"/>
        <path id="_Path_123" data-name="&lt;Path&gt;" class="cls-39" d="M228,181.536c-21.985-2.2-14.053-1.812-27.076-.459-15.473,1.609-21.69,35.541-22.156,40.383.616-10.271,2.662-26.451,9.323-34.315C196.66,177.01,208.855,175.912,228,181.536Z" transform="translate(-5.506 -21.895)"/>
        <path id="_Path_124" data-name="&lt;Path&gt;" class="cls-11" d="M219.5,203.6c-1.293,4.992-4.3,11.894-2.406,17.308a22.287,22.287,0,0,1-1.248-15.022c.481-9.248-12.676-17.684-20.1-3.173-6.661,13.007-7.534,26.8-7.639,29.5-.256.09-.511.18-.752.271a13.188,13.188,0,0,0-4.977,2.842s0-1.549.105-4.06c.436-10.962,2.9-40.405,16.436-41.864,12.691-1.369,18.827,4.361,20.406,9.624A8.7,8.7,0,0,1,219.5,203.6Z" transform="translate(-5.506 -21.895)"/>
        <path id="_Path_125" data-name="&lt;Path&gt;" class="cls-11" d="M297.635,281.248c-18.752,14.511-63.984,12.737-66.826,8.5-1.218-1.8-1.835-4.361.18-5.609,2.376,4.391,18.15,5.729,48.721-1.639,30.586-7.368,11.037-27.217,2.015-36.977s-13.744-4.872-13.744-4.872c-23.263,9.714-30.9.406-31.2.015,5.654,2.075,13.188,2.782,21.939-1.519a64.208,64.208,0,0,0,12.887-8.647A99.745,99.745,0,0,0,280.3,237.5C284.538,240.452,316.387,266.752,297.635,281.248Z" transform="translate(-5.506 -21.895)"/>
        <path id="_Path_126" data-name="&lt;Path&gt;" class="cls-39" d="M284.562,157c-2.887-1.176-7.1,2.307-15.883,13.912s-25.23,16.7-25.23,16.7c-7.452,1.241-15.1,5.275-18.62,12.222s-2.432,15.349-2.432,15.349,1.436,2.766,4.183-3.581,10.286-12.2,16.869-15.748a14.526,14.526,0,0,0,3.093-2.2c4.042-2.871,11.195-7.957,16.191-11.548A100.008,100.008,0,0,0,282.8,162.577C288.392,155.332,290.523,159.428,284.562,157Z" transform="translate(-5.506 -21.895)"/>
        <path id="_Path_127" data-name="&lt;Path&gt;" class="cls-40" d="M209.456,249.324c-1.669.692-5.669-6.827-12.691-4.571-5.458,1.744-11.173,6.541-22.827,7.413-.722-4.451.2-9.534,4.105-11.594,6.015-3.188,26.511,7.819,20.872-3.068H192.9c8.5-6.857,12.2-3.218,16.556,1.263S211.111,248.632,209.456,249.324Z" transform="translate(-5.506 -21.895)"/>
        <path id="_Path_128" data-name="&lt;Path&gt;" class="cls-11" d="M232.238,265.459a48.031,48.031,0,0,1-7.85,9.774c-6.361,6.015-24.766,13.1-36.8,16.286,0,0-8.647,3.97-13.879,6.722s-9.113-4.6-13.714-14.511c-.8-1.714-1.443-3.188-1.985-4.526.255,0,.511.03.782.045,0,0,8.971-6.352,19.693-7.81,17.173-2.346,36.019-6.88,37.6-14.323,2.571-12.09,3.551-16.121-4.254-24.016,5.774,3.173,14.722,8.616,17.218,12.421,2.376,3.609,3.729,9.353,4.421,13.1A9.647,9.647,0,0,1,232.238,265.459Z" transform="translate(-5.506 -21.895)"/>
        <path id="_Path_129" data-name="&lt;Path&gt;" class="cls-41" d="M203.677,274.768s-2.044-4.543,8.158-6.994,8.079,6.051,5.721,6.994-3.131-2.123-6.047-1.415S206.545,276.891,203.677,274.768Z" transform="translate(-5.506 -21.895)"/>
        <g id="_Group_49" data-name="&lt;Group&gt;">
          <path id="_Path_130" data-name="&lt;Path&gt;" class="cls-42" d="M206.47,279.25a8.754,8.754,0,0,1-1.527,6.488" transform="translate(-5.506 -21.895)"/>
          <path id="_Path_131" data-name="&lt;Path&gt;" class="cls-42" d="M222.951,259.5s3.272,1.765,0,11.936" transform="translate(-5.506 -21.895)"/>
          <path id="_Path_132" data-name="&lt;Path&gt;" class="cls-42" d="M203.509,253.079a24.06,24.06,0,0,1,1.433,8.555" transform="translate(-5.506 -21.895)"/>
        </g>
        <g id="_Group_50" data-name="&lt;Group&gt;">
          <path id="_Path_133" data-name="&lt;Path&gt;" class="cls-35" d="M195.251,289.236s-2.963-8.571,0-9.986.952,4.989,4.316,8.509Z" transform="translate(-5.506 -21.895)"/>
          <path id="_Path_134" data-name="&lt;Path&gt;" class="cls-35" d="M192.789,248.586s-5.425,9.186,0,18.745c0,0,3.678,2.284,3.962-1.862s-4.737-2.5-2.816-15.232C193.935,250.237,196.091,247.407,192.789,248.586Z" transform="translate(-5.506 -21.895)"/>
        </g>
      </g>
      <g id="_Group_51" data-name="&lt;Group&gt;">
        <circle id="_Path_135" data-name="&lt;Path&gt;" class="cls-43" cx="114.832" cy="64.834" r="64.834"/>
        <circle id="_Path_136" data-name="&lt;Path&gt;" class="cls-43" cx="114.832" cy="64.834" r="44.526"/>
        <circle id="_Path_137" data-name="&lt;Path&gt;" class="cls-43" cx="114.832" cy="64.834" r="20.23"/>
      </g>
      <g id="_Group_52" data-name="&lt;Group&gt;">
        <circle id="_Path_138" data-name="&lt;Path&gt;" class="cls-43" cx="187.712" cy="95.09" r="46.004"/>
        <circle id="_Path_139" data-name="&lt;Path&gt;" class="cls-43" cx="187.712" cy="95.09" r="31.594"/>
        <circle id="_Path_140" data-name="&lt;Path&gt;" class="cls-43" cx="187.712" cy="95.09" r="14.355"/>
      </g>
      <g id="_Group_53" data-name="&lt;Group&gt;">
        <circle id="_Path_141" data-name="&lt;Path&gt;" class="cls-43" cx="75.597" cy="121.604" r="31.594"/>
        <circle id="_Path_142" data-name="&lt;Path&gt;" class="cls-43" cx="75.597" cy="121.604" r="14.355"/>
      </g>
    </g>
  </g>
</svg>
