<svg id="Objects" xmlns="http://www.w3.org/2000/svg" viewBox="0 0 707.853 527.382">
  <defs>
    <style>
      .cls-1 {
        fill: #204259;
      }

      .cls-2 {
        fill: #fff;
        opacity: 0.75;
      }
    </style>
  </defs>
  <title>bg_pat</title>
  <g>
    <g>
      <path class="cls-1" d="M553.514,359.843a2.4,2.4,0,0,0,.388.867,2.2,2.2,0,0,0,2.77.586,2.546,2.546,0,0,0,1.477-2.934,7.159,7.159,0,0,1-.046-3.184,6.2,6.2,0,0,0,.881,1.9,12.258,12.258,0,0,0,1.3,2.228c5.164,7.074,18.257,10.35,26.891,11.053a37.423,37.423,0,0,1-18.144-3.375,2.311,2.311,0,0,0-2.84.623,2.467,2.467,0,0,0-.183,3.022,2.413,2.413,0,0,0,.937.76c16.507,7.8,36.776,3.828,51.64-10.109a84.886,84.886,0,0,0,6.463-7.064c.6-.71,1.2-1.418,1.8-2.115,2.462-2.843,5.137-6.264,6.307-10.1a11.658,11.658,0,0,0-1.592-10.517,14.2,14.2,0,0,0-8.312-5.244c-5.584-1.311-11.661-.113-17.421,1.252a2.665,2.665,0,0,0-2.348.565l-.082.02c-.975.234-1.932.466-2.862.678-5.563,1.262-11.349,2.9-17.194,4.855l-.507.169c-2.217.743-4.727,1.583-7.381,2.588a2.323,2.323,0,0,0-.7.265c-8.427,3.257-19.792,8.72-21.544,18.563A11.6,11.6,0,0,0,553.514,359.843Zm61.414-3.229c.846-.809,1.673-1.6,2.483-2.354,6.352-5.918,7.75-13.711,4.167-23.177,2.274.373,4.864,1.231,6.272,3.159a6.722,6.722,0,0,1,.993,5.073c-.737,5.153-5.723,10.287-9.729,14.412-.906.933-1.763,1.816-2.534,2.658a43.14,43.14,0,0,1-12.032,9.174A89.79,89.79,0,0,0,614.928,356.615Zm-24.415-5.9a2.068,2.068,0,0,0,2.4-.746,2.7,2.7,0,0,0-.035-3.087,2.5,2.5,0,0,0-1.3-.915c-3.524-1.094-7.151-2.009-10.658-2.894-1.765-.444-3.573-.9-5.367-1.38q.485-.195,1.013-.4a65.619,65.619,0,0,1,9.773,2.673A58.087,58.087,0,0,0,598,346.926a2.428,2.428,0,0,0,2.431-1.221,2.521,2.521,0,0,0-.056-2.714,2.175,2.175,0,0,0-1.581-.87,56.979,56.979,0,0,1-11.357-2.9c-.924-.3-1.866-.614-2.815-.913.633-.219,1.292-.44,1.985-.671a2.432,2.432,0,0,0,.966.367,84.393,84.393,0,0,1,11.861,3.147c1.236.394,2.47.787,3.708,1.161a2.085,2.085,0,0,0,2.4-.766,2.7,2.7,0,0,0-.035-3.072,2.484,2.484,0,0,0-1.311-.913c-1.214-.369-2.426-.753-3.638-1.138-1.6-.508-3.239-1.028-4.889-1.508.42-.111.864-.228,1.34-.353.608.231,1.214.472,1.818.711,1.56.619,3.173,1.26,4.831,1.747a2.164,2.164,0,0,0,1.937-.392c.477,1.026.946,2.1,1.349,3.193,1.4,3.828-1.841,7.206-4.4,9.414-4.924,4.251-10.877,7.38-15.927,8.369a51.015,51.015,0,0,1-8.266.635,2.5,2.5,0,0,0,.475-.588,2.528,2.528,0,0,0-.052-2.748,2.232,2.232,0,0,0-1.558-.881,48.047,48.047,0,0,1-6.663-1.429c-.227-.062-.479-.129-.747-.2-1.674-.438-4.2-1.1-5.077-2.283a2.582,2.582,0,0,0-.4-.426,2.183,2.183,0,0,0,.254-.986c1.925-.3,5.256,1.046,7.515,1.958.747.3,1.394.562,1.929.746,1.214.415,2.422.856,3.632,1.295,2.349.855,4.777,1.741,7.231,2.436a2.114,2.114,0,0,0,2.41-.809,2.684,2.684,0,0,0-.036-3.034,2.475,2.475,0,0,0-1.341-.917c-2.567-.727-5.139-1.665-7.625-2.571-1.2-.439-2.434-.887-3.671-1.314,1.783.475,3.563.923,5.317,1.364C583.432,348.732,587.033,349.638,590.513,350.719Zm-4.1,11.857c6.659-1.023,14.4-5.027,20.2-10.444,2.194-2.05,5.161-5.31,5.587-9.952.3-3.285-1.364-6.464-2.976-9.538l-.376-.72c1.5-.283,2.851-.522,4.1-.728a31.767,31.767,0,0,1,3.279-.349c3.8,8.609,3.058,14.662-2.439,20.166l-.347.35c-5.71,5.728-13.526,13.57-21.7,14.23a49.351,49.351,0,0,1-17.791-2.787A58.85,58.85,0,0,0,586.41,362.576Zm-15.127-4.734c-2.763-.377-5.216-1.051-6.705-2.162.89.383,1.8.686,2.657.971l.117.037Q569.343,357.355,571.283,357.841Z" transform="translate(-46.073 -97.677)"/>
      <path class="cls-1" d="M637.816,351.644c5.239-6.877,6.644-13.577,4.06-19.376a19.623,19.623,0,0,0-1.829-3.227,2.524,2.524,0,0,0,.025-1.24,23.694,23.694,0,0,0-4.169-8.759c-3.046-4.172-7.162-7.753-11.142-11.216-2.287-1.99-4.445-3.869-6.351-5.806q-2.687-2.731-5.369-5.474a2.452,2.452,0,0,0-1.183-1.212c-4.875-5-8.813-9.138-12.371-13a2.184,2.184,0,0,0-1.5-1.631c-1.787-1.961-3.611-4.016-5.564-6.265a2.294,2.294,0,0,0-.4-1.631,2.127,2.127,0,0,0-1.6-.853c-.057-.006-.112-.01-.169-.015-4.5-5.293-8.75-10.681-12.645-16.017-3.754-5.141-7.271-10.366-10.455-15.529-7.523-12.2-13.26-25.5-17.879-36.891-2.484-6.125-4.905-12.384-7.247-18.438-6.778-17.509-13.785-35.613-23.044-52.485l-1.068-1.951q-.747-1.367-1.52-2.775a2.469,2.469,0,0,0-.19-2.389,2.121,2.121,0,0,0-1.61-.849h-.014a110.135,110.135,0,0,0-6.637-10.447c-7.126-9.763-14.846-15.047-23.6-16.157-14.32-1.815-29.448,4.147-42.8,9.406q-1.73.682-3.411,1.34a2.63,2.63,0,0,0-1.506,1.706,2.258,2.258,0,0,0,.3,1.978h0a2.161,2.161,0,0,0,.54.517c2.669,1.8,5.376,3.754,8.056,5.831-6.263,4.743-10.654,11.989-14.142,18.51-5.168,9.667-7.306,17.693-6.537,24.539a2.448,2.448,0,0,0,1.456,2.021c8.894,3.144,15.244,10.532,21.386,17.677,1.469,1.708,2.988,3.476,4.5,5.132a267.566,267.566,0,0,1,18.636,22.272c2.625,3.6,4.924,7.044,7.02,10.531-.051.109-.1.218-.144.329a2.432,2.432,0,0,0,.6,2.731,24.681,24.681,0,0,0,1.576,6.281c1.931,5.244,4.956,10.08,7.882,14.758l1,1.6c1.919,3.085,3.656,6.36,5.337,9.527,1.7,3.2,3.455,6.51,5.413,9.658.432.694.943,1.507,1.573,2.369,1.542,2.111,2.929,3.338,4.226,3.736,10.364,18.789,18.992,38.822,27.338,58.2,4.251,9.872,8.648,20.082,13.222,30a2.649,2.649,0,0,0,.4.629,25.085,25.085,0,0,0,.671,3.221,2.18,2.18,0,0,0,1.365,1.527,15.245,15.245,0,0,0,1.955,3.6c2.611,3.576,6.828,6.379,13.271,8.828a63.289,63.289,0,0,0,24.789,4.066C609.244,379.7,628.059,364.451,637.816,351.644ZM483.448,197.212a2.684,2.684,0,0,0-.414-2.265,2.207,2.207,0,0,0-2.712-.751,17.375,17.375,0,0,0-8.388,8.114c-.634-.819-1.33-1.7-2.128-2.694,2.02-3.784,4.3-6.21,7.152-7.613a2.5,2.5,0,0,0,1.345-1.66,2.729,2.729,0,0,0-.433-2.239,2.078,2.078,0,0,0-2.706-.625,21.137,21.137,0,0,0-8.652,8.119q-1.056-1.26-2.128-2.508c.968-3.574,3.427-6.2,6.026-8.966a34.289,34.289,0,0,0,5-6.252,2.131,2.131,0,0,0-.083-2.4,2.671,2.671,0,0,0-2.265-1.04,2.433,2.433,0,0,0-2,1.254,35.448,35.448,0,0,1-4.89,6.2,31.78,31.78,0,0,0-5.374,7.1c-1.7-1.922-3.513-3.932-5.507-6.114q-.5-.552-1-1.116c2.706-6.2,7.348-11.512,14.566-16.691a2.322,2.322,0,0,0,.979-1.537,2.537,2.537,0,0,0-.478-1.88,2.317,2.317,0,0,0-3.313-.565c-7.257,5.21-12.134,10.533-15.256,16.673-6.093-7.026-12.411-14.248-21.181-17.823-.279-6.96,2.788-13.957,6.16-20.493,2.78-5.382,7.22-13.048,13.657-17.458l.052-.036a182.692,182.692,0,0,1,30.7,33.1,266.489,266.489,0,0,1,22.795,37.815,2.592,2.592,0,0,0,.354.535c-6.364,3.826-16.751,11.132-22.866,21.032-1.592-2.524-3.3-5.039-5.185-7.648,1.117-3.066,3.428-6.677,6.736-8.009A2.365,2.365,0,0,0,483.448,197.212Zm-5.535-70.77a2.167,2.167,0,0,0-.219,2.886,2.684,2.684,0,0,0,1.955,1.089,2.415,2.415,0,0,0,1.925-.762A36.161,36.161,0,0,1,505.469,119.2c1.144,1.659,2.3,3.469,3.517,5.5a32.6,32.6,0,0,0-5.918,1.208l-.215.066c-2.3.692-7.088,2.132-7.982,4.782-1.393,4.124,1.174,8.335,3.224,11.144,1.073,1.469,2.234,2.851,3.357,4.188,1.07,1.274,2.074,2.458,2.8,3.518a75.8,75.8,0,0,1,5.776,10.589c.433.9.862,1.8,1.3,2.684.705,1.438,1.3,2.969,1.867,4.449a42.79,42.79,0,0,0,2.691,6.02c2.5,4.32,8.214,3.871,13.214,3.466a38.5,38.5,0,0,1,4.558-.2q1.248,3.205,2.48,6.415c-7.466-.9-17.094,1.794-28.652,8.012a275.612,275.612,0,0,0-23.528-39.061C472,135.6,458.61,122.043,444.13,111.664c9.64-3.7,19.916-7.319,30.668-8.6,10.642-1.27,18.627,1.808,25.889,9.979.422.477.846.975,1.281,1.5A41.28,41.28,0,0,0,477.913,126.442Zm48.241,31.837c.031.071.064.142.092.213q-.107.018-.217.044c-.008-.025-.017-.05-.024-.076A1.973,1.973,0,0,0,526.154,158.279Zm5.253,12.59q.182.453.358.91c-.466.021-.936.052-1.405.086a2.34,2.34,0,0,0,.036-.3A2.524,2.524,0,0,0,531.407,170.87Zm-1.9-4c-.106-.005-.213-.011-.317-.015a2.587,2.587,0,0,0-.306-1.573,2.745,2.745,0,0,0,.069-.437q.422,1.02.846,2.052C529.707,166.88,529.61,166.871,529.512,166.867Zm-5.48-12.5-.326.037a2.559,2.559,0,0,0-.446-2.065,2.452,2.452,0,0,0-.352-.39,2.391,2.391,0,0,0,.266-.279q.614,1.322,1.23,2.682A2.456,2.456,0,0,0,524.031,154.362Zm-19.5-17.275a2.312,2.312,0,0,0-.772,1.37,2.588,2.588,0,0,0,.748,2.212,2.114,2.114,0,0,0-.494.56q-.467-.644-.939-1.291l-1.042-1.427a21.231,21.231,0,0,1-2.542-4.468,1.441,1.441,0,0,1-.115-1.086c.222-.5,1.1-.819,1.868-1.1l.3-.111a2.2,2.2,0,0,0,.363.42,2.491,2.491,0,0,0-.372,3.278,2.458,2.458,0,0,0,.9.752A19.523,19.523,0,0,0,504.528,137.087ZM557.02,313.668a2.257,2.257,0,0,0-1.716.48c-6.269,4.789-12.277,9.593-16.891,15.6l-2.81-6.514a2.545,2.545,0,0,0,.359-.589c1.6-3.66,5-6.082,8.276-8.427,1.176-.84,2.394-1.709,3.5-2.62a2.49,2.49,0,0,0,.394-3.473,2.367,2.367,0,0,0-1.583-.981,2.2,2.2,0,0,0-1.7.529c-1.134.928-2.366,1.829-3.56,2.7-2.927,2.14-5.942,4.344-8.088,7.331l-.522-1.2a23.012,23.012,0,0,1,4.847-5.262,22.733,22.733,0,0,0,5.377-6.06,2.188,2.188,0,0,0-.124-2.4,2.662,2.662,0,0,0-2.291-1.045,2.378,2.378,0,0,0-1.956,1.293,15.6,15.6,0,0,1-3.655,4.013c-.376.329-.746.655-1.1.98a39.925,39.925,0,0,0-3.327,3.366l-.563-1.277a2.6,2.6,0,0,0,.236-.386c2.1-4.181,5.376-7.655,8.769-9.294a2.476,2.476,0,0,0,1.355-1.646,2.768,2.768,0,0,0-.43-2.245,2.093,2.093,0,0,0-2.707-.637,24.911,24.911,0,0,0-9.653,8.735q-.249-.556-.5-1.11a2.468,2.468,0,0,0,.436-.653c1.8-3.839,5.5-5.715,9.136-7.307a2.41,2.41,0,0,0,1.4-1.593,2.717,2.717,0,0,0-.42-2.256,2.144,2.144,0,0,0-2.712-.7c-3.809,1.666-7.652,3.7-10.252,7.188q-.353-.77-.709-1.54a2.5,2.5,0,0,0,.265-.391,16.908,16.908,0,0,1,8.673-7.775,2.333,2.333,0,0,0,1.447-1.531,2.658,2.658,0,0,0-.412-2.271,2.235,2.235,0,0,0-2.709-.776,21.3,21.3,0,0,0-9.685,7.557c-4.036-8.549-7.859-16.1-11.666-23.033a2.515,2.515,0,0,0,.42-1.352c.181-8.421,6.218-16.106,17.937-22.837q.327-.187.656-.37c3.514,14.4,10.894,28.3,17.566,40.228a177.011,177.011,0,0,0,11.482,17.946v0a156.587,156.587,0,0,0,17.9,20.564,2.383,2.383,0,0,0,2.452.45c14.407-5.87,34.885-10.919,51.176-2a32.548,32.548,0,0,0-5.717-1.541c-7.731-1.375-15.817-.563-23.639.222l-.52.052a93.343,93.343,0,0,0-19.086,4.231c-8.643,2.766-28.592,10.631-33.327,25.435-2.307-5.147-4.5-10.189-6.4-14.557,4.48-6.883,11.094-11.935,17.492-16.824a2.517,2.517,0,0,0-1.13-4.437Zm-31.581-73.474c-6.771,3.747-18.119,11.8-19.882,24.364-.06-.068-.123-.144-.187-.229-.574-.746-1.091-1.563-1.594-2.36l-1.184-1.859c-.771-1.207-1.546-2.417-2.291-3.638-1.457-2.381-2.741-4.927-3.983-7.388-1.319-2.617-2.684-5.321-4.273-7.87a111.6,111.6,0,0,1-6.527-11.583c-1.052-2.242-2.808-5.976-2.374-8.754a2.452,2.452,0,0,0,.2-.8,3.641,3.641,0,0,1,.84-1.383,2.144,2.144,0,0,0,.632-1.986c5.874-9.285,16.121-16.134,23.349-20.495A66.706,66.706,0,0,1,522.9,189.93c4.838-1.514,10.421-2.869,15.3-1.545,6.3,16.4,11.723,30.126,18.7,43.569C545.055,230.955,533.322,235.831,525.439,240.193Zm25.117,9.617a2.5,2.5,0,0,0-1.335,1.669,2.744,2.744,0,0,0,.434,2.238,2.062,2.062,0,0,0,2.7.612c4.341-2.185,9.689-3.259,15.9-3.195.959,1.42,1.861,2.728,2.738,3.967-4.638,1.607-9.7,3.542-12.98,7.729a2.355,2.355,0,0,0-.048,2.933,2.56,2.56,0,0,0,1.988,1.077,2.249,2.249,0,0,0,1.824-.913c2.763-3.528,7.261-5.042,11.609-6.506l.6-.2c1.432,1.927,2.9,3.846,4.383,5.724-3.877,1.209-8.527,3.079-12.184,6.641a2.1,2.1,0,0,0-.266,2.863,2.727,2.727,0,0,0,1.947,1.095,2.463,2.463,0,0,0,1.95-.715c3.209-3.127,7.76-4.644,11.855-5.789.976,1.191,1.883,2.281,2.743,3.3a17.4,17.4,0,0,0-9.278,5.541,2.26,2.26,0,0,0-.144,2.912,2.622,2.622,0,0,0,1.969,1.082,2.345,2.345,0,0,0,1.885-.832,12.575,12.575,0,0,1,9.337-4.317c1.386,1.585,2.8,3.178,4.208,4.75a102.452,102.452,0,0,0-12.962,3.54,2.278,2.278,0,0,0-1.483,1.479,2.621,2.621,0,0,0,.406,2.283,2.309,2.309,0,0,0,2.7.833,95.878,95.878,0,0,1,15.178-3.915q1.173,1.273,2.35,2.54c-4.972.206-10.5,1.112-13.116,4.937a2.491,2.491,0,0,0,.061,2.942,2.52,2.52,0,0,0,2.012,1.073,2.132,2.132,0,0,0,1.744-1c2.188-3.193,8.679-3.169,12.558-3.154h.876a2.514,2.514,0,0,0,.351-.024L604.1,294.1a30.556,30.556,0,0,0-15.673,4,2.156,2.156,0,0,0-1.1,1.438,2.375,2.375,0,0,0,.447,1.875,2.531,2.531,0,0,0,3.338.748,25.442,25.442,0,0,1,18.291-2.5l3.523,3.678c3.548,3.7,6.907,6.985,10.21,9.989a56.807,56.807,0,0,0-20.273-1.578,84.528,84.528,0,0,0-14.614,2.73c-2.275.606-4.722,1.381-7.7,2.441-.932.333-1.862.7-2.81,1.069A30.023,30.023,0,0,1,575,315.124c-.236-.266-.41-.462-.489-.542a137.145,137.145,0,0,1-12.258-14.629A193.685,193.685,0,0,1,549.651,280.1c-6.339-11.335-13.227-24.745-16.437-38.468,8.866-4.089,17.762-5.734,25.1-4.633a2.454,2.454,0,0,0,1.22-.115c1.283,2.324,2.456,4.367,3.578,6.227.6,1,1.251,2.041,2,3.212A35.87,35.87,0,0,0,550.557,249.811Zm80.553,72.009a2.039,2.039,0,0,0,.6-.052c.138.177.276.356.408.537C631.786,322.137,631.45,321.975,631.109,321.819Zm-55.848,9.288a100.21,100.21,0,0,1,43.5-7.22c2.869.168,12.6,1.222,17.315,7.684a12.336,12.336,0,0,1,2.295,5.89c.94,7.855-8.109,15.944-12.971,20.289-8.409,7.523-17.041,12.822-25.653,15.75-8.871,3.014-18.838,2.924-30.473-.268-7.621-2.094-12.56-4.8-15.1-8.275a9.594,9.594,0,0,1-1.69-3.766,2.5,2.5,0,0,0-1.256-1.728C548.477,345.437,562.743,336.309,575.262,331.107Z" transform="translate(-46.073 -97.677)"/>
      <path class="cls-1" d="M522.452,229.418a2.461,2.461,0,0,0-.18,3h0a2.4,2.4,0,0,0,.949.761,43.764,43.764,0,0,0,6.543,2.236l.469.133a2.168,2.168,0,0,0,1.741-.272,2.551,2.551,0,0,0,1.168-1.654,2.523,2.523,0,0,0-1.878-2.834l-.32-.09a37.68,37.68,0,0,1-5.644-1.925A2.329,2.329,0,0,0,522.452,229.418Z" transform="translate(-46.073 -97.677)"/>
      <path class="cls-1" d="M518.348,200.683l-.082-.05a49.712,49.712,0,0,0-4.515-2.577,2.293,2.293,0,0,0-2.833.6,2.5,2.5,0,0,0-.186,3.043,2.433,2.433,0,0,0,.922.754,48.853,48.853,0,0,1,4.324,2.469,2.378,2.378,0,0,0-.88.656,2.559,2.559,0,0,0-.145,3,1.915,1.915,0,0,0,.519.489,19.521,19.521,0,0,0,2.668,1.382,2.526,2.526,0,0,0-.715.458,2.443,2.443,0,0,0-.424,3.273,2.605,2.605,0,0,0,.376.411,11.125,11.125,0,0,0,2.691,1.711,2.21,2.21,0,0,0-.955.632,2.627,2.627,0,0,0-.216,3.238h0a2.523,2.523,0,0,0,.79.7l.677.392c.5.292,1.012.586,1.527.874a2.314,2.314,0,0,0-1.709.862,2.5,2.5,0,0,0-.183,3.024h0a2.432,2.432,0,0,0,.936.758l.189.089a41.456,41.456,0,0,0,7.028,2.815,2.148,2.148,0,0,0,2.419-.851,2.669,2.669,0,0,0-.038-3,2.448,2.448,0,0,0-1.373-.919c-.362-.1-.726-.217-1.09-.341a2.152,2.152,0,0,0,1.882-.98,2.621,2.621,0,0,0-.04-2.944,2.409,2.409,0,0,0-1.414-.916,16.387,16.387,0,0,1-4.225-1.817,2.454,2.454,0,0,0,3.032-1.225,2.555,2.555,0,0,0-.25-2.531,2.114,2.114,0,0,0-.968-.739c-1.244-.46-2.336-.9-3.336-1.339l-.185-.082c-.417-.183-.837-.374-1.218-.579a2.34,2.34,0,0,0,1.394-.832,2.463,2.463,0,0,0,.18-3.01,2.424,2.424,0,0,0-.944-.761c-.425-.2-.874-.379-1.324-.562a13.773,13.773,0,0,1-2.2-1.04c-.094-.06-.188-.1-.282-.153a2.571,2.571,0,0,0,1.26-1.184,2.326,2.326,0,0,0-.235-2.43A2.98,2.98,0,0,0,518.348,200.683Z" transform="translate(-46.073 -97.677)"/>
    </g>
    <g>
      <path class="cls-1" d="M567.636,549.7a2.381,2.381,0,0,0-.522.793,2.2,2.2,0,0,0,.994,2.65,2.543,2.543,0,0,0,3.268-.33,7.165,7.165,0,0,1,2.661-1.748,6.2,6.2,0,0,0-1.127,1.762,12.314,12.314,0,0,0-1.181,2.293c-3.192,8.156,1.079,20.959,5.124,28.619a37.43,37.43,0,0,1-6.9-17.117,2.312,2.312,0,0,0-2.051-2.061,2.466,2.466,0,0,0-2.647,1.469,2.414,2.414,0,0,0-.138,1.2c2.293,18.109,16.528,33.074,36.269,38.123a85.251,85.251,0,0,0,9.431,1.656c.922.125,1.842.252,2.754.385,3.72.549,8.042.967,11.905-.105a11.661,11.661,0,0,0,8.015-6.992,14.2,14.2,0,0,0-.043-9.83c-1.894-5.412-6.169-9.894-10.415-14.019a2.66,2.66,0,0,0-1.738-1.676l-.061-.059c-.722-.7-1.431-1.379-2.109-2.051-4.053-4.014-8.539-8.016-13.332-11.894l-.415-.336c-1.817-1.471-3.875-3.137-6.149-4.834a2.291,2.291,0,0,0-.6-.449c-7.274-5.357-17.987-12.008-27.231-8.2A11.581,11.581,0,0,0,567.636,549.7Zm35.718,50.063c1.136.279,2.247.553,3.318.83,8.4,2.178,15.728-.828,21.787-8.936.907,2.117,1.576,4.764.706,6.986a6.723,6.723,0,0,1-3.746,3.564c-4.742,2.147-11.751.7-17.383-.465-1.273-.262-2.478-.51-3.6-.709a43.171,43.171,0,0,1-14.2-5.219A89.843,89.843,0,0,0,603.353,599.764Zm-8.144-23.758a2.067,2.067,0,0,0,1.919,1.621,2.7,2.7,0,0,0,2.584-1.687,2.492,2.492,0,0,0,.075-1.586c-.97-3.559-2.147-7.109-3.285-10.543-.573-1.727-1.161-3.5-1.72-5.268q.425.3.884.637a65.686,65.686,0,0,1,3,9.68,58,58,0,0,0,3.769,11.422,2.428,2.428,0,0,0,2.335,1.394,2.522,2.522,0,0,0,2.259-1.506,2.172,2.172,0,0,0-.115-1.8,56.962,56.962,0,0,1-3.657-11.135c-.239-.943-.484-1.9-.742-2.865.524.416,1.065.854,1.632,1.314a2.429,2.429,0,0,0,.21,1.012,84.58,84.58,0,0,1,3.718,11.7c.332,1.254.662,2.506,1.013,3.752a2.087,2.087,0,0,0,1.936,1.613,2.7,2.7,0,0,0,2.572-1.68,2.488,2.488,0,0,0,.067-1.6c-.341-1.223-.669-2.451-1-3.68-.432-1.623-.873-3.285-1.354-4.934.319.295.657.606,1.017.941.133.637.255,1.277.378,1.914.315,1.648.642,3.353,1.122,5.014a2.163,2.163,0,0,0,1.371,1.424c-.61.953-1.261,1.924-1.969,2.853-2.477,3.238-7.067,2.318-10.3,1.346-6.231-1.869-12.068-5.209-15.615-8.937a50.905,50.905,0,0,1-4.976-6.631,2.483,2.483,0,0,0,.75.084,2.523,2.523,0,0,0,2.29-1.519,2.234,2.234,0,0,0-.093-1.787,47.86,47.86,0,0,1-2.375-6.387c-.069-.225-.149-.475-.233-.738-.529-1.646-1.33-4.137-.8-5.508a2.556,2.556,0,0,0,.146-.564,2.184,2.184,0,0,0,.969-.314c1.285,1.463,1.941,4.994,2.386,7.389.147.793.275,1.479.407,2.029.3,1.246.579,2.5.858,3.758.541,2.44,1.1,4.965,1.831,7.408a2.111,2.111,0,0,0,1.976,1.6,2.683,2.683,0,0,0,2.539-1.66,2.473,2.473,0,0,0,.053-1.623c-.766-2.557-1.355-5.229-1.928-7.812-.274-1.25-.56-2.529-.863-3.8.558,1.76,1.137,3.5,1.706,5.219C593.08,568.965,594.252,572.49,595.209,576.006ZM583,578.914c4.44,5.066,11.976,9.445,19.661,11.428,2.907.748,7.251,1.5,11.4-.635,2.932-1.512,4.719-4.623,6.445-7.635l.405-.7c1.046,1.113,1.973,2.123,2.814,3.064a31.767,31.767,0,0,1,2.056,2.578c-5.222,7.826-10.724,10.455-18.318,8.777l-.481-.106c-7.9-1.738-18.712-4.119-23.658-10.654a49.357,49.357,0,0,1-7.207-16.5A58.8,58.8,0,0,0,583,578.914Zm-4.134-15.3c-1.166-2.533-1.916-4.965-1.778-6.818.154.957.389,1.889.608,2.764l.032.119Q578.239,561.714,578.871,563.613Z" transform="translate(-46.073 -97.677)"/>
      <path class="cls-1" d="M619.843,616.4c8.615.725,15.02-1.689,18.523-6.984a19.708,19.708,0,0,0,1.738-3.277,2.526,2.526,0,0,0,1.06-.644,23.7,23.7,0,0,0,5.147-8.221c1.883-4.811,2.691-10.207,3.475-15.424.45-3,.875-5.828,1.485-8.475q.86-3.735,1.732-7.471a2.45,2.45,0,0,0,.388-1.648c1.6-6.8,2.972-12.342,4.317-17.418a2.182,2.182,0,0,0,.57-2.141c.694-2.56,1.447-5.2,2.295-8.059a2.3,2.3,0,0,0,1.162-1.213,2.129,2.129,0,0,0-.139-1.807c-.025-.051-.052-.1-.079-.15,2.049-6.635,4.308-13.117,6.716-19.269,2.319-5.928,4.837-11.7,7.481-17.162,6.25-12.9,14.381-24.881,21.51-34.9,3.831-5.385,7.81-10.789,11.658-16.018,11.125-15.123,22.631-30.76,31.887-47.633l1.071-1.949q.751-1.364,1.523-2.773a2.466,2.466,0,0,0,1.913-1.443,2.121,2.121,0,0,0-.149-1.814l-.006-.012a110.432,110.432,0,0,0,5.246-11.211c4.405-11.255,4.716-20.605.95-28.581-6.163-13.053-19.318-22.61-30.925-31.042q-1.5-1.093-2.963-2.157a2.632,2.632,0,0,0-2.248-.354,2.259,2.259,0,0,0-1.508,1.315h0a2.179,2.179,0,0,0-.146.733c-.08,3.216-.277,6.551-.59,9.927-7.364-2.734-15.835-2.545-23.209-1.983-10.93.834-18.848,3.344-24.209,7.669a2.447,2.447,0,0,0-.922,2.314c2.126,9.19-.693,18.515-3.42,27.534-.652,2.157-1.326,4.388-1.911,6.554A267.691,267.691,0,0,1,650.5,398.9c-1.623,4.145-3.3,7.936-5.111,11.579-.119.016-.237.033-.354.055a2.43,2.43,0,0,0-1.979,1.977,24.716,24.716,0,0,0-4.451,4.7c-3.385,4.445-5.839,9.6-8.213,14.578l-.812,1.7c-1.571,3.275-3.4,6.5-5.168,9.619-1.787,3.152-3.635,6.412-5.237,9.754-.354.736-.765,1.605-1.152,2.6-.953,2.436-1.242,4.264-.881,5.57-10.279,18.836-22.541,36.877-34.4,54.326-6.043,8.889-12.291,18.082-18.2,27.272a2.6,2.6,0,0,0-.313.678,25.1,25.1,0,0,0-2.356,2.295,2.183,2.183,0,0,0-.555,1.973,15.222,15.222,0,0,0-1.989,3.586c-1.613,4.123-1.712,9.185-.315,15.935a63.256,63.256,0,0,0,9.888,23.092C580.826,607.375,603.8,615.049,619.843,616.4Zm47.319-213.164a2.689,2.689,0,0,0,1.688-1.566,2.208,2.208,0,0,0-.823-2.692,17.382,17.382,0,0,0-11.35-2.715c.351-.975.718-2.034,1.129-3.242,4.276-.328,7.548.292,10.263,1.943a2.5,2.5,0,0,0,2.123.242,2.728,2.728,0,0,0,1.656-1.568,2.077,2.077,0,0,0-.927-2.617,21.129,21.129,0,0,0-11.5-2.935q.5-1.569.972-3.143c3.534-1.1,7.066-.438,10.8.266a34.29,34.29,0,0,0,7.962.862,2.13,2.13,0,0,0,1.981-1.36,2.671,2.671,0,0,0-.339-2.469,2.435,2.435,0,0,0-2.134-1.014,35.5,35.5,0,0,1-7.858-.791,31.8,31.8,0,0,0-8.872-.721c.706-2.469,1.429-5.075,2.2-7.93q.195-.721.4-1.447c6.681-1.046,13.657.014,21.9,3.319a2.323,2.323,0,0,0,1.822,0,2.541,2.541,0,0,0,1.329-1.414,2.318,2.318,0,0,0-1.3-3.1c-8.293-3.321-15.4-4.575-22.259-3.909,2.652-8.914,5.349-18.123,3.653-27.44,5.721-3.975,13.269-5.147,20.594-5.814,6.033-.547,14.884-.92,22.061,2.14l.058.024a182.692,182.692,0,0,1-11.418,43.678,266.389,266.389,0,0,1-19.648,39.542,2.584,2.584,0,0,0-.261.586c-6.646-3.312-18.389-8.148-30.023-7.988,1.273-2.7,2.479-5.486,3.664-8.482,3.186-.7,7.474-.7,10.375,1.379A2.367,2.367,0,0,0,667.162,403.234Zm56.716-42.69a2.169,2.169,0,0,0-2.552,1.366,2.684,2.684,0,0,0,.132,2.233,2.418,2.418,0,0,0,1.678,1.215,36.155,36.155,0,0,1,21.655,14.535c-.784,1.858-1.689,3.807-2.747,5.921a32.611,32.611,0,0,0-4.2-4.343l-.171-.147c-1.819-1.566-5.606-4.832-8.321-4.163-4.227,1.041-6.4,5.468-7.668,8.706-.662,1.694-1.2,3.416-1.728,5.082-.5,1.586-.958,3.069-1.46,4.255a75.74,75.74,0,0,1-5.828,10.562q-.791,1.271-1.566,2.535c-.834,1.367-1.808,2.688-2.749,3.965a42.727,42.727,0,0,0-3.632,5.5c-2.3,4.426,1.148,9.008,4.176,13.008a38.626,38.626,0,0,1,2.618,3.734q-2.033,2.774-4.077,5.539c-3.255-6.779-10.7-13.453-22.151-19.861a275.627,275.627,0,0,0,20.3-40.831c7.389-18.881,11.626-37.46,12.6-55.249,8.3,6.143,16.873,12.866,23.731,21.245,6.789,8.294,8.482,16.683,5.491,27.2-.175.612-.367,1.237-.58,1.889A41.288,41.288,0,0,0,723.878,360.544Zm-.935,57.793c-.043.064-.085.129-.13.191-.048-.055-.1-.107-.153-.16.017-.019.033-.041.051-.06A2.29,2.29,0,0,0,722.942,418.338Zm-7.8,11.193q-.284.4-.575.791c-.268-.381-.546-.76-.827-1.139a2.46,2.46,0,0,0,.271-.129A2.525,2.525,0,0,0,715.145,429.531Zm2.358-3.748c-.053-.094-.106-.186-.158-.277a2.582,2.582,0,0,0,1.162-1.1,2.63,2.63,0,0,0,.406-.178c-.422.6-.848,1.211-1.276,1.816C717.6,425.955,717.554,425.867,717.5,425.783Zm7.6-11.342c-.068-.086-.138-.17-.207-.254a2.562,2.562,0,0,0,1.5-1.486.338.338,0,0,1,.519-.432q-.785,1.228-1.6,2.478A2.5,2.5,0,0,0,725.106,414.441Zm4.092-25.73a2.309,2.309,0,0,0-1.569.085,2.59,2.59,0,0,0-1.464,1.819,2.128,2.128,0,0,0-.737-.116q.292-.74.584-1.485l.644-1.646a21.279,21.279,0,0,1,2.4-4.545,1.437,1.437,0,0,1,.855-.68c.539-.082,1.28.484,1.933.983.085.065.17.131.257.2a2.225,2.225,0,0,0-.159.533,2.492,2.492,0,0,0-2.966,1.447,2.46,2.46,0,0,0-.148,1.166A19.5,19.5,0,0,0,729.2,388.711ZM608.466,527.852a2.256,2.256,0,0,0-1.326-1.189c-7.407-2.715-14.686-5.2-22.228-5.867l3.984-5.869a2.566,2.566,0,0,0,.69-.014c3.947-.615,7.813.945,11.554,2.453,1.34.541,2.727,1.1,4.092,1.549a2.49,2.49,0,0,0,3.14-1.535,2.364,2.364,0,0,0-.023-1.861,2.2,2.2,0,0,0-1.358-1.147c-1.392-.457-2.813-1.014-4.19-1.553-3.377-1.318-6.855-2.678-10.528-2.883l.729-1.082a23,23,0,0,1,7.042,1.262,22.741,22.741,0,0,0,8,1.279A2.189,2.189,0,0,0,610,510a2.663,2.663,0,0,0-.35-2.494,2.381,2.381,0,0,0-2.142-.955,15.623,15.623,0,0,1-5.348-.926c-.48-.141-.954-.277-1.419-.4a39.424,39.424,0,0,0-4.627-1l.774-1.162a2.517,2.517,0,0,0,.453-.008c4.653-.477,9.345.422,12.551,2.4a2.474,2.474,0,0,0,2.115.26,2.776,2.776,0,0,0,1.663-1.568,2.1,2.1,0,0,0-.917-2.627,24.914,24.914,0,0,0-12.554-3.449q.334-.507.668-1.018a2.5,2.5,0,0,0,.784.018c4.205-.545,7.774,1.566,11.07,3.779a2.411,2.411,0,0,0,2.1.324,2.715,2.715,0,0,0,1.678-1.566,2.144,2.144,0,0,0-.866-2.664c-3.452-2.316-7.229-4.467-11.569-4.785q.459-.712.917-1.426a2.378,2.378,0,0,0,.473.014,16.905,16.905,0,0,1,11.217,3.139,2.335,2.335,0,0,0,2.068.4,2.661,2.661,0,0,0,1.694-1.568,2.235,2.235,0,0,0-.8-2.7,21.306,21.306,0,0,0-11.577-4.109c5.042-8,9.356-15.277,13.159-22.213a2.51,2.51,0,0,0,1.366-.373c7.2-4.371,16.925-3.408,28.9,2.861.223.117.443.234.665.356-10.26,10.7-18.013,24.389-24.492,36.428a176.69,176.69,0,0,0-8.968,19.326v0a156.463,156.463,0,0,0-7.729,26.143,2.386,2.386,0,0,0,.937,2.311c12.69,9,27.951,23.557,29.177,42.09a32.582,32.582,0,0,0-1.771-5.648c-2.994-7.26-8.023-13.643-12.887-19.818l-.324-.412a93.368,93.368,0,0,0-13.822-13.824c-6.976-5.8-24.326-18.4-39.356-14.445,3.1-4.709,6.174-9.271,8.841-13.215,8.213.082,16.027,2.945,23.588,5.715a2.516,2.516,0,0,0,3.135-3.336Zm45-66.109c-6.8-3.7-19.687-8.943-31.23-3.68.025-.088.056-.182.093-.281.32-.885.732-1.76,1.135-2.611l.933-2c.6-1.3,1.208-2.6,1.837-3.887,1.226-2.508,2.683-4.959,4.092-7.328,1.5-2.519,3.046-5.123,4.342-7.834a111.637,111.637,0,0,1,6.263-11.726c1.325-2.092,3.532-5.578,6.107-6.705a2.484,2.484,0,0,0,.782-.262,3.628,3.628,0,0,1,1.617-.035,2.142,2.142,0,0,0,2.015-.535c10.987-.033,22.269,4.93,29.83,8.684A66.685,66.685,0,0,1,694.5,432.6c3.876,3.268,8.019,7.248,9.522,12.072-10.452,14.123-19.111,26.072-26.7,39.176C671.8,473.322,661.385,466.047,653.47,461.742Zm5.383,26.352a2.5,2.5,0,0,0-2.125-.231,2.75,2.75,0,0,0-1.655,1.568,2.062,2.062,0,0,0,.937,2.609c4.174,2.488,7.954,6.422,11.237,11.7-.684,1.572-1.3,3.035-1.875,4.441-3.847-3.049-8.2-6.277-13.491-6.795a2.352,2.352,0,0,0-2.5,1.535,2.557,2.557,0,0,0,.16,2.254,2.248,2.248,0,0,0,1.75,1.049c4.459.436,8.152,3.416,11.725,6.3l.49.394c-.855,2.242-1.685,4.514-2.473,6.771-3.1-2.621-7.178-5.539-12.146-6.709a2.1,2.1,0,0,0-2.558,1.314,2.728,2.728,0,0,0,.123,2.23,2.46,2.46,0,0,0,1.651,1.26c4.361,1.027,8.085,4.051,11.251,6.891-.479,1.463-.912,2.813-1.312,4.088a17.4,17.4,0,0,0-9.658-4.85,2.262,2.262,0,0,0-2.533,1.443,2.625,2.625,0,0,0,.146,2.242,2.346,2.346,0,0,0,1.714,1.143,12.569,12.569,0,0,1,8.657,5.557c-.593,2.019-1.178,4.066-1.745,6.1a102.628,102.628,0,0,0-9.949-9.031,2.277,2.277,0,0,0-2.045-.455,2.62,2.62,0,0,0-1.707,1.568,2.308,2.308,0,0,0,.749,2.727,95.927,95.927,0,0,1,11.456,10.7q-.444,1.673-.88,3.346c-2.845-4.082-6.577-8.256-11.211-8.41a2.49,2.49,0,0,0-2.448,1.633,2.52,2.52,0,0,0,.176,2.273,2.137,2.137,0,0,0,1.777.935c3.868.129,7.335,5.617,9.406,8.9l.47.74a2.429,2.429,0,0,0,.209.281q-.182.729-.364,1.455a30.556,30.556,0,0,0-11.8-11.068,2.158,2.158,0,0,0-1.8-.15,2.372,2.372,0,0,0-1.341,1.383,2.533,2.533,0,0,0,1.162,3.219,25.443,25.443,0,0,1,11.934,14.084l-1.21,4.949c-1.213,4.978-2.181,9.578-2.94,13.977a56.814,56.814,0,0,0-9.56-17.947,84.633,84.633,0,0,0-10.154-10.859c-1.732-1.594-3.7-3.24-6.194-5.18-.781-.607-1.587-1.2-2.411-1.795a30.01,30.01,0,0,1,.949-3.861c.1-.342.169-.594.194-.7a136.928,136.928,0,0,1,5.753-18.2,193.437,193.437,0,0,1,9.972-21.3c6.155-11.437,13.765-24.451,23.614-34.531,8.213,5.281,14.379,11.9,17.394,18.685a2.47,2.47,0,0,0,.752.967c-1.27,2.33-2.363,4.416-3.329,6.363-.519,1.047-1.049,2.15-1.638,3.408A35.846,35.846,0,0,0,658.852,488.094ZM641.394,594.719a2.086,2.086,0,0,0,.364.476c-.075.211-.151.424-.233.633C641.49,595.461,641.446,595.09,641.394,594.719Zm-37.837-42.113a100.214,100.214,0,0,1,29.457,32.807c1.4,2.51,5.737,11.281,2.821,18.732a12.334,12.334,0,0,1-3.734,5.1c-6.119,5.014-17.8,1.727-24.08-.041-10.863-3.051-19.97-7.484-27.066-13.174-7.308-5.863-12.586-14.318-16.145-25.846-2.328-7.553-2.7-13.174-1.132-17.18a9.58,9.58,0,0,1,2.268-3.449,2.508,2.508,0,0,0,.616-.912,2.537,2.537,0,0,0,.167-1.076C577.081,537.713,592.444,544.842,603.557,552.606Z" transform="translate(-46.073 -97.677)"/>
      <path class="cls-1" d="M660.953,453.434a2.46,2.46,0,0,0-2.628,1.461h0a2.4,2.4,0,0,0-.132,1.211,43.843,43.843,0,0,0,1.629,6.719l.14.467a2.165,2.165,0,0,0,1.164,1.322,2.551,2.551,0,0,0,2.023.1,2.524,2.524,0,0,0,1.381-3.107l-.1-.318a37.632,37.632,0,0,1-1.409-5.795A2.328,2.328,0,0,0,660.953,453.434Z" transform="translate(-46.073 -97.677)"/>
      <path class="cls-1" d="M682.984,434.533l0-.1a49.9,49.9,0,0,0-.251-5.193,2.292,2.292,0,0,0-2.03-2.064,2.5,2.5,0,0,0-2.666,1.477,2.442,2.442,0,0,0-.141,1.184,48.976,48.976,0,0,1,.241,4.973,2.389,2.389,0,0,0-1.026-.389,2.562,2.562,0,0,0-2.608,1.488,1.919,1.919,0,0,0-.134.7,19.65,19.65,0,0,0,.268,2.992,2.553,2.553,0,0,0-.77-.358,2.443,2.443,0,0,0-2.988,1.4,2.584,2.584,0,0,0-.146.537,11.15,11.15,0,0,0,0,3.19,2.224,2.224,0,0,0-1.046-.467,2.626,2.626,0,0,0-2.847,1.559v0a2.517,2.517,0,0,0-.166,1.041l.033.781c.024.582.05,1.168.083,1.758a2.314,2.314,0,0,0-1.645-.977,2.5,2.5,0,0,0-2.648,1.469h0a2.415,2.415,0,0,0-.137,1.2l.026.207a41.474,41.474,0,0,0,1.4,7.441,2.148,2.148,0,0,0,2.017,1.582,2.669,2.669,0,0,0,2.507-1.641,2.456,2.456,0,0,0,.037-1.652c-.114-.355-.207-.728-.3-1.1a2.152,2.152,0,0,0,1.837,1.061,2.625,2.625,0,0,0,2.462-1.615,2.416,2.416,0,0,0,.013-1.686,16.334,16.334,0,0,1-.737-4.539,2.453,2.453,0,0,0,2.662,1.9,2.558,2.558,0,0,0,2-1.57,2.113,2.113,0,0,0,.1-1.215c-.28-1.295-.5-2.453-.662-3.533l-.03-.2c-.07-.449-.135-.906-.166-1.338a2.345,2.345,0,0,0,1.45.731,2.465,2.465,0,0,0,2.636-1.467,2.42,2.42,0,0,0,.135-1.205c-.061-.465-.15-.941-.237-1.42a13.725,13.725,0,0,1-.306-2.414c0-.111-.014-.215-.023-.32a2.577,2.577,0,0,0,1.676.426,2.327,2.327,0,0,0,1.923-1.5A2.966,2.966,0,0,0,682.984,434.533Z" transform="translate(-46.073 -97.677)"/>
    </g>
    <g>
      <g>
        <path class="cls-1" d="M424.538,395.69c-3.077-12.121-8-23.717-12.727-35.262a371.631,371.631,0,0,1-12.689-36.019c-8.219-27.894-15.407-56.663-14.2-85.964a3.475,3.475,0,0,0-2.551-3.351c-22.5-5.665-46.367-4.378-69.2-1.728-9.819,1.14-19.589,2.657-29.315,4.437-9.119,1.216-18.378.633-27.545,1.21-8.937.564-17.948,2.924-26.553,5.264-19.043,5.177-37.39,12.609-56.556,17.38-31.775,7.91-67.486,8.783-94.608,29.251a2.017,2.017,0,0,0-.912,2.243c.925,2.483,1.914,4.955,2.941,7.42a2.045,2.045,0,0,0-.365-.006,10.781,10.781,0,0,0-8.022,3.891,2.037,2.037,0,0,0,.4,3.117c15.425,11.864,19.314,33.061,27.747,49.59,1.163,2.283,4.589.272,3.428-2-8.491-16.647-12.6-36.75-27.188-49.385a7.1,7.1,0,0,1,3.632-1.237,1.979,1.979,0,0,0,1.613-1.017c12.96,30.094,31.613,59.274,30.156,93.016-.11,2.559,3.861,2.549,3.972,0,1.624-37.611-21.159-69.422-34.013-103.2,15.191-10.977,33.083-16.09,51.413-19.836a117.963,117.963,0,0,0-26.211,14.067,3.838,3.838,0,0,0-.68.647A73.923,73.923,0,0,0,91.5,296.2a2.048,2.048,0,0,0-.711,2.717c11.809,24.947,21.962,50.572,29.141,77.25,5.247,19.5,8.308,39.459,12.021,59.285,3.286,17.551,6.2,35.336,6.053,53.242-.107,13.053-2,29.668-13.339,37.789-.025-.033-.047-.066-.073-.1a1.979,1.979,0,0,0,.6-.926c5.807-19.008,6.922-39.424,6.441-59.184-.471-19.332-2.693-39.353-9.089-57.7-.837-2.4-4.675-1.369-3.829,1.055,6.307,18.088,8.373,37.592,8.948,56.641.477,15.865-.234,32.2-3.627,47.824-.016-.752-.037-1.492-.075-2.2-.262-4.812-.342-9.637-.4-14.455-.111-9.068-.029-18.135-.282-27.2-.457-16.5-3.434-32.2-6.634-48.324-5.161-26-9.495-55.841-27.7-76.425-1.7-1.922-4.5.9-2.808,2.809,18.229,20.609,22.014,51.3,27.2,77.283,3.342,16.748,5.78,33,6.1,50.129.157,8.445.074,16.895.2,25.342q.1,6.334.449,12.654c.1,1.9.1,3.934.237,5.943-5.886-11.565-6.675-25.629-6.876-38.391-.281-17.893.436-35.143-2.922-52.852-4.081-21.523-11.669-42.314-19.844-62.572C87.2,357.2,83.61,348.489,78.966,340.4a54.722,54.722,0,0,0-7.712-10.285q-1.055-1.078-2.193-2.068c1.343-1.293,2.562-2.691,3.834-4.055a27.052,27.052,0,0,1,3.467,8.207c.586,2.492,4.416,1.436,3.83-1.055a31.06,31.06,0,0,0-12.826-18.4,1.958,1.958,0,0,0-2,0A111.207,111.207,0,0,0,54.371,321c-1.986,1.621.841,4.412,2.808,2.809a112.952,112.952,0,0,1,9.155-6.943,25.982,25.982,0,0,1,4.18,3.908,2.1,2.1,0,0,0-.258.227c-1.126,1.2-2.2,2.438-3.334,3.627-.843.885-2.544,1.607-2.544,3.072,0,3.029,4.272,5.369,6.151,7.51,6.994,7.971,11.072,18.863,15.051,28.543,8.757,21.289,16.626,43.084,21.123,65.71,3.713,18.684,2.35,37.154,2.873,56.035.412,14.9,2.44,30.939,11.694,43.021-2.267,1.141-.26,4.539,2.023,3.418.2-.1.386-.2.58-.3,1.51,1.607,3.789-.264,3.269-2.008,10.855-7.83,13.829-22.611,14.647-35.441,1.186-18.615-1.95-37.484-5.257-55.736-3.737-20.629-7.066-41.392-12.334-61.693-7.005-27-17.339-52.955-29.188-78.162a67.692,67.692,0,0,1,9.585-5.262,3.414,3.414,0,0,0-.488,2.62c5.673,28.638,16.181,55.913,25.974,83.321,8.964,25.084,18.331,51.369,20.417,78.113,1.32,16.928,2.2,34.18-.112,51.061-1.778,12.984-6.734,33.637-23.572,32.66-13.067-.76-17.481-20.533-19.619-30.4-3.283-15.162-4.029-30.8-4.689-46.25-2.055-48.1-15.284-96.187-44.152-135.312-2.085-2.826-4.278-5.574-6.514-8.283-2.855-3.459-7.742,1.488-4.913,4.914,31.826,38.557,46.5,88.623,48.6,137.957.655,15.379,1.539,30.793,4.389,45.949,2.154,11.455,5.738,25.619,15.178,33.5a3.735,3.735,0,0,0,1.864,5.359c22.09,8.307,47.346-4.086,68-11.332,13.445-4.717,27.531-7.494,41.3-11.115,15.687-4.127,31.3-8.512,46.906-12.943,19.519-5.543,39.019-10,58.847-14.242,18.2-3.9,36.411-8.373,53.417-16.1,13.929-6.328,26.8-15.629,34.778-28.92C430.694,436.414,429.373,414.719,424.538,395.69ZM230.819,248.1c9.319-2.6,18.975-4.811,28.662-5.294q-9.234,2.092-18.411,4.409c-10.734,2.7-21.319,5.69-32.176,7.919-.421.087-.845.167-1.267.253C215.319,252.831,223.015,250.286,230.819,248.1ZM364.18,483.535c3.705-10.512,2.981-22.16,3.3-33.189a180.3,180.3,0,0,0,21.712-7.295c1.374,5.795,1.763,11.746,2.676,17.621.007.443.017.883.032,1.324a14.191,14.191,0,0,1-3.077,1.289,2.018,2.018,0,0,0-1.39,2.441,57.9,57.9,0,0,1,.923,7.912c0,.031.009.055.011.084A141.753,141.753,0,0,1,364.18,483.535Zm34.909-21.447c.56-2.357,1-4.727,1.344-7.111a45.745,45.745,0,0,0,.579-4.977,98.817,98.817,0,0,0,.251-12.1c-.007-.094-.03-.172-.044-.262.162-.08.326-.154.488-.234C402.731,445.527,401.506,454.082,399.089,462.088Zm6.667-.951c-1.018,1.02-2.081,1.988-3.166,2.934,3.04-9.76,4.414-20.228,2.57-30.174a2,2,0,0,0-2.917-1.186,178.629,178.629,0,0,1-37.25,14.193,1.8,1.8,0,0,0-1.4,2,2.125,2.125,0,0,0-.056.41c-.412,11.744.911,24.754-4.183,35.7-.148.041-.3.088-.453.135-15.48,4.564-31.366,7.6-47.143,10.928-20.01,4.215-39.518,10.172-59.2,15.666q-19.646,5.487-39.4,10.576c-11.495,2.943-22.878,5.621-34.062,9.619-11.557,4.133-24.841,9.936-37.975,11.779a31.9,31.9,0,0,0,9.616-11.182c7.983-15.518,8.205-34.984,7.928-52.019a249.019,249.019,0,0,0-7.545-57.937c-7.215-28.349-18.454-55.474-27.819-83.14a359.5,359.5,0,0,1-12.487-45.333,3.525,3.525,0,0,0-.156-.515c.017-.013.032-.018.049-.029,18.923-13.754,41.964-19.839,64.514-24.68,11.326-2.431,22.732-4.468,34.087-6.75,10.923-2.2,21.569-5.141,32.35-7.891A566.863,566.863,0,0,1,311.6,240.5c21.746-2.707,44.741-4.191,66.314.686-.707,29.575,6.724,58.634,15.023,86.806,7.714,26.18,21.407,50.627,26.7,77.484C423.6,425.631,420.634,446.234,405.756,461.137Z" transform="translate(-46.073 -97.677)"/>
        <path class="cls-1" d="M337.856,302.621c-26.243,4.864-52.23,10.89-78.419,15.96-27.564,5.34-55.791,7.678-82.411,17.133-2.394.852-1.363,4.689,1.057,3.83,26.588-9.445,54.844-11.926,82.41-17.133,26.2-4.949,52.18-11.1,78.42-15.96C341.428,305.985,340.36,302.159,337.856,302.621Z" transform="translate(-46.073 -97.677)"/>
        <path class="cls-1" d="M386.859,351.637c-4.058-13.777-3.918-28.92-5.454-43.13a2.014,2.014,0,0,0-1.984-1.985c-16.715,1.115-32.979,4.462-49,8.879a2.224,2.224,0,0,0-2.1.582c-18.7,5.272-37.075,11.941-55.449,18.172-36.3,12.309-73.765,21.332-111.1,29.926-.481-1.277-.975-2.551-1.5-3.815-.968-2.328-4.812-1.309-3.829,1.055.516,1.244,1,2.494,1.475,3.746-1.63.947-.736,3.813,1.313,3.639,8.75,25.459,9.748,52.939,17.728,78.656a2,2,0,0,0,1.915,1.459c16.831-.955,32.6-8.031,48.474-13.059,13.338-4.225,26.985-7.824,40.588-11.412.942,1.891,4.047,1.061,3.77-1q6.272-1.655,12.515-3.34c18.514-5.035,37-9.326,55.213-15.436,18.5-6.2,37-12.624,56.395-15.394a1.948,1.948,0,0,0,1.457-1.914C395.934,374.778,390.374,363.565,386.859,351.637Zm-149.81-2.283c1.455,3.578,2.96,7.137,4.489,10.686a1.951,1.951,0,0,0-.611-.074c-9.423.367-18.351,5.539-26.246,10.352-2.129-4.406-4.27-8.807-6.011-13.383Q222.912,353.325,237.049,349.354Zm2.831,43.9a2.246,2.246,0,0,0,1.8-1.387c.173.287.337.58.514.865a2.626,2.626,0,0,0,.225.3c-.865.4-1.7.777-2.482,1.1A1.614,1.614,0,0,0,239.88,393.258Zm2.057-27.106A2.053,2.053,0,0,0,239,367.846c-.217-.281-.421-.568-.644-.846a1.75,1.75,0,0,0-2.084-.432l-.087-.16c-1.082-1.937-4.319-.637-3.635,1.506a2.146,2.146,0,0,0-1.946,1.519c-.127-.178-.244-.365-.376-.543a1.97,1.97,0,0,0-3.376.055,1.947,1.947,0,0,0-1.742,2.469c.22.685.453,1.367.684,2.051a1.485,1.485,0,0,0-.254-.08c-.092-.174-.182-.35-.275-.523-1.045-1.953-4.474-.58-3.629,1.529q.618,1.547,1.241,3.084l-.01.008c-.029-.051-.056-.1-.084-.154a1.8,1.8,0,0,0-1.062-.846c-.144-.213-.279-.432-.427-.643a2,2,0,0,0-3.657.742q-.61-1.336-1.237-2.666c7.341-4.486,15.733-9.637,24.524-9.981a1.886,1.886,0,0,0,1.758-1.238c.259.6.523,1.189.784,1.783A2.24,2.24,0,0,0,241.937,366.153Zm-10.331,30.736c-.858.244-1.724.463-2.589.685a2.414,2.414,0,0,0,.867-.445,2.277,2.277,0,0,0,1.307-1.055C231.33,396.346,231.466,396.62,231.606,396.889Zm-2.692.715c-1.555.4-3.117.773-4.688,1.107,1.093-.4,2.18-.824,3.259-1.279A2,2,0,0,0,228.915,397.6Zm-10.624-11.443c-.239.606-.473,1.25-.68,1.908l-.1-.029a2.074,2.074,0,0,0-.705-1.358Q217.546,386.418,218.291,386.161ZM180.32,444.729c-7.527-25.2-8.675-52-17.188-76.888,13.9-3.2,27.813-6.463,41.679-9.932,3.226,8.512,7.817,16.408,11.179,24.857-5.437,1.924-10.8,3.994-16.459,5.234a1.989,1.989,0,0,0-1.387,2.441c4.905,14.783,14.159,27.818,17.871,43.021a1.749,1.749,0,0,0,1.052,1.275C205,438.852,193.161,443.7,180.32,444.729Zm28.5-43.635c-.22.021-.44.051-.658.072a2.034,2.034,0,0,0-1.172.494c-.174-.375-.344-.751-.516-1.128a2.3,2.3,0,0,0,1.108-.142A1.855,1.855,0,0,0,208.824,401.094Zm-4.507-8.845c-.133-.174-.263-.35-.394-.523a2.145,2.145,0,0,0-.629-.568c.377-.1.755-.2,1.13-.307A1.82,1.82,0,0,0,204.316,392.249Zm4.306,12.837a143.419,143.419,0,0,0,26.57-5.156c3.705-1.1,7.3-2.508,10.893-3.934,2.428-.965,6.053-3.082,8.741-2.774a1.7,1.7,0,0,0,1.163-.236q3.325,7.8,6.378,15.708c-15.7.9-30.6,10.27-45,15.754C214.92,417.813,211.7,411.479,208.623,405.086Zm14.269,27.752a1.625,1.625,0,0,0,.195-.684,2.186,2.186,0,0,0,.249-.162,2.014,2.014,0,0,0,1.137.363C223.945,432.512,223.418,432.678,222.892,432.838Zm6.422-1.818c-1.178.3-2.348.619-3.516.955a1.809,1.809,0,0,0,.607-.66,12.718,12.718,0,0,1,3.548-.633,1.818,1.818,0,0,0,.194.121C229.87,430.875,229.593,430.949,229.314,431.02Zm4.592-1.2a1.917,1.917,0,0,0,.326-.414,2.015,2.015,0,0,0,.778-.082,2.146,2.146,0,0,0,.171.166Q234.545,429.661,233.906,429.824Zm4.275-1.109a1.993,1.993,0,0,1,1.9-2.3c.312.324.609.654.929.975a2.146,2.146,0,0,0,.559.406C240.441,428.1,239.313,428.412,238.181,428.715Zm6.544-1.783a1.812,1.812,0,0,0,.379-.414,2.258,2.258,0,0,0,1.951-1.149,2.076,2.076,0,0,0,2.767-1.67.424.424,0,0,0,.049-.025l.572.736a1.688,1.688,0,0,0,.985.662Q248.08,426.013,244.726,426.932Zm6.878-11.809a2.323,2.323,0,0,0-1,.424,1.912,1.912,0,0,0-.394-.254q.839-.284,1.683-.547A1.832,1.832,0,0,0,251.6,415.123Zm12.931,1.031c-.367-.685-.722-1.379-1.045-2.092-.714-1.586-2.657-1.125-3.394.08a2.438,2.438,0,0,0-.577.139c-.166-.236-.327-.481-.5-.715a2.444,2.444,0,0,0-.432-.459,36.061,36.061,0,0,1,5.171-.525c.025,0,.046-.008.071-.008q.676,1.834,1.332,3.676A2.415,2.415,0,0,0,264.535,416.154Zm75.6-15.992c-18.21,6.125-36.619,10.584-55.155,15.533-4.822,1.287-9.632,2.623-14.438,3.975-8.174-24.474-19.969-47.519-29.671-71.394q15.777-4.526,31.333-9.707,1.78-.595,3.555-1.2c3.25,7.381,5.305,15.213,8.5,22.607-3.209.658-6.37,1.537-9.611,2.047-1.355.213-1.7,1.883-1.187,2.918,7.157,14.537,12.079,30.02,17.669,45.191.877,2.383,4.715,1.353,3.829-1.055-5.393-14.642-10.225-29.546-16.906-43.669,3.193-.656,6.335-1.529,9.561-2.037,1.363-.213,1.684-1.879,1.188-2.916-3.768-7.856-5.881-16.359-9.307-24.357,11.536-3.945,23.08-8.006,34.716-11.719,5.506,25.367,15.168,49.576,21.1,74.834.587,2.492,4.415,1.438,3.83-1.055-5.938-25.3-15.625-49.555-21.127-74.975q5.215-1.623,10.461-3.125c6.9,25.7,20.259,49.315,25.648,75.455C349.447,397.026,344.787,398.594,340.133,400.163Zm17.784-5.865c-5.411-26.08-18.729-49.656-25.616-75.311q5.327-1.46,10.7-2.739c3.523,13.812,8.577,27.132,13.192,40.6q3.4,9.917,6.093,20.043c1.309,4.947,2.485,10,4.506,14.717Q362.338,392.9,357.917,394.3Zm8.2-18.459c-1.776-6.762-3.851-13.424-6.092-20.045-4.551-13.434-9.622-26.672-13.146-40.428q6.5-1.447,13.075-2.551c8.244,24.664,14.049,50.1,18.88,75.631-2.748.652-5.486,1.338-8.21,2.086C368.506,385.889,367.407,380.752,366.116,375.838ZM382.7,387.561c-4.814-25.439-10.586-50.787-18.77-75.372,4.542-.673,9.116-1.21,13.726-1.562,1.286,12.913,1.683,26.13,4.523,38.8,2.769,12.353,9.125,23.6,10.92,36.188C389.6,386.149,386.139,386.813,382.7,387.561Z" transform="translate(-46.073 -97.677)"/>
        <path class="cls-1" d="M192.2,376.928c-5.728-7.041-17.222-4.166-18.707,4.848-.374,2.268,2.722,3.352,3.619,1.666,4.957,3.129,9.8.059,14.686-3.394A2.034,2.034,0,0,0,192.2,376.928Zm-13.571,2.709a6.416,6.416,0,0,1,5.423-2.672,4.6,4.6,0,0,0-.205,1.367,1.991,1.991,0,0,0,.9,1.654C182.75,380.961,180.71,381.231,178.624,379.637Z" transform="translate(-46.073 -97.677)"/>
        <path class="cls-1" d="M311.826,382.885c-4.507-5.592-12.126-9.295-17.019-2.08a.138.138,0,0,1-.013.023,1.87,1.87,0,0,0-.483,2.478c2.613,4.592,7.462,4.787,12.106,3.957.012,0,.021,0,.033,0a1.941,1.941,0,0,0,.769-.16c1.286-.264,2.549-.588,3.731-.9A2.013,2.013,0,0,0,311.826,382.885Zm-13.244-.512a4,4,0,0,1,5.23-1.168,2.1,2.1,0,0,0-.069,2.1c.069.135.143.272.219.406C301.917,383.922,299.947,383.7,298.582,382.374Z" transform="translate(-46.073 -97.677)"/>
        <path class="cls-1" d="M271.137,354.475c-2.865-11.022-20.649-9.773-19.289,2.512a2.192,2.192,0,0,0,3.28,1.6,2.047,2.047,0,0,0,.184.115c5.263,2.6,10.289,1.324,14.913-1.984A2.048,2.048,0,0,0,271.137,354.475Zm-13.82.8a1.965,1.965,0,0,0-1.473-.135c.479-3.2,3.308-4.631,6.066-4.3a1.9,1.9,0,0,0-.134.689v2.978a1.969,1.969,0,0,0,.749,1.5A8.054,8.054,0,0,1,257.317,355.274Z" transform="translate(-46.073 -97.677)"/>
        <path class="cls-1" d="M278.953,427.711c-30.051,10.025-60.014,20.406-90.674,28.459-2.474.65-1.423,4.482,1.057,3.83,30.659-8.053,60.622-18.434,90.673-28.459C282.424,430.734,281.388,426.9,278.953,427.711Z" transform="translate(-46.073 -97.677)"/>
        <path class="cls-1" d="M229.975,456.17c-13.712,3.959-28.135,4.707-41.7,9.268-2.413.813-1.377,4.648,1.057,3.83,13.559-4.562,27.984-5.309,41.7-9.268C233.487,459.291,232.442,455.459,229.975,456.17Z" transform="translate(-46.073 -97.677)"/>
        <path class="cls-1" d="M225.343,474.041c-12.05,3.561-24.013,7.394-35.74,11.912-2.364.912-1.337,4.752,1.055,3.83,11.729-4.518,23.69-8.356,35.74-11.912C228.849,477.145,227.8,473.315,225.343,474.041Z" transform="translate(-46.073 -97.677)"/>
        <path class="cls-1" d="M223.357,491.248c-11.086,2.682-21.865,6.514-33.093,8.606-2.515.467-1.447,4.295,1.057,3.828,11.228-2.088,22.007-5.922,33.092-8.6C226.9,494.477,225.845,490.648,223.357,491.248Z" transform="translate(-46.073 -97.677)"/>
        <path class="cls-1" d="M285.57,460.141c-12.933,2.17-25.268,6.627-37.726,10.59-2.43.773-1.391,4.609,1.057,3.83,12.456-3.963,24.793-8.42,37.726-10.588C289.148,463.549,288.076,459.723,285.57,460.141Z" transform="translate(-46.073 -97.677)"/>
        <path class="cls-1" d="M288.88,471.395c-11.144,2.133-21.947,5.781-33.093,7.941-2.512.488-1.445,4.315,1.057,3.828,11.144-2.16,21.948-5.809,33.092-7.941C292.449,474.744,291.383,470.914,288.88,471.395Z" transform="translate(-46.073 -97.677)"/>
        <path class="cls-1" d="M291.462,479.748c-12.314.92-23.553,6.977-35.809,8.121-2.527.236-2.549,4.209,0,3.973,11.652-1.09,22.384-6.6,33.957-7.935a2.04,2.04,0,0,0,.46-.01q.7-.085,1.393-.176C293.922,483.395,294.067,479.555,291.462,479.748Z" transform="translate(-46.073 -97.677)"/>
        <path class="cls-1" d="M289.408,491.18a170.429,170.429,0,0,0-34.945,8.012c-2.405.832-1.372,4.668,1.056,3.828a166.041,166.041,0,0,1,33.889-7.871C291.915,494.84,291.945,490.865,289.408,491.18Z" transform="translate(-46.073 -97.677)"/>
        <path class="cls-1" d="M331.756,413.846c-9.2,5.693-20.847,5.506-30.28,10.922-2.219,1.273-.219,4.705,2.006,3.428,9.425-5.412,21.029-5.2,30.279-10.92C335.935,415.932,333.942,412.5,331.756,413.846Z" transform="translate(-46.073 -97.677)"/>
        <path class="cls-1" d="M340.671,424.07c-11.764,3.024-23.148,7.354-34.748,10.92-2.441.752-1.4,4.586,1.054,3.83,11.6-3.57,22.986-7.9,34.748-10.92C344.2,427.264,343.151,423.432,340.671,424.07Z" transform="translate(-46.073 -97.677)"/>
        <path class="cls-1" d="M342.656,436.977c-12.679,2.887-25.363,5.869-37.726,9.928-2.421.795-1.384,4.631,1.056,3.83,12.364-4.059,25.047-7.043,37.725-9.93C346.207,440.238,345.148,436.41,342.656,436.977Z" transform="translate(-46.073 -97.677)"/>
        <path class="cls-1" d="M346.13,453.356c-13.433,3.478-27.432,4.273-40.186,10.131-2.324,1.066-.3,4.488,2.005,3.428,12.386-5.686,26.186-6.35,39.235-9.727C349.663,456.545,348.611,452.715,346.13,453.356Z" transform="translate(-46.073 -97.677)"/>
        <path class="cls-1" d="M342.656,467.256c-11.138,1.59-21.653,6.133-32.762,7.941-2.522.412-1.449,4.238,1.056,3.83,11.11-1.809,21.623-6.352,32.76-7.939C346.238,470.725,345.158,466.9,342.656,467.256Z" transform="translate(-46.073 -97.677)"/>
        <path class="cls-1" d="M345.167,477.609c-11.8.314-22.477,5.775-33.783,8.51-2.489.6-1.434,4.43,1.054,3.83,10.925-2.644,21.334-8.068,32.729-8.369C347.724,481.512,347.732,477.541,345.167,477.609Z" transform="translate(-46.073 -97.677)"/>
        <path class="cls-1" d="M391.334,402.158c-6.023.152-12.106,2-17.84,3.67-6.438,1.873-13.122,4.059-18.9,7.522-2.193,1.315-.2,4.75,2,3.428,5.519-3.307,11.822-5.279,17.953-7.119,5.354-1.609,11.154-3.387,16.785-3.529C393.89,406.066,393.894,402.094,391.334,402.158Z" transform="translate(-46.073 -97.677)"/>
        <path class="cls-1" d="M379.389,414.639c-6.844,1.586-13.516,3.842-20.353,5.461-2.491.59-1.434,4.418,1.056,3.828,6.836-1.619,13.509-3.875,20.352-5.459C382.938,417.891,381.88,414.063,379.389,414.639Z" transform="translate(-46.073 -97.677)"/>
        <path class="cls-1" d="M367.5,431.943c-2.559,0-2.559,3.971,0,3.971S370.067,431.943,367.5,431.943Z" transform="translate(-46.073 -97.677)"/>
        <path class="cls-1" d="M382.83,453.777a3.974,3.974,0,0,0-.422-.221,2.262,2.262,0,0,0-1.227-.232c-.093-.01-.175-.033-.272-.039a1.976,1.976,0,0,0-.2,3.943.76.76,0,0,0,.074.022c.1.023.194.055.291.086a2.078,2.078,0,0,0,1.284.068A2,2,0,0,0,382.83,453.777Z" transform="translate(-46.073 -97.677)"/>
        <path class="cls-1" d="M327.568,267.912c1.876-1.777-.958-4.6-2.828-2.828-3.078,2.916-8.187,5.507-11.16,8.991-7.507-5.287-16.889-9.975-18.7-13.586a2.015,2.015,0,0,0-3.656.477,26.728,26.728,0,0,1-5.159,10.427,14.091,14.091,0,0,0-4.38-2.824c-1.654-.691-3.14,1.567-2.259,2.938,1.171,1.823,2.832,3.182,4,5a2.118,2.118,0,0,0,2.136.94c2.119,5.421-.15,13.267-2.416,18.469-6.99-3.743-8.562-16.19-10.064-22.951-.416-1.872-3.5-1.958-3.857,0-1.716,9.518.054,20.785-4.609,29.538-6.942-6.356-7.422-17.13-7.462-26.006a2.009,2.009,0,0,0-3.929-.532c-2.6,9.609-2.481,22.461-9.483,30.207-5.131,5.676-8.55-4.4-9.216-8.459.166-.56.323-1.109.47-1.631,1.556-5.55,3.027-12.329,2.087-18.117-.292-1.8-2.833-1.83-3.656-.477-3.392,5.577-3.805,13.647-2.943,20.125-1.192,4.072-3.113,8.518-6.586,9.894-4.755,1.884-6.266-9.83-6.96-12.628-1.236-4.98-1.987-11.12-5.057-15.391a2.035,2.035,0,0,0-3.454,0c-4.047,5.617-5.246,12.184-5.5,18.919-1.945-7.427-4.3-14.683-9.044-20.919a2.027,2.027,0,0,0-3.656.477c-3.359,8.869-7.909,17.718-10,27-.566,2.512,3.291,3.58,3.857,1.064,1.8-7.982,5.414-15.645,8.527-23.275,5.9,9.756,7.149,21.5,10.615,32.275.68,2.114,3.945,1.785,3.929-.532-.068-9.757-1.663-20.724,2.769-29.7,3.119,9.571,4.318,30.816,15.637,26.331,3-1.187,5.048-3.875,6.54-6.919,1.647,4.273,4.625,8.155,9.6,7.416,6.288-.935,8.929-8.669,10.608-13.852a74.247,74.247,0,0,0,1.956-7.595c1.294,6.657,4.051,12.819,9.884,17.047a2.017,2.017,0,0,0,2.736-.718c4.2-6.133,4.748-13.493,5.143-20.831,2.027,6.553,5.271,12.747,11.6,14.75a1.988,1.988,0,0,0,2.259-.92c3.449-7.132,6.336-17.651,2.643-24.813a32.5,32.5,0,0,0,5.392-8.982c2.7,2.553,6.5,4.491,9.259,6.269,2.643,1.7,5.657,3.439,8.414,5.455a42.337,42.337,0,0,0-2.886,10.787c-.291,2.545-.443,6.448,2.524,7.541,3.314,1.221,7.546-2.18,9.688-4.384,5.007-5.152,1.648-10.216-4.125-14.892a50.82,50.82,0,0,1,4.165-3.1C323.213,271.621,325.484,269.887,327.568,267.912Zm-12.423,22.859c-.988.582-2.393,2.118-2.582.4a16.252,16.252,0,0,1,.517-4.939,42.972,42.972,0,0,1,1.738-6.145,19.536,19.536,0,0,1,3.58,4.364C320.1,287.365,317.464,289.4,315.144,290.771Z" transform="translate(-46.073 -97.677)"/>
      </g>
      <path class="cls-1" d="M159.956,377.973c2.833.567-10.378-11.367,15.621-20.411,42.823-14.894,151.334-42,151.334-42l72-5.334,59.334-.666,47.418,197.748-10.5,27-36,22.5L306.172,594.3,205.1,614.818,185.659,584.3l-3.98-85.994-40.5-82.5-9.745-21.682Z" transform="translate(-46.073 -97.677)"/>
      <path class="cls-2" d="M159.956,377.973c2.833.567-10.378-11.367,15.621-20.411,42.823-14.894,151.334-42,151.334-42l72-5.334,59.334-.666,47.418,197.748-10.5,27-36,22.5L306.172,594.3,205.1,614.818,185.659,584.3l-3.98-85.994-40.5-82.5-9.745-21.682Z" transform="translate(-46.073 -97.677)"/>
      <path class="cls-1" d="M279.692,490.41c-12.858-.6-25.953,5.7-38.255,8.676-2.488.6-1.432,4.434,1.057,3.83,11.921-2.889,24.755-9.113,37.2-8.533C282.253,494.5,282.242,490.531,279.692,490.41Z" transform="translate(-46.073 -97.677)"/>
      <g>
        <path class="cls-1" d="M503.683,471.176c-3-12.139-7.855-23.764-12.516-35.338a371.361,371.361,0,0,1-12.475-36.094c-8.053-27.942-15.07-56.753-13.686-86.047a3.474,3.474,0,0,0-2.53-3.365c-22.465-5.8-46.341-4.655-69.188-2.141-9.824,1.081-19.6,2.54-29.34,4.263-9.126,1.16-18.382.524-27.552,1.045-8.94.51-17.965,2.816-26.583,5.106-19.074,5.063-37.465,12.386-56.659,17.043-31.821,7.72-67.537,8.381-94.781,28.688a2.017,2.017,0,0,0-.925,2.237c.91,2.489,1.884,4.967,2.9,7.438a2.028,2.028,0,0,0-.365-.008,10.782,10.782,0,0,0-8.045,3.843,2.037,2.037,0,0,0,.383,3.119c15.354,11.956,19.117,33.175,27.452,49.753,1.149,2.291,4.588.3,3.441-1.982-8.392-16.7-12.381-36.825-26.894-49.546a7.1,7.1,0,0,1,3.64-1.215,1.98,1.98,0,0,0,1.619-1.007c12.78,30.17,31.26,59.459,29.6,93.194-.126,2.557,3.845,2.57,3.971.023,1.848-37.6-20.745-69.547-33.4-103.4,15.256-10.887,33.179-15.892,51.53-19.529a118,118,0,0,0-26.295,13.91,3.862,3.862,0,0,0-.684.644,73.969,73.969,0,0,0-15.056,7.9,2.049,2.049,0,0,0-.728,2.713c11.66,25.018,21.661,50.7,28.681,77.422,5.131,19.533,8.073,39.508,11.668,59.355,3.182,17.57,5.988,35.373,5.735,53.277-.185,13.053-2.179,29.656-13.564,37.709-.025-.033-.047-.066-.073-.1a1.982,1.982,0,0,0,.609-.922c5.92-18.975,7.157-39.383,6.793-59.145-.356-19.334-2.459-39.369-8.746-57.748-.823-2.408-4.666-1.4-3.835,1.031,6.2,18.125,8.149,37.641,8.61,56.693.382,15.867-.426,32.2-3.912,47.8-.012-.752-.028-1.492-.062-2.2-.233-4.814-.285-9.639-.315-14.457-.057-9.068.079-18.135-.12-27.2-.359-16.506-3.242-32.219-6.346-48.363-5.006-26.027-9.162-55.9-27.246-76.588-1.688-1.932-4.5.871-2.824,2.791,18.106,20.719,21.708,51.436,26.738,77.443,3.243,16.768,5.584,33.035,5.8,50.164.106,8.447-.027,16.9.054,25.344q.06,6.334.374,12.656c.092,1.9.08,3.934.2,5.945-5.817-11.6-6.522-25.668-6.647-38.432-.174-17.893.646-35.139-2.607-52.867-3.953-21.547-11.417-42.383-19.471-62.689-3.433-8.658-6.975-17.391-11.571-25.506a54.762,54.762,0,0,0-7.651-10.33q-1.048-1.084-2.18-2.082c1.351-1.285,2.577-2.675,3.858-4.032a27.057,27.057,0,0,1,3.418,8.227c.571,2.5,4.407,1.463,3.836-1.031a31.059,31.059,0,0,0-12.717-18.472,1.955,1.955,0,0,0-2-.012,111.189,111.189,0,0,0-11.039,8.188c-2,1.609.815,4.418,2.791,2.826a113.059,113.059,0,0,1,9.2-6.89,26,26,0,0,1,4.156,3.934,2.123,2.123,0,0,0-.259.225c-1.133,1.19-2.215,2.425-3.355,3.607-.849.88-2.553,1.592-2.562,3.057-.018,3.029,4.24,5.394,6.106,7.547,6.946,8.012,10.959,18.928,14.881,28.631,8.63,21.342,16.37,43.184,20.731,65.836,3.6,18.705,2.129,37.168,2.539,56.051.323,14.9,2.256,30.953,11.437,43.092-2.274,1.127-.287,4.537,2,3.43.2-.1.387-.2.582-.3,1.5,1.615,3.79-.242,3.281-1.988,10.9-7.766,13.963-22.529,14.858-35.354,1.3-18.609-1.727-37.5-4.925-55.768-3.614-20.65-6.819-41.434-11.967-61.766-6.844-27.039-17.024-53.057-28.722-78.334a67.7,67.7,0,0,1,9.617-5.205,3.414,3.414,0,0,0-.5,2.617c5.5,28.671,15.847,56.008,25.476,83.475,8.814,25.137,18.025,51.477,19.952,78.232,1.219,16.936,2,34.193-.417,51.061-1.856,12.973-6.934,33.6-23.767,32.518-13.062-.836-17.358-20.637-19.437-30.514-3.193-15.182-3.845-30.82-4.414-46.277-1.768-48.107-14.711-96.277-43.345-135.572-2.069-2.839-4.245-5.6-6.465-8.323-2.835-3.476-7.751,1.442-4.942,4.885,31.6,38.745,45.972,88.9,47.776,138.245.564,15.383,1.356,30.8,4.116,45.975,2.086,11.467,5.585,25.652,14.977,33.594a3.734,3.734,0,0,0,1.832,5.369c22.04,8.439,47.369-3.8,68.069-10.926,13.473-4.637,27.575-7.33,41.364-10.869,15.71-4.033,31.353-8.326,46.982-12.664,19.552-5.426,39.078-9.764,58.93-13.891,18.227-3.793,36.461-8.156,53.513-15.783,13.967-6.246,26.9-15.469,34.95-28.713C509.6,511.936,508.4,490.232,503.683,471.176ZM310.846,322.438c9.335-2.549,19-4.7,28.693-5.123q-9.246,2.038-18.437,4.3c-10.751,2.637-21.353,5.563-32.223,7.728-.422.084-.846.161-1.268.246C295.318,327.072,303.03,324.573,310.846,322.438ZM442.8,558.66c3.768-10.49,3.113-22.143,3.5-33.17a180.213,180.213,0,0,0,21.755-7.164c1.34,5.8,1.692,11.756,2.57,17.637,0,.443.012.883.024,1.324a14.12,14.12,0,0,1-3.084,1.269,2.018,2.018,0,0,0-1.4,2.434,57.786,57.786,0,0,1,.875,7.918c0,.031.009.055.011.084A141.876,141.876,0,0,1,442.8,558.66Zm35.036-21.238c.574-2.356,1.03-4.721,1.386-7.1a45.763,45.763,0,0,0,.608-4.973,98.75,98.75,0,0,0,.323-12.1c-.006-.094-.029-.172-.042-.262.162-.078.327-.152.489-.23C481.58,520.883,480.3,529.43,477.839,537.422Zm6.672-.912c-1.023,1.014-2.093,1.976-3.183,2.914,3.1-9.74,4.534-20.2,2.75-30.158a2.005,2.005,0,0,0-2.91-1.2,178.667,178.667,0,0,1-37.334,13.973,1.793,1.793,0,0,0-1.414,1.992,2.13,2.13,0,0,0-.059.41c-.481,11.742.764,24.76-4.394,35.674-.149.041-.3.086-.454.133C422,564.717,406.1,567.66,390.3,570.891c-20.035,4.1-39.578,9.936-59.3,15.313q-19.679,5.37-39.464,10.342c-11.512,2.875-22.911,5.484-34.119,9.416-11.581,4.064-24.9,9.787-38.044,11.553a31.9,31.9,0,0,0,9.682-11.125c8.076-15.469,8.413-34.934,8.238-51.971a248.971,248.971,0,0,0-7.2-57.981c-7.046-28.393-18.123-55.584-27.323-83.3a359.486,359.486,0,0,1-12.217-45.408,3.511,3.511,0,0,0-.153-.516c.017-.013.032-.018.049-.028,19-13.642,42.082-19.59,64.66-24.3,11.34-2.364,22.758-4.334,34.127-6.547,10.936-2.131,21.6-5.013,32.4-7.7a567.144,567.144,0,0,1,70.027-13.32c21.762-2.577,44.766-3.925,66.309,1.081-.884,29.571,6.374,58.673,14.506,86.894,7.558,26.225,21.105,50.754,26.236,77.643C502.568,501.111,499.477,521.7,484.511,536.51Z" transform="translate(-46.073 -97.677)"/>
        <path class="cls-1" d="M417.558,377.591c-26.272,4.708-52.295,10.578-78.514,15.492-27.6,5.176-55.835,7.346-82.511,16.641-2.4.838-1.391,4.682,1.034,3.838,26.644-9.287,54.914-11.6,82.511-16.642,26.231-4.793,52.245-10.787,78.513-15.493C421.108,380.977,420.063,377.144,417.558,377.591Z" transform="translate(-46.073 -97.677)"/>
        <path class="cls-1" d="M466.268,426.9c-3.976-13.8-3.746-28.942-5.2-43.161a2.014,2.014,0,0,0-1.973-2c-16.721,1.016-33.006,4.265-49.047,8.586a2.225,2.225,0,0,0-2.1.57c-18.732,5.16-37.145,11.72-55.556,17.841C316.024,420.83,278.5,429.631,241.115,438c-.473-1.281-.96-2.557-1.478-3.824-.954-2.334-4.8-1.338-3.835,1.031.508,1.248.986,2.5,1.453,3.756-1.636.938-.759,3.809,1.292,3.647,8.6,25.51,9.432,53,17.259,78.76a2,2,0,0,0,1.907,1.471c16.836-.856,32.643-7.836,48.551-12.77,13.363-4.145,27.031-7.664,40.655-11.17.931,1.9,4.041,1.084,3.776-.977q6.281-1.617,12.534-3.264c18.543-4.926,37.053-9.106,55.3-15.107,18.534-6.088,37.079-12.4,56.484-15.059a1.947,1.947,0,0,0,1.469-1.9C475.2,450.094,469.711,438.848,466.268,426.9Zm-149.794-3.176c1.433,3.588,2.918,7.154,4.425,10.713a1.942,1.942,0,0,0-.61-.078c-9.425.311-18.384,5.43-26.308,10.2-2.1-4.42-4.218-8.832-5.931-13.418Q302.312,427.61,316.474,423.723Zm2.569,43.922a2.248,2.248,0,0,0,1.8-1.377c.171.289.334.582.509.869a2.675,2.675,0,0,0,.223.3c-.867.4-1.7.768-2.488,1.082A1.611,1.611,0,0,0,319.042,467.645Zm2.218-27.094a2.054,2.054,0,0,0-2.943,1.676c-.216-.281-.418-.57-.639-.85a1.751,1.751,0,0,0-2.082-.443l-.087-.16c-1.071-1.945-4.315-.664-3.644,1.483a2.147,2.147,0,0,0-1.955,1.51c-.127-.18-.242-.367-.373-.547a1.97,1.97,0,0,0-3.377.035,1.948,1.948,0,0,0-1.757,2.459c.216.685.445,1.369.672,2.055a1.5,1.5,0,0,0-.254-.082c-.091-.174-.18-.351-.272-.525-1.034-1.959-4.47-.605-3.638,1.508q.609,1.55,1.223,3.092l-.01.008c-.029-.051-.055-.1-.084-.154a1.8,1.8,0,0,0-1.058-.853c-.142-.213-.277-.432-.423-.645a2,2,0,0,0-3.661.721c-.4-.892-.808-1.787-1.221-2.674,7.368-4.441,15.79-9.543,24.583-9.834a1.885,1.885,0,0,0,1.766-1.228c.255.6.516,1.193.773,1.789A2.242,2.242,0,0,0,321.261,440.551Zm-10.513,30.674c-.86.24-1.727.453-2.593.67a2.418,2.418,0,0,0,.869-.439,2.275,2.275,0,0,0,1.313-1.047C310.474,470.68,310.608,470.955,310.748,471.225Zm-2.7.7c-1.557.387-3.121.756-4.694,1.08q1.644-.592,3.266-1.26A1.994,1.994,0,0,0,308.051,471.924ZM297.5,460.418c-.242.6-.48,1.246-.691,1.9-.033-.01-.067-.02-.1-.031a2.071,2.071,0,0,0-.7-1.361C296.5,460.758,297,460.586,297.5,460.418Zm-38.319,58.34c-7.377-25.24-8.365-52.055-16.729-76.988,13.918-3.119,27.851-6.3,41.737-9.684,3.175,8.531,7.719,16.455,11.031,24.924-5.448,1.891-10.827,3.93-16.491,5.137a1.987,1.987,0,0,0-1.4,2.432c4.817,14.813,13.993,27.9,17.614,43.127a1.752,1.752,0,0,0,1.044,1.283C283.894,513.029,272.024,517.811,259.177,518.758Zm28.764-43.463c-.221.02-.44.047-.659.068a2.028,2.028,0,0,0-1.175.486c-.172-.375-.34-.754-.51-1.131a2.3,2.3,0,0,0,1.108-.137A1.858,1.858,0,0,0,287.94,475.295Zm-4.455-8.873c-.131-.174-.261-.352-.391-.525a2.142,2.142,0,0,0-.625-.572c.378-.1.756-.2,1.132-.3A1.822,1.822,0,0,0,283.485,466.422Zm4.23,12.863a143.218,143.218,0,0,0,26.6-5c3.712-1.078,7.318-2.463,10.916-3.869,2.434-.949,6.072-3.045,8.757-2.721a1.7,1.7,0,0,0,1.164-.228q3.278,7.819,6.284,15.746c-15.708.8-30.662,10.088-45.091,15.486C293.936,492.049,290.758,485.7,287.715,479.285Zm14.1,27.836a1.618,1.618,0,0,0,.2-.682,2.195,2.195,0,0,0,.25-.16,2.01,2.01,0,0,0,1.135.369C302.874,506.8,302.347,506.965,301.819,507.121Zm6.433-1.779c-1.18.289-2.352.606-3.522.934a1.8,1.8,0,0,0,.611-.656,12.641,12.641,0,0,1,3.552-.611,2.22,2.22,0,0,0,.193.123C308.808,505.2,308.531,505.273,308.252,505.342Zm4.6-1.168a1.918,1.918,0,0,0,.329-.412,1.977,1.977,0,0,0,.778-.078,1.92,1.92,0,0,0,.17.168C313.7,503.961,313.277,504.066,312.851,504.174Zm4.282-1.084a1.993,1.993,0,0,1,1.916-2.289c.31.326.605.658.923.981a2.14,2.14,0,0,0,.556.408C319.4,502.488,318.266,502.795,317.132,503.09Zm6.555-1.744a1.783,1.783,0,0,0,.381-.412,2.254,2.254,0,0,0,1.958-1.137,2.075,2.075,0,0,0,2.776-1.652.416.416,0,0,0,.049-.025c.191.246.377.49.567.74a1.706,1.706,0,0,0,.981.668Q327.048,500.447,323.687,501.346Zm6.949-11.768a2.326,2.326,0,0,0-1,.418,1.921,1.921,0,0,0-.393-.256q.841-.278,1.686-.537A1.829,1.829,0,0,0,330.636,489.578Zm12.924,1.109c-.363-.69-.714-1.385-1.033-2.1-.7-1.59-2.65-1.141-3.394.06a2.446,2.446,0,0,0-.578.135c-.165-.236-.324-.482-.492-.717a2.428,2.428,0,0,0-.429-.463,36.348,36.348,0,0,1,5.174-.494c.025,0,.046-.008.071-.008q.665,1.84,1.31,3.685A2.334,2.334,0,0,0,343.56,490.688Zm75.693-15.543c-18.248,6.018-36.682,10.367-55.247,15.205-4.83,1.258-9.648,2.566-14.461,3.889-8.028-24.523-19.685-47.639-29.246-71.57,10.536-2.955,21.009-6.106,31.391-9.52q1.784-.586,3.562-1.18c3.206,7.4,5.215,15.244,8.37,22.656-3.213.639-6.378,1.5-9.623,1.99-1.356.205-1.709,1.873-1.2,2.91,7.07,14.58,11.9,30.092,17.4,45.3.863,2.387,4.707,1.381,3.835-1.033-5.305-14.674-10.049-29.606-16.646-43.77,3.2-.637,6.344-1.49,9.574-1.98,1.364-.2,1.7-1.867,1.2-2.908-3.721-7.877-5.784-16.395-9.162-24.412,11.559-3.877,23.127-7.869,34.785-11.512,5.355,25.4,14.874,49.666,20.65,74.959.572,2.494,4.407,1.463,3.837-1.033-5.788-25.34-15.331-49.646-20.681-75.1q5.225-1.592,10.479-3.062c6.751,25.741,19.965,49.434,25.2,75.606C428.586,472.065,423.916,473.606,419.254,475.145Zm17.817-5.758c-5.256-26.113-18.433-49.768-25.166-75.462q5.335-1.428,10.717-2.676c3.44,13.832,8.415,27.183,12.949,40.681q3.338,9.938,5.974,20.078c1.279,4.955,2.426,10.014,4.418,14.744Q441.5,468.012,437.071,469.387Zm8.309-18.41c-1.735-6.774-3.77-13.447-5.972-20.082-4.471-13.459-9.463-26.728-12.905-40.5q6.51-1.409,13.09-2.473c8.1,24.711,13.75,50.182,18.429,75.741-2.752.637-5.494,1.307-8.222,2.037C447.71,461.041,446.642,455.9,445.38,450.977Zm16.512,11.82c-4.663-25.467-10.283-50.85-18.321-75.482,4.546-.646,9.123-1.155,13.735-1.48,1.209,12.92,1.527,26.138,4.292,38.824,2.7,12.369,8.984,23.65,10.7,36.252C468.8,461.426,465.337,462.07,461.892,462.8Z" transform="translate(-46.073 -97.677)"/>
        <path class="cls-1" d="M271.456,451.029c-5.686-7.074-17.2-4.268-18.736,4.736-.387,2.266,2.7,3.367,3.609,1.688,4.939,3.158,9.8.117,14.706-3.307A2.034,2.034,0,0,0,271.456,451.029Zm-13.587,2.629a6.42,6.42,0,0,1,5.439-2.641,4.612,4.612,0,0,0-.213,1.367,1.993,1.993,0,0,0,.893,1.66C261.987,455.006,259.946,455.264,257.869,453.658Z" transform="translate(-46.073 -97.677)"/>
        <path class="cls-1" d="M391.049,457.7c-4.473-5.619-12.07-9.367-17.005-2.182a.146.146,0,0,1-.013.023,1.871,1.871,0,0,0-.5,2.477c2.585,4.607,7.435,4.83,12.082,4.029.012,0,.021,0,.033,0a1.947,1.947,0,0,0,.77-.156c1.287-.256,2.552-.572,3.736-.883A2.012,2.012,0,0,0,391.049,457.7Zm-13.24-.59a4,4,0,0,1,5.237-1.137,2.1,2.1,0,0,0-.082,2.1c.068.137.141.273.216.408C381.134,458.678,379.165,458.441,377.809,457.109Z" transform="translate(-46.073 -97.677)"/>
        <path class="cls-1" d="M350.53,429.047c-2.8-11.037-20.591-9.9-19.3,2.4a2.191,2.191,0,0,0,3.27,1.619,1.7,1.7,0,0,0,.184.117c5.247,2.627,10.281,1.385,14.924-1.9A2.046,2.046,0,0,0,350.53,429.047Zm-13.824.717a1.967,1.967,0,0,0-1.472-.143c.5-3.2,3.335-4.611,6.092-4.266a1.906,1.906,0,0,0-.139.689l-.018,2.978a1.968,1.968,0,0,0,.739,1.508A8.047,8.047,0,0,1,336.706,429.764Z" transform="translate(-46.073 -97.677)"/>
        <path class="cls-1" d="M357.909,502.328c-30.11,9.848-60.135,20.049-90.842,27.92-2.478.635-1.449,4.473,1.034,3.836,30.707-7.871,60.731-18.072,90.841-27.918C361.362,505.373,360.35,501.531,357.909,502.328Z" transform="translate(-46.073 -97.677)"/>
        <path class="cls-1" d="M308.763,530.5c-13.735,3.877-28.163,4.539-41.751,9.019-2.418.8-1.405,4.639,1.034,3.836,13.587-4.482,28.016-5.143,41.751-9.02C312.256,533.639,311.234,529.8,308.763,530.5Z" transform="translate(-46.073 -97.677)"/>
        <path class="cls-1" d="M304.024,548.34c-12.071,3.488-24.056,7.25-35.81,11.7-2.369.9-1.366,4.744,1.032,3.838,11.756-4.449,23.74-8.215,35.81-11.7C307.512,551.463,306.491,547.627,304.024,548.34Z" transform="translate(-46.073 -97.677)"/>
        <path class="cls-1" d="M301.936,565.533c-11.1,2.615-21.9,6.385-33.144,8.408-2.518.453-1.472,4.287,1.034,3.834,11.241-2.019,22.042-5.789,33.143-8.4C305.46,568.783,304.428,564.949,301.936,565.533Z" transform="translate(-46.073 -97.677)"/>
        <path class="cls-1" d="M364.333,534.8c-12.945,2.094-25.307,6.476-37.788,10.365-2.435.76-1.418,4.6,1.035,3.836,12.479-3.889,24.843-8.271,37.788-10.361C367.891,538.227,366.842,534.395,364.333,534.8Z" transform="translate(-46.073 -97.677)"/>
        <path class="cls-1" d="M367.577,546.07c-11.157,2.066-21.981,5.65-33.14,7.744-2.515.475-1.471,4.307,1.034,3.836,11.157-2.094,21.982-5.678,33.139-7.744C371.125,549.441,370.082,545.606,367.577,546.07Z" transform="translate(-46.073 -97.677)"/>
        <path class="cls-1" d="M370.109,554.44c-12.319.848-23.594,6.836-35.857,7.908-2.529.221-2.574,4.193-.024,3.973,11.658-1.021,22.423-6.465,34-7.734a2.024,2.024,0,0,0,.46-.006c.464-.055.929-.109,1.394-.168C372.547,558.1,372.714,554.262,370.109,554.44Z" transform="translate(-46.073 -97.677)"/>
        <path class="cls-1" d="M367.986,565.859a170.383,170.383,0,0,0-34.992,7.8c-2.41.818-1.4,4.66,1.033,3.834a166,166,0,0,1,33.935-7.668C370.471,569.533,370.525,565.561,367.986,565.859Z" transform="translate(-46.073 -97.677)"/>
        <path class="cls-1" d="M410.794,488.779c-9.233,5.639-20.879,5.381-30.345,10.74-2.227,1.26-.247,4.7,1.986,3.44,9.457-5.356,21.061-5.074,30.343-10.738C414.96,490.889,412.988,487.441,410.794,488.779Z" transform="translate(-46.073 -97.677)"/>
        <path class="cls-1" d="M419.648,499.057c-11.782,2.953-23.192,7.215-34.812,10.713-2.445.736-1.426,4.576,1.031,3.836,11.621-3.5,23.033-7.76,34.812-10.713C423.161,502.27,422.133,498.432,419.648,499.057Z" transform="translate(-46.073 -97.677)"/>
        <path class="cls-1" d="M421.556,511.975c-12.7,2.811-25.4,5.717-37.784,9.7-2.426.779-1.411,4.621,1.033,3.836,12.387-3.986,25.088-6.895,37.783-9.705C425.088,515.256,424.052,511.422,421.556,511.975Z" transform="translate(-46.073 -97.677)"/>
        <path class="cls-1" d="M424.933,528.373c-13.454,3.4-27.457,4.109-40.246,9.891-2.331,1.053-.332,4.486,1.984,3.441,12.42-5.613,26.223-6.2,39.293-9.494C428.446,531.584,427.418,527.748,424.933,528.373Z" transform="translate(-46.073 -97.677)"/>
        <path class="cls-1" d="M421.375,542.252c-11.146,1.523-21.689,6-32.809,7.746-2.523.4-1.474,4.231,1.034,3.838,11.12-1.744,21.66-6.223,32.807-7.744C424.937,545.742,423.88,541.91,421.375,542.252Z" transform="translate(-46.073 -97.677)"/>
        <path class="cls-1" d="M423.825,552.621c-11.8.244-22.511,5.641-33.833,8.309-2.492.584-1.46,4.42,1.031,3.836,10.94-2.58,21.382-7.941,32.778-8.174C426.358,556.539,426.391,552.568,423.825,552.621Z" transform="translate(-46.073 -97.677)"/>
        <path class="cls-1" d="M470.44,477.445c-6.022.117-12.117,1.93-17.861,3.565-6.449,1.834-13.145,3.98-18.947,7.408-2.2,1.3-.226,4.75,1.984,3.439,5.539-3.273,11.853-5.209,18-7.012,5.364-1.576,11.174-3.32,16.806-3.43C472.974,481.369,473,477.4,470.44,477.445Z" transform="translate(-46.073 -97.677)"/>
        <path class="cls-1" d="M458.422,489.856c-6.853,1.545-13.539,3.762-20.385,5.34-2.5.574-1.461,4.408,1.032,3.834,6.846-1.578,13.532-3.795,20.384-5.338C461.952,493.129,460.916,489.295,458.422,489.856Z" transform="translate(-46.073 -97.677)"/>
        <path class="cls-1" d="M446.435,507.09c-2.559-.016-2.582,3.955-.024,3.969S449,507.1,446.435,507.09Z" transform="translate(-46.073 -97.677)"/>
        <path class="cls-1" d="M461.63,529.014a3.949,3.949,0,0,0-.421-.223,2.262,2.262,0,0,0-1.227-.24c-.092-.01-.174-.033-.27-.041a1.977,1.977,0,0,0-.225,3.943.762.762,0,0,0,.074.022c.1.023.193.055.29.088a2.093,2.093,0,0,0,1.284.076A2.005,2.005,0,0,0,461.63,529.014Z" transform="translate(-46.073 -97.677)"/>
        <path class="cls-1" d="M407.475,342.823c1.888-1.767-.929-4.607-2.81-2.845-3.095,2.9-8.221,5.458-11.213,8.923-7.475-5.331-16.829-10.074-18.618-13.7a2.015,2.015,0,0,0-3.659.455,26.729,26.729,0,0,1-5.221,10.4,14.117,14.117,0,0,0-4.363-2.851c-1.65-.7-3.149,1.549-2.276,2.925,1.16,1.83,2.813,3.2,3.97,5.024a2.12,2.12,0,0,0,2.13.953c2.086,5.433-.229,13.266-2.526,18.453-6.967-3.783-8.465-16.239-9.927-23.01-.4-1.874-3.492-1.979-3.857-.023-1.773,9.507-.07,20.785-4.785,29.51-6.9-6.4-7.32-17.175-7.307-26.05a2.009,2.009,0,0,0-3.926-.556c-2.662,9.593-2.615,22.446-9.663,30.149-5.165,5.646-8.523-4.453-9.166-8.514.169-.558.33-1.106.479-1.628,1.589-5.54,3.1-12.31,2.2-18.1-.282-1.8-2.822-1.846-3.653-.5-3.425,5.557-3.887,13.624-3.063,20.107-1.216,4.065-3.164,8.5-6.645,9.856-4.767,1.856-6.207-9.867-6.885-12.67-1.206-4.988-1.921-11.132-4.965-15.421a2.035,2.035,0,0,0-3.454-.02c-4.08,5.593-5.318,12.152-5.615,18.887-1.9-7.44-4.213-14.709-8.919-20.974a2.027,2.027,0,0,0-3.659.456c-3.412,8.848-8.014,17.67-10.161,26.939-.581,2.51,3.269,3.6,3.851,1.087,1.846-7.972,5.507-15.612,8.666-23.225,5.841,9.791,7.021,21.545,10.423,32.339.668,2.118,3.934,1.809,3.932-.509-.01-9.758-1.539-20.733,2.946-29.684,3.062,9.589,4.134,30.841,15.479,26.423,3-1.169,5.071-3.845,6.582-6.881,1.621,4.283,4.576,8.184,9.551,7.473,6.293-.9,8.98-8.614,10.69-13.788a74.047,74.047,0,0,0,2-7.582c1.255,6.664,3.975,12.843,9.783,17.105a2.015,2.015,0,0,0,2.74-.7c4.242-6.107,4.829-13.465,5.267-20.8,1.988,6.564,5.2,12.777,11.51,14.818a1.987,1.987,0,0,0,2.264-.905c3.492-7.111,6.441-17.613,2.791-24.8a32.489,32.489,0,0,0,5.445-8.95c2.685,2.568,6.472,4.528,9.221,6.323,2.633,1.718,5.637,3.473,8.382,5.5a42.348,42.348,0,0,0-2.95,10.77c-.306,2.544-.481,6.446,2.479,7.557,3.307,1.241,7.56-2.135,9.713-4.325,5.039-5.122,1.71-10.207-4.036-14.917a51.246,51.246,0,0,1,4.184-3.073C403.1,346.505,405.38,344.785,407.475,342.823Zm-12.559,22.784c-.99.575-2.406,2.1-2.585.386a16.276,16.276,0,0,1,.547-4.936,43.044,43.044,0,0,1,1.774-6.135,19.5,19.5,0,0,1,3.555,4.387C399.887,362.23,397.244,364.254,394.916,365.607Z" transform="translate(-46.073 -97.677)"/>
      </g>
    </g>
  </g>
</svg>
