<svg xmlns="http://www.w3.org/2000/svg" viewBox="0 0 343 405.239">
  <defs>
    <style>
      .cls-1 {
        isolation: isolate;
      }

      .cls-2 {
        fill: #8d5d43;
      }

      .cls-3 {
        fill: #ab7152;
      }

      .cls-4 {
        fill: #c07e5b;
      }

      .cls-5 {
        fill: #26120b;
      }

      .cls-6 {
        fill: #fca678;
      }

      .cls-7 {
        fill: #eadad9;
      }

      .cls-12, .cls-20, .cls-7, .cls-9 {
        mix-blend-mode: multiply;
      }

      .cls-8 {
        fill: #ef9d72;
      }

      .cls-9 {
        fill: #dac1bb;
      }

      .cls-10 {
        fill: #885d4c;
      }

      .cls-10, .cls-11, .cls-15 {
        mix-blend-mode: soft-light;
      }

      .cls-11 {
        fill: #7b5445;
      }

      .cls-11, .cls-15 {
        opacity: 0.5;
      }

      .cls-12 {
        fill: #e3e3e3;
      }

      .cls-13 {
        fill: #810f6a;
      }

      .cls-14 {
        fill: #a11284;
      }

      .cls-15, .cls-17 {
        fill: #fff;
      }

      .cls-16 {
        fill: #d68d66;
      }

      .cls-18 {
        fill: #8acbc1;
      }

      .cls-19 {
        fill: #84c0b6;
      }

      .cls-20 {
        fill: #c3cfd2;
      }

      .cls-21 {
        fill: #97d0c3;
      }

      .cls-22 {
        fill: #d98e67;
      }
    </style>
  </defs>
  <title>face_massage</title>
  <g class="cls-1">
    <g id="Capa_1" data-name="Capa 1">
      <g>
        <g>
          <path class="cls-2" d="M273.1,189.558a15.317,15.317,0,0,1-.5-3.646c-10.138,6.52-21.519,13.837-25.706,16.533-8.2,5.273-2.923,16.314,1.76,13.254,4.586-3,17.915-10.726,30.081-17.695A15.541,15.541,0,0,1,273.1,189.558Z" transform="translate(0 -19.958)"/>
          <path class="cls-3" d="M290.446,191.236s-9.455,16.272-18.893,21.656c-13.45,7.673-30.869,17.706-36.251,21.222-4.683,3.06-9.961-7.98-1.759-13.254s44-28.3,44-28.3Z" transform="translate(0 -19.958)"/>
          <path class="cls-4" d="M288.8,200.763s-3.711,9.337-11.2,14.995c-11.078,8.373-25.843,19.573-30.953,23.631-4.382,3.479-10.653-7.03-2.973-13.038s35.623-27.863,35.623-27.863Z" transform="translate(0 -19.958)"/>
        </g>
        <g>
          <path class="cls-2" d="M56.907,189.558a15.214,15.214,0,0,0,.5-3.646c10.14,6.52,21.518,13.837,25.707,16.533,8.2,5.273,2.924,16.314-1.759,13.254-4.587-3-17.915-10.726-30.081-17.695A15.534,15.534,0,0,0,56.907,189.558Z" transform="translate(0 -19.958)"/>
          <path class="cls-3" d="M39.562,191.236s9.455,16.272,18.893,21.656c13.452,7.673,30.871,17.706,36.25,21.222,4.684,3.06,9.962-7.98,1.76-13.254s-44-28.3-44-28.3Z" transform="translate(0 -19.958)"/>
          <path class="cls-4" d="M41.214,200.763s3.71,9.337,11.2,14.995c11.077,8.373,25.841,19.573,30.953,23.631,4.382,3.479,10.653-7.03,2.973-13.038s-35.623-27.863-35.623-27.863Z" transform="translate(0 -19.958)"/>
        </g>
        <g>
          <path class="cls-5" d="M157.784,237.939c0,32.109,3.57,24.827-18.26,24.827S70.8,213.584,70.8,181.474s25.628-1.68,47.458-1.68S157.784,205.825,157.784,237.939Z" transform="translate(0 -19.958)"/>
          <path class="cls-5" d="M169.352,237.939c0,32.109.2,33.89,23.424,33.89s69.119-58.246,69.119-90.355-27.269-1.68-50.492-1.68S169.352,205.825,169.352,237.939Z" transform="translate(0 -19.958)"/>
          <path class="cls-6" d="M52.148,338.059C29.075,363.874,40.6,425.2,40.6,425.2H293.441s3.24-64.816-12.783-87.139c-13.4-18.684-55.676-35.509-111.571-35.509S63.124,325.78,52.148,338.059Z" transform="translate(0 -19.958)"/>
          <path class="cls-6" d="M206.093,306.648c-1.075,2.814-.937,9.731-7.93,14.464-4.121,2.8-10.744,4.841-21.564,4.841-29.159,0-45.849-17-42.239-20.582,9.531-9.468,9.438-18.566,8.024-29.616-.829-6.595-2.136-13.882-2.136-22.35a12.019,12.019,0,0,1,.706-4.119c3.137-8.607,16.094-12.88,29.018-13.172.831-.029,1.662-.029,2.475,0,13.833.214,26.9,5.027,26.9,13.971C199.346,269.146,196.472,294.476,206.093,306.648Z" transform="translate(0 -19.958)"/>
          <path class="cls-7" d="M142.384,275.756a32.842,32.842,0,0,1-2.859-12.99s.724-6.361.724-9.36a12.019,12.019,0,0,1,.706-4.119c3.122-8.669,16.094-12.942,29.018-13.172.831-.029,1.662-.029,2.475,0,13.681.292,26.575,5.087,26.9,13.971,0,11.178-.989,24.508.135,36.079C188.156,295.506,159.337,297.811,142.384,275.756Z" transform="translate(0 -19.958)"/>
          <path class="cls-6" d="M251.3,136.811c-.6-6.92.375-18.288-.3-24.384-9.11-11.509-46.745-33.182-80.215-33.693-37.893-.577-72.2,21.584-86.093,35.655-.668,6.089-1.056,36.879-1.056,36.879s-.275,68.925,24.032,96.929c15.232,17.552,45.317,39.7,60.183,39.7s43.854-15.44,60.18-39.7C245.41,221.729,249.251,196.369,251.3,136.811Z" transform="translate(0 -19.958)"/>
          <path class="cls-8" d="M93.068,219.36c3.45,11.123,8.165,21.418,14.605,28.837,8.787,10.126,22.514,21.773,35.415,29.823C135.129,234.409,103.236,217.887,93.068,219.36Z" transform="translate(0 -19.958)"/>
          <path class="cls-8" d="M190.6,280.994c13.17-6.766,27.6-18.179,37.436-32.8a111.877,111.877,0,0,0,13.237-27.241C207.369,224.8,187.359,282.662,190.6,280.994Z" transform="translate(0 -19.958)"/>
          <g>
            <path class="cls-9" d="M134.728,178.942c-2.6,1.341-11.178,1.47-14.9.552s-12.5-4.334-12.5-4.334,4.395-10.8,15.483-12.5,18.289,7.762,19.261,10.679C142.561,174.772,140.184,176.171,134.728,178.942Z" transform="translate(0 -19.958)"/>
            <path d="M108.382,173.973c1.337.547.866,3-1.3,1.519-2.22-1.519-1.62-5.812-1.62-5.812A5.022,5.022,0,0,0,108.382,173.973Z" transform="translate(0 -19.958)"/>
            <path d="M112.146,175.961c.835.287-1.85,1.52-3.47,0a5.926,5.926,0,0,1-1.818-5.136A9.6,9.6,0,0,0,112.146,175.961Z" transform="translate(0 -19.958)"/>
            <path d="M114.636,176.892c.837.287-1.848,1.52-3.468,0a5.926,5.926,0,0,1-1.818-5.136A9.6,9.6,0,0,0,114.636,176.892Z" transform="translate(0 -19.958)"/>
            <path d="M132.022,181.191c-10.5,3.329-24.942-5.7-24.942-5.7a14.866,14.866,0,0,1,1.3-1.519c12.593,7.236,23.906,8.057,33.883.108A20.543,20.543,0,0,1,132.022,181.191Z" transform="translate(0 -19.958)"/>
            <path class="cls-5" d="M101.079,159.363s5.435-5.772,11.307-7.846c10.506-3.715,29.478,1.632,33.41-.5s4.4-7.1,3.846-7.373c-2.14-1.21-25.849-2.112-35.409,2.527a30.65,30.65,0,0,0-13.484,12.868Z" transform="translate(0 -19.958)"/>
            <path d="M117.968,178.282c.453.155-1.891,1.393-3.632.018a7,7,0,0,1-2.658-4.845A12.383,12.383,0,0,0,117.968,178.282Z" transform="translate(0 -19.958)"/>
          </g>
          <g>
            <path class="cls-9" d="M199.917,178.942c2.6,1.341,11.179,1.47,14.895.552s12.5-4.334,12.5-4.334-4.4-10.8-15.482-12.5-18.289,7.762-19.262,10.679C192.085,174.772,194.462,176.171,199.917,178.942Z" transform="translate(0 -19.958)"/>
            <path d="M226.264,173.973c-1.338.547-.866,3,1.3,1.519,2.22-1.519,1.619-5.812,1.619-5.812A5.019,5.019,0,0,1,226.264,173.973Z" transform="translate(0 -19.958)"/>
            <path d="M222.5,175.961c-.837.287,1.849,1.52,3.468,0a5.922,5.922,0,0,0,1.819-5.136A9.6,9.6,0,0,1,222.5,175.961Z" transform="translate(0 -19.958)"/>
            <path d="M220.009,176.892c-.837.287,1.849,1.52,3.469,0a5.923,5.923,0,0,0,1.817-5.136A9.6,9.6,0,0,1,220.009,176.892Z" transform="translate(0 -19.958)"/>
            <path d="M202.624,181.191c10.5,3.329,24.942-5.7,24.942-5.7a14.923,14.923,0,0,0-1.3-1.519c-12.593,7.236-23.907,8.057-33.884.108A20.551,20.551,0,0,0,202.624,181.191Z" transform="translate(0 -19.958)"/>
            <path class="cls-5" d="M233.566,159.363s-5.435-5.772-11.305-7.846c-10.509-3.715-29.478,1.632-33.411-.5s-4.4-7.1-3.847-7.373c2.141-1.21,25.85-2.112,35.408,2.527A30.646,30.646,0,0,1,233.9,159.038Z" transform="translate(0 -19.958)"/>
            <path d="M216.678,178.282c-.455.155,1.889,1.393,3.631.018a7,7,0,0,0,2.657-4.845A12.378,12.378,0,0,1,216.678,178.282Z" transform="translate(0 -19.958)"/>
          </g>
          <path class="cls-10" d="M180.05,194.986l-8.938,11.565s-3.867-26.819-.912-40.174a36.826,36.826,0,0,1,13.089-20.6s-10.119,8.9-8.958,22.479C175.284,179.424,180.05,194.986,180.05,194.986Z" transform="translate(0 -19.958)"/>
          <path class="cls-11" d="M202.655,208.945c-16.746-.818-18.8-30.979-18.8-30.979s5.811-6.358,7.412-1.341c2.679,8.373,13.14,10.392,20.591,10.894,11.6.779,21.416-1.779,24.766,2.016C241.527,195.091,219.823,209.789,202.655,208.945Z" transform="translate(0 -19.958)"/>
          <path class="cls-11" d="M131.759,208.945c16.746-.818,18.8-30.979,18.8-30.979s-5.81-6.358-7.413-1.341c-2.677,8.373-13.14,10.392-20.591,10.894-11.6.779-21.417-1.779-24.765,2.016C92.887,195.091,114.591,209.789,131.759,208.945Z" transform="translate(0 -19.958)"/>
          <path class="cls-8" d="M170.516,231.846h-6.089s1.11-11.527,2.9-11.527S170.516,231.846,170.516,231.846Z" transform="translate(0 -19.958)"/>
          <path class="cls-12" d="M240.584,142a42.434,42.434,0,0,1,2.033-8.832,31.741,31.741,0,0,1-5.177-16.3c-.3-5.9-3.065-11.281-7.046-16.221l-64-23.53c.668.856-57.813,23.53-57.813,23.53-5.436,5.8-9.487,12.222-9.849,19.422a31.775,31.775,0,0,1-5.177,16.308c.943,2.821.4,42.8,1.43,44.208,2.47-12.371,13.028-7.971,5.761-29.572-5.211-15.495,16.663-54.16,69.233-54.16S222.466,142.085,231,148.334s-1.35,35.073,10.273,38.026C242.3,184.959,238.8,158.319,240.584,142Z" transform="translate(0 -19.958)"/>
          <g>
            <path class="cls-13" d="M192.368,237.254s-10.96,16.869-25.526,16.869c-15.328,0-26.416-16.869-26.416-16.869l1.1-.181s7.359,5.35,25.321,5.35c15.954,0,24.5-5.465,24.5-5.465Z" transform="translate(0 -19.958)"/>
            <path class="cls-14" d="M192.368,237.254s-9.878,6.284-25.97,6.284c-16.027,0-25.972-6.284-25.972-6.284s19.932-2.907,22.685-3.329c1.333-.206,2.723,1.776,4.152,1.776,1.647,0,3.242-1.94,4.76-1.678C174.365,234.432,192.368,237.254,192.368,237.254Z" transform="translate(0 -19.958)"/>
            <path class="cls-15" d="M178.67,244.5c0,1.129-7.121,4.95-12.942,4.719-4.628-.179-10.715-3.59-10.715-4.719s5.167,1.792,10.715,1.792C171.529,246.289,178.67,243.365,178.67,244.5Z" transform="translate(0 -19.958)"/>
            <path class="cls-15" d="M172.143,235.016c0,.824-2.865,3.606-5.209,3.438-1.86-.129-4.312-2.613-4.312-3.437s2.075,1.307,4.312,1.307C169.268,236.323,172.143,234.2,172.143,235.016Z" transform="translate(0 -19.958)"/>
          </g>
          <g>
            <path class="cls-9" d="M177.907,214.51c0,.864-1.811,1.561-4.039,1.561H170.79s.852-3.132,3.078-3.132S177.907,213.642,177.907,214.51Z" transform="translate(0 -19.958)"/>
            <path class="cls-9" d="M154.887,214.51c0,.864,1.811,1.561,4.039,1.561H162s-.849-3.132-3.079-3.132S154.887,213.642,154.887,214.51Z" transform="translate(0 -19.958)"/>
          </g>
          <g>
            <path class="cls-6" d="M92.022,191.424S91.187,209.1,82.9,210.282c-7.523,1.072-13.6-12.834-18.475-19.2S57.51,159.112,72.3,158.343C85.954,157.634,92.022,191.424,92.022,191.424Z" transform="translate(0 -19.958)"/>
            <path class="cls-9" d="M65.885,167.508c-5.9,11.136,3.081,24.863,3.081,24.863s-3.386-15.087-.12-22.164,9.2-3,9.2-3S71.786,156.369,65.885,167.508Z" transform="translate(0 -19.958)"/>
            <path class="cls-9" d="M78.56,189.971c0,2.057-2.113,5.783-2.113,5.783s-2.609-3.788-2.113-5.783c1.046-4.207,7.492-3.525,7.492-3.525S78.56,187.913,78.56,189.971Z" transform="translate(0 -19.958)"/>
          </g>
          <g>
            <path class="cls-6" d="M240.162,191.424s.837,17.676,9.122,18.858c7.523,1.072,13.607-12.834,18.474-19.2s6.917-31.968-7.877-32.737C246.231,157.634,240.162,191.424,240.162,191.424Z" transform="translate(0 -19.958)"/>
            <path class="cls-9" d="M266.3,167.508c5.9,11.136-3.083,24.863-3.083,24.863s3.386-15.087.12-22.164-9.2-3-9.2-3S260.4,156.369,266.3,167.508Z" transform="translate(0 -19.958)"/>
            <path class="cls-9" d="M253.624,189.971c0,2.057,2.115,5.783,2.115,5.783s2.609-3.788,2.113-5.783c-1.046-4.207-7.494-3.525-7.494-3.525S253.624,187.913,253.624,189.971Z" transform="translate(0 -19.958)"/>
          </g>
          <path class="cls-5" d="M264.632,120.271c-2.738-59.543-43.1-91.435-95.545-91.435-59.918,0-94.668,50.336-97.923,90.383-.5,6.451-.574,32.358-.12,39.235,5.679-.122,11.571,2.492,13.575,13.574A102.649,102.649,0,0,1,88,191.08s14.105-16.862,7.749-31.6c1.972-38.118,19.082-70.066,71.976-70.066s71.062,49.536,72.441,76.2c-2.779,6.449,2.455,26.755,2.455,26.755l7.352-26.755s4.167-8.825,12.955-6.683C263.354,152.425,265.053,126.393,264.632,120.271Z" transform="translate(0 -19.958)"/>
          <path class="cls-16" d="M250.358,389.721c.883,8.2-1.265,14.936-2.827,14.936s-2.6-6.692-2.828-14.936c-.71-25.847,12.269-34.426,12.269-34.426A61.05,61.05,0,0,0,250.358,389.721Z" transform="translate(0 -19.958)"/>
          <path class="cls-16" d="M191.115,315.993c-5.152,4.491-9.789,3.33-9.789,3.33l15.939-15.035S196.263,311.5,191.115,315.993Z" transform="translate(0 -19.958)"/>
          <path class="cls-16" d="M148.853,315.993c5.149,4.491,9.785,3.33,9.785,3.33L142.7,304.287S143.7,311.5,148.853,315.993Z" transform="translate(0 -19.958)"/>
          <path class="cls-16" d="M84.356,388.108c1.187,8.163,2.369,16.347,3.926,16.228s3.217-8.292,1.814-16.42c-4.151-24.042-14.972-32.082-14.972-32.082S81.542,368.763,84.356,388.108Z" transform="translate(0 -19.958)"/>
          <path class="cls-17" d="M83.127,379.656,88.678,425.2h161.68V379.656s-31.767-9.989-82.977-9.989S83.127,379.656,83.127,379.656Z" transform="translate(0 -19.958)"/>
        </g>
        <path class="cls-18" d="M79.46,89.242C82.575,91.265,196.444,72.086,199.48,68.9c6.217-6.526,18.31-43.769,10.661-47.09S145.3,17.835,114.853,35.687C85.14,53.108,73.371,85.284,79.46,89.242Z" transform="translate(0 -19.958)"/>
        <path class="cls-18" d="M174.349,78.722c.709,3.647,83.151,9.529,86.186,6.342,6.219-6.525-40.288-55.6-47.938-58.926S166.4,37.763,174.349,78.722Z" transform="translate(0 -19.958)"/>
        <path class="cls-19" d="M261.34,153.326c-3.325,1.655-17.786-31.4-57.523-52.209-43.606-22.84-71.429-10.126-74.08-13.64-5.434-7.193,58.306-20,66.49-21.613,20.394-4.023,59.164,11.367,64.308,19.2S267.841,150.087,261.34,153.326Z" transform="translate(0 -19.958)"/>
        <path class="cls-20" d="M261.457,147.345c-5.884-5.8-8.4-12.06-12.391-19.091-4.609-8.121-23.048-18.4-29.273-25.337-6.421-7.154-3.172-28.753-20.886-37.5-.665-.328-40.225,8.968-44.02,10.123-7.978,2.427-30.584,4.742-25.15,11.936,2.651,3.513,30.473-9.2,74.08,13.64,39.737,20.809,54.2,53.864,57.523,52.209.9-.448,1.626-1.955,2.209-4.192A19.533,19.533,0,0,1,261.457,147.345Z" transform="translate(0 -19.958)"/>
        <path class="cls-21" d="M67.836,151.016c3.115,2.024,21.252-29.165,63.1-45.3,45.929-17.714,72.117-1.913,75.153-5.1,6.218-6.526,1.037-32.543-6.612-35.865S82.427,76.1,76.423,83.294,61.746,147.058,67.836,151.016Z" transform="translate(0 -19.958)"/>
        <path class="cls-20" d="M67.836,151.016c3.115,2.024,21.252-29.165,63.1-45.3,45.929-17.714,72.117-1.913,75.153-5.1,6.218-6.526,1.037-32.543-6.612-35.865,4.527,21.588-2.216,27.678-2.216,27.678S122.637,86.89,66.185,131.04C65.364,141.346,65.643,149.59,67.836,151.016Z" transform="translate(0 -19.958)"/>
        <path class="cls-22" d="M343,118.364V57.432L254.88,131.74s-5.44,9.038-6.612,16.363-10.2,19.128-10.785,24.543-1.672,18.9-4.039,24.154c-2.059,4.564,13.5,11.743,21.413-14.334,1.839-6.061,9.3-10.791,9.845-11.2,1.552-1.155,5.753,13.067,5.753,13.067l-2.145,30.778s-19.833,16.491-21.958,27.321c-1.679,8.558,4.987,12.535,9.407,8.558,5.135-4.624,25.735-23.575,28.788-30.038S297,186.406,297,186.406l-7.24-43.738Z" transform="translate(0 -19.958)"/>
        <path class="cls-22" d="M96.564,196.8c-2.368-5.251-3.453-18.739-4.04-24.154S82.912,155.429,81.74,148.1s-6.611-16.363-6.611-16.363L0,46.472v68.235l40.245,27.962-7.239,43.738s9.4,28.087,12.455,34.55,23.651,25.414,28.787,30.038c4.419,3.977,11.087,0,9.408-8.558C81.531,231.605,61.7,215.114,61.7,215.114l-2.144-30.778s4.2-14.222,5.751-13.067c.549.407,8.007,5.136,9.846,11.2C83.062,208.543,98.623,201.363,96.564,196.8Z" transform="translate(0 -19.958)"/>
      </g>
    </g>
  </g>
</svg>
