<svg id="Objects" xmlns="http://www.w3.org/2000/svg" viewBox="0 0 400.501 291.411">
  <defs>
    <style>
      .cls-1 {
        fill: #ffaf22;
      }

      .cls-2 {
        fill: #fffabd;
      }

      .cls-3 {
        fill: #3e6549;
      }

      .cls-4 {
        fill: #008142;
      }

      .cls-5 {
        fill: #006032;
      }

      .cls-6 {
        fill: #004b23;
      }

      .cls-21, .cls-7 {
        fill: none;
        stroke-width: 1.344px;
      }

      .cls-7 {
        stroke: #006837;
        stroke-miterlimit: 10;
      }

      .cls-8 {
        fill: #fff;
      }

      .cls-9 {
        fill: #fcd9c0;
      }

      .cls-10 {
        fill: #f4d1b3;
      }

      .cls-11 {
        fill: #c49a6c;
      }

      .cls-12 {
        fill: #f41424;
      }

      .cls-13 {
        fill: #ff1d25;
      }

      .cls-14 {
        fill: #f2f2f2;
      }

      .cls-15 {
        fill: #333;
      }

      .cls-16 {
        fill: #723f15;
      }

      .cls-17 {
        fill: #603813;
      }

      .cls-18 {
        fill: #c7b570;
      }

      .cls-19 {
        fill: #baa460;
      }

      .cls-20 {
        fill: #d3c185;
      }

      .cls-21 {
        stroke: #39b54a;
        stroke-linecap: round;
        stroke-linejoin: round;
      }

      .cls-22 {
        fill: #aa9455;
      }

      .cls-23 {
        fill: #8cc63f;
      }

      .cls-24 {
        fill: #88ba38;
      }

      .cls-25 {
        fill: #e5a055;
      }

      .cls-26 {
        fill: #c9ac68;
      }

      .cls-27 {
        fill: #e6e6e6;
      }

      .cls-28 {
        fill: #ccc;
      }

      .cls-29 {
        fill: #fcee21;
      }

      .cls-30 {
        fill: #ff931e;
      }

      .cls-31 {
        fill: #754c24;
      }

      .cls-32 {
        fill: #fec77c;
      }

      .cls-33 {
        fill: #1a1a1a;
      }

      .cls-34 {
        fill: #f7f7f7;
      }

      .cls-35 {
        fill: #ff0;
      }

      .cls-36 {
        fill: #f4ed06;
      }

      .cls-37 {
        fill: #ef9218;
      }
    </style>
  </defs>
  <title>landing_img</title>
  <g>
    <g>
      <path class="cls-1" d="M678.6,435.74V144.33c-5.629,1.459-20.653,4.52-58.671,8.882-54.642,6.27-88.681,2.687-134.365-5.374-39.646-7-77.034,31.351-49.267,45.684s75.922,8.116,75.245,27.769c-.9,25.977-155.016-18.872-157.655,27.77-2.687,47.476,56.433,16.121,50.163,68.076-1.6,13.221-117.756-12.24-125.408,36.727-4.478,28.664,155.863,49.266,243.648,68.076" transform="translate(-278.549 -144.33)"/>
      <path class="cls-2" d="M678.6,435.74V162.975c-5.324,1.381-19.543,4.278-55.517,8.406-51.707,5.932-83.914,2.542-127.146-5.087-27.693-4.886-54.215,13.606-55.64,29.08,28.141,11.945,71.89,7.174,71.245,25.916a5.573,5.573,0,0,1-1.124,3.223c6.328,2.358,10.293,5.723,10.1,11.288-.849,24.58-146.686-17.859-149.183,26.277-.44,7.77.871,13.307,3.307,17.406,9.8,3.508,20.52,5.834,26.068,14.746,11.2,4.178,20.722,10.481,18.091,32.266C417.293,339,307.375,314.913,300.135,361.247c-1.2,7.654,10.03,14.7,28.624,21.272,53.515,14.914,54.484,14.764,109.993,26.659,6.8,1.458,96.861,17.063,103.727,17.771,58.554,6.038,114.991,8.792,136.12,8.792Z" transform="translate(-278.549 -144.33)"/>
    </g>
    <g>
      <g>
        <g>
          <path class="cls-3" d="M642.494,240.218c3.871,6.48,3.968,9.869,3.968,9.869a35.625,35.625,0,0,1-9.658-10.318,33.265,33.265,0,0,1-4.351-13.148A114.69,114.69,0,0,1,642.494,240.218Z" transform="translate(-278.549 -144.33)"/>
          <path class="cls-4" d="M649.129,283.552c7.547.066,10.49,1.744,10.49,1.744a25.6,25.6,0,0,1-12.23,2.67c-7.548-.064-14.537-7.06-14.537-7.06S641.581,283.485,649.129,283.552Z" transform="translate(-278.549 -144.33)"/>
          <path class="cls-5" d="M648.165,238.583c.458,5.674-1.787,12.353-1.787,12.353a45.335,45.335,0,0,1-1.672-9.41c-.459-5.675,1.165-13.817,1.165-13.817A49.094,49.094,0,0,1,648.165,238.583Z" transform="translate(-278.549 -144.33)"/>
          <path class="cls-3" d="M673.309,281.282a31.324,31.324,0,0,1-4.359,9.174s-1-2.527.131-7.176,2.032-9.779,2.032-9.779A8.462,8.462,0,0,1,673.309,281.282Z" transform="translate(-278.549 -144.33)"/>
          <path class="cls-6" d="M639.492,247.784c5.912,4.691,6.92,9.758,6.92,9.758s-5.19-.648-11.1-5.338-10.965-15.14-10.965-15.14S633.579,243.091,639.492,247.784Z" transform="translate(-278.549 -144.33)"/>
          <path class="cls-5" d="M658.645,290.052a11.613,11.613,0,0,1,7.482-.133,15.477,15.477,0,0,1-6.674,3.854c-4.508,1.4-11.687.322-11.687.322S654.138,291.45,658.645,290.052Z" transform="translate(-278.549 -144.33)"/>
          <path class="cls-5" d="M642.781,262.085c5.913,4.689,6.924,9.758,6.924,9.758s-5.192-.649-11.1-5.34-10.965-15.141-10.965-15.141S636.87,257.392,642.781,262.085Z" transform="translate(-278.549 -144.33)"/>
          <path class="cls-4" d="M657.852,272.675c-2.273,5.613-1.386,9.451-1.386,9.451s3.511-1.744,5.783-7.355-.17-16.689-.17-16.689A113.639,113.639,0,0,1,657.852,272.675Z" transform="translate(-278.549 -144.33)"/>
          <path class="cls-6" d="M653.688,255.745c-2.421,5.15-6.516,5.811-6.516,5.811a48.877,48.877,0,0,1,3.388-11.637c2.42-5.152,5.38-7.019,5.38-7.019S656.111,250.595,653.688,255.745Z" transform="translate(-278.549 -144.33)"/>
          <path class="cls-5" d="M666.926,280.6c-1.577,4.967-4.551,6.268-4.551,6.268a56.26,56.26,0,0,1,2.034-10.852,31.322,31.322,0,0,0,1.56-8.67S668.5,275.64,666.926,280.6Z" transform="translate(-278.549 -144.33)"/>
          <path class="cls-6" d="M657.132,267.618c-1.585,5.465-5.528,6.756-5.528,6.756a48.843,48.843,0,0,1,1.524-12.023c1.586-5.465,4.215-7.775,4.215-7.775S658.717,262.149,657.132,267.618Z" transform="translate(-278.549 -144.33)"/>
          <path class="cls-6" d="M664.6,301.329c-5.087,2.557-8.714.545-8.714.545a48.856,48.856,0,0,1,9.852-7.062c5.085-2.555,8.564-2.2,8.564-2.2S669.688,298.773,664.6,301.329Z" transform="translate(-278.549 -144.33)"/>
          <path class="cls-6" d="M644.635,280.009c5.566,1.2,8.572-1.66,8.572-1.66a48.976,48.976,0,0,0-11.307-4.363c-5.565-1.2-8.844.021-8.844.021S639.072,278.81,644.635,280.009Z" transform="translate(-278.549 -144.33)"/>
          <path class="cls-7" d="M646.362,248.743s-1.452,16.314,6.119,27.826c7.6,11.555,14.767,19.484,25.226,14.465" transform="translate(-278.549 -144.33)"/>
        </g>
        <g>
          <path class="cls-3" d="M365.3,255c3.871,6.48,3.968,9.867,3.968,9.867a35.572,35.572,0,0,1-9.657-10.318A33.283,33.283,0,0,1,355.26,241.4,114.5,114.5,0,0,1,365.3,255Z" transform="translate(-278.549 -144.33)"/>
          <path class="cls-4" d="M371.937,298.331c7.547.066,10.493,1.744,10.493,1.744a25.619,25.619,0,0,1-12.233,2.67c-7.547-.064-14.536-7.06-14.536-7.06S364.39,298.265,371.937,298.331Z" transform="translate(-278.549 -144.33)"/>
          <path class="cls-5" d="M370.973,253.362c.46,5.676-1.787,12.356-1.787,12.356a45.479,45.479,0,0,1-1.671-9.412c-.46-5.674,1.164-13.816,1.164-13.816A49.032,49.032,0,0,1,370.973,253.362Z" transform="translate(-278.549 -144.33)"/>
          <path class="cls-3" d="M396.115,296.062a31.318,31.318,0,0,1-4.359,9.176s-1-2.527.135-7.176,2.028-9.781,2.028-9.781A8.462,8.462,0,0,1,396.115,296.062Z" transform="translate(-278.549 -144.33)"/>
          <path class="cls-6" d="M362.3,262.565c5.912,4.69,6.921,9.756,6.921,9.756s-5.191-.647-11.1-5.338-10.963-15.139-10.963-15.139S356.388,257.872,362.3,262.565Z" transform="translate(-278.549 -144.33)"/>
          <path class="cls-5" d="M381.454,304.833a11.62,11.62,0,0,1,7.481-.135,15.477,15.477,0,0,1-6.672,3.854c-4.51,1.4-11.689.322-11.689.322S376.945,306.231,381.454,304.833Z" transform="translate(-278.549 -144.33)"/>
          <path class="cls-5" d="M365.591,276.864c5.912,4.689,6.923,9.758,6.923,9.758s-5.193-.649-11.1-5.34-10.963-15.141-10.963-15.141S359.679,272.171,365.591,276.864Z" transform="translate(-278.549 -144.33)"/>
          <path class="cls-4" d="M380.659,287.454c-2.272,5.613-1.385,9.451-1.385,9.451s3.513-1.744,5.782-7.356-.168-16.687-.168-16.687A113.442,113.442,0,0,1,380.659,287.454Z" transform="translate(-278.549 -144.33)"/>
          <path class="cls-6" d="M376.5,270.526c-2.422,5.15-6.518,5.809-6.518,5.809a48.891,48.891,0,0,1,3.388-11.637c2.42-5.152,5.381-7.019,5.381-7.019S378.92,265.374,376.5,270.526Z" transform="translate(-278.549 -144.33)"/>
          <path class="cls-5" d="M389.735,295.386c-1.577,4.967-4.554,6.266-4.554,6.266a56.488,56.488,0,0,1,2.034-10.85,31.375,31.375,0,0,0,1.562-8.672S391.311,290.417,389.735,295.386Z" transform="translate(-278.549 -144.33)"/>
          <path class="cls-6" d="M379.94,282.4c-1.584,5.465-5.529,6.758-5.529,6.758a48.849,48.849,0,0,1,1.525-12.024c1.585-5.467,4.214-7.775,4.214-7.775S381.525,276.929,379.94,282.4Z" transform="translate(-278.549 -144.33)"/>
          <path class="cls-6" d="M387.411,316.108c-5.087,2.557-8.714.545-8.714.545a48.883,48.883,0,0,1,9.85-7.06c5.089-2.557,8.569-2.2,8.569-2.2S392.5,313.552,387.411,316.108Z" transform="translate(-278.549 -144.33)"/>
          <path class="cls-6" d="M367.444,294.788c5.565,1.2,8.572-1.66,8.572-1.66a48.9,48.9,0,0,0-11.306-4.361c-5.566-1.2-8.845.022-8.845.022S361.88,293.589,367.444,294.788Z" transform="translate(-278.549 -144.33)"/>
          <path class="cls-7" d="M369.169,263.524s-1.45,16.313,6.12,27.824c7.6,11.555,21.185,19.358,31.644,14.338" transform="translate(-278.549 -144.33)"/>
        </g>
        <g>
          <path class="cls-3" d="M608.467,189.465c.921,11.167-1.165,15.743-1.165,15.743a52.784,52.784,0,0,1-6.123-20.061,49.45,49.45,0,0,1,2.795-20.365S607.552,178.3,608.467,189.465Z" transform="translate(-278.549 -144.33)"/>
          <path class="cls-4" d="M588.978,251.546c10.015,5.022,12.841,9.18,12.841,9.18s-8.035.582-18.045-4.436-14.751-18.912-14.751-18.912S578.965,246.523,588.978,251.546Z" transform="translate(-278.549 -144.33)"/>
          <path class="cls-5" d="M617.09,190.993c-3.095,7.861-10.457,15.293-10.457,15.293a67.481,67.481,0,0,1,3.923-13.632c3.1-7.861,10.586-17.649,10.586-17.649A72.686,72.686,0,0,1,617.09,190.993Z" transform="translate(-278.549 -144.33)"/>
          <path class="cls-3" d="M622.68,264.325c-4.545,5.455-11.806,9.375-11.806,9.375s.319-4.019,4.867-9.473,9.1-11.707,9.1-11.707A12.568,12.568,0,0,1,622.68,264.325Z" transform="translate(-278.549 -144.33)"/>
          <path class="cls-6" d="M599.52,197.585c4.811,10.114,2.842,17.524,2.842,17.524s-6.493-4.254-11.3-14.369-4.714-27.342-4.714-27.342S594.71,187.467,599.52,197.585Z" transform="translate(-278.549 -144.33)"/>
          <path class="cls-5" d="M597.411,266.427c6.92,1.082,10.056,4.713,10.056,4.713s-4.487,1.856-11.408.774-15.785-7.213-15.785-7.213S590.487,265.345,597.411,266.427Z" transform="translate(-278.549 -144.33)"/>
          <path class="cls-5" d="M594.558,218.79c4.813,10.114,2.845,17.528,2.845,17.528s-6.5-4.258-11.3-14.373-4.711-27.341-4.711-27.341S589.745,208.673,594.558,218.79Z" transform="translate(-278.549 -144.33)"/>
          <path class="cls-4" d="M607.711,242.751c-6.694,6-8.022,11.689-8.022,11.689s5.817-.027,12.513-6.023,10.685-22.345,10.685-22.345S614.408,236.757,607.711,242.751Z" transform="translate(-278.549 -144.33)"/>
          <path class="cls-6" d="M613.231,217.475c-6.594,5.279-12.48,3.481-12.48,3.481s5.526-8.008,12.122-13.293,11.76-5.834,11.76-5.834S619.83,212.193,613.231,217.475Z" transform="translate(-278.549 -144.33)"/>
          <path class="cls-5" d="M614.62,259.253c-5.348,5.586-10.161,5.373-10.161,5.373a83.58,83.58,0,0,1,9.8-13.127,46.523,46.523,0,0,0,7.75-10.535S619.964,253.663,614.62,259.253Z" transform="translate(-278.549 -144.33)"/>
          <path class="cls-6" d="M610.06,235.543c-5.685,6.248-11.784,5.39-11.784,5.39a72.447,72.447,0,0,1,9.892-15.023c5.684-6.247,10.7-7.606,10.7-7.606S615.746,229.294,610.06,235.543Z" transform="translate(-278.549 -144.33)"/>
          <path class="cls-6" d="M597.975,285.347c-8.447.082-11.965-4.971-11.965-4.971s9.293-2.889,17.74-2.969,12.852,2.674,12.852,2.674S606.426,285.265,597.975,285.347Z" transform="translate(-278.549 -144.33)"/>
          <path class="cls-6" d="M585.31,243.886c6.633,5.234,12.5,3.391,12.5,3.391s-5.585-7.969-12.213-13.2-11.8-5.754-11.8-5.754S578.678,238.651,585.31,243.886Z" transform="translate(-278.549 -144.33)"/>
          <path class="cls-7" d="M608.047,203.355s-12.6,20.789-10.035,41.078c2.569,20.363,15.576,39.643,32.79,39.787" transform="translate(-278.549 -144.33)"/>
        </g>
      </g>
      <g>
        <path class="cls-8" d="M653.518,338.62c0,5.01-6.015,9.07-13.436,9.07H374.04c-7.42,0-13.437-4.06-13.437-9.07h0c0-5.01,6.016-9.068,13.437-9.068H640.081c7.422,0,13.436,4.059,13.436,9.068Z" transform="translate(-278.549 -144.33)"/>
        <g>
          <g>
            <path class="cls-9" d="M479.372,291.075s10.686-.08,17.23-3.748c9.366-5.242,13.377-7.457,35.587-10.486,8.239-1.123,14.233-.375,34.086,2.246,31.17,4.119,40.079,10.492,53.937,10.492s29.967.373,29.967.373l3,37.457s-142.713.375-146.461-1.123S476,306.433,476,306.433Z" transform="translate(-278.549 -144.33)"/>
            <path class="cls-10" d="M481.76,292.675s10.542-.078,17-3.582c9.234-5.014,13.191-7.131,35.095-10.025,8.13-1.076,14.04-.359,33.62,2.148,30.74,3.934,39.528,10.025,53.2,10.025s29.555.359,29.555.359l2.956,35.81s-140.753.358-144.448-1.074-30.292-18.981-30.292-18.981Z" transform="translate(-278.549 -144.33)"/>
          </g>
          <path class="cls-10" d="M451.661,267.231c3.916,1.834,10.343,2.772,12.177-1.142s-2.732-10.082-6.646-11.916-7.26-1.315-9.3,2.646A7.732,7.732,0,0,0,451.661,267.231Z" transform="translate(-278.549 -144.33)"/>
          <g>
            <path class="cls-9" d="M436.792,250.478c24.073,4.361,50.135,38.535,47.4,53.609-2.26,12.475-30.97,25.629-53.082,24.074-24.4-1.719-50.171-17.92-45.81-41.992A44.3,44.3,0,0,1,436.792,250.478Z" transform="translate(-278.549 -144.33)"/>
            <path class="cls-10" d="M435.7,256.493c-23.629-4.281-45.991,9.56-50.613,31.045-2.856,21.084,17.511,35.873,39.137,39.758a.131.131,0,0,1,.026.006,64.8,64.8,0,0,0,6.86.859c21.366,1.5,48.893-10.73,52.762-22.812C484.617,290.853,459.035,260.724,435.7,256.493Z" transform="translate(-278.549 -144.33)"/>
          </g>
          <path class="cls-11" d="M456.632,299.794a.648.648,0,0,1-.176.342l-1.67,1.715a.659.659,0,0,1-.886.055l-3.265-2.607a.661.661,0,1,1,.823-1.033l2.8,2.234,1.249-1.285a.662.662,0,0,1,1.126.58Z" transform="translate(-278.549 -144.33)"/>
          <g>
            <path d="M438.752,321.142a10.556,10.556,0,0,0,3.842-6.156,10.1,10.1,0,0,0-1.424-7.135s3.89,1.594,2.647,7.506C442.671,320.819,438.752,321.142,438.752,321.142Z" transform="translate(-278.549 -144.33)"/>
            <path d="M440.052,320.513a1.911,1.911,0,0,1,.658.709,9.659,9.659,0,0,1,.706,1.588,3.948,3.948,0,0,0-.144-1.686,5.741,5.741,0,0,0-.656-1.187Z" transform="translate(-278.549 -144.33)"/>
            <path d="M440.663,320a1.881,1.881,0,0,1,.709.658,9.9,9.9,0,0,1,.813,1.535,3.918,3.918,0,0,0-.259-1.67,5.674,5.674,0,0,0-.737-1.137Z" transform="translate(-278.549 -144.33)"/>
            <path d="M441.4,319.614a1.9,1.9,0,0,1,.776.578,9.879,9.879,0,0,1,.974,1.439,3.958,3.958,0,0,0-.437-1.635,5.908,5.908,0,0,0-.856-1.049Z" transform="translate(-278.549 -144.33)"/>
          </g>
          <path d="M435.448,306.648s-3.456,3.3-3.392,7.617a51.035,51.035,0,0,0,1.286,8.586s-3.816-5.687-3.6-8.49c.4-5.176,3.26-6.977,3.26-6.977Z" transform="translate(-278.549 -144.33)"/>
          <g>
            <path d="M448.332,271.7a10.57,10.57,0,0,1,1.165,7.164,10.1,10.1,0,0,1-4.073,6.031s4.207.033,5.345-5.9C451.819,273.511,448.332,271.7,448.332,271.7Z" transform="translate(-278.549 -144.33)"/>
            <path d="M449.287,272.784a1.873,1.873,0,0,0,.881-.4,9.746,9.746,0,0,0,1.266-1.191,3.979,3.979,0,0,1-.784,1.5,5.755,5.755,0,0,1-1.063.84Z" transform="translate(-278.549 -144.33)"/>
            <path d="M449.653,273.489a1.866,1.866,0,0,0,.908-.334,9.715,9.715,0,0,0,1.344-1.1,3.964,3.964,0,0,1-.884,1.441,5.826,5.826,0,0,1-1.121.766Z" transform="translate(-278.549 -144.33)"/>
            <path d="M450.182,274.134a1.889,1.889,0,0,0,.939-.236,9.747,9.747,0,0,0,1.455-.947,3.973,3.973,0,0,1-1.035,1.336,5.79,5.79,0,0,1-1.2.637Z" transform="translate(-278.549 -144.33)"/>
          </g>
          <path d="M439.684,283.8s-1.913-4.381-.186-8.338a51.176,51.176,0,0,1,4.5-7.424s-5.719,3.773-6.6,6.439c-1.63,4.932.31,7.7.31,7.7Z" transform="translate(-278.549 -144.33)"/>
          <path class="cls-12" d="M462.917,309.564s3.963-2.607,4.605-5.631.444-1.844.444-1.844.17-1.416.233-1.887c.375-2.754-1.912-6.51-1.912-6.51l-.9,8.234Z" transform="translate(-278.549 -144.33)"/>
          <path class="cls-13" d="M462.891,309.521a28.107,28.107,0,0,0,3.1-7.566,33.893,33.893,0,0,0,.347-8.147,30.67,30.67,0,0,1-1.96,4.406c-.827,1.267-1.242,1.9-1.229,2.189s.785,1.09.785,1.09-1.145.342-1.227.756a8.189,8.189,0,0,0,.569,3.23A6.867,6.867,0,0,1,462.891,309.521Z" transform="translate(-278.549 -144.33)"/>
          <g>
            <path class="cls-14" d="M679.05,287s-14.964,3.463-24.326,1.965-25.518-7.633-33.386-4.635-8.239,12.361-17.978,28.092-22.849,15.359-26.222,19.853-4.868,25.1-4.868,25.1l106.78.84Z" transform="translate(-278.549 -144.33)"/>
            <path class="cls-8" d="M679.05,288.347s-14,5.43-22.9,4-24.256-7.256-31.733-4.406-7.834,11.75-17.09,26.705-21.719,14.6-24.925,18.869-4.627,23.857-4.627,23.857l100.822.84Z" transform="translate(-278.549 -144.33)"/>
            <path class="cls-14" d="M669.891,291.214s-4.211,1.828-5.757,4.918-9.271,14.608-9.271,14.608-6.462-4.914-5.9-8.287,2.948-12.221,2.948-12.221Z" transform="translate(-278.549 -144.33)"/>
            <path class="cls-14" d="M669.752,299.784c-.562,1.123-7.306,16.855-11.518,18.541s-8.43,4.5-11.237.56-6.741-27.248-7.868-25.281-4.773,14.045-3.65,20.508,3.089,11.8,6.741,14.045,5.9,7.586,13.485,1.406,10.112-14.609,12.079-17.98S669.752,299.784,669.752,299.784Z" transform="translate(-278.549 -144.33)"/>
            <path class="cls-14" d="M612.439,320.013s2.53,4.492-6.458,8.144-13.485,3.092-16.017,7.586-9.268,13.484-4.492,14.607,4.776-8.988,13.2-11.8,13.205-4.494,15.171-8.709S612.439,320.013,612.439,320.013Z" transform="translate(-278.549 -144.33)"/>
          </g>
          <g>
            <path class="cls-15" d="M579.923,281.1" transform="translate(-278.549 -144.33)"/>
            <path class="cls-15" d="M583.2,281.12" transform="translate(-278.549 -144.33)"/>
            <path class="cls-15" d="M577.225,280.716" transform="translate(-278.549 -144.33)"/>
            <path class="cls-15" d="M579.351,281.235" transform="translate(-278.549 -144.33)"/>
          </g>
          <path class="cls-8" d="M481.526,327.876c4.214,8.711-19.5,9.272-43.546,9.272s-46.914.844-43.543-9.272c4.863-14.59,21.462-3.09,45.512-3.09S473.025,310.312,481.526,327.876Z" transform="translate(-278.549 -144.33)"/>
          <g>
            <path class="cls-9" d="M537.433,288.454s-16.856,2.621-28.094,5.619-29.228,4.082-28.842,19.852c.373,15.357,74.914,13.109,74.914,13.109s-22.851-3.746-35.21-3.746-32.59,3.746-38.956,5.619-12.36,1.873-16.479.375-8.617,0-13.86,1.5c-2.876.822-6.931,2.9-11.893,3.559a7.647,7.647,0,0,0-4.966,2.809c2.249,2.623,4.3-1.106,8.148-.561,1.446.2,4.74,1.3,6.884.982,10.4-1.545,19.431.422,22.193.422,4.872,0,7.784-2.275,14.468-.844,10.487,2.248,73.79,3,85.4.75s20.356-8.154,18.354-13.484c-5.464-14.557-59.184-19.1-59.184-19.1" transform="translate(-278.549 -144.33)"/>
            <path class="cls-10" d="M537.9,291.823s-16.7,2.449-27.841,5.246S481.1,300.884,481.481,315.6c.373,14.34,74.5,10.307,74.5,10.307s-22.869,1.4-35.12,1.4-32.323.531-38.632,2.279-12.25,1.748-16.334.35-8.537,0-13.733,1.4c-2.849.768-6.867,2.709-11.785,3.322a7.625,7.625,0,0,0-4.919,2.623c2.229,2.447,4.257-1.031,8.072-.525,1.434.191,4.7,1.217,6.821.918,10.3-1.443,19.257.394,21.994.394,4.826,0,7.713-2.123,14.337-.787,10.395,2.1,73.126,2.8,84.634.7s20.174-7.613,18.19-12.59c-5.414-13.59-58.648-17.836-58.648-17.836" transform="translate(-278.549 -144.33)"/>
          </g>
          <g>
            <path class="cls-16" d="M410.056,273.3s13.2,5.3,16.791,28.8c1.938,12.725,10.011,26.83,20.29,26.275,11-.592,5.313,5.309-34.157,2.877-21.311-1.312-42.1,2.254-46.3-14.084-3.471-13.478,10.2-30.84,14.183-39.3,5.539-11.779,12.575-12.951,12.575-12.951s-.208-3.8,3.537-9.639,13.7-12.217,21.837-14.211c6.5-1.592,30.03-5.314,45.857,11.377,14.382,15.168,14.683,35.129,11.376,28.613-4.629-9.117-20.47-20.434-35.05-21.326C434.118,259.306,410.056,273.3,410.056,273.3Z" transform="translate(-278.549 -144.33)"/>
            <path class="cls-17" d="M464.712,255.384c-15.323-16.16-38.1-12.555-44.394-11.016-7.877,1.932-17.516,8.1-21.142,13.758s-3.425,9.334-3.425,9.334-6.813,1.133-12.175,12.539c-3.853,8.191-17.091,25-13.731,38.047,1.838,7.143,6.958,10.352,13.913,11.844,8.33,1.246,18.709.711,29.222,1.359,27.61,1.7,38.685-.676,39.085-2.055a12.2,12.2,0,0,0-4.32-.3,12.054,12.054,0,0,1-7.944-2.68c-6.645-4.369-11.506-14.627-12.953-24.121-1.421-9.3-4.347-15.74-7.361-20.139-3.955-4.895-7.644-6.379-7.644-6.379s.371-.217,1.032-.594a14.989,14.989,0,0,0-2.818-1.686s24.062-13.994,30.935-13.572c14.58.893,30.421,12.209,35.05,21.326.58,1.147,1.051,1.471,1.352,1.147C477.322,277.405,474.147,265.331,464.712,255.384Z" transform="translate(-278.549 -144.33)"/>
            <path class="cls-16" d="M408.017,276.841s6.181,9.178,8.055,16.482.748,15.17,5.429,20.975,15.172,14.049,15.172,14.049A31.688,31.688,0,0,1,426,323.1c-4.682-3.744-11.424-12.172-12.174-17.228s-.562-4.5-1.684-12.549a99.065,99.065,0,0,0-4.5-17.232" transform="translate(-278.549 -144.33)"/>
            <path class="cls-16" d="M411.576,268.413s11.984-7.115,21.912-9.738,16.667-2.06,20.976.936,12.175,8.8,12.175,8.8-8.43-11.236-13.861-13.484c-5-2.066-12.172-2.246-16.856,0S411.576,268.413,411.576,268.413Z" transform="translate(-278.549 -144.33)"/>
            <path class="cls-16" d="M402.77,277.218a44.01,44.01,0,0,1-6.556,12.361c-4.68,6.178-11.609,12.734-9.549,20.037s3,9.178,11.8,12.363,30.715,6.742,30.715,6.742-26.971-1.686-31.838-3.936-12.925-6.74-14.048-10.674-.748-13.859,3.185-17.793S402.77,277.218,402.77,277.218Z" transform="translate(-278.549 -144.33)"/>
          </g>
        </g>
      </g>
      <g>
        <g>
          <path class="cls-18" d="M497.965,340.515h-31.15v17.449c0,2.3,6.957,4.17,15.536,4.17s15.535-1.867,15.535-4.17C497.886,357.921,497.965,340.515,497.965,340.515Z" transform="translate(-278.549 -144.33)"/>
          <g>
            <ellipse class="cls-18" cx="203.821" cy="196.032" rx="15.556" ry="4.028"/>
            <ellipse class="cls-19" cx="203.821" cy="196.037" rx="13.91" ry="3.21"/>
          </g>
          <path class="cls-20" d="M495.33,356.167a1.758,1.758,0,0,1-1.756,1.758h0a1.759,1.759,0,0,1-1.758-1.758V346.56a1.758,1.758,0,0,1,1.758-1.756h0a1.757,1.757,0,0,1,1.756,1.756Z" transform="translate(-278.549 -144.33)"/>
        </g>
        <g>
          <line class="cls-21" x1="218.935" y1="182.191" x2="203.542" y2="194.035"/>
          <polyline class="cls-21" points="214.983 181.714 215.21 185.058 218.397 186.027"/>
          <polyline class="cls-21" points="204.545 188.031 204.862 193.017 209.777 194.517"/>
          <polyline class="cls-21" points="212.534 182.47 213.151 186.64 217.025 188.306"/>
          <polyline class="cls-21" points="207.095 186.265 207.501 190.988 212.336 192.695"/>
          <polyline class="cls-21" points="209.729 183.654 210.58 188.57 215.216 190.722"/>
        </g>
        <g>
          <line class="cls-21" x1="189.367" y1="181.777" x2="203.386" y2="195.218"/>
          <polyline class="cls-21" points="193.348 181.728 192.76 185.029 189.486 185.648"/>
          <polyline class="cls-21" points="203.04 189.14 202.184 194.064 197.135 195.021"/>
          <polyline class="cls-21" points="195.699 182.748 194.634 186.826 190.606 188.06"/>
          <polyline class="cls-21" points="200.697 187.109 199.78 191.759 194.792 192.931"/>
          <polyline class="cls-21" points="198.362 184.226 196.983 189.023 192.138 190.66"/>
        </g>
        <g>
          <ellipse class="cls-22" cx="204.124" cy="197.634" rx="6.353" ry="1.085"/>
          <ellipse class="cls-23" cx="475.5" cy="333.067" rx="5.51" ry="12.139" transform="translate(-370.114 313.12) rotate(-47.381)"/>
          <ellipse class="cls-23" cx="489.887" cy="333.067" rx="12.138" ry="5.509" transform="translate(-374.706 275.201) rotate(-42.604)"/>
          <g>
            <ellipse class="cls-24" cx="204.109" cy="186.031" rx="5.51" ry="12.14"/>
            <g>
              <line class="cls-21" x1="204.074" y1="175.99" x2="204.074" y2="195.412"/>
              <polyline class="cls-21" points="201.285 178.83 204.074 180.689 206.785 178.751"/>
              <polyline class="cls-21" points="199.927 190.956 204.074 193.748 208.257 190.763"/>
              <polyline class="cls-21" points="200.392 181.232 204.074 183.287 207.753 181.232"/>
              <polyline class="cls-21" points="200.083 187.857 204.074 190.414 208.373 187.625"/>
              <polyline class="cls-21" points="199.618 184.177 204.034 186.5 208.567 184.138"/>
            </g>
          </g>
        </g>
      </g>
      <g>
        <g>
          <rect class="cls-25" x="77.856" y="205.544" width="10.581" height="2.352"/>
          <rect class="cls-25" x="160.714" y="205.544" width="10.582" height="2.352"/>
          <rect class="cls-25" x="72.2" y="201.793" width="106.597" height="4.928"/>
        </g>
        <g>
          <g>
            <ellipse class="cls-26" cx="87.974" cy="196.754" rx="8.829" ry="1.376"/>
            <g>
              <g>
                <rect class="cls-8" x="79.802" y="179.693" width="16.412" height="20.08"/>
                <ellipse class="cls-14" cx="88.008" cy="179.711" rx="8.206" ry="1.54"/>
                <ellipse class="cls-27" cx="88.13" cy="179.625" rx="7.392" ry="1.211"/>
                <path class="cls-14" d="M361.485,338.591a1.116,1.116,0,0,1-1.116,1.117h0a1.117,1.117,0,0,1-1.117-1.117V327.634a1.117,1.117,0,0,1,1.117-1.117h0a1.116,1.116,0,0,1,1.116,1.117Z" transform="translate(-278.549 -144.33)"/>
              </g>
              <g>
                <ellipse class="cls-28" cx="87.922" cy="180.239" rx="0.935" ry="0.233"/>
                <g>
                  <g>
                    <path class="cls-29" d="M368.081,322.189c0,1.559-.744,1.9-1.663,1.9s-1.661-.346-1.661-1.9,1.661-3.74,1.661-3.74S368.081,320.63,368.081,322.189Z" transform="translate(-278.549 -144.33)"/>
                    <path class="cls-30" d="M367.754,322.355c0,1.252-.6,1.529-1.336,1.529s-1.334-.277-1.334-1.529a6.711,6.711,0,0,1,1.334-3A6.708,6.708,0,0,1,367.754,322.355Z" transform="translate(-278.549 -144.33)"/>
                  </g>
                  <path class="cls-31" d="M366.592,324.456a.121.121,0,0,1-.122.121h0a.121.121,0,0,1-.121-.121v-1.108a.12.12,0,0,1,.121-.121h0a.12.12,0,0,1,.122.121Z" transform="translate(-278.549 -144.33)"/>
                </g>
              </g>
            </g>
            <path class="cls-32" d="M375.368,342.1v-1.074s-2.354.971-8.845.971c-7.426,0-8.794-.971-8.794-.971v1.73h0v3.983h.265c.611.666,4.243,1.178,8.632,1.178s8.022-.512,8.634-1.178h.126V342.1Z" transform="translate(-278.549 -144.33)"/>
          </g>
          <g>
            <ellipse class="cls-26" cx="112.281" cy="193.095" rx="13.56" ry="2.113"/>
            <g>
              <g>
                <rect class="cls-8" x="99.729" y="166.894" width="25.209" height="30.84"/>
                <ellipse class="cls-14" cx="112.334" cy="166.921" rx="12.604" ry="2.366"/>
                <ellipse class="cls-27" cx="112.52" cy="166.787" rx="11.354" ry="1.861"/>
                <path class="cls-14" d="M383.091,333.6a1.715,1.715,0,0,1-1.712,1.715h0a1.716,1.716,0,0,1-1.717-1.715v-16.83a1.715,1.715,0,0,1,1.717-1.715h0a1.713,1.713,0,0,1,1.712,1.715Z" transform="translate(-278.549 -144.33)"/>
              </g>
              <g>
                <ellipse class="cls-28" cx="112.2" cy="167.73" rx="1.435" ry="0.358"/>
                <g>
                  <g>
                    <path class="cls-29" d="M393.224,308.4c0,2.4-1.143,2.926-2.554,2.926s-2.554-.529-2.554-2.926,2.554-5.742,2.554-5.742S393.224,306.011,393.224,308.4Z" transform="translate(-278.549 -144.33)"/>
                    <path class="cls-30" d="M392.72,308.661c0,1.922-.918,2.35-2.05,2.35s-2.053-.428-2.053-2.35,2.053-4.615,2.053-4.615S392.72,306.735,392.72,308.661Z" transform="translate(-278.549 -144.33)"/>
                  </g>
                  <path class="cls-31" d="M390.935,311.886a.188.188,0,0,1-.186.188h0a.186.186,0,0,1-.185-.187v-1.7a.184.184,0,0,1,.185-.187h0a.187.187,0,0,1,.186.188Z" transform="translate(-278.549 -144.33)"/>
                </g>
              </g>
            </g>
            <path class="cls-32" d="M404.414,338.981v-1.652s-3.616,1.49-13.584,1.49c-11.406,0-13.507-1.49-13.507-1.49v2.66h0V346.1h.408c.939,1.023,6.514,1.809,13.256,1.809s12.321-.785,13.261-1.809h.194v-7.123Z" transform="translate(-278.549 -144.33)"/>
          </g>
        </g>
      </g>
      <g>
        <g>
          <ellipse cx="129.271" cy="208.347" rx="31.111" ry="11.429"/>
          <path class="cls-33" d="M407.093,341.892c-.338,0-.678.01-1.014.018-14.5.318-26.29,4.2-28.548,9.213,2.267,3.764,14.2,6.635,28.6,6.635,16.011,0,28.994-3.553,28.994-7.935C435.124,345.528,422.657,342.032,407.093,341.892Z" transform="translate(-278.549 -144.33)"/>
          <path class="cls-15" d="M417.344,354.478c.545,1.6,4.311,1.561,8.766.047s8.182-3.732,7.636-5.34-2.114-.953-6.983,1.693C422.629,353.124,416.8,352.872,417.344,354.478Z" transform="translate(-278.549 -144.33)"/>
          <path class="cls-15" d="M405.08,355.189c.039,1.063,2.464,1.838,5.414,1.728s5.31-1.059,5.269-2.121-2.24-.744-5.189-.637S405.042,354.126,405.08,355.189Z" transform="translate(-278.549 -144.33)"/>
        </g>
        <g>
          <ellipse cx="128.425" cy="199.035" rx="23.045" ry="8.466"/>
          <path class="cls-33" d="M406.435,335.376c-.253,0-.5.008-.752.012-10.741.236-19.475,3.111-21.146,6.824,1.68,2.789,10.523,4.916,21.184,4.916,11.861,0,21.477-2.633,21.477-5.879C427.2,338.067,417.965,335.48,406.435,335.376Z" transform="translate(-278.549 -144.33)"/>
          <path class="cls-15" d="M414.029,344.7c.4,1.189,3.191,1.158,6.492.037s6.062-2.766,5.658-3.953-1.567-.707-5.176,1.252C417.942,343.7,413.624,343.511,414.029,344.7Z" transform="translate(-278.549 -144.33)"/>
          <path class="cls-15" d="M404.943,345.226c.029.787,1.824,1.359,4.01,1.279s3.934-.785,3.905-1.572-1.66-.551-3.845-.471S404.914,344.439,404.943,345.226Z" transform="translate(-278.549 -144.33)"/>
        </g>
        <g>
          <ellipse cx="128.425" cy="187.607" rx="17.285" ry="6.35"/>
          <path class="cls-33" d="M406.57,325.944l-.564.008c-8.057.18-14.607,2.334-15.861,5.119,1.259,2.092,7.891,3.688,15.887,3.688,8.9,0,16.111-1.975,16.111-4.408C422.144,327.964,415.218,326.023,406.57,325.944Z" transform="translate(-278.549 -144.33)"/>
          <path class="cls-15" d="M412.265,332.935c.306.892,2.395.869,4.869.027s4.548-2.074,4.243-2.967-1.177-.529-3.879.941C415.2,332.185,411.964,332.044,412.265,332.935Z" transform="translate(-278.549 -144.33)"/>
          <path class="cls-15" d="M405.452,333.333c.022.588,1.367,1.019,3.008.959s2.95-.59,2.927-1.18-1.244-.412-2.884-.352S405.43,332.741,405.452,333.333Z" transform="translate(-278.549 -144.33)"/>
        </g>
      </g>
      <g>
        <g>
          <ellipse cx="181.552" cy="216.293" rx="17.285" ry="6.35"/>
          <path class="cls-33" d="M459.7,354.632c-.189,0-.378.006-.563.008-8.058.178-14.607,2.332-15.861,5.117,1.259,2.094,7.891,3.688,15.887,3.688,8.9,0,16.11-1.975,16.11-4.408C475.269,356.651,468.344,354.708,459.7,354.632Z" transform="translate(-278.549 -144.33)"/>
          <path class="cls-15" d="M465.392,361.624c.306.889,2.394.865,4.868.025s4.548-2.076,4.244-2.967-1.177-.529-3.879.94C468.328,360.872,465.09,360.73,465.392,361.624Z" transform="translate(-278.549 -144.33)"/>
          <path class="cls-15" d="M458.58,362.019c.02.59,1.367,1.019,3.007.959s2.949-.59,2.926-1.178-1.244-.414-2.884-.352S458.556,361.429,458.58,362.019Z" transform="translate(-278.549 -144.33)"/>
        </g>
        <g>
          <ellipse cx="179.311" cy="212.263" rx="11.187" ry="4.11"/>
          <path class="cls-33" d="M457.6,352.714c-.124,0-.244,0-.367.006-5.212.115-9.453,1.51-10.264,3.313.815,1.353,5.106,2.387,10.281,2.387,5.759,0,10.427-1.279,10.427-2.853C467.678,354.021,463.2,352.763,457.6,352.714Z" transform="translate(-278.549 -144.33)"/>
          <path class="cls-15" d="M461.285,357.237c.2.578,1.552.563,3.151.018s2.942-1.342,2.748-1.918-.762-.344-2.512.607C463.185,356.753,461.091,356.661,461.285,357.237Z" transform="translate(-278.549 -144.33)"/>
          <path class="cls-15" d="M456.876,357.5c.014.381.884.66,1.947.621s1.907-.381,1.9-.764-.809-.266-1.869-.228S456.86,357.112,456.876,357.5Z" transform="translate(-278.549 -144.33)"/>
        </g>
      </g>
      <g>
        <g>
          <g>
            <path class="cls-34" d="M477.8,353.1c1.641-3.024,3.969-4.055,5.781-3.07s2.428,3.613.785,6.637-6.727,4.311-6.727,4.311S476.154,356.122,477.8,353.1Z" transform="translate(-278.549 -144.33)"/>
            <path class="cls-8" d="M483.5,350.187c1.529.83,2.24,3.209.642,6.152-1.309,2.412-5.027,3.7-6.167,4.041-.287-1.133-1.083-4.857.224-7.266C479.65,350.431,481.781,349.257,483.5,350.187Z" transform="translate(-278.549 -144.33)"/>
            <path class="cls-35" d="M477.725,360.909c-1.045-.566-1.531-2.191-.439-4.2.894-1.645,3.434-2.522,4.212-2.758.2.773.74,3.316-.155,4.963C480.351,360.743,478.894,361.546,477.725,360.909Z" transform="translate(-278.549 -144.33)"/>
            <path class="cls-36" d="M477.865,360.718c-.715-.389-1.047-1.5-.3-2.879a5.277,5.277,0,0,1,2.887-1.893,5.352,5.352,0,0,1-.1,3.4C479.665,360.6,478.669,361.153,477.865,360.718Z" transform="translate(-278.549 -144.33)"/>
          </g>
          <g>
            <path class="cls-34" d="M470.16,358.53c-2.534-2.328-2.971-4.836-1.574-6.356s4.091-1.478,6.627.846,2.55,7.574,2.55,7.574S472.693,360.856,470.16,358.53Z" transform="translate(-278.549 -144.33)"/>
            <path class="cls-8" d="M468.717,352.294c1.174-1.281,3.656-1.394,6.122.869,2.023,1.856,2.367,5.773,2.426,6.963-1.168.006-4.975-.127-7-1.978C468.021,356.083,467.4,353.731,468.717,352.294Z" transform="translate(-278.549 -144.33)"/>
            <g>
              <path class="cls-35" d="M477.719,360.493c-.8.875-2.5.951-4.182-.594-1.38-1.268-1.615-3.941-1.654-4.754.8,0,3.4.086,4.774,1.352C478.193,357.905,478.622,359.511,477.719,360.493Z" transform="translate(-278.549 -144.33)"/>
              <path class="cls-36" d="M477.568,360.31c-.551.6-1.714.65-2.868-.408a5.263,5.263,0,0,1-1.134-3.258,5.36,5.36,0,0,1,3.275.926C477.893,358.534,478.185,359.636,477.568,360.31Z" transform="translate(-278.549 -144.33)"/>
            </g>
          </g>
          <g>
            <path class="cls-34" d="M473.347,367.466c-2.971,1.734-5.5,1.412-6.538-.371s-.2-4.346,2.765-6.082,7.987-.205,7.987-.205S476.317,365.73,473.347,367.466Z" transform="translate(-278.549 -144.33)"/>
            <path class="cls-8" d="M466.961,367.007c-.876-1.5-.252-3.906,2.638-5.6,2.369-1.383,6.214-.559,7.368-.264-.341,1.119-1.586,4.717-3.954,6.1C470.379,368.788,467.948,368.69,466.961,367.007Z" transform="translate(-278.549 -144.33)"/>
            <path class="cls-35" d="M477.453,360.819c.6,1.025.173,2.668-1.8,3.822-1.619.945-4.244.381-5.031.178.23-.764,1.085-3.219,2.7-4.164C475.12,359.6,476.778,359.669,477.453,360.819Z" transform="translate(-278.549 -144.33)"/>
            <path class="cls-36" d="M477.23,360.909c.412.7.117,1.826-1.234,2.619a5.227,5.227,0,0,1-3.447.125A5.333,5.333,0,0,1,474.4,360.8C475.632,360.075,476.769,360.122,477.23,360.909Z" transform="translate(-278.549 -144.33)"/>
          </g>
          <g>
            <path class="cls-34" d="M482.348,367.573c.058,3.44-1.462,5.483-3.527,5.516s-3.889-1.951-3.944-5.391,3.737-7.064,3.737-7.064S482.29,364.134,482.348,367.573Z" transform="translate(-278.549 -144.33)"/>
            <path class="cls-8" d="M478.818,372.911c-1.738.031-3.528-1.693-3.585-5.043-.045-2.74,2.559-5.687,3.382-6.549.81.844,3.334,3.7,3.38,6.438C482.046,370.808,480.77,372.88,478.818,372.911Z" transform="translate(-278.549 -144.33)"/>
            <path class="cls-35" d="M478.568,360.735c1.189-.02,2.409,1.156,2.448,3.445.031,1.873-1.747,3.883-2.31,4.471-.551-.574-2.274-2.524-2.307-4.395C476.364,362.173,477.238,360.757,478.568,360.735Z" transform="translate(-278.549 -144.33)"/>
            <path class="cls-36" d="M478.539,361.175c.814-.014,1.651.793,1.678,2.359a5.238,5.238,0,0,1-1.582,3.066,5.335,5.335,0,0,1-1.58-3.012C477.028,362.161,477.626,361.19,478.539,361.175Z" transform="translate(-278.549 -144.33)"/>
          </g>
          <g>
            <path class="cls-34" d="M485.794,359.12c3.312.936,4.828,2.981,4.267,4.967s-2.992,3.162-6.3,2.225-5.685-5.617-5.685-5.617S482.484,358.183,485.794,359.12Z" transform="translate(-278.549 -144.33)"/>
            <path class="cls-8" d="M489.888,364.038c-.474,1.674-2.638,2.889-5.86,1.978-2.64-.748-4.712-4.092-5.3-5.127,1.039-.533,4.5-2.125,7.138-1.379C488.8,360.341,490.42,362.161,489.888,364.038Z" transform="translate(-278.549 -144.33)"/>
            <path class="cls-35" d="M478.158,360.765c.324-1.142,1.8-1.975,4-1.351,1.8.512,3.214,2.795,3.615,3.5-.711.361-3.073,1.451-4.876.943C478.9,363.288,477.794,362.048,478.158,360.765Z" transform="translate(-278.549 -144.33)"/>
            <path class="cls-36" d="M478.377,360.862c.224-.785,1.236-1.353,2.742-.926a5.249,5.249,0,0,1,2.48,2.4,5.332,5.332,0,0,1-3.342.644C478.883,362.593,478.127,361.739,478.377,360.862Z" transform="translate(-278.549 -144.33)"/>
          </g>
        </g>
        <circle class="cls-37" cx="199.18" cy="216.681" r="0.975"/>
      </g>
      <g>
        <g>
          <g>
            <path class="cls-34" d="M406.878,366.5c-1.725-2.977-1.392-5.5.393-6.535s4.35-.187,6.073,2.789.174,7.99.174,7.99S408.6,369.478,406.878,366.5Z" transform="translate(-278.549 -144.33)"/>
            <path class="cls-8" d="M407.363,360.12c1.5-.873,3.9-.24,5.585,2.658,1.375,2.377.532,6.217.233,7.369-1.118-.344-4.711-1.607-6.087-3.979C405.566,363.528,405.673,361.1,407.363,360.12Z" transform="translate(-278.549 -144.33)"/>
            <path class="cls-35" d="M413.5,370.636c-1.027.592-2.667.16-3.813-1.816-.94-1.623-.363-4.246-.158-5.031.761.232,3.215,1.1,4.154,2.717C414.731,368.306,414.659,369.966,413.5,370.636Z" transform="translate(-278.549 -144.33)"/>
            <path class="cls-36" d="M413.414,370.413c-.7.408-1.828.111-2.613-1.244a5.257,5.257,0,0,1-.108-3.451,5.365,5.365,0,0,1,2.849,1.863C414.255,368.817,414.205,369.954,413.414,370.413Z" transform="translate(-278.549 -144.33)"/>
          </g>
          <g>
            <path class="cls-34" d="M407.531,375.849c-3.307.949-5.677.014-6.246-1.971s.872-4.262,4.178-5.213,7.795,1.772,7.795,1.772S410.835,374.9,407.531,375.849Z" transform="translate(-278.549 -144.33)"/>
            <path class="cls-8" d="M401.456,373.829c-.481-1.67.716-3.846,3.934-4.773,2.637-.758,6.161.99,7.205,1.56-.606,1-2.7,4.182-5.335,4.94C404.326,376.4,401.993,375.706,401.456,373.829Z" transform="translate(-278.549 -144.33)"/>
            <g>
              <path class="cls-35" d="M413.147,370.421c.328,1.139-.492,2.627-2.687,3.26-1.8.516-4.208-.676-4.922-1.066.413-.682,1.845-2.856,3.645-3.371C411.186,368.665,412.78,369.14,413.147,370.421Z" transform="translate(-278.549 -144.33)"/>
              <path class="cls-36" d="M412.911,370.452c.223.783-.339,1.8-1.843,2.236a5.256,5.256,0,0,1-3.371-.732,5.324,5.324,0,0,1,2.5-2.311C411.564,369.251,412.659,369.575,412.911,370.452Z" transform="translate(-278.549 -144.33)"/>
            </g>
          </g>
          <g>
            <path class="cls-34" d="M416.816,377.786c-.065,3.44-1.659,5.428-3.725,5.387s-3.812-2.09-3.75-5.529,3.992-6.924,3.992-6.924S416.881,374.347,416.816,377.786Z" transform="translate(-278.549 -144.33)"/>
            <path class="cls-8" d="M413.1,383c-1.74-.033-3.467-1.82-3.4-5.166.051-2.746,2.76-5.6,3.615-6.426.777.871,3.2,3.813,3.145,6.555C416.4,381.007,415.05,383.032,413.1,383Z" transform="translate(-278.549 -144.33)"/>
            <path class="cls-35" d="M413.287,370.817c1.185.023,2.366,1.244,2.321,3.529-.036,1.873-1.886,3.818-2.469,4.387-.531-.6-2.183-2.6-2.146-4.475C411.032,372.175,411.953,370.792,413.287,370.817Z" transform="translate(-278.549 -144.33)"/>
            <path class="cls-36" d="M413.246,371.056c.814.014,1.623.851,1.594,2.416a5.248,5.248,0,0,1-1.692,3.008,5.345,5.345,0,0,1-1.474-3.066C411.7,371.983,412.333,371.038,413.246,371.056Z" transform="translate(-278.549 -144.33)"/>
          </g>
          <g>
            <path class="cls-34" d="M421.6,370.163c2.966,1.742,3.919,4.1,2.872,5.883s-3.7,2.3-6.659.557-4.08-6.871-4.08-6.871S418.638,368.419,421.6,370.163Z" transform="translate(-278.549 -144.33)"/>
            <path class="cls-8" d="M424.316,375.958c-.88,1.5-3.283,2.127-6.169.428-2.365-1.389-3.522-5.148-3.829-6.3,1.142-.25,4.891-.918,7.256.471C424.2,372.106,425.309,374.274,424.316,375.958Z" transform="translate(-278.549 -144.33)"/>
            <path class="cls-35" d="M413.8,369.821c.6-1.023,2.241-1.453,4.215-.293,1.613.949,2.4,3.518,2.611,4.3-.777.172-3.339.627-4.954-.322C413.874,372.452,413.121,370.968,413.8,369.821Z" transform="translate(-278.549 -144.33)"/>
            <path class="cls-36" d="M414.154,370.075c.415-.7,1.537-.994,2.891-.2a5.254,5.254,0,0,1,1.791,2.949,5.351,5.351,0,0,1-3.4-.221C414.21,371.878,413.693,370.864,414.154,370.075Z" transform="translate(-278.549 -144.33)"/>
          </g>
          <g>
            <path class="cls-34" d="M416.183,362.814c2.525-2.338,5.063-2.566,6.464-1.051s1.138,4.2-1.387,6.537-7.755,1.922-7.755,1.922S413.658,365.151,416.183,362.814Z" transform="translate(-278.549 -144.33)"/>
            <path class="cls-8" d="M422.516,361.884c1.182,1.277,1.09,3.758-1.367,6.033-2.015,1.863-5.947,1.887-7.139,1.848.091-1.166.532-4.949,2.546-6.81C418.794,360.882,421.19,360.45,422.516,361.884Z" transform="translate(-278.549 -144.33)"/>
            <path class="cls-35" d="M413.606,370.187c-.806-.871-.746-2.566.934-4.119,1.376-1.274,4.061-1.289,4.874-1.262-.062.8-.365,3.381-1.737,4.652C416.146,370.87,414.513,371.165,413.606,370.187Z" transform="translate(-278.549 -144.33)"/>
            <path class="cls-36" d="M413.8,370.052c-.55-.6-.508-1.762.642-2.824a5.241,5.241,0,0,1,3.34-.865,5.332,5.332,0,0,1-1.191,3.188C415.545,370.521,414.423,370.722,413.8,370.052Z" transform="translate(-278.549 -144.33)"/>
          </g>
        </g>
        <circle class="cls-37" cx="413.593" cy="370.681" r="0.975" transform="translate(-396.895 386.054) rotate(-58.579)"/>
      </g>
    </g>
  </g>
</svg>
