<svg xmlns="http://www.w3.org/2000/svg" viewBox="0 0 500 500">
  <defs>
    <style>
      .cls-1 {
        isolation: isolate;
      }

      .cls-2 {
        fill: #fff;
      }

      .cls-3 {
        fill: #303f9f;
      }

      .cls-3, .cls-4, .cls-5 {
        opacity: 0.81;
        mix-blend-mode: multiply;
      }

      .cls-4 {
        fill: #7e57c2;
      }

      .cls-5 {
        fill: #f06292;
      }
    </style>
  </defs>
  <title>main_bg</title>
  <g class="cls-1">
    <g id="BACKGROUND">
      <rect class="cls-2" width="500" height="500"/>
    </g>
    <g id="OBJECTS">
      <g>
        <path class="cls-3" d="M18.763,420.626C-20.029,295.737,47.372,243.911,180.845,170.577c120.894-66.424,240.932-66.55,288.443,82.476s-50.05,222.37-187.482,234.205C109.981,502.055,38.1,482.866,18.763,420.626Z"/>
        <path class="cls-4" d="M481.556,126.275c47.8,121.728-15.645,178.33-143.414,261.2C222.413,462.542,102.7,471.422,44.452,326.258S78.152,100.83,214.355,79C384.642,51.715,457.735,65.61,481.556,126.275Z"/>
        <path class="cls-5" d="M277.94,15.227C373.582,52.819,375.8,110.179,361.829,210.4c-12.65,90.775-66.446,150.866-181.121,106.618S63.876,190.506,118.143,116.372C185.991,23.686,230.275-3.508,277.94,15.227Z"/>
      </g>
    </g>
  </g>
</svg>
