<svg id="Capa_1" data-name="Capa 1" xmlns="http://www.w3.org/2000/svg" viewBox="0 0 1921.92 972.48">
  <defs>
    <style>
      .cls-1 {
        fill: #2d3130;
      }

      .cls-2 {
        fill: #fff8fc;
      }

      .cls-3 {
        fill: #91b5a0;
      }

      .cls-4 {
        fill: #686d6c;
      }

      .cls-5 {
        fill: #ebfaff;
      }

      .cls-6 {
        fill: #fafeff;
      }

      .cls-7 {
        fill: #77b28f;
      }

      .cls-8 {
        fill: #a9d3b7;
      }

      .cls-9 {
        fill: #61b577;
      }

      .cls-10 {
        fill: #c5e2d0;
      }

      .cls-11 {
        fill: #ddedf2;
      }

      .cls-12 {
        fill: #dcf7e5;
      }

      .cls-13 {
        fill: #bae2c7;
      }

      .cls-14 {
        fill: #a5d3b2;
      }

      .cls-15 {
        fill: #f0aaa7;
      }

      .cls-16 {
        fill: #a3ceb5;
      }

      .cls-17 {
        fill: #ea96b1;
      }
    </style>
  </defs>
  <title>Spa Center Vector</title>
  <path class="cls-1" d="M131.292,1099.356c2.816-.772,5.7-.6,8.569-.6q419.973,0,839.946-.005c2.079,0,4.159-.018,6.236-.093a1.458,1.458,0,0,0,1.552-1.474q.093-2.4.1-4.795.007-95.994,0-191.988,0-66.956-.012-133.911c0-6.993.822-6.222-6.041-6.242-12.959-.038-25.919.049-38.877-.029-13.44-.081-25.509-4.156-35.7-13.065-11.521-10.074-17.905-22.766-18.5-38.146-.217-5.589-.223-11.2.044-16.791,1.071-22.363,17.61-43.412,41.952-48.8a61.255,61.255,0,0,1,13.355-1.151q40.077.019,80.155,0c1.438,0,2.876-.058,4.314-.072.384,0,.658-.157.657-.547a1.272,1.272,0,0,0-.258-.834c-.682-.673-1.46-1.25-2.138-1.926a18.581,18.581,0,0,1,1.429-27.95c1.05-.857,2.693-1.088,3.073-2.71-1.03-.754-2.091-1.469-3.085-2.267a18.59,18.59,0,0,1,.812-29.78c1.078-.778,2.73-.923,3.128-2.551-1.071-.694-2.173-1.344-3.207-2.09a18.609,18.609,0,0,1-.663-29.8c1.036-.846,2.692-1.042,3.038-2.677-1.038-.743-2.11-1.443-3.108-2.237a18.51,18.51,0,0,1-6.3-19.812,18.323,18.323,0,0,1,16.513-13.211c1.275-.087,2.559-.046,3.839-.046q81.115,0,162.23-.025c5.844,0,11.517.68,16.763,3.355,13.151,6.706,20.316,17.481,20.306,32.253s-7.138,25.538-20.327,32.23c-1.279.649-2.647,1.123-3.96,1.707a2.934,2.934,0,0,0-.633.539c.222.223.4.53.672.656,1.155.542,2.345,1.007,3.5,1.544a34.92,34.92,0,0,1,17.806,18.011,35.593,35.593,0,0,1-13.99,44.875c-1.224.75-2.51,1.4-3.736,2.145a.9.9,0,0,0-.329.769c.036.18.424.37.678.409a9.859,9.859,0,0,0,1.437.042c1.12,0,2.24,0,3.36,0h468.45c1.28,0,2.569.1,3.837-.025,1.494-.143,3.569.859,4.326-.694.558-1.145-1.32-2.317-1.9-3.616a15.634,15.634,0,0,1-1.55-6.469c.013-7.84.084-15.68-.02-23.518a13.634,13.634,0,0,1,13.51-13.912c1.12-.012,2.239-.038,3.359-.038q74.635,0,149.27,0c1.28,0,2.56.011,3.839.054a13.522,13.522,0,0,1,13.136,13.773c-.01.8,0,1.6,0,2.4,0,6.24-.09,12.481.031,18.718.083,4.29-.563,8.267-3.358,11.708-.682.84-.293,1.569.756,1.574q9.119.049,18.238.039a49.141,49.141,0,0,1,14.691,1.89c21.182,6.509,33.965,20.708,38.659,42.289a21.738,21.738,0,0,1,.35,2.856,136.766,136.766,0,0,1,.048,23.007c-2.112,24.145-22.159,44.567-46.289,47.35a89.874,89.874,0,0,1-10.531.591q-18.959-.045-37.918,0c-4.208.008-4.21.051-4.259,4.215-.011.96,0,1.92,0,2.88q0,162.23.015,324.459c0,7.793-1.059,6.94,6.826,6.942q93.594.032,187.188.015c2.22,0,4.465-.217,6.613.6v.96l-.96,1.92H133.212a1.987,1.987,0,0,0-1.92-.96Z" transform="translate(-131.292 -129.756)"/>
  <path class="cls-2" d="M1420.036,1098.75q188.635,0,377.27-.015c8.489,0,7.242,1.031,7.249-7.473q.059-77.518,0-155.036c0-6.63.953-5.33-5.122-8.02q-176.248-78.05-352.5-156.085c-7.745-3.429-15.54-6.753-23.213-10.34a7.228,7.228,0,0,0-7.2.085c-1.528.856-3.187,1.479-4.795,2.19q-185.468,82.1-370.936,164.2c-5.845,2.587-4.986,1.474-4.989,7.641q-.038,77.758,0,155.516c.005,8.264-1.178,7.327,7.444,7.328Q1231.641,1098.764,1420.036,1098.75Z" transform="translate(-131.292 -129.756)"/>
  <path class="cls-3" d="M1420.08,645.234H946.816q-2.4,0-4.8,0a52.4,52.4,0,0,0-9.061.829c-23.261,4.1-40.945,24.623-41.464,48-.107,4.8-.147,9.6.008,14.4a50.562,50.562,0,0,0,38.806,47.286,68.509,68.509,0,0,0,15.725,1.449q473.988,0,947.975,0c1.12,0,2.244.061,3.359-.014a87.29,87.29,0,0,0,9.558-.777c25.76-4.63,41.777-26.736,41.931-48.6.03-4.32.021-8.64,0-12.959-.078-21.481-15.077-41.7-36.973-47.767a61.486,61.486,0,0,0-16.617-1.868Q1657.674,645.249,1420.08,645.234Z" transform="translate(-131.292 -129.756)"/>
  <path class="cls-2" d="M1223.6,760.233q-90.711,0-181.423.008c-7.19,0-6.377-.707-6.38,6.447q-.029,77.033-.01,154.065c0,1.12-.018,2.24.014,3.359.075,2.6.3,2.735,2.865,1.7q1.556-.628,3.091-1.31,31.346-13.881,62.689-27.768,150.6-66.67,301.2-133.34,1.97-.872,3.894-1.847a.854.854,0,0,0,.4-.687.828.828,0,0,0-.6-.52q-2.635-.105-5.273-.105Q1313.83,760.23,1223.6,760.233Z" transform="translate(-131.292 -129.756)"/>
  <path class="cls-2" d="M1617.157,760.233q-90.445,0-180.89,0c-1.6,0-3.2.011-4.8.042a3.039,3.039,0,0,0-.923.211c-.1.036-.191.206-.223.331s-.049.4.016.429c1.421.722,2.833,1.47,4.289,2.115q87.218,38.619,174.443,77.22,94.892,42.006,189.782,84.017c6.251,2.767,5.716,2.97,5.717-3.593q.01-77.49,0-154.98c0-1.279-.02-2.559-.033-3.838a1.658,1.658,0,0,0-1.7-1.882c-1.6-.067-3.2-.071-4.8-.071Q1707.6,760.231,1617.157,760.233Z" transform="translate(-131.292 -129.756)"/>
  <path class="cls-4" d="M990.665,929.467q0,63.567,0,127.134,0,18.95.01,37.9c.008,4.179.052,4.228,4.3,4.238,11.194.027,22.388.01,33.582.006.8,0,1.6-.019,2.4-.063a1.668,1.668,0,0,0,1.8-1.768q.052-2.637.055-5.275,0-126.894,0-253.788,0-35.981-.005-71.962c0-1.437-.04-2.876-.13-4.31a1.255,1.255,0,0,0-1.242-1.2c-.953-.086-1.912-.136-2.868-.136q-16.791-.014-33.583,0c-.8,0-1.6.01-2.4.062-1.077.07-1.817.571-1.853,1.739q-.073,2.4-.07,4.795Q990.663,848.149,990.665,929.467Z" transform="translate(-131.292 -129.756)"/>
  <path class="cls-4" d="M1849.615,929.92q0-81.593,0-163.186,0-2.4-.075-4.8a1.5,1.5,0,0,0-1.449-1.583c-1.272-.106-2.554-.116-3.832-.117-9.919-.008-19.838-.042-29.757.007-8.035.039-6.951-.917-6.953,6.8q-.035,162.466-.015,324.933c0,1.28-.026,2.561.014,3.839.077,2.488.362,2.793,2.706,2.908.958.047,1.919.025,2.879.025q15.359,0,30.717,0c1.12,0,2.242.024,3.359-.039,1.855-.1,2.3-.511,2.372-2.245.067-1.6.036-3.2.036-4.8Q1849.615,1010.793,1849.615,929.92Z" transform="translate(-131.292 -129.756)"/>
  <path class="cls-5" d="M1142.907,575.913q-31.425,0-62.849,0c-1.438,0-2.881,0-4.312.11a1.536,1.536,0,0,0-1.474,1.581c-.045.8-.08,1.6-.081,2.395-.006,7.676-.025,15.352.006,23.029.015,3.821.059,3.824,4.111,3.872,1.119.013,2.239,0,3.358,0h118.5c1.279,0,2.559-.014,3.838.013a9.711,9.711,0,0,1,1.9.176,1.5,1.5,0,0,1,1.2,1.33,1.171,1.171,0,0,1-1.139,1.278c-1.593.1-3.191.146-4.788.146q-60.21.011-120.421.007c-1.439,0-2.88-.027-4.317.034-1.791.075-2.118.445-2.224,2.369-.044.8-.028,1.6-.028,2.4q0,10.795,0,21.59c-.006,5.005-.177,4.952,5.038,4.951q62.609-.013,125.218-.026a48.961,48.961,0,0,0,6.2-.483,32.6,32.6,0,0,0,5.945-63.055,35.315,35.315,0,0,0-11.79-1.732Q1173.851,575.937,1142.907,575.913Z" transform="translate(-131.292 -129.756)"/>
  <path class="cls-6" d="M1143.744,506.793q-31.185,0-62.371,0c-1.439,0-2.879.005-4.316.067a1.7,1.7,0,0,0-1.845,1.747c-.041.958-.064,1.917-.065,2.876q-.008,10.555,0,21.11c.006,5.515-.365,5.186,5.2,5.19h2.4q59.012,0,118.024,0c1.439,0,2.88-.008,4.317.053a2.422,2.422,0,0,1,1.319.41,1.654,1.654,0,0,1,.649,1.151c-.017.376-.443,1.015-.745,1.049a42.02,42.02,0,0,1-4.763.275q-59.732.019-119.464.01c-1.439,0-2.88-.032-4.318.018-2.2.076-2.579.363-2.589,2.492q-.061,13.193,0,26.387c.008,1.868.476,2.284,2.226,2.4.956.062,1.918.043,2.877.043q61.891,0,123.782-.021a40.227,40.227,0,0,0,6.678-.529c12.99-2.207,21.935-9.616,26.031-22.01,4.1-12.412,1.314-23.751-7.861-33.175a31.107,31.107,0,0,0-23.284-9.564C1185,506.838,1164.375,506.794,1143.744,506.793Z" transform="translate(-131.292 -129.756)"/>
  <path class="cls-7" d="M1790.849,597.033q-37.194,0-74.387,0a45.96,45.96,0,0,0-4.794.115c-4.607.485-7.57,3.049-9.067,7.4a14.239,14.239,0,0,0-.577,4.735q.007,9.6,0,19.2c0,1.12-.051,2.244.033,3.358A10.785,10.785,0,0,0,1712.6,642.25c.638.04,1.279.017,1.919.017,50.711,0,101.423-.069,152.133.087,6.387.02,12.917-3.717,12.516-12.408-.007-.16,0-.32,0-.48,0-6.559.012-13.118-.01-19.676a22.521,22.521,0,0,0-.232-3.82,10.3,10.3,0,0,0-9.851-8.866c-1.593-.114-3.2-.068-4.8-.069Q1827.563,597.03,1790.849,597.033Z" transform="translate(-131.292 -129.756)"/>
  <path class="cls-6" d="M1062.185,556.568h.016c0-4.157.038-8.314-.012-12.471-.038-3.188-.164-3.317-3.205-3.346-4.636-.045-9.273-.02-13.91-.012-2.078,0-4.168-.1-6.232.081-8.646.748-14.953,7.563-14.8,15.89.149,8.375,6.541,14.929,15.371,15.29,6.7.274,13.428.088,20.143.043,2.122-.014,2.585-.464,2.616-2.525C1062.229,565.2,1062.185,560.885,1062.185,556.568Z" transform="translate(-131.292 -129.756)"/>
  <path class="cls-6" d="M1062.173,522.707h.01c0-4.465.038-8.931-.017-13.4-.026-2.058-.442-2.471-2.606-2.484-7.017-.042-14.034-.053-21.05.01-7.062.063-14.309,6.551-14.48,15.042-.165,8.19,6.085,15.443,14.178,15.8,7.322.322,14.668.091,22,.054,1.452-.007,1.925-.524,1.944-2.109C1062.207,531.319,1062.173,527.012,1062.173,522.707Z" transform="translate(-131.292 -129.756)"/>
  <path class="cls-5" d="M1061.231,625.555h-.019c0-4.476.039-8.953-.02-13.429-.024-1.787-.492-2.228-2.344-2.238-6.395-.035-12.79-.047-19.184.036a17.012,17.012,0,0,0-4.235.722,15.51,15.51,0,0,0,3.631,30.457c6.54.307,13.107.1,19.661.052,2.006-.014,2.462-.513,2.491-2.651C1061.272,634.189,1061.231,629.872,1061.231,625.555Z" transform="translate(-131.292 -129.756)"/>
  <path class="cls-5" d="M1061.218,591.673c0-4.465.037-8.931-.018-13.395-.022-1.8-.506-2.308-2.274-2.319-6.857-.039-13.723-.225-20.568.063-8.154.343-14.427,7.4-14.33,15.626.093,7.958,6.418,14.87,14.331,15.178,6.847.266,13.712.085,20.569.044,1.858-.011,2.249-.408,2.273-2.28C1061.257,600.285,1061.218,595.979,1061.218,591.673Z" transform="translate(-131.292 -129.756)"/>
  <path class="cls-8" d="M1065.2,556.481h-.008c0,3.816-.024,7.633.006,11.449.033,4.136.2,4.278,4.3,4.133.159-.006.318-.009.476-.019,1.6-.105,2.029-.468,2.144-1.926.062-.791.048-1.589.048-2.384,0-7.633.02-15.266-.006-22.9-.014-4.167-.1-4.215-4.291-4.092-2.381.07-2.626.26-2.658,2.857C1065.164,547.893,1065.2,552.187,1065.2,556.481Z" transform="translate(-131.292 -129.756)"/>
  <path class="cls-3" d="M1071.182,625.722h.033q0-5.486,0-10.972c.006-5.363.247-4.995-5.41-4.819a1.481,1.481,0,0,0-1.482,1.523c-.078.789-.084,1.587-.084,2.381q-.008,11.688,0,23.376a20.507,20.507,0,0,0,.086,2.381,1.537,1.537,0,0,0,1.522,1.513c1.11.053,2.225.091,3.334.04,1.486-.069,1.967-.512,1.984-2.066C1071.214,634.627,1071.182,630.174,1071.182,625.722Z" transform="translate(-131.292 -129.756)"/>
  <path class="cls-8" d="M1072.144,522.355h.031c0-3.518.008-7.035,0-10.552-.015-5.354.444-5.124-5.354-4.931a1.45,1.45,0,0,0-1.529,1.478q-.09,1.434-.092,2.873c-.007,7.355-.02,14.709,0,22.064.014,4.7.109,4.767,4.877,4.473,1.641-.1,2.031-.385,2.049-1.976C1072.177,531.309,1072.144,526.832,1072.144,522.355Z" transform="translate(-131.292 -129.756)"/>
  <path class="cls-3" d="M1071.188,591.367h.027c0-.8,0-1.6,0-2.4-.01-3.677.012-7.355-.047-11.031-.024-1.5-.5-1.919-2.063-1.975-1.115-.04-2.236-.011-3.351.055a1.466,1.466,0,0,0-1.441,1.56c-.051.8-.073,1.6-.074,2.395q-.008,11.512,0,23.023c0,.8.027,1.6.092,2.393a1.453,1.453,0,0,0,1.539,1.459c1.117.038,2.239.067,3.355.019,1.511-.065,1.929-.452,1.946-2.069C1071.218,600.32,1071.188,595.843,1071.188,591.367Z" transform="translate(-131.292 -129.756)"/>
  <path class="cls-9" d="M1416.732,129.756c.033.455.074.909.1,1.364.042.879-.319,1.483-1.242,1.547-1.069.074-1.737-.381-1.726-1.553,0-.453,0-.905-.008-1.358Z" transform="translate(-131.292 -129.756)"/>
  <path class="cls-9" d="M1405.212,129.756a7.905,7.905,0,0,0,.582.728,1.316,1.316,0,0,1,.145,2.035,1.515,1.515,0,0,1-2.127.066c-.715-.6-.59-1.334,0-2.024a4.3,4.3,0,0,0,.439-.8Z" transform="translate(-131.292 -129.756)"/>
  <path class="cls-1" d="M694.985,700.189q0,99.588,0,199.176c0,1.919-.046,3.839-.071,5.758A18.883,18.883,0,0,1,678.491,923a45.512,45.512,0,0,1-5.262.266q-17.038.034-34.076.012H586.391q-100.772,0-201.545-.015a43.936,43.936,0,0,1-6.69-.383,18.568,18.568,0,0,1-15.672-16.447,65.624,65.624,0,0,1-.29-6.707q-.127-33.833-.209-67.666-.15-55.91-.289-111.821-.095-37.914-.178-75.828-.046-18.717-.116-37.433-.174-38.149-.381-76.3c-.022-4.319-.073-8.638-.117-12.956a10.039,10.039,0,0,0-.669-4.224,8.277,8.277,0,0,0-13.278-2.433,29.553,29.553,0,0,0-2.918,3.8q-21.467,30.072-42.919,60.155c-.836,1.172-1.643,2.369-2.55,3.484a19.159,19.159,0,0,1-28.095,2.253c-.951-.854-1.831-1.788-2.736-2.693q-43.1-43.1-86.2-86.2c-.792-.792-1.607-1.562-2.364-2.387a19.135,19.135,0,0,1,.043-26.513c.758-.823,1.573-1.594,2.365-2.385Q287.975,354.178,394.346,247.763c7.315-7.323,15.752-12.476,25.862-14.772a59.62,59.62,0,0,1,13.329-1.39q41.515.048,83.03.014c1.44,0,2.88-.006,4.318-.054a1.651,1.651,0,0,0,1.748-1.825c.032-3.839.035-7.678.055-11.517.008-1.6-.062-3.207.072-4.8a4.447,4.447,0,0,1,3.771-4.348,27.376,27.376,0,0,1,3.322-.453,17.483,17.483,0,0,0,15.123-17.612,17.716,17.716,0,0,0-15.917-17,17.522,17.522,0,0,0-18.645,14.454c-.2,1.261-.2,2.561-.481,3.8a4.713,4.713,0,0,1-5.174,3.981,4.789,4.789,0,0,1-4.59-4.667,20.941,20.941,0,0,1,1.109-8.038,27.3,27.3,0,0,1,27.643-19.45c12.369.63,23.1,9.465,25.42,21.67,2.945,15.514-5.9,26.808-16.717,31.157a17.771,17.771,0,0,1-3.186,1.043,2.043,2.043,0,0,0-1.849,2.326c.013,3.039-.036,6.08.02,9.118.035,1.868.328,2.105,2.347,2.183,1.438.055,2.879.027,4.319.027q41.275,0,82.55,0a51.7,51.7,0,0,1,31.419,10.055,69.343,69.343,0,0,1,7.878,7.012Q679.274,266.851,697.434,285q87.218,87.218,174.432,174.441c1.469,1.47,2.973,2.922,4.291,4.522a19.209,19.209,0,0,1-.786,25.426c-.762.82-1.575,1.593-2.367,2.384l-84.5,84.5c-.905.905-1.8,1.822-2.724,2.706-7.846,7.5-21.921,6.7-28.652-3.07-1-1.444-1.842-3-2.7-4.53q-21.637-38.74-43.261-77.488a47.848,47.848,0,0,0-2.421-4.137c-1.978-2.832-4.805-3.56-8.048-2.858a7.251,7.251,0,0,0-5.6,6.438,41.2,41.2,0,0,0-.1,4.793Q694.983,599.161,694.985,700.189Z" transform="translate(-131.292 -129.756)"/>
  <path class="cls-5" d="M518.942,616.348h38.393c5.919,0,11.838.024,17.757-.021,2.479-.019,2.754-.342,2.874-2.724.032-.639.019-1.279.019-1.919q0-16.557,0-33.114a134.95,134.95,0,0,0-2.716-26.681,144.246,144.246,0,0,0-17.212-44.515Q482.811,378.826,407.624,250.246c-1.2-2.046-2.066-4.331-3.909-5.963-2.77.728-4.328,3.053-6.321,4.8-.24.211-.454.45-.681.677q-93.49,93.491-186.971,186.99c-1.118,1.118-3.1,2.143-2.928,3.561.158,1.3,1.855,2.467,2.976,3.591q22.037,22.079,44.1,44.126c1.018,1.018,2.064,2.012,3.019,3.087.518.582,1.02,1.3.325,2.112-.6.7-1.614.668-2.542-.169-1.068-.964-2.075-2-3.092-3.013q-22.06-22.055-44.122-44.108c-4.079-4.071-3-3.835-7.2.282a1.516,1.516,0,0,0-.1,2.462c1.024,1.012,2.021,2.051,3.039,3.069q35.8,35.8,71.6,71.607c1.016,1.016,2.013,2.056,2.959,3.137a1.257,1.257,0,0,1-.082,1.729,1.124,1.124,0,0,1-1.68.235c-1.217-1.029-2.386-2.122-3.514-3.25q-35.641-35.622-71.268-71.258-1.527-1.527-3.068-3.039a1.584,1.584,0,0,0-2.5-.067c-4.976,4.977-10.145,9.781-14.858,15a15.833,15.833,0,0,0-.145,20.71c.913,1.107,1.971,2.1,2.989,3.114q43.264,43.271,86.534,86.536c.792.792,1.551,1.621,2.39,2.36,7.312,6.438,17.757,5.562,23.741-2.167,3.522-4.549,6.75-9.327,10.061-14.037,1.252-1.781,1.213-2.025-.4-3.648q-8.965-9.02-17.977-17.993c-.9-.9-1.82-1.8-2.675-2.752-.794-.883-.832-2.052-.141-2.536.846-.592,1.512-.069,2.1.454.836.743,1.615,1.551,2.407,2.342q8.149,8.14,16.3,16.282c4.052,4.033,3.109,3.956,6.618-.863.917-1.26.823-1.661-.334-2.9-.872-.936-1.8-1.822-2.7-2.727L276.314,514.76c-3.846-3.846-7.7-7.68-11.527-11.548a14.712,14.712,0,0,1-2.1-2.582,1.278,1.278,0,0,1,.5-1.683,1.417,1.417,0,0,1,1.3-.014,38.568,38.568,0,0,1,3.191,2.886q21.9,21.876,43.781,43.77c.9.9,1.793,1.827,2.728,2.7,1.017.95,1.478.918,2.325-.159.692-.879,1.328-1.8,1.978-2.713q11.7-16.4,23.409-32.808a39.5,39.5,0,0,1,2.62-3.427,10.068,10.068,0,0,1,5.729-3.251,11.166,11.166,0,0,1,13.686,10.947c-.15,4.791.126,9.593.144,14.391q.122,33.351.209,66.7c.018,5.278.053,10.557.14,15.834.035,2.1.429,2.492,2.566,2.514,4.959.051,9.929-.176,14.873.1,3.587.2,6.3-.418,7.242-4.33,4.823-8.661,15.465-13.935,25.284-11.286,2.62.707,5.276,1.295,7.865,2.1a217.611,217.611,0,0,1,25.8,10.308c1.307.6,2.63,1.16,3.938,1.755.348.158.588.088.7-.313a.621.621,0,0,0-.06-.467c-.563-.774-1.137-1.542-1.732-2.292-4.478-5.638-8.888-11.331-12.852-17.343-2.462-3.734-4.779-7.572-6.992-11.46a23.255,23.255,0,0,1-3.039-8.041,23.677,23.677,0,0,1,23.09-27.554c13.91-.31,26.507,12.072,23.58,27.77-.555,2.979-1.332,5.928-2.182,8.84a229.9,229.9,0,0,1-10.265,27.368c-2.382,5.462-2.009,4.87,3.435,4.874Q492.307,616.363,518.942,616.348Z" transform="translate(-131.292 -129.756)"/>
  <path class="cls-5" d="M577.985,770q0-71.743,0-143.486c0-1.44.026-2.88-.019-4.319-.081-2.58-.277-2.785-2.662-2.866-1.118-.038-2.239-.015-3.359-.015H466.369c-.96,0-1.92-.016-2.879.008-2.582.065-2.781.433-1.327,2.8a100.677,100.677,0,0,0,14.131,18.12A72.78,72.78,0,0,0,495,654.319c11.841,6.04,24.207,7.787,37.225,4.628a79.231,79.231,0,0,0,14.861-5.318c1.011-.472,2.006-.991,3.048-1.384a1.144,1.144,0,0,1,1.547.708,1.575,1.575,0,0,1-.08,1.318,6.728,6.728,0,0,1-1.875,1.416,72.337,72.337,0,0,1-11.5,4.774c-10.751,3.39-21.607,4.139-32.61,1.2A65.585,65.585,0,0,1,479.708,647.6a101.365,101.365,0,0,1-18.788-21.689c-.7-1.068-1.389-2.146-2.157-3.163a.682.682,0,0,0-1.162.04,11.06,11.06,0,0,0-.963,1.649c-8.257,17.663-8.974,35.432-.571,53.251,4.575,9.7,11.387,17.716,19.353,24.8a129.567,129.567,0,0,0,17.726,13.1,16.559,16.559,0,0,1,2.64,2.021,1.414,1.414,0,0,1,.019,1.3,1.515,1.515,0,0,1-1.121.732,3.97,3.97,0,0,1-1.779-.642c-2.57-1.618-5.151-3.225-7.647-4.953-9.53-6.6-18.173-14.163-25.013-23.6q-20.712-28.563-8.74-61.806c.433-1.2.853-2.4,1.222-3.618.034-.111-.431-.538-.528-.5a8.739,8.739,0,0,0-1.667.9c-4.561,3.244-9.056,6.581-13.673,9.743a113.856,113.856,0,0,1-16.089,9.5,26.931,26.931,0,0,1-8.151,2.694,23.709,23.709,0,0,1-26.668-23.621c-.016-1.357.9-3.032-.353-4.037-1.13-.906-2.782-.348-4.2-.384-2.078-.053-4.159-.021-6.238-.012-3.038.013-6.077.024-9.115.068a1.436,1.436,0,0,0-1.551,1.443c-.068.956-.1,1.916-.094,2.874.023,7.038.071,14.075.087,21.113q.089,37.189.167,74.379.172,56.621.386,113.242.112,33.829.205,67.658c.006,1.759,0,3.524.146,5.274a15.868,15.868,0,0,0,15,14.761c1.434.1,2.878.061,4.317.061q93.578,0,187.155-.008c6.83,0,6.1.72,6.107-6.214Q578,841.982,577.985,770Z" transform="translate(-131.292 -129.756)"/>
  <path class="cls-5" d="M692.015,554.082q0-28.318,0-56.636c0-1.28-.057-2.564.025-3.839a10.6,10.6,0,0,1,19.307-5.431c.905,1.312,1.653,2.736,2.432,4.132q13.327,23.877,26.644,47.76c.7,1.256,1.432,2.5,2.167,3.731.566.953,1.317.755,1.974.172.956-.848,1.841-1.777,2.746-2.682q16.123-16.119,32.243-32.241,3.394-3.394,6.792-6.783a18.889,18.889,0,0,1,1.78-1.6,1.336,1.336,0,0,1,1.745.1,1.147,1.147,0,0,1,.264,1.687,40.665,40.665,0,0,1-2.886,3.192q-16.106,16.136-32.235,32.248c-2.828,2.828-5.674,5.639-8.474,8.5-1.526,1.557-1.529,1.773-.494,3.745.52.99,1.086,1.96,1.681,2.906a1.108,1.108,0,0,0,1.955.215c2.631-2.572,5.214-5.192,7.848-7.761a11.348,11.348,0,0,1,2.237-1.733c.262-.15.907.14,1.238.4a.946.946,0,0,1,.331,1.273,16.3,16.3,0,0,1-1.742,2.246c-2.684,2.746-5.4,5.458-8.127,8.163a2.208,2.208,0,0,0-.585,2.97c2.761,4.868,5.29,9.88,8.27,14.609,5.381,8.539,16.385,10.122,24.184,3.661,1.351-1.119,2.574-2.4,3.818-3.641q41.412-41.4,82.814-82.807c.792-.792,1.562-1.607,2.372-2.379a16.52,16.52,0,0,0,.037-24.006c-4.258-4.111-8.379-8.363-12.564-12.549a13.057,13.057,0,0,0-1.052-.98,1.454,1.454,0,0,0-2.125.022c-1.036,1-2.072,2-3.09,3.016q-24.439,24.433-48.873,48.87-15.951,15.951-31.909,31.9a35.2,35.2,0,0,1-3.21,2.856,1.461,1.461,0,0,1-1.314-.068,1.339,1.339,0,0,1-.461-1.7,3.768,3.768,0,0,1,.816-1.161c.992-1.043,2.014-2.058,3.031-3.076q40.046-40.05,80.084-80.106c4.445-4.451,4.393-3.2-.261-7.889a4.565,4.565,0,0,0-.373-.3.944.944,0,0,0-1.284-.048c-.483.412-.874.932-1.325,1.384Q824.038,468.863,799.6,493.3c-.79.79-1.591,1.578-2.455,2.284a1.374,1.374,0,0,1-2.1-.153,1.29,1.29,0,0,1,.035-1.746c.857-.948,1.734-1.88,2.638-2.784q23.581-23.594,47.166-47.183c1.114-1.115,2.161-2.3,3.24-3.448-1.085-1.17-2.134-2.376-3.261-3.5q-92.643-92.662-185.3-185.31c-.9-.9-1.8-1.825-2.738-2.69-.994-.913-1.582-.847-2.309.239-.622.929-1.194,1.894-1.771,2.852q-46.818,77.657-93.615,155.326c-3.15,5.232-3.183,3.345.025,8.842q26.48,45.372,53.036,90.7a144.5,144.5,0,0,1,16.743,43.19,151.66,151.66,0,0,1,3.166,30.006c.109,10.4.019,20.8.031,31.2,0,1.276.048,2.555.156,3.826a1.377,1.377,0,0,0,1.21,1.275,11.824,11.824,0,0,0,1.911.124q26.638.009,53.276-.006c3.165,0,3.242-.139,3.326-3.215.03-1.119.009-2.24.009-3.36Q692.015,581.92,692.015,554.082Z" transform="translate(-131.292 -129.756)"/>
  <path class="cls-10" d="M629.058,590.554c0-3.52.044-7.041-.009-10.56a152.879,152.879,0,0,0-1.818-22.938A146.121,146.121,0,0,0,608.8,506.93Q530.364,373,452.052,238.992c-.484-.828-1-1.638-1.451-2.485a3.51,3.51,0,0,0-3.536-1.925c-5.439.07-10.885-.117-16.318.076a47.947,47.947,0,0,0-19.907,4.789c-5.267,2.623-4.726,2.162-1.977,6.871q23.1,39.571,46.263,79.106Q508.061,415.911,561,506.4a143.616,143.616,0,0,1,20.034,73.63c.027,10.24,0,20.48.014,30.72,0,1.436.064,2.876.194,4.3a1.317,1.317,0,0,0,1.268,1.2c.794.073,1.6.091,2.395.091q20.16.007,40.319,0c.8,0,1.6-.023,2.393-.1a1.32,1.32,0,0,0,1.246-1.224c.126-1.269.183-2.55.187-3.826Q629.079,600.874,629.058,590.554Z" transform="translate(-131.292 -129.756)"/>
  <path class="cls-5" d="M632.12,769.593q0,48.475,0,96.951,0,24.718.01,49.435c.005,4.148.053,4.193,4.283,4.2q19.2.034,38.4,0c.8,0,1.6-.018,2.4-.088a16.045,16.045,0,0,0,14.7-14.618c.129-1.43.109-2.877.109-4.316q.007-138.227,0-276.453c0-1.279-.02-2.559-.081-3.836a1.434,1.434,0,0,0-1.511-1.483c-1.438-.056-2.877-.073-4.316-.073-15.839,0-31.677-.035-47.515.011-7.274.021-6.453-.957-6.456,6.279Q632.1,697.6,632.12,769.593Z" transform="translate(-131.292 -129.756)"/>
  <path class="cls-10" d="M581.042,770.079q0,61.675,0,123.349c0,7.519-.023,15.039.011,22.558.019,4.143.062,4.187,4.342,4.195q19.678.034,39.357,0a24.457,24.457,0,0,0,2.872-.131,1.384,1.384,0,0,0,1.27-1.241c.121-1.271.156-2.553.159-3.831.015-6.079.007-12.159.007-18.238q0-135.108,0-270.216c0-1.759.008-3.521-.075-5.277-.073-1.544-.428-1.841-2.116-1.909-1.278-.052-2.559-.025-3.839-.025-11.679,0-23.358-.041-35.037.035-2.178.014-4.884-1.008-6.417.677-1.321,1.452-.516,4-.516,6.065Q581.029,698.085,581.042,770.079Z" transform="translate(-131.292 -129.756)"/>
  <path class="cls-8" d="M652.568,245.772a2.955,2.955,0,0,0-1.485-1.89,47.464,47.464,0,0,0-20.615-8.556c-6.359-1.036-12.768-.582-19.157-.763a5,5,0,0,0-5.028,2.754c-3.794,6.483-7.764,12.862-11.664,19.283L531.36,360.743c-.5.82-1,1.636-1.5,2.455a2.472,2.472,0,0,0-.025,2.711c.564.967,1.121,1.937,1.686,2.9,6.535,11.183,13.047,22.379,19.631,33.533,1.036,1.755,1.715,3.784,3.431,5.093,2.22-1,2.769-3.317,3.868-5.137q45.513-75.352,90.938-150.758c.908-1.506,1.814-3.015,2.69-4.54A8.471,8.471,0,0,0,652.568,245.772Z" transform="translate(-131.292 -129.756)"/>
  <path class="cls-11" d="M528.639,255.273H471.555c-1.279,0-2.56-.023-3.837.025-1.861.07-2.144.655-1.193,2.415.38.7.812,1.377,1.215,2.067q28.565,48.841,57.128,97.683c2.52,4.31,2.356,4.2,4.814.154q29.75-48.974,59.5-97.947a31.783,31.783,0,0,0,1.634-2.922.878.878,0,0,0-.785-1.341c-1.431-.114-2.871-.13-4.308-.13Q557.182,255.267,528.639,255.273Z" transform="translate(-131.292 -129.756)"/>
  <path class="cls-5" d="M472.24,571.265a35.221,35.221,0,0,0-.394-4.006,20.763,20.763,0,0,0-41.137,4.1c-.013,4.009,1.486,7.481,3.319,10.85,6.13,11.265,14.015,21.3,22.066,31.214.829,1.02,1.531.917,2.074-.3,5.06-11.37,9.767-22.875,12.829-34.975C471.581,575.832,471.854,573.444,472.24,571.265Z" transform="translate(-131.292 -129.756)"/>
  <path class="cls-5" d="M421.212,619.314q-13.172,0-26.343,0c-1.276,0-2.553.018-3.829.063a1.622,1.622,0,0,0-1.66,1.391,10.634,10.634,0,0,0-.241,1.413c-1.217,15.6,14.378,26.544,27.841,20.851a78.143,78.143,0,0,0,8.113-4.084,230.8,230.8,0,0,0,25.679-17.541,9.835,9.835,0,0,0,1.042-.971.627.627,0,0,0,.147-.4.55.55,0,0,0-.583-.614c-.8-.034-1.59-.1-2.385-.1Q435.1,619.307,421.212,619.314Z" transform="translate(-131.292 -129.756)"/>
  <path class="cls-11" d="M568.439,234.6q-15.322,0-30.645.006c-1.274,0-2.55.047-3.821.139a1.256,1.256,0,0,0-1.244,1.214c-.072,2.547-.085,5.1-.068,7.644a1.44,1.44,0,0,0,1.535,1.47c1.433.078,2.87.084,4.306.085q25.617.007,51.234.006c2.066,0,4.172-.214,6.062.937a1.21,1.21,0,0,0,1.7-.3c2.011-3.249,3.973-6.53,5.857-9.854.374-.66-.189-1.214-.928-1.258-1.273-.076-2.55-.083-3.826-.084Q583.522,234.594,568.439,234.6Z" transform="translate(-131.292 -129.756)"/>
  <path class="cls-11" d="M487.926,234.6q-14.61,0-29.22,0c-1.275,0-2.553.024-3.825.109a.9.9,0,0,0-.813,1.35c1.764,3.212,3.627,6.368,5.45,9.548a1.144,1.144,0,0,0,1.591.6c2.205-1.348,4.622-1.043,7-1.045q24.429-.017,48.859-.011c1.434,0,2.871-.033,4.3-.137a1.283,1.283,0,0,0,1.264-1.2c.061-2.548.078-5.1.013-7.647a1.526,1.526,0,0,0-1.568-1.492c-1.274-.074-2.553-.072-3.83-.072Q502.536,234.6,487.926,234.6Z" transform="translate(-131.292 -129.756)"/>
  <path class="cls-5" d="M417.827,616.348q4.787,0,9.574,0c5.425,0,10.851,0,16.276-.028.413,0,1.093-.146,1.186-.4.3-.812-.463-1.055-1.017-1.293-3.955-1.694-7.9-3.426-11.89-5.026a114.978,114.978,0,0,0-18.641-5.972c-7.046-1.51-12.876.663-17.978,5.382a14.488,14.488,0,0,0-4.094,5.81c-.22.634-.095,1.291.743,1.414a13.247,13.247,0,0,0,1.905.1Q405.859,616.352,417.827,616.348Z" transform="translate(-131.292 -129.756)"/>
  <path class="cls-1" d="M1452.016,355.335a110,110,0,0,1-33.051-6.212c-8.635-2.932-5.911-3.023-14.631-.018a108.746,108.746,0,0,1-27.586,5.95c-22.656,1.645-41.851-5.541-56.975-22.8a97.252,97.252,0,0,1-16.319-26.975,131.986,131.986,0,0,1-7.309-23.805c-.132-.626-.25-1.256-.341-1.888-.341-2.389-.105-2.885,2.042-3.574,2.434-.782,4.886-1.523,7.363-2.149a132.56,132.56,0,0,1,25.081-3.89c.639-.036,1.281-.047,1.914-.128a1.292,1.292,0,0,0,1.21-1.241q.331-3.824.605-7.653a118.645,118.645,0,0,1,4.668-25.423c.182-.612.323-1.238.524-1.843a1.742,1.742,0,0,1,1.82-1.263,23.07,23.07,0,0,1,3.33.382,124.99,124.99,0,0,1,35.751,12.072c.705.372,1.418.735,2.148,1.057a1.348,1.348,0,0,0,1.706-.436c.655-.9,1.194-1.892,1.769-2.852a123.275,123.275,0,0,1,23.536-28.308c.594-.535,1.159-1.106,1.781-1.607a2.006,2.006,0,0,1,2.644-.058c.764.575,1.446,1.259,2.158,1.9a124.2,124.2,0,0,1,22.963,27.553c.5.819.968,1.657,1.488,2.463.469.728,1.052,1.153,1.975.657.985-.529,2.006-.99,3.007-1.489a128.028,128.028,0,0,1,34.088-11.068c.314-.058.633-.094.95-.135,2.984-.392,3.275-.245,4.116,2.532a114.015,114.015,0,0,1,3.354,14.473,127.886,127.886,0,0,1,1.838,17.642c.062,2.493.208,2.6,2.837,2.743a129.167,129.167,0,0,1,31.542,5.663c3.891,1.22,3.952,1.227,3.137,5.318a120.8,120.8,0,0,1-15.4,40.08A78.721,78.721,0,0,1,1496.4,339.34C1483.761,350.341,1468.919,355.278,1452.016,355.335Z" transform="translate(-131.292 -129.756)"/>
  <path class="cls-12" d="M1371.518,352.344a103.934,103.934,0,0,0,28.958-5.184,4.283,4.283,0,0,0,.884-.368,5.789,5.789,0,0,0,.713-.588,2.611,2.611,0,0,0-.724-.452c-1.559-.348-3.127-.654-4.693-.974a98.532,98.532,0,0,1-27.492-9.6c-12.923-7-22.7-16.992-28.781-30.457a75.584,75.584,0,0,1-6.237-24.017c-.169-1.75-.243-3.511-.434-5.259-.257-2.349-.556-2.574-3.07-2.513-.8.019-1.6.077-2.393.159a134.127,134.127,0,0,0-17.53,2.61c-3.414.815-6.8,1.75-10.171,2.736-1.527.447-1.768.89-1.377,2.491,1.06,4.343,2.042,8.718,3.378,12.979,3.906,12.456,9.508,24.067,17.774,34.271C1333.2,344.077,1349.917,352.076,1371.518,352.344Z" transform="translate(-131.292 -129.756)"/>
  <path class="cls-12" d="M1452.228,352.348a66.845,66.845,0,0,0,9.084-.659,59.3,59.3,0,0,0,32.1-13.825,76.106,76.106,0,0,0,15.791-18.55,106.659,106.659,0,0,0,11.272-24.817c1.36-4.425,2.466-8.93,3.588-13.424.428-1.716.065-2.131-1.719-2.777-.6-.217-1.2-.43-1.818-.605a127.108,127.108,0,0,0-17.809-3.757c-3.639-.5-7.316-.739-10.983-.984-1.576-.105-1.983.322-2.1,1.911a112.8,112.8,0,0,1-1.82,14.261c-4.2,20.472-15.236,35.943-33.658,46.006a92.66,92.66,0,0,1-23.279,8.686c-2.953.7-5.935,1.278-8.9,1.943-.2.045-.374.332-.5.544-.034.057.133.3.257.368a7.775,7.775,0,0,0,1.3.605A106.825,106.825,0,0,0,1452.228,352.348Z" transform="translate(-131.292 -129.756)"/>
  <path class="cls-13" d="M1340.256,272.9c-.194,0-.514,0-.834,0-2.368.017-2.662.3-2.592,2.843a71.615,71.615,0,0,0,1.036,10.012c3.872,22.845,16.234,39.218,37.249,49.013a106.559,106.559,0,0,0,27.053,7.972,23.987,23.987,0,0,0,2.862.182c.416.021.618-.174.593-.547-.01-.148.019-.347-.064-.434-.55-.578-1.1-1.159-1.7-1.69a117.535,117.535,0,0,1-11.745-11.991c-10.585-12.57-17.492-26.714-18.284-43.391a4.608,4.608,0,0,0-2.952-4.366C1361.276,275.681,1351.01,273.584,1340.256,272.9Z" transform="translate(-131.292 -129.756)"/>
  <path class="cls-13" d="M1486.581,274.89c.041-1.575-.325-2.074-2.458-1.962-3.187.167-6.375.44-9.541.84a72.727,72.727,0,0,0-20.636,5.934,4.292,4.292,0,0,0-2.892,4.336c-.447,13.476-4.973,25.6-12.554,36.659a106.7,106.7,0,0,1-15.788,17.97c-1.055.975-2.122,1.94-3.143,2.95a1.02,1.02,0,0,0-.238.848c.049.17.5.355.736.32,1.736-.252,3.471-.521,5.193-.855a92.551,92.551,0,0,0,29.586-10.688,60.735,60.735,0,0,0,24.931-27.082C1484.039,295.059,1485.918,285.382,1486.581,274.89Z" transform="translate(-131.292 -129.756)"/>
  <path class="cls-12" d="M1437.966,246.908c-.4-.761-.738-1.48-1.143-2.159a121.2,121.2,0,0,0-22.392-27.368c-.352-.323-.729-.621-1.112-.908a1.35,1.35,0,0,0-1.753-.011,18.85,18.85,0,0,0-1.475,1.222,122.1,122.1,0,0,0-22.054,27.032c-.409.685-.77,1.4-1.157,2.1a1.584,1.584,0,0,0,.719,2.394c.547.327,1.054.722,1.582,1.082a71.715,71.715,0,0,1,21,21.4c.252.406.549.785.84,1.166.407.532.835.26,1.162-.06a6.13,6.13,0,0,0,.856-1.139,72.393,72.393,0,0,1,22.235-22.172,17.2,17.2,0,0,0,1.947-1.389A4.956,4.956,0,0,0,1437.966,246.908Z" transform="translate(-131.292 -129.756)"/>
  <path class="cls-12" d="M1336.712,263.18c0,1.276,0,2.552,0,3.828-.007,2.466.248,2.759,2.624,2.915.637.042,1.278.014,1.916.052a80.03,80.03,0,0,1,29.168,6.94c.578.268,1.143.568,1.731.812.935.389,1.606.107,1.8-.761a14.98,14.98,0,0,0,.315-1.885,72.173,72.173,0,0,1,5.894-21.623c.315-.733.672-1.449.96-2.192.6-1.539.482-2-.823-2.784-1.091-.658-2.229-1.242-3.367-1.817a117.433,117.433,0,0,0-26.057-9.384c-2.483-.588-5-1.052-7.5-1.546a1.552,1.552,0,0,0-1.854,1.11,22.107,22.107,0,0,0-.71,2.279A129.675,129.675,0,0,0,1336.712,263.18Z" transform="translate(-131.292 -129.756)"/>
  <path class="cls-12" d="M1486.609,265.211c-.236-2.549-.446-5.417-.778-8.272a115.762,115.762,0,0,0-3.807-19.235c-.591-2.016-.9-2.175-3.115-1.779a119.274,119.274,0,0,0-32.187,10.531c-5.12,2.538-4.17,2.009-2.363,6.2.442,1.026.855,2.064,1.276,3.1a72.817,72.817,0,0,1,5.062,19.885c.164,1.552.78,1.858,2.246,1.194a78.88,78.88,0,0,1,29.667-6.854C1486.883,269.807,1486.666,269.74,1486.609,265.211Z" transform="translate(-131.292 -129.756)"/>
  <path class="cls-13" d="M1447.806,277.451a69.825,69.825,0,0,0-7.149-25.458,2.2,2.2,0,0,0-.224-.423,1.391,1.391,0,0,0-2.052-.429,70.621,70.621,0,0,0-23.333,23.007,6.037,6.037,0,0,0-.433,6.236,64,64,0,0,1,5.165,25.654c0,1.117.045,2.234.06,3.351.005.39.2.574.62.5a.732.732,0,0,0,.39-.235,3.768,3.768,0,0,0,.552-.766c5.724-11.748,13.738-21.489,24.927-28.442A2.8,2.8,0,0,0,1447.806,277.451Z" transform="translate(-131.292 -129.756)"/>
  <path class="cls-13" d="M1377.077,277.137c-.241,3.075-.277,3.127,2.481,5.043a66.879,66.879,0,0,1,20.881,23.985c.526.985,1.011,1.993,1.558,2.966.219.389.506.9,1.067.6.191-.1.249-.561.263-.861.132-2.871.12-5.754.383-8.612a63.176,63.176,0,0,1,5.28-20.792,4.387,4.387,0,0,0-.333-4.465,68.465,68.465,0,0,0-22.183-22.809c-1.5-.975-2.034-.78-2.878,1.051A68.992,68.992,0,0,0,1377.077,277.137Z" transform="translate(-131.292 -129.756)"/>
  <path class="cls-14" d="M1447.7,288.284c.141-1.524.278-2.321.261-3.114a1.907,1.907,0,0,0-.467-1.218c-.426-.422-.909,0-1.283.248a58.687,58.687,0,0,0-16.256,16.066c-7.957,11.544-12.167,24.515-14.436,38.211-.074.446-.146,1.107.1,1.347.573.564,1.138.041,1.6-.361,9.278-7.978,17.393-16.942,23.212-27.794A59.4,59.4,0,0,0,1447.7,288.284Z" transform="translate(-131.292 -129.756)"/>
  <path class="cls-14" d="M1407.576,337.8c-.045-.316-.082-.634-.138-.948-2.056-11.57-5.6-22.613-11.677-32.745a61.944,61.944,0,0,0-15.4-17.543,22.86,22.86,0,0,0-1.979-1.334.941.941,0,0,0-1.316.837c0,.638.032,1.277.08,1.913a58.6,58.6,0,0,0,6.367,21.943c5.443,10.875,13.269,19.882,22.263,27.943a4,4,0,0,0,.8.528.511.511,0,0,0,.438.03A4.664,4.664,0,0,0,1407.576,337.8Z" transform="translate(-131.292 -129.756)"/>
  <path class="cls-14" d="M1416.81,307.121a64.79,64.79,0,0,0-2.986-20.221c-.427-1.367-.972-2.7-1.515-4.026a1.165,1.165,0,0,0-.7-.6c-.165-.044-.53.231-.627.444-.4.87-.762,1.759-1.068,2.664a67.5,67.5,0,0,0-3.476,25.5,107.364,107.364,0,0,0,3.752,22.661c.211.769.478,1.526.762,2.272a3.912,3.912,0,0,0,.507.754c.234-.21.552-.377.684-.638a9.519,9.519,0,0,0,.695-1.771A100.121,100.121,0,0,0,1416.81,307.121Z" transform="translate(-131.292 -129.756)"/>
  <path class="cls-15" d="M1663.674,574.916a60.471,60.471,0,0,1,11.481-.322,16.309,16.309,0,0,1,3.258.638,2.01,2.01,0,0,1,1.323,1.83,2.3,2.3,0,0,1-1.2,2.413,7.7,7.7,0,0,1-2.274.658,111.11,111.11,0,0,1-17.631,1.643c-.958.026-1.92-.066-2.875-.014-.572.031-1.345-.243-1.587.633-.2.737.393,1.146.766,1.614.7.874,1.451,1.7,2.179,2.551a101.294,101.294,0,0,1,8.026,10.742,7.187,7.187,0,0,1,1.428,3,2.5,2.5,0,0,1-.693,2.189,2.212,2.212,0,0,1-2.652.435,11.1,11.1,0,0,1-2.6-2.052,100.832,100.832,0,0,1-10.136-12.122c-.744-1.037-1.465-2.093-2.253-3.1-.539-.686-1.1-.47-1.433.216-.55,1.149-1.035,2.33-1.517,3.51a104.213,104.213,0,0,1-7.131,14.093,14.253,14.253,0,0,1-2,2.664,2.09,2.09,0,0,1-2.65.306,2.381,2.381,0,0,1-1.393-2.331A12.085,12.085,0,0,1,1633,600.9c1.756-4.108,3.584-8.186,5.395-12.27.323-.729.729-1.422,1.025-2.16a1.037,1.037,0,0,0-.074-.867.9.9,0,0,0-.8-.192c-3.81,1.177-7.6,2.413-11.416,3.574-1.677.51-3.385.938-5.1,1.3-1.79.377-3.131-.23-3.624-1.488-.517-1.321.057-2.712,1.675-3.508a53.384,53.384,0,0,1,5.714-2.461c4.058-1.438,8.166-2.733,12.234-4.144.379-.132.62-.664.924-1.01a4.014,4.014,0,0,0-.767-.535,125.875,125.875,0,0,1-15.215-7,27.211,27.211,0,0,1-3.223-2.058,2.476,2.476,0,0,1-.692-3.018,2.327,2.327,0,0,1,2.757-1.391,22.327,22.327,0,0,1,3.217.893,106.868,106.868,0,0,1,14.517,6.209c.712.361,1.414.746,2.144,1.066.274.12.841.2.887.1a2.353,2.353,0,0,0,.32-1.3c-.671-3.933-1.516-7.84-2.065-11.789a60.8,60.8,0,0,1-.466-8.118,2.462,2.462,0,0,1,4.7-.971,35.151,35.151,0,0,1,1.147,3.646,125.345,125.345,0,0,1,2.858,15.537.923.923,0,0,0,.466.671.941.941,0,0,0,.821-.267c.65-.9,1.237-1.853,1.828-2.8a108.932,108.932,0,0,1,8.375-11.674,20.939,20.939,0,0,1,2.289-2.436,2.732,2.732,0,0,1,3.149-.075,2.446,2.446,0,0,1,.787,2.985,31.528,31.528,0,0,1-1.7,3.431,108.652,108.652,0,0,1-8.774,13.14c-.684.882-1.363,1.771-1.986,2.7a.983.983,0,0,0-.05.88,1,1,0,0,0,.815.271c.952-.1,1.892-.313,2.845-.4C1659.849,575.187,1661.763,575.064,1663.674,574.916Zm-5.963,17.586q.6,0,.056.262l.036-.3-1.583-.829c-.006-.46.038-.49.172-.036C1656.834,591.9,1657.277,592.2,1657.711,592.5Zm1.1-29.817c-.309.219-.368.151-.16-.2a1.191,1.191,0,0,1,.267.174q-.474-.186.038-.151Zm-2.477,2.869c.6-.23-.325-.582.237-.275.109.059.27.182.264.264-.027.354-.239.419-.55.179.363-.226.485.055.217.11C1655.892,565.957,1656.641,566.116,1656.335,565.554Zm-25.626,4.434q.228.558-.179.17l.32-.1c.234-.343.61-.379.687-.015.119.563-.381.79-.826.669C1630.4,570.63,1630.427,570.241,1630.709,569.988Zm13.91-7.666.1.884a2.154,2.154,0,0,0,.149-.413,1.462,1.462,0,0,0-.024-.453C1644.84,562.322,1644.7,562.328,1644.619,562.323Zm4.042,15.942c-.013-.134.027-.321-.049-.4-.2-.219-1.467.355-1.428.649.014.1.215.243.342.256A1.032,1.032,0,0,0,1648.661,578.265Zm-14.88,4.976-.045.231.328-.076Z" transform="translate(-131.292 -129.756)"/>
  <path class="cls-15" d="M917.448,265.978a94.081,94.081,0,0,1-2.339-13.364,59.137,59.137,0,0,1-.4-6.217,2.8,2.8,0,0,1,2.439-3.017,2.883,2.883,0,0,1,2.692,2.331c.883,3.235,1.6,6.515,2.382,9.778.074.31.081.635.135.95q.718,4.2,1.443,8.4c2.839-1.516,3.443-4.733,5.3-7,2.226-2.72,4.244-5.61,6.4-8.39a11.521,11.521,0,0,1,2.028-2.022,2.237,2.237,0,0,1,2.684-.1,2.441,2.441,0,0,1,1.127,2.892,22.8,22.8,0,0,1-1.445,3.019,101.873,101.873,0,0,1-8.682,13.222c-.681.889-1.4,1.748-2.042,2.666a2.024,2.024,0,0,0-.431,1.261c.078.567.69.5,1.132.465.957-.067,1.919-.126,2.863-.284,5.717-.954,11.48-.771,17.237-.733a12.858,12.858,0,0,1,1.913.137,2.56,2.56,0,0,1,2.25,2.149,2.476,2.476,0,0,1-2,2.829,34.865,34.865,0,0,1-3.753.749,91.141,91.141,0,0,1-16.261,1.046c-.958-.008-1.918.023-2.875.074a.851.851,0,0,0-.665,1.349c.692.877,1.423,1.724,2.156,2.568a107.473,107.473,0,0,1,8.416,11.072,23.389,23.389,0,0,1,1.661,2.909,2.473,2.473,0,0,1-.594,3.044,2.359,2.359,0,0,1-3.087.107,24.879,24.879,0,0,1-2.817-2.591,105.977,105.977,0,0,1-9.175-11.082c-.465-.651-.911-1.315-1.4-1.951-.561-.735-.936-1.949-1.968-1.8-.485.071-.9,1.229-1.185,1.959a110.983,110.983,0,0,1-7.074,14.677c-.554.973-1.124,1.939-1.748,2.867a4.661,4.661,0,0,1-1.266,1.412,2.619,2.619,0,0,1-2.741.067,2.04,2.04,0,0,1-1.086-1.992,11.56,11.56,0,0,1,.728-3.245c1.584-3.841,3.26-7.643,4.926-11.449.384-.877.907-1.693,1.286-2.572a1.84,1.84,0,0,0,.153-1.286c-.23-.513-.841-.353-1.284-.213-1.066.337-2.1.773-3.169,1.1-3.516,1.064-7.033,2.129-10.57,3.121a16.124,16.124,0,0,1-3.305.512,2.545,2.545,0,0,1-2.7-1.572,2.706,2.706,0,0,1,1.46-3.213,40.019,40.019,0,0,1,3.908-1.83,141.88,141.88,0,0,1,14.024-4.9c.481-.143,1.447.116,1.262-.864-.068-.358-.613-.75-1.023-.9a103.2,103.2,0,0,1-11.845-5.2c-1.706-.875-3.379-1.818-5.045-2.768a7.437,7.437,0,0,1-1.531-1.141,2.645,2.645,0,0,1-.247-3.125,2.343,2.343,0,0,1,2.456-1.128,29.074,29.074,0,0,1,3.679,1.063,110.878,110.878,0,0,1,13.228,5.623c1,.5,1.982,1.038,2.993,1.514.273.128.79.238.9.106A3.7,3.7,0,0,0,917.448,265.978Zm13.515,20.389c.275-.171.328.072.069.108-.622.088.139.4-.083-.2l-1.344-.951c-.17-.512-.1-.455.143-.06C930.158,285.641,930.566,286.017,930.964,286.368Zm2.3-27.931c-.607.2.309.589-.241.261-.106-.063-.262-.19-.253-.272.038-.343.25-.4.551-.15-.355.2-.456-.075-.2-.112C933.739,258.076,932.991,257.858,933.264,258.437Zm-1.894,2.9c-.58.27.329.579-.253.312-.121-.056-.3-.186-.3-.273.023-.381.254-.456.6-.208-.376.221-.5-.062-.219-.115C931.814,260.939,931.07,260.776,931.371,261.341Zm7.871,12.2v-.055c.473,0,.948.024,1.418-.01a2.93,2.93,0,0,0,.677-.217,5.428,5.428,0,0,0-.9-.2c-.629-.035-1.262-.037-1.892-.016a6.483,6.483,0,0,0-.92.159c.381.113.759.238,1.145.333A2.023,2.023,0,0,0,939.241,273.537Zm-20.267-16.324v-.7a1.135,1.135,0,0,0-.12.359A1.029,1.029,0,0,0,918.975,257.213Zm3.624,15.641-.65.483a2.208,2.208,0,0,0,.774.34c.262,0,.753-.2.752-.314C923.47,272.8,922.99,272.869,922.6,272.854Zm-15.557,6.3.032-.232-.329.088Z" transform="translate(-131.292 -129.756)"/>
  <path class="cls-1" d="M811.868,157.358a11.981,11.981,0,0,1,10.927,6.542c.465.831.718,1.778,1.168,2.619a1.362,1.362,0,0,0,1.6.72c.929-.233,1.834-.583,2.773-.751a12.638,12.638,0,0,1,13.53,6.892,12.9,12.9,0,0,1-2.862,14.947c-1.018.947-2.926,1.3-2.969,2.8-.032,1.119,1.075,2.242,1.568,3.409a12.569,12.569,0,0,1-17.5,16.069c-1.111-.584-2.148-1.668-3.28-1.76-1.349-.109-1.747,1.643-2.636,2.508a12.574,12.574,0,0,1-14.168,2.669,12.229,12.229,0,0,1-7.36-11.876q.084-1.194.2-2.386c.1-1.075,1.227-2.211.4-3.147-.671-.761-1.912-1.013-2.889-1.513a12.173,12.173,0,0,1-6.479-7.9,12.44,12.44,0,0,1,8.169-15.26c.909-.293,1.857-.465,2.792-.672,1.239-.275,2.715.453,3.723-.423s.571-2.412.837-3.643A12.333,12.333,0,0,1,811.868,157.358Z" transform="translate(-131.292 -129.756)"/>
  <path class="cls-15" d="M811.467,160.363c-5.635.1-9.644,4.744-9.264,10.549.09,1.375,1.409,2.844.213,4.1-1.5,1.574-2.95-.234-4.383-.514a9.6,9.6,0,0,0-11.411,7.657,9.448,9.448,0,0,0,7.528,11.029c.468.09.956.07,1.431.134,3.088.421,3.4.942,1.9,3.5a11.838,11.838,0,0,0-1.8,4.4,9.586,9.586,0,0,0,18.021,5.645c.666-1.219.518-3.191,2.09-3.537,1.992-.439,2.265,1.867,3.374,2.871,2.386,2.161,5.089,3.358,8.311,2.776a9.305,9.305,0,0,0,7.63-6.475c1.284-3.735.2-6.882-2.3-9.723-.817-.929-2.485-1.323-2.381-2.8.14-2,2.145-1.511,3.354-2.012a9.586,9.586,0,0,0,5.473-13.009,9.482,9.482,0,0,0-13.357-4.372c-1.083.6-1.949,1.992-3.333,1.6-1.93-.542-1.028-2.411-1.31-3.686C820.13,163.416,816.41,160.272,811.467,160.363Z" transform="translate(-131.292 -129.756)"/>
  <path class="cls-1" d="M1655.479,437.529c4.1-.02,7.758,2.173,10.256,6.347a22.439,22.439,0,0,1,1.183,2.617,1.484,1.484,0,0,0,1.917.938,28.662,28.662,0,0,1,2.768-.75,12.588,12.588,0,0,1,10.283,21.931c-.943.844-2.38,1.44-2.809,2.475-.479,1.155.977,2.191,1.474,3.337a12.623,12.623,0,0,1-2.876,14.531A12.485,12.485,0,0,1,1663,490.714a12.267,12.267,0,0,1-2-1.32c-1.01-.835-1.7-.433-2.371.44a16.838,16.838,0,0,1-1.559,1.818,12.388,12.388,0,0,1-14.606,2.258,12.682,12.682,0,0,1-6.721-13.207c.177-1.253,1.2-2.459.673-3.685-.54-1.263-2.142-1.2-3.235-1.807a12.654,12.654,0,0,1,4.082-23.649,28.33,28.33,0,0,1,3.35-.119,1.411,1.411,0,0,0,1.577-1.4c.052-.637.046-1.283.151-1.911C1643.394,441.845,1648.341,437.6,1655.479,437.529Z" transform="translate(-131.292 -129.756)"/>
  <path class="cls-15" d="M1654.955,440.573a9.414,9.414,0,0,0-9.711,10.1,20.316,20.316,0,0,0,.409,2.351c.453,2.529-.17,3.043-2.786,2.258a11.342,11.342,0,0,0-4.676-.831,9.627,9.627,0,0,0-8.608,9.366,9.332,9.332,0,0,0,8.161,9.662,26.664,26.664,0,0,1,2.813.4,1.153,1.153,0,0,1,.758,1.543c-.49,1.164-1.255,2.21-1.775,3.364a9.526,9.526,0,0,0,16.764,8.967,31.3,31.3,0,0,0,1.556-3.49,1.364,1.364,0,0,1,2.324-.47c.745.83,1.347,1.794,2.13,2.582a9.526,9.526,0,0,0,13.823-13.108c-.918-1.056-2.854-1.578-2.667-3.162.244-2.066,2.545-1.512,3.884-2.167a9.858,9.858,0,0,0,5.684-10.557c-.954-5.585-7.77-10.208-14.119-6.587-1.076.614-1.955,1.941-3.356,1.552-2.015-.56-.988-2.435-1.257-3.7C1663.285,443.846,1659.657,440.641,1654.955,440.573Z" transform="translate(-131.292 -129.756)"/>
  <path class="cls-1" d="M1545.264,538.437a12.761,12.761,0,0,1-8.411,11.724c-.6.21-1.238.32-1.856.485-2.787.743-2.868.746-2.78,3.675.167,5.533-2.183,9.593-7.086,12.047a12.443,12.443,0,0,1-15.459-3.8c-.672-.887-1.155-1.914-1.777-2.843a.922.922,0,0,0-1.221-.376c-.723.338-1.426.725-2.163,1.027a12.618,12.618,0,0,1-15.035-4.03c-3.492-4.72-3.374-10.59.38-15.549a8.343,8.343,0,0,1,.643-.711c1.116-1.167,1.422-1.623-.089-3.126a12.719,12.719,0,0,1-3.708-8.575c-.476-7.309,6.719-15.378,16.78-12.223,1.2.377,2.4,1.322,3.531,1.231,1.31-.1,1.517-1.867,2.28-2.85a12.809,12.809,0,0,1,14.166-4.458,12.546,12.546,0,0,1,8.527,11.6,12.209,12.209,0,0,1-.039,1.916c-.159,1.448.626,1.988,1.909,2.166a16.73,16.73,0,0,1,2.346.489A12.645,12.645,0,0,1,1545.264,538.437Z" transform="translate(-131.292 -129.756)"/>
  <path class="cls-15" d="M1531.584,528.86c-.316.045-.632.1-.949.133-.476.055-.952.133-1.429.142a1.4,1.4,0,0,1-1.515-1.84c.227-.763.534-1.5.832-2.243a9.543,9.543,0,0,0-18.014-6.3c-.343.881-.441,1.855-.711,2.769-.467,1.581-1.513,1.834-2.837.7a25,25,0,0,0-2.523-2.19,9.049,9.049,0,0,0-9.12-.693,9.5,9.5,0,0,0-1.126,16.756c3.419,2.24,3.348,2.324.259,4.655a11.914,11.914,0,0,0-2.14,1.9,9.048,9.048,0,0,0-2.115,8.021,9.615,9.615,0,0,0,15.792,5.22c3.071-2.826,3.234-2.659,4.422,1.147.1.3.17.617.277.917a9.535,9.535,0,0,0,18.224-5.613,22.948,22.948,0,0,0-.911-2.208c-.81-2.122-.2-2.858,2.189-2.612.793.082,1.578.327,2.368.331a9.567,9.567,0,0,0,8.771-13.5A9.369,9.369,0,0,0,1531.584,528.86Z" transform="translate(-131.292 -129.756)"/>
  <path class="cls-1" d="M1130.7,447.056a54.762,54.762,0,0,1,3.355-17.036,128.931,128.931,0,0,1,8.007-17.909c3.735-7.055,7.561-14.064,11.266-21.135a107.687,107.687,0,0,0,6.567-14.884,43.081,43.081,0,0,0,2.025-8.365c.834-6.281-.848-11.7-5.738-15.94a17.4,17.4,0,0,1-2.078-1.958,1.513,1.513,0,0,1-.09-1.326,1.193,1.193,0,0,1,1.583-.669,8.784,8.784,0,0,1,2.032,1.212c6.142,4.99,8.276,11.541,7.261,19.215a53.7,53.7,0,0,1-3.985,13.761c-2.232,5.3-4.882,10.4-7.573,15.484-3.662,6.912-7.419,13.777-10.952,20.754a85.677,85.677,0,0,0-7.352,19.187,37.416,37.416,0,0,0-1.213,12.336,26.818,26.818,0,0,0,9.987,18.466c1.347,1.123,2.761,2.168,4.081,3.322a1.229,1.229,0,0,1,.1,1.725,1.426,1.426,0,0,1-1.714.429,3.235,3.235,0,0,1-.858-.421C1136.093,466.951,1130.729,458.4,1130.7,447.056Z" transform="translate(-131.292 -129.756)"/>
  <path class="cls-1" d="M1106.8,365.427a38.488,38.488,0,0,1-2.6,12.652,121.4,121.4,0,0,1-7.56,16.536c-3.59,6.77-7.317,13.469-10.819,20.284-3.87,7.533-7.428,15.211-9.231,23.564-.236,1.091-.48,2.183-.64,3.287-1.692,11.646,2.036,21.058,11.589,28.067a26.971,26.971,0,0,1,2.212,1.818,1.112,1.112,0,0,1,.015,1.683,1.632,1.632,0,0,1-1.243.472,4.411,4.411,0,0,1-1.727-.757c-9.922-6.942-15.035-16.245-14.13-28.575a61.933,61.933,0,0,1,4.689-18.49,189.13,189.13,0,0,1,8.942-18.539c3.674-6.905,7.36-13.806,10.915-20.773a67.454,67.454,0,0,0,6.014-16.108,28.146,28.146,0,0,0,.607-6.18,15.89,15.89,0,0,0-5.182-11.947c-.922-.873-1.9-1.7-2.741-2.641a1.513,1.513,0,0,1-.049-1.311,1.248,1.248,0,0,1,1.608-.649,5.842,5.842,0,0,1,1.629.971A19.005,19.005,0,0,1,1106.8,365.427Z" transform="translate(-131.292 -129.756)"/>
  <path class="cls-1" d="M1101.7,446.578a48.639,48.639,0,0,1,2.792-15.155,132.9,132.9,0,0,1,9.112-20.576c3.635-6.936,7.432-13.786,11.051-20.73a99.811,99.811,0,0,0,6.456-14.948,33.942,33.942,0,0,0,1.789-10.827,15.719,15.719,0,0,0-5.528-12.273c-.718-.632-1.471-1.229-2.143-1.906a1.533,1.533,0,0,1-.24-1.779c.275-.623,1.365-.789,2.115-.328a14.126,14.126,0,0,1,1.572,1.094c5.345,4.388,7.612,10.1,7.248,16.934a43.1,43.1,0,0,1-2.8,12.587,137.826,137.826,0,0,1-7.656,16.513c-4.163,7.922-8.446,15.782-12.493,23.762a79.125,79.125,0,0,0-7.707,21.6c-2.141,11.772,1.234,21.458,10.81,28.829.886.682,1.8,1.339,2.624,2.085a1.287,1.287,0,0,1,.228,1.736,1.256,1.256,0,0,1-1.645.542,8.351,8.351,0,0,1-1.279-.645C1106.948,466.711,1101.51,458.35,1101.7,446.578Z" transform="translate(-131.292 -129.756)"/>
  <path class="cls-9" d="M1310.755,403.717a1.4,1.4,0,0,1-1.363,1.039,1.673,1.673,0,0,1-1.615-1.888,1.363,1.363,0,0,1,1.36-1.078A1.777,1.777,0,0,1,1310.755,403.717Z" transform="translate(-131.292 -129.756)"/>
  <path class="cls-9" d="M1259.237,314.715c-.881-.082-1.211-.769-1.321-1.569a1.415,1.415,0,0,1,1.325-1.574c.963.056,1.283.777,1.405,1.57A1.439,1.439,0,0,1,1259.237,314.715Z" transform="translate(-131.292 -129.756)"/>
  <path class="cls-9" d="M1487.322,424.739a1.782,1.782,0,0,1-2.214,1.113c-.565-.266-1.065-.708-.863-1.465a1.681,1.681,0,0,1,2.207-1.1A1.21,1.21,0,0,1,1487.322,424.739Z" transform="translate(-131.292 -129.756)"/>
  <path class="cls-9" d="M1466.274,434.545c-.589-.246-1.116-.582-1.2-1.268a1.741,1.741,0,0,1,1.908-1.58,1.5,1.5,0,0,1,1.209,1.256C1468.309,433.736,1467.181,434.645,1466.274,434.545Z" transform="translate(-131.292 -129.756)"/>
  <path class="cls-9" d="M1551.043,359.742a1.447,1.447,0,0,1-1.243-1.217,1.741,1.741,0,0,1,1.621-1.907,1.471,1.471,0,0,1,1.261,1.213A1.822,1.822,0,0,1,1551.043,359.742Z" transform="translate(-131.292 -129.756)"/>
  <path class="cls-9" d="M1295.05,184.2c.571.247,1.128.52,1.09,1.273-.049.965-.98,1.874-1.8,1.665a1.412,1.412,0,0,1-1.1-1.313A1.7,1.7,0,0,1,1295.05,184.2Z" transform="translate(-131.292 -129.756)"/>
  <path class="cls-9" d="M1540.639,199.687a1.8,1.8,0,0,1-1.628-1.84,1.339,1.339,0,0,1,1.256-1.167,1.661,1.661,0,0,1,1.682,1.818A1.416,1.416,0,0,1,1540.639,199.687Z" transform="translate(-131.292 -129.756)"/>
  <path class="cls-9" d="M1568.335,285.421a1.426,1.426,0,0,1,1.358,1.6c.022.791-.144,1.571-1.1,1.8a1.576,1.576,0,0,1-1.632-1.323A1.762,1.762,0,0,1,1568.335,285.421Z" transform="translate(-131.292 -129.756)"/>
  <path class="cls-9" d="M1259.249,302.909c-.051.835-.773,1.55-1.479,1.384a1.551,1.551,0,0,1,.247-3.071A1.593,1.593,0,0,1,1259.249,302.909Z" transform="translate(-131.292 -129.756)"/>
  <path class="cls-9" d="M1278.158,211.281c.012.9-.957,1.9-1.784,1.738a1.368,1.368,0,0,1-1.106-1.333c-.074-.954.964-2.023,1.758-1.8A1.572,1.572,0,0,1,1278.158,211.281Z" transform="translate(-131.292 -129.756)"/>
  <path class="cls-9" d="M1557.032,348.733a1.517,1.517,0,0,1-1.324,1.471,1.435,1.435,0,0,1-1.423-1.436,1.665,1.665,0,0,1,1.843-1.566A1.39,1.39,0,0,1,1557.032,348.733Z" transform="translate(-131.292 -129.756)"/>
  <path class="cls-9" d="M1272.4,219.318a1.421,1.421,0,0,1,.864,1.627,1.567,1.567,0,0,1-1.609,1.307,1.315,1.315,0,0,1-1.079-1.673A1.466,1.466,0,0,1,1272.4,219.318Z" transform="translate(-131.292 -129.756)"/>
  <path class="cls-9" d="M1336.481,152.167c-.207.793-.589,1.4-1.5,1.474a1.486,1.486,0,0,1-1.567-1.32,1.661,1.661,0,0,1,1.963-1.443A1.4,1.4,0,0,1,1336.481,152.167Z" transform="translate(-131.292 -129.756)"/>
  <path class="cls-9" d="M1448.061,438.976a1.73,1.73,0,0,1-1.995,1.451,1.5,1.5,0,0,1-1.152-1.3c-.084-.83.958-1.572,1.986-1.361A1.254,1.254,0,0,1,1448.061,438.976Z" transform="translate(-131.292 -129.756)"/>
  <path class="cls-9" d="M1476.288,430.488c-.694-.1-1.263-.3-1.383-1.025a1.728,1.728,0,0,1,1.657-1.8,1.5,1.5,0,0,1,1.321,1.565C1477.74,430.162,1477.017,430.378,1476.288,430.488Z" transform="translate(-131.292 -129.756)"/>
  <path class="cls-9" d="M1569.33,275.775c.069,1.516-.432,2.15-1.27,2.164a1.522,1.522,0,0,1-.1-3.029A1.242,1.242,0,0,1,1569.33,275.775Z" transform="translate(-131.292 -129.756)"/>
  <path class="cls-9" d="M1557.132,225.913c-.21.585-.452,1.157-1.2,1.151a1.68,1.68,0,0,1-1.584-1.841,1.433,1.433,0,0,1,1.264-1.153A1.588,1.588,0,0,1,1557.132,225.913Z" transform="translate(-131.292 -129.756)"/>
  <path class="cls-9" d="M1373.6,439.037a1.487,1.487,0,0,1-1.536-1.3,1.505,1.505,0,0,1,1.467-1.432,1.707,1.707,0,0,1,1.612,1.381C1375.327,438.367,1374.547,439.06,1373.6,439.037Z" transform="translate(-131.292 -129.756)"/>
  <path class="cls-9" d="M1559.469,233.828a1.622,1.622,0,0,1,1.453,1.537c.1.818-.567,1.667-1.255,1.562a1.683,1.683,0,0,1-1.483-1.5A1.575,1.575,0,0,1,1559.469,233.828Z" transform="translate(-131.292 -129.756)"/>
  <path class="cls-9" d="M1282.06,369.962a1.632,1.632,0,0,1,1.21,2.089,1.162,1.162,0,0,1-1.423.818,1.47,1.47,0,0,1-1.312-1.6A1.383,1.383,0,0,1,1282.06,369.962Z" transform="translate(-131.292 -129.756)"/>
  <path class="cls-9" d="M1287.736,378.579a1.659,1.659,0,0,1,1.636,1.8,1.146,1.146,0,0,1-1.2,1.12,1.51,1.51,0,0,1-1.635-1.283A1.429,1.429,0,0,1,1287.736,378.579Z" transform="translate(-131.292 -129.756)"/>
  <path class="cls-9" d="M1309.169,172a1.092,1.092,0,0,1-1.074-1.2,1.516,1.516,0,0,1,1.4-1.591,1.438,1.438,0,0,1,1.44,1.472A1.739,1.739,0,0,1,1309.169,172Z" transform="translate(-131.292 -129.756)"/>
  <path class="cls-9" d="M1527.016,393.958c-.636-.1-1.179-.346-1.276-1.059a1.665,1.665,0,0,1,1.6-1.825,1.238,1.238,0,0,1,1.254,1.089A1.581,1.581,0,0,1,1527.016,393.958Z" transform="translate(-131.292 -129.756)"/>
  <path class="cls-9" d="M1303.186,396.259a1.446,1.446,0,0,1-1.154,1.273,1.686,1.686,0,0,1-1.824-1.622,1.251,1.251,0,0,1,1.135-1.24A1.658,1.658,0,0,1,1303.186,396.259Z" transform="translate(-131.292 -129.756)"/>
  <path class="cls-9" d="M1519.512,401.418a1.117,1.117,0,0,1-1.085-1.214,1.5,1.5,0,0,1,1.395-1.593,1.414,1.414,0,0,1,1.435,1.468A1.762,1.762,0,0,1,1519.512,401.418Z" transform="translate(-131.292 -129.756)"/>
  <path class="cls-9" d="M1513.426,406.816a1.58,1.58,0,0,1-1.834,1.545,1.183,1.183,0,0,1-1.1-1.237,1.777,1.777,0,0,1,1.841-1.641A1.7,1.7,0,0,1,1513.426,406.816Z" transform="translate(-131.292 -129.756)"/>
  <path class="cls-9" d="M1317.306,408.558c.722.252,1.431.577,1.481,1.554a1.351,1.351,0,0,1-1.56,1.339,1.557,1.557,0,0,1-1.295-1.741A1.347,1.347,0,0,1,1317.306,408.558Z" transform="translate(-131.292 -129.756)"/>
  <path class="cls-9" d="M1503.236,414.8a1.133,1.133,0,0,1-1.034-1.191,1.514,1.514,0,0,1,1.418-1.574,1.325,1.325,0,0,1,1.411,1.445A1.582,1.582,0,0,1,1503.236,414.8Z" transform="translate(-131.292 -129.756)"/>
  <path class="cls-9" d="M1327.289,416.557a1.246,1.246,0,0,1-1.332,1.055,1.518,1.518,0,0,1-1.4-1.968,1.151,1.151,0,0,1,1.487-.747A1.423,1.423,0,0,1,1327.289,416.557Z" transform="translate(-131.292 -129.756)"/>
  <path class="cls-9" d="M1493.5,419.528a1.473,1.473,0,0,1,1.211-1.613,1.331,1.331,0,0,1,1.634,1.209,1.477,1.477,0,0,1-1.472,1.51A1.192,1.192,0,0,1,1493.5,419.528Z" transform="translate(-131.292 -129.756)"/>
  <path class="cls-9" d="M1345.55,426.709a1.349,1.349,0,0,1-1.016,1.381,1.465,1.465,0,0,1-1.866-1.5,1.111,1.111,0,0,1,1.186-1.161A1.564,1.564,0,0,1,1345.55,426.709Z" transform="translate(-131.292 -129.756)"/>
  <path class="cls-9" d="M1353.373,429.645a1.636,1.636,0,0,1,1.785,1.616,1.221,1.221,0,0,1-1.2,1.129,1.468,1.468,0,0,1-1.75-1.563A1.268,1.268,0,0,1,1353.373,429.645Z" transform="translate(-131.292 -129.756)"/>
  <path class="cls-9" d="M1363.512,433.309a1.592,1.592,0,0,1,1.419,1.587c.026.787-.749,1.276-1.673,1.113a1.326,1.326,0,0,1-1.2-1.223A1.484,1.484,0,0,1,1363.512,433.309Z" transform="translate(-131.292 -129.756)"/>
  <path class="cls-9" d="M1456.71,437.8c-.763.062-1.646-.7-1.535-1.4a1.47,1.47,0,0,1,1.642-1.319,1.143,1.143,0,0,1,1.24,1.121A1.43,1.43,0,0,1,1456.71,437.8Z" transform="translate(-131.292 -129.756)"/>
  <path class="cls-9" d="M1383.814,438.717a1.406,1.406,0,0,1,1.521,1.347,1.437,1.437,0,0,1-1.5,1.356,1.621,1.621,0,0,1-1.528-1.417C1382.178,439.313,1382.951,438.684,1383.814,438.717Z" transform="translate(-131.292 -129.756)"/>
  <path class="cls-9" d="M1303.291,178a1.666,1.666,0,0,1-1.531,1.379c-.74.137-1.472-.811-1.273-1.614a1.426,1.426,0,0,1,1.713-1.235C1302.9,176.638,1303.318,177.078,1303.291,178Z" transform="translate(-131.292 -129.756)"/>
  <path class="cls-9" d="M1437.644,440.552a1.462,1.462,0,0,1-1.166,1.765,1.35,1.35,0,0,1-1.749-1.015,1.272,1.272,0,0,1,1.14-1.616C1436.65,439.593,1437.38,439.72,1437.644,440.552Z" transform="translate(-131.292 -129.756)"/>
  <path class="cls-9" d="M1406.06,443c-.384.8-1.137.864-1.92.648a1.087,1.087,0,0,1-.823-1.423,1.336,1.336,0,0,1,1.73-1.1A1.456,1.456,0,0,1,1406.06,443Z" transform="translate(-131.292 -129.756)"/>
  <path class="cls-9" d="M1425.366,443.536a1.362,1.362,0,0,1,.259-2.7c.82-.085,1.705.622,1.6,1.324C1427.082,443.042,1426.522,443.53,1425.366,443.536Z" transform="translate(-131.292 -129.756)"/>
  <path class="cls-9" d="M1519.746,172.918a1.457,1.457,0,0,1,1.61,1.381,1.175,1.175,0,0,1-.978,1.352,1.555,1.555,0,0,1-1.8-1.606C1518.608,173.285,1519.15,173.029,1519.746,172.918Z" transform="translate(-131.292 -129.756)"/>
  <path class="cls-9" d="M1551.225,214.555a1.782,1.782,0,0,1,1.527,1.949,1.423,1.423,0,0,1-1.309,1.124,1.632,1.632,0,0,1-1.461-1.946A1.254,1.254,0,0,1,1551.225,214.555Z" transform="translate(-131.292 -129.756)"/>
  <path class="cls-9" d="M1435.938,131.835c1.159-.021,1.707.468,1.861,1.333.124.7-.73,1.438-1.538,1.352a1.363,1.363,0,0,1-.323-2.685Z" transform="translate(-131.292 -129.756)"/>
  <path class="cls-9" d="M1385.6,134.112a1.7,1.7,0,0,1-1.666,1.338c-.791,0-1.638-.74-1.5-1.414a1.541,1.541,0,0,1,1.632-1.333C1384.823,132.7,1385.666,133.473,1385.6,134.112Z" transform="translate(-131.292 -129.756)"/>
  <path class="cls-9" d="M1448.2,135.316a1.4,1.4,0,0,1-1.666,1.14,1.375,1.375,0,1,1,.252-2.724A1.538,1.538,0,0,1,1448.2,135.316Z" transform="translate(-131.292 -129.756)"/>
  <path class="cls-9" d="M1267.406,231.918a1.354,1.354,0,0,1-1.085-1.7c.272-.723.716-1.411,1.647-1.261.958.154,1.125.918,1.03,1.717A1.376,1.376,0,0,1,1267.406,231.918Z" transform="translate(-131.292 -129.756)"/>
  <path class="cls-9" d="M1478.064,145.093a1.239,1.239,0,0,1-1.22,1.258,1.467,1.467,0,0,1-1.729-1.225,1.369,1.369,0,0,1,1.411-1.511A1.775,1.775,0,0,1,1478.064,145.093Z" transform="translate(-131.292 -129.756)"/>
  <path class="cls-9" d="M1375.265,136.568c-.186.851-.922,1.12-1.751,1.066-.645-.042-1.28-.354-1.242-1.157a1.489,1.489,0,0,1,1.515-1.51A1.444,1.444,0,0,1,1375.265,136.568Z" transform="translate(-131.292 -129.756)"/>
  <path class="cls-9" d="M1257.772,272.728a1.424,1.424,0,0,1-1.2-1.682,1.372,1.372,0,0,1,1.675-1.163,1.309,1.309,0,0,1,1,1.383A1.472,1.472,0,0,1,1257.772,272.728Z" transform="translate(-131.292 -129.756)"/>
  <path class="cls-9" d="M1262.92,240.341a1.363,1.363,0,0,1,1.593-1.348,1.24,1.24,0,0,1,1.113,1.319,1.577,1.577,0,0,1-1.42,1.637C1263.46,242.081,1262.814,241.237,1262.92,240.341Z" transform="translate(-131.292 -129.756)"/>
  <path class="cls-9" d="M1353.551,144.262c-.637-.093-1.158-.4-1.153-1.151a1.566,1.566,0,0,1,1.422-1.585c.682-.135,1.524.755,1.428,1.483C1355.123,143.958,1354.455,144.255,1353.551,144.262Z" transform="translate(-131.292 -129.756)"/>
  <path class="cls-9" d="M1484.508,149.446a1.391,1.391,0,0,1,1.61-1.2,1.728,1.728,0,0,1,1.389,1.6c.06.7-.789,1.309-1.618,1.168A1.477,1.477,0,0,1,1484.508,149.446Z" transform="translate(-131.292 -129.756)"/>
  <path class="cls-9" d="M1262.857,250.4a1.6,1.6,0,0,1-1.416,1.61c-.681.136-1.37-.684-1.322-1.5.05-.849.445-1.532,1.341-1.511A1.362,1.362,0,0,1,1262.857,250.4Z" transform="translate(-131.292 -129.756)"/>
  <path class="cls-9" d="M1567.122,267.557a1.556,1.556,0,0,1-1.512-1.458,1.351,1.351,0,0,1,1.215-1.658c.882-.081,1.392.553,1.5,1.407A1.513,1.513,0,0,1,1567.122,267.557Z" transform="translate(-131.292 -129.756)"/>
  <path class="cls-9" d="M1565.321,254.1a1.6,1.6,0,0,1,1.222,1.7c-.012.825-.772,1.567-1.461,1.379a1.59,1.59,0,0,1-1.287-1.671A1.533,1.533,0,0,1,1565.321,254.1Z" transform="translate(-131.292 -129.756)"/>
  <path class="cls-9" d="M1468.33,141.329a1.394,1.394,0,0,1-1.745,1.019c-.813-.2-1.39-.661-1.228-1.6a1.274,1.274,0,0,1,1.247-1.124A1.69,1.69,0,0,1,1468.33,141.329Z" transform="translate(-131.292 -129.756)"/>
  <path class="cls-9" d="M1457.093,136.44c.674.022,1.154.563,1.22,1.417a1.416,1.416,0,0,1-1.553,1.308,1.575,1.575,0,0,1-1.469-1.487C1455.2,136.958,1455.975,136.363,1457.093,136.44Z" transform="translate(-131.292 -129.756)"/>
  <path class="cls-9" d="M1365.089,139.417a1.472,1.472,0,0,1-1.739,1.206,1.23,1.23,0,0,1-1.21-1.214,1.6,1.6,0,0,1,2-1.43A1.274,1.274,0,0,1,1365.089,139.417Z" transform="translate(-131.292 -129.756)"/>
  <path class="cls-9" d="M1273.2,353.386a1.234,1.234,0,0,1-1.306,1.149c-.976.007-1.388-.706-1.513-1.53a1.375,1.375,0,0,1,1.577-1.361A1.659,1.659,0,0,1,1273.2,353.386Z" transform="translate(-131.292 -129.756)"/>
  <path class="cls-9" d="M1267.229,342.065a1.37,1.37,0,0,1,1.722,1.3,1.138,1.138,0,0,1-.829,1.442,1.421,1.421,0,0,1-1.813-1.036A1.311,1.311,0,0,1,1267.229,342.065Z" transform="translate(-131.292 -129.756)"/>
  <path class="cls-9" d="M1560.832,339.214c-.034.551-.546,1.059-1.405,1.127a1.416,1.416,0,0,1-1.3-1.553,1.7,1.7,0,0,1,1.5-1.476C1560.336,337.206,1560.934,337.986,1560.832,339.214Z" transform="translate(-131.292 -129.756)"/>
  <path class="cls-9" d="M1562.791,330.362a1.406,1.406,0,0,1-1.389-1.725,1.442,1.442,0,0,1,1.721-1.213,1.294,1.294,0,0,1,.992,1.434C1563.985,329.652,1563.6,330.384,1562.791,330.362Z" transform="translate(-131.292 -129.756)"/>
  <path class="cls-9" d="M1262.793,323.551a1.351,1.351,0,0,1-1.5,1.317,1.386,1.386,0,0,1-1.218-1.624,1.216,1.216,0,0,1,.976-1.322A1.583,1.583,0,0,1,1262.793,323.551Z" transform="translate(-131.292 -129.756)"/>
  <path class="cls-9" d="M1566.526,318.332c0,.824-.214,1.514-1.136,1.72a1.349,1.349,0,0,1-1.62-1.182,1.57,1.57,0,0,1,1.617-1.766A1.363,1.363,0,0,1,1566.526,318.332Z" transform="translate(-131.292 -129.756)"/>
  <path class="cls-9" d="M1569.357,297.782c-.07,1-.561,1.641-1.416,1.6a1.411,1.411,0,0,1-1.319-1.591,1.379,1.379,0,0,1,1.428-1.474A1.332,1.332,0,0,1,1569.357,297.782Z" transform="translate(-131.292 -129.756)"/>
  <path class="cls-9" d="M1257.494,290.83c.949.236,1.062,1.016.947,1.839a1.146,1.146,0,0,1-1.293,1.1,1.473,1.473,0,0,1-1.356-1.654A1.394,1.394,0,0,1,1257.494,290.83Z" transform="translate(-131.292 -129.756)"/>
  <path class="cls-9" d="M1534.517,191.105a1.419,1.419,0,0,1-1.65-1.275,1.152,1.152,0,0,1,.832-1.445,1.6,1.6,0,0,1,1.966,1.467A1.327,1.327,0,0,1,1534.517,191.105Z" transform="translate(-131.292 -129.756)"/>
  <path class="cls-9" d="M1288.063,195.208c-.708-.1-1.222-.374-1.313-1.084a1.642,1.642,0,0,1,1.558-1.831,1.386,1.386,0,0,1,1.269,1.547A1.58,1.58,0,0,1,1288.063,195.208Z" transform="translate(-131.292 -129.756)"/>
  <path class="cls-9" d="M1547.643,206.983c-.123.577-.22,1.182-.94,1.383a1.61,1.61,0,0,1-1.951-1.4,1.244,1.244,0,0,1,.935-1.376A1.539,1.539,0,0,1,1547.643,206.983Z" transform="translate(-131.292 -129.756)"/>
  <path class="cls-9" d="M1425.741,133.365c-.816-.191-1.385-.679-1.264-1.593.133-1,.92-1.11,1.742-1.011a1.221,1.221,0,0,1,1.117,1.254A1.477,1.477,0,0,1,1425.741,133.365Z" transform="translate(-131.292 -129.756)"/>
  <path class="cls-9" d="M1503.722,159.49a1.334,1.334,0,0,1,1.441,1.177,1.234,1.234,0,0,1-.754,1.51,1.669,1.669,0,0,1-2.073-1.369C1502.3,160.128,1502.688,159.644,1503.722,159.49Z" transform="translate(-131.292 -129.756)"/>
  <path class="cls-9" d="M1326.153,156.435c.585.137,1.233.231,1.282,1.051a1.565,1.565,0,0,1-1.7,1.731,1.235,1.235,0,0,1-1.091-1.31C1324.606,156.953,1325.319,156.61,1326.153,156.435Z" transform="translate(-131.292 -129.756)"/>
  <path class="cls-9" d="M1513.6,167.267a1.262,1.262,0,0,1-.9,1.4,1.558,1.558,0,0,1-1.96-1.335,1.239,1.239,0,0,1,.882-1.407A1.625,1.625,0,0,1,1513.6,167.267Z" transform="translate(-131.292 -129.756)"/>
  <path class="cls-9" d="M1317.574,165.29c-.636-.057-1.24-.176-1.435-.913a1.557,1.557,0,0,1,1.571-1.845,1.161,1.161,0,0,1,1.2,1.159A1.461,1.461,0,0,1,1317.574,165.29Z" transform="translate(-131.292 -129.756)"/>
  <path class="cls-9" d="M1495.565,156.37a1.608,1.608,0,0,1-1.892-1.727c.069-.819.741-1.018,1.328-1a1.342,1.342,0,0,1,1.454,1.452C1496.425,155.7,1496.182,156.324,1495.565,156.37Z" transform="translate(-131.292 -129.756)"/>
  <path class="cls-9" d="M1345.624,146.73a1.678,1.678,0,0,1-1.289,1.947,1.36,1.36,0,0,1-1.541-1.322,1.408,1.408,0,0,1,1.536-1.393C1344.946,145.955,1345.548,146.218,1345.624,146.73Z" transform="translate(-131.292 -129.756)"/>
  <path class="cls-9" d="M1416.717,442.758c-.137.974-.818,1.262-1.665,1.234a1.36,1.36,0,0,1-1.273-1.616,1.539,1.539,0,0,1,1.423-1.045A1.454,1.454,0,0,1,1416.717,442.758Z" transform="translate(-131.292 -129.756)"/>
  <path class="cls-9" d="M1334.857,420.483c.844.2,1.419.621,1.273,1.6a1.174,1.174,0,0,1-1.216,1.146,1.6,1.6,0,0,1-1.526-1.907C1333.613,420.607,1334.222,420.508,1334.857,420.483Z" transform="translate(-131.292 -129.756)"/>
  <path class="cls-9" d="M1295.887,388.574c-.144.831-.6,1.228-1.3,1.184a1.609,1.609,0,0,1-1.409-2.014,1.256,1.256,0,0,1,1.515-.76A1.367,1.367,0,0,1,1295.887,388.574Z" transform="translate(-131.292 -129.756)"/>
  <path class="cls-9" d="M1534.165,383.189c.576.146,1.206.281,1.292,1.065a1.587,1.587,0,0,1-1.707,1.725,1.1,1.1,0,0,1-1.055-1.278A1.453,1.453,0,0,1,1534.165,383.189Z" transform="translate(-131.292 -129.756)"/>
  <path class="cls-9" d="M1541.682,375.961a1.336,1.336,0,0,1-1.237,1.544,1.237,1.237,0,0,1-1.465-.829,1.672,1.672,0,0,1,1.476-1.97A1.254,1.254,0,0,1,1541.682,375.961Z" transform="translate(-131.292 -129.756)"/>
  <path class="cls-9" d="M1547.427,367.13a1.462,1.462,0,0,1-1.235,1.637c-.748.143-1.674-.624-1.55-1.317a1.613,1.613,0,0,1,1.548-1.472A1.131,1.131,0,0,1,1547.427,367.13Z" transform="translate(-131.292 -129.756)"/>
  <path class="cls-9" d="M1275.178,362.241a1.253,1.253,0,0,1,1.306-1.163c.98-.008,1.391.71,1.559,1.505.15.712-.871,1.532-1.591,1.352A1.6,1.6,0,0,1,1275.178,362.241Z" transform="translate(-131.292 -129.756)"/>
  <path class="cls-9" d="M1528.8,181.994a1.356,1.356,0,0,1-1.146,1.216,1.518,1.518,0,0,1-1.617-1.779,1.079,1.079,0,0,1,1.295-1.016A1.513,1.513,0,0,1,1528.8,181.994Z" transform="translate(-131.292 -129.756)"/>
  <path class="cls-9" d="M1568.325,308.091a1.661,1.661,0,0,1-1.389,1.768c-.578.138-1.369-.878-1.342-1.6a1.442,1.442,0,0,1,1.373-1.566A1.351,1.351,0,0,1,1568.325,308.091Z" transform="translate(-131.292 -129.756)"/>
  <path class="cls-9" d="M1395.745,132.842c-.21.8-.885.987-1.727.858-.69-.106-1.176-.537-1.116-1.216a1.507,1.507,0,0,1,1.594-1.353A1.384,1.384,0,0,1,1395.745,132.842Z" transform="translate(-131.292 -129.756)"/>
  <path class="cls-9" d="M1283.46,202.474c-.21.847-.676,1.391-1.626,1.263a1.136,1.136,0,0,1-1.137-1.206,1.567,1.567,0,0,1,1.9-1.519C1283.294,201.24,1283.422,201.837,1283.46,202.474Z" transform="translate(-131.292 -129.756)"/>
  <path class="cls-9" d="M1257.586,283.18a1.436,1.436,0,0,1-1.746-1.272,1.367,1.367,0,0,1,1.306-1.559,1.145,1.145,0,0,1,1.276,1.048C1258.507,282.2,1258.4,282.942,1257.586,283.18Z" transform="translate(-131.292 -129.756)"/>
  <path class="cls-9" d="M1563.185,246.784a1.313,1.313,0,0,1-1.7-1.253,1.178,1.178,0,0,1,.8-1.446,1.366,1.366,0,0,1,1.762,1.031A1.259,1.259,0,0,1,1563.185,246.784Z" transform="translate(-131.292 -129.756)"/>
  <path class="cls-9" d="M1260.7,260.911a1.509,1.509,0,0,1-1.623,1.362,1.386,1.386,0,0,1-1.07-1.769,1.329,1.329,0,0,1,1.3-1.146A1.453,1.453,0,0,1,1260.7,260.911Z" transform="translate(-131.292 -129.756)"/>
  <path class="cls-9" d="M1263.83,332.245a1.508,1.508,0,0,1,1.737,1.318,1.434,1.434,0,0,1-1.361,1.518c-.935-.1-1.27-.786-1.287-1.606A1.069,1.069,0,0,1,1263.83,332.245Z" transform="translate(-131.292 -129.756)"/>
  <path class="cls-9" d="M1395.555,442.145a1.412,1.412,0,0,1-1.892.615,1.08,1.08,0,0,1-.827-1.395,1.325,1.325,0,0,1,1.726-1.047A1.376,1.376,0,0,1,1395.555,442.145Z" transform="translate(-131.292 -129.756)"/>
  <path class="cls-1" d="M1043.693,728.189q-40.049,0-80.1-.01a47.333,47.333,0,0,1-6.22-.257,9.551,9.551,0,0,1-8.3-9.114,9.7,9.7,0,0,1,7.014-10.191,21.382,21.382,0,0,1,3.781-.561c.951-.088,1.917-.025,2.876-.025q81.058,0,162.116,0a23.377,23.377,0,0,1,5.722.414,9.967,9.967,0,0,1,7.666,8.792,10.076,10.076,0,0,1-5.5,9.85,8.687,8.687,0,0,1-3.679.946c-1.915.088-3.833.149-5.75.149Q1083.5,728.2,1043.693,728.189Z" transform="translate(-131.292 -129.756)"/>
  <path class="cls-16" d="M1043.677,725.161q40.05,0,80.1-.006a46.078,46.078,0,0,0,5.269-.15,6.99,6.99,0,0,0,6.231-6.787c0-3.442-2.828-6.687-6.1-6.922-1.274-.091-2.552-.173-3.827-.174q-81.779-.013-163.558,0a24.161,24.161,0,0,0-3.824.2,6.76,6.76,0,0,0-5.934,6.988,6.883,6.883,0,0,0,6.269,6.705,49.469,49.469,0,0,0,5.269.136Q1003.627,725.167,1043.677,725.161Z" transform="translate(-131.292 -129.756)"/>
  <path class="cls-1" d="M1198.292,728.189c-7.026,0-14.053.017-21.079-.012a35.264,35.264,0,0,1-5.253-.279,9.645,9.645,0,0,1-8.069-8.849,9.817,9.817,0,0,1,6.784-10.357,17.235,17.235,0,0,1,4.72-.63q22.995-.068,45.99,0a18.028,18.028,0,0,1,4.725.6,9.9,9.9,0,0,1-1.009,19.211,32.771,32.771,0,0,1-5.251.3C1212.664,728.207,1205.478,728.189,1198.292,728.189Z" transform="translate(-131.292 -129.756)"/>
  <path class="cls-16" d="M1197.836,725.161q11.015,0,22.03-.007a29.987,29.987,0,0,0,4.3-.181,6.885,6.885,0,0,0,.05-13.634,19.933,19.933,0,0,0-3.337-.213q-22.509-.02-45.017,0a18.111,18.111,0,0,0-3.334.244,6.9,6.9,0,0,0,.413,13.629,33.768,33.768,0,0,0,4.3.154Q1187.54,725.175,1197.836,725.161Z" transform="translate(-131.292 -129.756)"/>
  <path class="cls-1" d="M823.307,185.633a9.431,9.431,0,1,1-9.214-9.678A9.62,9.62,0,0,1,823.307,185.633Z" transform="translate(-131.292 -129.756)"/>
  <path class="cls-17" d="M813.987,178.979a6.423,6.423,0,1,0,6.289,6.544A6.649,6.649,0,0,0,813.987,178.979Z" transform="translate(-131.292 -129.756)"/>
  <path class="cls-1" d="M1656.991,456.2a9.352,9.352,0,0,1,9.322,9.464,9.491,9.491,0,0,1-9.462,9.391,9.618,9.618,0,0,1-9.38-9.525A9.5,9.5,0,0,1,1656.991,456.2Z" transform="translate(-131.292 -129.756)"/>
  <path class="cls-17" d="M1657.153,471.96a6.505,6.505,0,0,0,6.181-6.585,6.684,6.684,0,0,0-6.621-6.2,6.487,6.487,0,0,0-6.117,6.628A6.366,6.366,0,0,0,1657.153,471.96Z" transform="translate(-131.292 -129.756)"/>
  <path class="cls-1" d="M1524.155,537.174a9.37,9.37,0,0,1-9.552,9.236,9.49,9.49,0,0,1-9.328-9.514,9.593,9.593,0,0,1,9.6-9.291A9.475,9.475,0,0,1,1524.155,537.174Z" transform="translate(-131.292 -129.756)"/>
  <path class="cls-17" d="M1514.747,543.435a6.629,6.629,0,0,0,6.409-6.4,6.416,6.416,0,0,0-12.83.019A6.61,6.61,0,0,0,1514.747,543.435Z" transform="translate(-131.292 -129.756)"/>
</svg>
