<svg id="Layer_1" data-name="Layer 1" xmlns="http://www.w3.org/2000/svg" xmlns:xlink="http://www.w3.org/1999/xlink" viewBox="0 0 485.5 275.398">
  <defs>
    <style>
      .cls-1 {
        fill: url(#linear-gradient);
      }

      .cls-2 {
        fill: url(#linear-gradient-2);
      }

      .cls-3 {
        fill: url(#linear-gradient-3);
      }

      .cls-4 {
        fill: url(#linear-gradient-4);
      }

      .cls-5 {
        fill: url(#linear-gradient-5);
      }

      .cls-6 {
        fill: url(#linear-gradient-6);
      }

      .cls-7 {
        fill: url(#linear-gradient-7);
      }

      .cls-8 {
        fill: url(#linear-gradient-8);
      }

      .cls-9 {
        fill: url(#linear-gradient-9);
      }

      .cls-10 {
        fill: url(#linear-gradient-10);
      }
    </style>
    <linearGradient id="linear-gradient" x1="20.329" y1="386.593" x2="527.656" y2="83.722" gradientUnits="userSpaceOnUse">
      <stop offset="0" stop-color="#55ff80"/>
      <stop offset="1" stop-color="#15ffd4"/>
    </linearGradient>
    <linearGradient id="linear-gradient-2" x1="3.931" y1="359.126" x2="511.258" y2="56.255" xlink:href="#linear-gradient"/>
    <linearGradient id="linear-gradient-3" x1="-36.76" y1="290.965" x2="470.567" y2="-11.905" xlink:href="#linear-gradient"/>
    <linearGradient id="linear-gradient-4" x1="31.468" y1="405.252" x2="538.796" y2="102.382" xlink:href="#linear-gradient"/>
    <linearGradient id="linear-gradient-5" x1="-3.422" y1="346.809" x2="503.906" y2="43.938" xlink:href="#linear-gradient"/>
    <linearGradient id="linear-gradient-6" x1="95.004" y1="511.679" x2="602.332" y2="208.808" xlink:href="#linear-gradient"/>
    <linearGradient id="linear-gradient-7" x1="57.683" y1="449.163" x2="565.01" y2="146.293" xlink:href="#linear-gradient"/>
    <linearGradient id="linear-gradient-8" x1="12.831" y1="374.034" x2="520.159" y2="71.164" xlink:href="#linear-gradient"/>
    <linearGradient id="linear-gradient-9" x1="49.06" y1="434.719" x2="556.387" y2="131.849" xlink:href="#linear-gradient"/>
    <linearGradient id="linear-gradient-10" x1="-0.782" y1="351.23" x2="506.545" y2="48.359" xlink:href="#linear-gradient"/>
  </defs>
  <title>Zsanett Masszazs Logo_Only_Img</title>
  <path class="cls-1" d="M225.464,367.1C101.578,429.041,9.5,290.088,9.5,290.088,39.634,273.347,76.466,270,76.466,270,118.319,370.447,225.464,367.1,225.464,367.1Z" transform="translate(-9.5 -107.607)"/>
  <path class="cls-2" d="M232.16,355.379S103.252,382.166,63.072,191.314c0,0,50.224-3.348,118.864,33.483C181.936,224.8,170.217,303.481,232.16,355.379Z" transform="translate(-9.5 -107.607)"/>
  <path class="cls-3" d="M197,169.55s-8.371,16.741-13.393,43.528c0,0-18.416-11.719-51.9-21.764,0,0,0-40.179,6.7-58.595C138.409,132.719,155.15,137.741,197,169.55Z" transform="translate(-9.5 -107.607)"/>
  <path class="cls-4" d="M245.553,353.705s-55.247-40.179-53.572-120.538C191.981,233.167,245.553,261.628,245.553,353.705Z" transform="translate(-9.5 -107.607)"/>
  <path class="cls-5" d="M247.228,107.607V286.74s-10.045-33.483-53.572-66.966C193.655,219.774,203.7,159.505,247.228,107.607Z" transform="translate(-9.5 -107.607)"/>
  <path class="cls-6" d="M495,290.088S402.922,429.041,279.036,367.1c0,0,107.145,3.348,149-97.1C428.034,270,464.866,273.347,495,290.088Z" transform="translate(-9.5 -107.607)"/>
  <path class="cls-7" d="M441.428,191.314C401.248,382.166,272.34,355.379,272.34,355.379c61.943-51.9,50.224-130.583,50.224-130.583C391.2,187.966,441.428,191.314,441.428,191.314Z" transform="translate(-9.5 -107.607)"/>
  <path class="cls-8" d="M372.788,191.314c-33.483,10.045-51.9,21.764-51.9,21.764C315.867,186.291,307.5,169.55,307.5,169.55c41.853-31.809,58.595-36.831,58.595-36.831C372.788,151.134,372.788,191.314,372.788,191.314Z" transform="translate(-9.5 -107.607)"/>
  <path class="cls-9" d="M312.519,233.167c1.674,80.359-53.572,120.538-53.572,120.538C258.947,261.628,312.519,233.167,312.519,233.167Z" transform="translate(-9.5 -107.607)"/>
  <path class="cls-10" d="M310.845,219.774c-43.528,33.483-53.572,66.966-53.572,66.966V107.607C300.8,159.505,310.845,219.774,310.845,219.774Z" transform="translate(-9.5 -107.607)"/>
</svg>
